<?xml version="1.0" encoding="UTF-8" standalone="no"?>
<svg width="1024px" height="500px" viewBox="0 0 1024 500" version="1.1" xmlns="http://www.w3.org/2000/svg" xmlns:xlink="http://www.w3.org/1999/xlink">
    <!-- Generator: Sketch 41.1 (35376) - http://www.bohemiancoding.com/sketch -->
    <title>background-footer-cta</title>
    <desc>Created with Sketch.</desc>
    <defs>
        <ellipse id="path-1" cx="121.750156" cy="3.48623853" rx="3.50734751" ry="3.48623853"></ellipse>
        <mask id="mask-2" maskContentUnits="userSpaceOnUse" maskUnits="objectBoundingBox" x="0" y="0" width="7.01469502" height="6.97247706" fill="white">
            <use xlink:href="#path-1"></use>
        </mask>
        <ellipse id="path-3" cx="13.1254345" cy="20.0458716" rx="2.63051063" ry="2.6146789"></ellipse>
        <mask id="mask-4" maskContentUnits="userSpaceOnUse" maskUnits="objectBoundingBox" x="0" y="0" width="5.26102126" height="5.2293578" fill="white">
            <use xlink:href="#path-3"></use>
        </mask>
        <ellipse id="path-5" cx="122.757163" cy="38.5229358" rx="2.63051063" ry="2.6146789"></ellipse>
        <mask id="mask-6" maskContentUnits="userSpaceOnUse" maskUnits="objectBoundingBox" x="0" y="0" width="5.26102126" height="5.2293578" fill="white">
            <use xlink:href="#path-5"></use>
        </mask>
        <ellipse id="path-7" cx="134.866551" cy="23.5321101" rx="2.63051063" ry="2.6146789"></ellipse>
        <mask id="mask-8" maskContentUnits="userSpaceOnUse" maskUnits="objectBoundingBox" x="0" y="0" width="5.26102126" height="5.2293578" fill="white">
            <use xlink:href="#path-7"></use>
        </mask>
        <ellipse id="path-9" cx="121.750156" cy="3.48623853" rx="3.50734751" ry="3.48623853"></ellipse>
        <mask id="mask-10" maskContentUnits="userSpaceOnUse" maskUnits="objectBoundingBox" x="0" y="0" width="7.01469502" height="6.97247706" fill="white">
            <use xlink:href="#path-9"></use>
        </mask>
        <ellipse id="path-11" cx="13.1254345" cy="20.0458716" rx="2.63051063" ry="2.6146789"></ellipse>
        <mask id="mask-12" maskContentUnits="userSpaceOnUse" maskUnits="objectBoundingBox" x="0" y="0" width="5.26102126" height="5.2293578" fill="white">
            <use xlink:href="#path-11"></use>
        </mask>
        <ellipse id="path-13" cx="122.757163" cy="38.5229358" rx="2.63051063" ry="2.6146789"></ellipse>
        <mask id="mask-14" maskContentUnits="userSpaceOnUse" maskUnits="objectBoundingBox" x="0" y="0" width="5.26102126" height="5.2293578" fill="white">
            <use xlink:href="#path-13"></use>
        </mask>
        <ellipse id="path-15" cx="134.866551" cy="23.5321101" rx="2.63051063" ry="2.6146789"></ellipse>
        <mask id="mask-16" maskContentUnits="userSpaceOnUse" maskUnits="objectBoundingBox" x="0" y="0" width="5.26102126" height="5.2293578" fill="white">
            <use xlink:href="#path-15"></use>
        </mask>
        <ellipse id="path-17" cx="3.50734751" cy="57.3486239" rx="3.50734751" ry="3.48623853"></ellipse>
        <mask id="mask-18" maskContentUnits="userSpaceOnUse" maskUnits="objectBoundingBox" x="0" y="0" width="7.01469502" height="6.97247706" fill="white">
            <use xlink:href="#path-17"></use>
        </mask>
        <ellipse id="path-19" cx="76.2721529" cy="51.5963303" rx="3.50734751" ry="3.48623853"></ellipse>
        <mask id="mask-20" maskContentUnits="userSpaceOnUse" maskUnits="objectBoundingBox" x="0" y="0" width="7.01469502" height="6.97247706" fill="white">
            <use xlink:href="#path-19"></use>
        </mask>
        <ellipse id="path-21" cx="122.757163" cy="38.5229358" rx="2.63051063" ry="2.6146789"></ellipse>
        <mask id="mask-22" maskContentUnits="userSpaceOnUse" maskUnits="objectBoundingBox" x="0" y="0" width="5.26102126" height="5.2293578" fill="white">
            <use xlink:href="#path-21"></use>
        </mask>
        <ellipse id="path-23" cx="3.50734751" cy="57.3486239" rx="3.50734751" ry="3.48623853"></ellipse>
        <mask id="mask-24" maskContentUnits="userSpaceOnUse" maskUnits="objectBoundingBox" x="0" y="0" width="7.01469502" height="6.97247706" fill="white">
            <use xlink:href="#path-23"></use>
        </mask>
        <ellipse id="path-25" cx="76.2721529" cy="51.5963303" rx="3.50734751" ry="3.48623853"></ellipse>
        <mask id="mask-26" maskContentUnits="userSpaceOnUse" maskUnits="objectBoundingBox" x="0" y="0" width="7.01469502" height="6.97247706" fill="white">
            <use xlink:href="#path-25"></use>
        </mask>
        <ellipse id="path-27" cx="122.757163" cy="38.5229358" rx="2.63051063" ry="2.6146789"></ellipse>
        <mask id="mask-28" maskContentUnits="userSpaceOnUse" maskUnits="objectBoundingBox" x="0" y="0" width="5.26102126" height="5.2293578" fill="white">
            <use xlink:href="#path-27"></use>
        </mask>
        <ellipse id="path-29" cx="121.750156" cy="3.48623853" rx="3.50734751" ry="3.48623853"></ellipse>
        <mask id="mask-30" maskContentUnits="userSpaceOnUse" maskUnits="objectBoundingBox" x="0" y="0" width="7.01469502" height="6.97247706" fill="white">
            <use xlink:href="#path-29"></use>
        </mask>
        <ellipse id="path-31" cx="13.1254345" cy="20.0458716" rx="2.63051063" ry="2.6146789"></ellipse>
        <mask id="mask-32" maskContentUnits="userSpaceOnUse" maskUnits="objectBoundingBox" x="0" y="0" width="5.26102126" height="5.2293578" fill="white">
            <use xlink:href="#path-31"></use>
        </mask>
        <ellipse id="path-33" cx="122.757163" cy="38.5229358" rx="2.63051063" ry="2.6146789"></ellipse>
        <mask id="mask-34" maskContentUnits="userSpaceOnUse" maskUnits="objectBoundingBox" x="0" y="0" width="5.26102126" height="5.2293578" fill="white">
            <use xlink:href="#path-33"></use>
        </mask>
        <ellipse id="path-35" cx="134.866551" cy="23.5321101" rx="2.63051063" ry="2.6146789"></ellipse>
        <mask id="mask-36" maskContentUnits="userSpaceOnUse" maskUnits="objectBoundingBox" x="0" y="0" width="5.26102126" height="5.2293578" fill="white">
            <use xlink:href="#path-35"></use>
        </mask>
        <ellipse id="path-37" cx="13.1254345" cy="20.0458716" rx="2.63051063" ry="2.6146789"></ellipse>
        <mask id="mask-38" maskContentUnits="userSpaceOnUse" maskUnits="objectBoundingBox" x="0" y="0" width="5.26102126" height="5.2293578" fill="white">
            <use xlink:href="#path-37"></use>
        </mask>
        <ellipse id="path-39" cx="3.50734751" cy="57.3486239" rx="3.50734751" ry="3.48623853"></ellipse>
        <mask id="mask-40" maskContentUnits="userSpaceOnUse" maskUnits="objectBoundingBox" x="0" y="0" width="7.01469502" height="6.97247706" fill="white">
            <use xlink:href="#path-39"></use>
        </mask>
        <ellipse id="path-41" cx="76.2721529" cy="51.5963303" rx="3.50734751" ry="3.48623853"></ellipse>
        <mask id="mask-42" maskContentUnits="userSpaceOnUse" maskUnits="objectBoundingBox" x="0" y="0" width="7.01469502" height="6.97247706" fill="white">
            <use xlink:href="#path-41"></use>
        </mask>
        <ellipse id="path-43" cx="122.757163" cy="38.5229358" rx="2.63051063" ry="2.6146789"></ellipse>
        <mask id="mask-44" maskContentUnits="userSpaceOnUse" maskUnits="objectBoundingBox" x="0" y="0" width="5.26102126" height="5.2293578" fill="white">
            <use xlink:href="#path-43"></use>
        </mask>
        <ellipse id="path-45" cx="3.50734751" cy="57.3486239" rx="3.50734751" ry="3.48623853"></ellipse>
        <mask id="mask-46" maskContentUnits="userSpaceOnUse" maskUnits="objectBoundingBox" x="0" y="0" width="7.01469502" height="6.97247706" fill="white">
            <use xlink:href="#path-45"></use>
        </mask>
        <ellipse id="path-47" cx="76.2721529" cy="51.5963303" rx="3.50734751" ry="3.48623853"></ellipse>
        <mask id="mask-48" maskContentUnits="userSpaceOnUse" maskUnits="objectBoundingBox" x="0" y="0" width="7.01469502" height="6.97247706" fill="white">
            <use xlink:href="#path-47"></use>
        </mask>
        <ellipse id="path-49" cx="122.757163" cy="38.5229358" rx="2.63051063" ry="2.6146789"></ellipse>
        <mask id="mask-50" maskContentUnits="userSpaceOnUse" maskUnits="objectBoundingBox" x="0" y="0" width="5.26102126" height="5.2293578" fill="white">
            <use xlink:href="#path-49"></use>
        </mask>
    </defs>
    <g id="Illustrations" stroke="none" stroke-width="1" fill="none" fill-rule="evenodd">
        <g id="background-footer-cta">
            <g id="background-shapes" transform="translate(0.000000, 453.000000)">
                <g id="background-shapes-copy">
                    <use id="Oval-14-Copy-4" stroke="#D3D2D7" mask="url(#mask-2)" stroke-width="3.5" fill="#F4F4F5" xlink:href="#path-1"></use>
                    <use id="Oval-14-Copy" stroke="#D3D2D7" mask="url(#mask-4)" stroke-width="3.5" fill="#F4F4F5" xlink:href="#path-3"></use>
                    <use id="Oval-14-Copy-5" stroke="#D3D2D7" mask="url(#mask-6)" stroke-width="3.5" fill="#F4F4F5" xlink:href="#path-5"></use>
                    <use id="Oval-14-Copy-2" stroke="#5C38E3" mask="url(#mask-8)" stroke-width="3.5" fill="#F4F4F5" xlink:href="#path-7"></use>
                    <path d="M93.4760368,26.0246499 L93.4760368,24.4613697 C93.4760368,23.8329075 92.9656916,23.3296754 92.3361489,23.3296754 C91.7022171,23.3296754 91.1962609,23.8363522 91.1962609,24.4613697 L91.1962609,26.0246499 L89.6329808,26.0246499 C89.0045186,26.0246499 88.5012865,26.5349951 88.5012865,27.1645378 C88.5012865,27.7984696 89.0079633,28.3044258 89.6329808,28.3044258 L91.1962609,28.3044258 L91.1962609,29.8677059 C91.1962609,30.4961681 91.7066062,30.9994002 92.3361489,30.9994002 C92.9700807,30.9994002 93.4760368,30.4927234 93.4760368,29.8677059 L93.4760368,28.3044258 L95.039317,28.3044258 C95.6677792,28.3044258 96.1710113,27.7940805 96.1710113,27.1645378 C96.1710113,26.530606 95.6643345,26.0246499 95.039317,26.0246499 L93.4760368,26.0246499 Z" id="Combined-Shape" fill="#D8D8D8" transform="translate(92.336149, 27.164538) rotate(5.000000) translate(-92.336149, -27.164538) "></path>
                    <path d="M68.956886,8.28154226 L68.956886,7.00249487 C68.956886,6.48829849 68.5393308,6.07656316 68.0242504,6.07656316 C67.5055789,6.07656316 67.0916148,6.49111691 67.0916148,7.00249487 L67.0916148,8.28154226 L65.8125674,8.28154226 C65.298371,8.28154226 64.8866357,8.69909743 64.8866357,9.21417784 C64.8866357,9.7328493 65.3011894,10.1468134 65.8125674,10.1468134 L67.0916148,10.1468134 L67.0916148,11.4258608 C67.0916148,11.9400572 67.50917,12.3517925 68.0242504,12.3517925 C68.5429218,12.3517925 68.956886,11.9372388 68.956886,11.4258608 L68.956886,10.1468134 L70.2359333,10.1468134 C70.7501297,10.1468134 71.161865,9.72925825 71.161865,9.21417784 C71.161865,8.69550638 70.7473113,8.28154226 70.2359333,8.28154226 L68.956886,8.28154226 Z" id="Combined-Shape-Copy-2" fill="#5C38E3" transform="translate(68.024250, 9.214178) rotate(10.000000) translate(-68.024250, -9.214178) "></path>
                    <path d="M41.3581266,33.7705572 L41.3581266,32.4915098 C41.3581266,31.9773135 40.9405714,31.5655781 40.425491,31.5655781 C39.9068196,31.5655781 39.4928554,31.9801319 39.4928554,32.4915098 L39.4928554,33.7705572 L38.2138081,33.7705572 C37.6996117,33.7705572 37.2878764,34.1881124 37.2878764,34.7031928 C37.2878764,35.2218643 37.7024301,35.6358284 38.2138081,35.6358284 L39.4928554,35.6358284 L39.4928554,36.9148758 C39.4928554,37.4290722 39.9104106,37.8408075 40.425491,37.8408075 C40.9441625,37.8408075 41.3581266,37.4262537 41.3581266,36.9148758 L41.3581266,35.6358284 L42.637174,35.6358284 C43.1513704,35.6358284 43.5631057,35.2182732 43.5631057,34.7031928 C43.5631057,34.1845213 43.148552,33.7705572 42.637174,33.7705572 L41.3581266,33.7705572 Z" id="Combined-Shape-Copy-4" fill="#5C38E3" transform="translate(40.425491, 34.703193) rotate(-20.000000) translate(-40.425491, -34.703193) "></path>
                </g>
                <g id="background-shapes-copy-4" transform="translate(414.000000, 0.000000)">
                    <use id="Oval-14-Copy-4" stroke="#D3D2D7" mask="url(#mask-10)" stroke-width="3.5" fill="#F4F4F5" xlink:href="#path-9"></use>
                    <use id="Oval-14-Copy" stroke="#D3D2D7" mask="url(#mask-12)" stroke-width="3.5" fill="#F4F4F5" xlink:href="#path-11"></use>
                    <use id="Oval-14-Copy-5" stroke="#D3D2D7" mask="url(#mask-14)" stroke-width="3.5" fill="#F4F4F5" xlink:href="#path-13"></use>
                    <use id="Oval-14-Copy-2" stroke="#5C38E3" mask="url(#mask-16)" stroke-width="3.5" fill="#F4F4F5" xlink:href="#path-15"></use>
                    <path d="M93.4760368,26.0246499 L93.4760368,24.4613697 C93.4760368,23.8329075 92.9656916,23.3296754 92.3361489,23.3296754 C91.7022171,23.3296754 91.1962609,23.8363522 91.1962609,24.4613697 L91.1962609,26.0246499 L89.6329808,26.0246499 C89.0045186,26.0246499 88.5012865,26.5349951 88.5012865,27.1645378 C88.5012865,27.7984696 89.0079633,28.3044258 89.6329808,28.3044258 L91.1962609,28.3044258 L91.1962609,29.8677059 C91.1962609,30.4961681 91.7066062,30.9994002 92.3361489,30.9994002 C92.9700807,30.9994002 93.4760368,30.4927234 93.4760368,29.8677059 L93.4760368,28.3044258 L95.039317,28.3044258 C95.6677792,28.3044258 96.1710113,27.7940805 96.1710113,27.1645378 C96.1710113,26.530606 95.6643345,26.0246499 95.039317,26.0246499 L93.4760368,26.0246499 Z" id="Combined-Shape" fill="#D8D8D8" transform="translate(92.336149, 27.164538) rotate(5.000000) translate(-92.336149, -27.164538) "></path>
                    <path d="M68.956886,8.28154226 L68.956886,7.00249487 C68.956886,6.48829849 68.5393308,6.07656316 68.0242504,6.07656316 C67.5055789,6.07656316 67.0916148,6.49111691 67.0916148,7.00249487 L67.0916148,8.28154226 L65.8125674,8.28154226 C65.298371,8.28154226 64.8866357,8.69909743 64.8866357,9.21417784 C64.8866357,9.7328493 65.3011894,10.1468134 65.8125674,10.1468134 L67.0916148,10.1468134 L67.0916148,11.4258608 C67.0916148,11.9400572 67.50917,12.3517925 68.0242504,12.3517925 C68.5429218,12.3517925 68.956886,11.9372388 68.956886,11.4258608 L68.956886,10.1468134 L70.2359333,10.1468134 C70.7501297,10.1468134 71.161865,9.72925825 71.161865,9.21417784 C71.161865,8.69550638 70.7473113,8.28154226 70.2359333,8.28154226 L68.956886,8.28154226 Z" id="Combined-Shape-Copy-2" fill="#5C38E3" transform="translate(68.024250, 9.214178) rotate(10.000000) translate(-68.024250, -9.214178) "></path>
                    <path d="M41.3581266,33.7705572 L41.3581266,32.4915098 C41.3581266,31.9773135 40.9405714,31.5655781 40.425491,31.5655781 C39.9068196,31.5655781 39.4928554,31.9801319 39.4928554,32.4915098 L39.4928554,33.7705572 L38.2138081,33.7705572 C37.6996117,33.7705572 37.2878764,34.1881124 37.2878764,34.7031928 C37.2878764,35.2218643 37.7024301,35.6358284 38.2138081,35.6358284 L39.4928554,35.6358284 L39.4928554,36.9148758 C39.4928554,37.4290722 39.9104106,37.8408075 40.425491,37.8408075 C40.9441625,37.8408075 41.3581266,37.4262537 41.3581266,36.9148758 L41.3581266,35.6358284 L42.637174,35.6358284 C43.1513704,35.6358284 43.5631057,35.2182732 43.5631057,34.7031928 C43.5631057,34.1845213 43.148552,33.7705572 42.637174,33.7705572 L41.3581266,33.7705572 Z" id="Combined-Shape-Copy-4" fill="#5C38E3" transform="translate(40.425491, 34.703193) rotate(-20.000000) translate(-40.425491, -34.703193) "></path>
                </g>
                <g id="background-shapes-copy-2" transform="translate(207.000000, 38.000000) rotate(180.000000) translate(-207.000000, -38.000000) translate(138.000000, 0.000000)">
                    <use id="Oval-14" stroke="#5C38E3" mask="url(#mask-18)" stroke-width="3.5" fill="#F4F4F5" xlink:href="#path-17"></use>
                    <use id="Oval-14-Copy-3" stroke="#D3D2D7" mask="url(#mask-20)" stroke-width="3.5" fill="#F4F4F5" xlink:href="#path-19"></use>
                    <use id="Oval-14-Copy-5" stroke="#D3D2D7" mask="url(#mask-22)" stroke-width="3.5" fill="#F4F4F5" xlink:href="#path-21"></use>
                    <path d="M93.4760368,26.0246499 L93.4760368,24.4613697 C93.4760368,23.8329075 92.9656916,23.3296754 92.3361489,23.3296754 C91.7022171,23.3296754 91.1962609,23.8363522 91.1962609,24.4613697 L91.1962609,26.0246499 L89.6329808,26.0246499 C89.0045186,26.0246499 88.5012865,26.5349951 88.5012865,27.1645378 C88.5012865,27.7984696 89.0079633,28.3044258 89.6329808,28.3044258 L91.1962609,28.3044258 L91.1962609,29.8677059 C91.1962609,30.4961681 91.7066062,30.9994002 92.3361489,30.9994002 C92.9700807,30.9994002 93.4760368,30.4927234 93.4760368,29.8677059 L93.4760368,28.3044258 L95.039317,28.3044258 C95.6677792,28.3044258 96.1710113,27.7940805 96.1710113,27.1645378 C96.1710113,26.530606 95.6643345,26.0246499 95.039317,26.0246499 L93.4760368,26.0246499 Z" id="Combined-Shape" fill="#D8D8D8" transform="translate(92.336149, 27.164538) rotate(5.000000) translate(-92.336149, -27.164538) "></path>
                    <path d="M110.936581,65.4558542 L110.936581,64.1768068 C110.936581,63.6626104 110.519026,63.2508751 110.003946,63.2508751 C109.485274,63.2508751 109.07131,63.6654288 109.07131,64.1768068 L109.07131,65.4558542 L107.792263,65.4558542 C107.278066,65.4558542 106.866331,65.8734094 106.866331,66.3884898 C106.866331,66.9071612 107.280885,67.3211254 107.792263,67.3211254 L109.07131,67.3211254 L109.07131,68.6001727 C109.07131,69.1143691 109.488865,69.5261044 110.003946,69.5261044 C110.522617,69.5261044 110.936581,69.1115507 110.936581,68.6001727 L110.936581,67.3211254 L112.215629,67.3211254 C112.729825,67.3211254 113.14156,66.9035702 113.14156,66.3884898 C113.14156,65.8698183 112.727007,65.4558542 112.215629,65.4558542 L110.936581,65.4558542 Z" id="Combined-Shape-Copy" fill="#5C38E3" transform="translate(110.003946, 66.388490) rotate(10.000000) translate(-110.003946, -66.388490) "></path>
                    <path d="M38.3803316,70.5452678 L38.3803316,69.2662204 C38.3803316,68.752024 37.9627764,68.3402887 37.447696,68.3402887 C36.9290245,68.3402887 36.5150604,68.7548425 36.5150604,69.2662204 L36.5150604,70.5452678 L35.236013,70.5452678 C34.7218166,70.5452678 34.3100813,70.962823 34.3100813,71.4779034 C34.3100813,71.9965749 34.724635,72.410539 35.236013,72.410539 L36.5150604,72.410539 L36.5150604,73.6895864 C36.5150604,74.2037827 36.9326156,74.6155181 37.447696,74.6155181 C37.9663674,74.6155181 38.3803316,74.2009643 38.3803316,73.6895864 L38.3803316,72.410539 L39.659379,72.410539 C40.1735753,72.410539 40.5853107,71.9929838 40.5853107,71.4779034 C40.5853107,70.9592319 40.1707569,70.5452678 39.659379,70.5452678 L38.3803316,70.5452678 Z" id="Combined-Shape-Copy-3" fill="#D8D8D8" transform="translate(37.447696, 71.477903) rotate(-15.000000) translate(-37.447696, -71.477903) "></path>
                    <path d="M41.3581266,33.7705572 L41.3581266,32.4915098 C41.3581266,31.9773135 40.9405714,31.5655781 40.425491,31.5655781 C39.9068196,31.5655781 39.4928554,31.9801319 39.4928554,32.4915098 L39.4928554,33.7705572 L38.2138081,33.7705572 C37.6996117,33.7705572 37.2878764,34.1881124 37.2878764,34.7031928 C37.2878764,35.2218643 37.7024301,35.6358284 38.2138081,35.6358284 L39.4928554,35.6358284 L39.4928554,36.9148758 C39.4928554,37.4290722 39.9104106,37.8408075 40.425491,37.8408075 C40.9441625,37.8408075 41.3581266,37.4262537 41.3581266,36.9148758 L41.3581266,35.6358284 L42.637174,35.6358284 C43.1513704,35.6358284 43.5631057,35.2182732 43.5631057,34.7031928 C43.5631057,34.1845213 43.148552,33.7705572 42.637174,33.7705572 L41.3581266,33.7705572 Z" id="Combined-Shape-Copy-4" fill="#5C38E3" transform="translate(40.425491, 34.703193) rotate(-20.000000) translate(-40.425491, -34.703193) "></path>
                </g>
                <g id="background-shapes-copy-3" transform="translate(345.000000, 38.000000) rotate(180.000000) translate(-345.000000, -38.000000) translate(276.000000, 0.000000)">
                    <use id="Oval-14" stroke="#5C38E3" mask="url(#mask-24)" stroke-width="3.5" fill="#F4F4F5" xlink:href="#path-23"></use>
                    <use id="Oval-14-Copy-3" stroke="#D3D2D7" mask="url(#mask-26)" stroke-width="3.5" fill="#F4F4F5" xlink:href="#path-25"></use>
                    <use id="Oval-14-Copy-5" stroke="#D3D2D7" mask="url(#mask-28)" stroke-width="3.5" fill="#F4F4F5" xlink:href="#path-27"></use>
                    <path d="M93.4760368,26.0246499 L93.4760368,24.4613697 C93.4760368,23.8329075 92.9656916,23.3296754 92.3361489,23.3296754 C91.7022171,23.3296754 91.1962609,23.8363522 91.1962609,24.4613697 L91.1962609,26.0246499 L89.6329808,26.0246499 C89.0045186,26.0246499 88.5012865,26.5349951 88.5012865,27.1645378 C88.5012865,27.7984696 89.0079633,28.3044258 89.6329808,28.3044258 L91.1962609,28.3044258 L91.1962609,29.8677059 C91.1962609,30.4961681 91.7066062,30.9994002 92.3361489,30.9994002 C92.9700807,30.9994002 93.4760368,30.4927234 93.4760368,29.8677059 L93.4760368,28.3044258 L95.039317,28.3044258 C95.6677792,28.3044258 96.1710113,27.7940805 96.1710113,27.1645378 C96.1710113,26.530606 95.6643345,26.0246499 95.039317,26.0246499 L93.4760368,26.0246499 Z" id="Combined-Shape" fill="#D8D8D8" transform="translate(92.336149, 27.164538) rotate(5.000000) translate(-92.336149, -27.164538) "></path>
                    <path d="M110.936581,65.4558542 L110.936581,64.1768068 C110.936581,63.6626104 110.519026,63.2508751 110.003946,63.2508751 C109.485274,63.2508751 109.07131,63.6654288 109.07131,64.1768068 L109.07131,65.4558542 L107.792263,65.4558542 C107.278066,65.4558542 106.866331,65.8734094 106.866331,66.3884898 C106.866331,66.9071612 107.280885,67.3211254 107.792263,67.3211254 L109.07131,67.3211254 L109.07131,68.6001727 C109.07131,69.1143691 109.488865,69.5261044 110.003946,69.5261044 C110.522617,69.5261044 110.936581,69.1115507 110.936581,68.6001727 L110.936581,67.3211254 L112.215629,67.3211254 C112.729825,67.3211254 113.14156,66.9035702 113.14156,66.3884898 C113.14156,65.8698183 112.727007,65.4558542 112.215629,65.4558542 L110.936581,65.4558542 Z" id="Combined-Shape-Copy" fill="#5C38E3" transform="translate(110.003946, 66.388490) rotate(10.000000) translate(-110.003946, -66.388490) "></path>
                    <path d="M38.3803316,70.5452678 L38.3803316,69.2662204 C38.3803316,68.752024 37.9627764,68.3402887 37.447696,68.3402887 C36.9290245,68.3402887 36.5150604,68.7548425 36.5150604,69.2662204 L36.5150604,70.5452678 L35.236013,70.5452678 C34.7218166,70.5452678 34.3100813,70.962823 34.3100813,71.4779034 C34.3100813,71.9965749 34.724635,72.410539 35.236013,72.410539 L36.5150604,72.410539 L36.5150604,73.6895864 C36.5150604,74.2037827 36.9326156,74.6155181 37.447696,74.6155181 C37.9663674,74.6155181 38.3803316,74.2009643 38.3803316,73.6895864 L38.3803316,72.410539 L39.659379,72.410539 C40.1735753,72.410539 40.5853107,71.9929838 40.5853107,71.4779034 C40.5853107,70.9592319 40.1707569,70.5452678 39.659379,70.5452678 L38.3803316,70.5452678 Z" id="Combined-Shape-Copy-3" fill="#D8D8D8" transform="translate(37.447696, 71.477903) rotate(-15.000000) translate(-37.447696, -71.477903) "></path>
                    <path d="M41.3581266,33.7705572 L41.3581266,32.4915098 C41.3581266,31.9773135 40.9405714,31.5655781 40.425491,31.5655781 C39.9068196,31.5655781 39.4928554,31.9801319 39.4928554,32.4915098 L39.4928554,33.7705572 L38.2138081,33.7705572 C37.6996117,33.7705572 37.2878764,34.1881124 37.2878764,34.7031928 C37.2878764,35.2218643 37.7024301,35.6358284 38.2138081,35.6358284 L39.4928554,35.6358284 L39.4928554,36.9148758 C39.4928554,37.4290722 39.9104106,37.8408075 40.425491,37.8408075 C40.9441625,37.8408075 41.3581266,37.4262537 41.3581266,36.9148758 L41.3581266,35.6358284 L42.637174,35.6358284 C43.1513704,35.6358284 43.5631057,35.2182732 43.5631057,34.7031928 C43.5631057,34.1845213 43.148552,33.7705572 42.637174,33.7705572 L41.3581266,33.7705572 Z" id="Combined-Shape-Copy-4" fill="#5C38E3" transform="translate(40.425491, 34.703193) rotate(-20.000000) translate(-40.425491, -34.703193) "></path>
                </g>
            </g>
            <g id="background-shapes-copy-5" transform="translate(552.000000, 453.000000)">
                <g id="background-shapes-copy">
                    <use id="Oval-14-Copy-4" stroke="#D3D2D7" mask="url(#mask-30)" stroke-width="3.5" fill="#F4F4F5" xlink:href="#path-29"></use>
                    <use id="Oval-14-Copy" stroke="#D3D2D7" mask="url(#mask-32)" stroke-width="3.5" fill="#F4F4F5" xlink:href="#path-31"></use>
                    <use id="Oval-14-Copy-5" stroke="#D3D2D7" mask="url(#mask-34)" stroke-width="3.5" fill="#F4F4F5" xlink:href="#path-33"></use>
                    <use id="Oval-14-Copy-2" stroke="#5C38E3" mask="url(#mask-36)" stroke-width="3.5" fill="#F4F4F5" xlink:href="#path-35"></use>
                    <path d="M93.4760368,26.0246499 L93.4760368,24.4613697 C93.4760368,23.8329075 92.9656916,23.3296754 92.3361489,23.3296754 C91.7022171,23.3296754 91.1962609,23.8363522 91.1962609,24.4613697 L91.1962609,26.0246499 L89.6329808,26.0246499 C89.0045186,26.0246499 88.5012865,26.5349951 88.5012865,27.1645378 C88.5012865,27.7984696 89.0079633,28.3044258 89.6329808,28.3044258 L91.1962609,28.3044258 L91.1962609,29.8677059 C91.1962609,30.4961681 91.7066062,30.9994002 92.3361489,30.9994002 C92.9700807,30.9994002 93.4760368,30.4927234 93.4760368,29.8677059 L93.4760368,28.3044258 L95.039317,28.3044258 C95.6677792,28.3044258 96.1710113,27.7940805 96.1710113,27.1645378 C96.1710113,26.530606 95.6643345,26.0246499 95.039317,26.0246499 L93.4760368,26.0246499 Z" id="Combined-Shape" fill="#D8D8D8" transform="translate(92.336149, 27.164538) rotate(5.000000) translate(-92.336149, -27.164538) "></path>
                    <path d="M68.956886,8.28154226 L68.956886,7.00249487 C68.956886,6.48829849 68.5393308,6.07656316 68.0242504,6.07656316 C67.5055789,6.07656316 67.0916148,6.49111691 67.0916148,7.00249487 L67.0916148,8.28154226 L65.8125674,8.28154226 C65.298371,8.28154226 64.8866357,8.69909743 64.8866357,9.21417784 C64.8866357,9.7328493 65.3011894,10.1468134 65.8125674,10.1468134 L67.0916148,10.1468134 L67.0916148,11.4258608 C67.0916148,11.9400572 67.50917,12.3517925 68.0242504,12.3517925 C68.5429218,12.3517925 68.956886,11.9372388 68.956886,11.4258608 L68.956886,10.1468134 L70.2359333,10.1468134 C70.7501297,10.1468134 71.161865,9.72925825 71.161865,9.21417784 C71.161865,8.69550638 70.7473113,8.28154226 70.2359333,8.28154226 L68.956886,8.28154226 Z" id="Combined-Shape-Copy-2" fill="#5C38E3" transform="translate(68.024250, 9.214178) rotate(10.000000) translate(-68.024250, -9.214178) "></path>
                    <path d="M41.3581266,33.7705572 L41.3581266,32.4915098 C41.3581266,31.9773135 40.9405714,31.5655781 40.425491,31.5655781 C39.9068196,31.5655781 39.4928554,31.9801319 39.4928554,32.4915098 L39.4928554,33.7705572 L38.2138081,33.7705572 C37.6996117,33.7705572 37.2878764,34.1881124 37.2878764,34.7031928 C37.2878764,35.2218643 37.7024301,35.6358284 38.2138081,35.6358284 L39.4928554,35.6358284 L39.4928554,36.9148758 C39.4928554,37.4290722 39.9104106,37.8408075 40.425491,37.8408075 C40.9441625,37.8408075 41.3581266,37.4262537 41.3581266,36.9148758 L41.3581266,35.6358284 L42.637174,35.6358284 C43.1513704,35.6358284 43.5631057,35.2182732 43.5631057,34.7031928 C43.5631057,34.1845213 43.148552,33.7705572 42.637174,33.7705572 L41.3581266,33.7705572 Z" id="Combined-Shape-Copy-4" fill="#5C38E3" transform="translate(40.425491, 34.703193) rotate(-20.000000) translate(-40.425491, -34.703193) "></path>
                </g>
                <g id="background-shapes-copy-4" transform="translate(414.000000, 0.000000)">
                    <use id="Oval-14-Copy" stroke="#D3D2D7" mask="url(#mask-38)" stroke-width="3.5" fill="#F4F4F5" xlink:href="#path-37"></use>
                    <path d="M41.3581266,33.7705572 L41.3581266,32.4915098 C41.3581266,31.9773135 40.9405714,31.5655781 40.425491,31.5655781 C39.9068196,31.5655781 39.4928554,31.9801319 39.4928554,32.4915098 L39.4928554,33.7705572 L38.2138081,33.7705572 C37.6996117,33.7705572 37.2878764,34.1881124 37.2878764,34.7031928 C37.2878764,35.2218643 37.7024301,35.6358284 38.2138081,35.6358284 L39.4928554,35.6358284 L39.4928554,36.9148758 C39.4928554,37.4290722 39.9104106,37.8408075 40.425491,37.8408075 C40.9441625,37.8408075 41.3581266,37.4262537 41.3581266,36.9148758 L41.3581266,35.6358284 L42.637174,35.6358284 C43.1513704,35.6358284 43.5631057,35.2182732 43.5631057,34.7031928 C43.5631057,34.1845213 43.148552,33.7705572 42.637174,33.7705572 L41.3581266,33.7705572 Z" id="Combined-Shape-Copy-4" fill="#5C38E3" transform="translate(40.425491, 34.703193) rotate(-20.000000) translate(-40.425491, -34.703193) "></path>
                </g>
                <g id="background-shapes-copy-2" transform="translate(207.000000, 38.000000) rotate(180.000000) translate(-207.000000, -38.000000) translate(138.000000, 0.000000)">
                    <use id="Oval-14" stroke="#5C38E3" mask="url(#mask-40)" stroke-width="3.5" fill="#F4F4F5" xlink:href="#path-39"></use>
                    <use id="Oval-14-Copy-3" stroke="#D3D2D7" mask="url(#mask-42)" stroke-width="3.5" fill="#F4F4F5" xlink:href="#path-41"></use>
                    <use id="Oval-14-Copy-5" stroke="#D3D2D7" mask="url(#mask-44)" stroke-width="3.5" fill="#F4F4F5" xlink:href="#path-43"></use>
                    <path d="M93.4760368,26.0246499 L93.4760368,24.4613697 C93.4760368,23.8329075 92.9656916,23.3296754 92.3361489,23.3296754 C91.7022171,23.3296754 91.1962609,23.8363522 91.1962609,24.4613697 L91.1962609,26.0246499 L89.6329808,26.0246499 C89.0045186,26.0246499 88.5012865,26.5349951 88.5012865,27.1645378 C88.5012865,27.7984696 89.0079633,28.3044258 89.6329808,28.3044258 L91.1962609,28.3044258 L91.1962609,29.8677059 C91.1962609,30.4961681 91.7066062,30.9994002 92.3361489,30.9994002 C92.9700807,30.9994002 93.4760368,30.4927234 93.4760368,29.8677059 L93.4760368,28.3044258 L95.039317,28.3044258 C95.6677792,28.3044258 96.1710113,27.7940805 96.1710113,27.1645378 C96.1710113,26.530606 95.6643345,26.0246499 95.039317,26.0246499 L93.4760368,26.0246499 Z" id="Combined-Shape" fill="#D8D8D8" transform="translate(92.336149, 27.164538) rotate(5.000000) translate(-92.336149, -27.164538) "></path>
                    <path d="M110.936581,65.4558542 L110.936581,64.1768068 C110.936581,63.6626104 110.519026,63.2508751 110.003946,63.2508751 C109.485274,63.2508751 109.07131,63.6654288 109.07131,64.1768068 L109.07131,65.4558542 L107.792263,65.4558542 C107.278066,65.4558542 106.866331,65.8734094 106.866331,66.3884898 C106.866331,66.9071612 107.280885,67.3211254 107.792263,67.3211254 L109.07131,67.3211254 L109.07131,68.6001727 C109.07131,69.1143691 109.488865,69.5261044 110.003946,69.5261044 C110.522617,69.5261044 110.936581,69.1115507 110.936581,68.6001727 L110.936581,67.3211254 L112.215629,67.3211254 C112.729825,67.3211254 113.14156,66.9035702 113.14156,66.3884898 C113.14156,65.8698183 112.727007,65.4558542 112.215629,65.4558542 L110.936581,65.4558542 Z" id="Combined-Shape-Copy" fill="#5C38E3" transform="translate(110.003946, 66.388490) rotate(10.000000) translate(-110.003946, -66.388490) "></path>
                    <path d="M38.3803316,70.5452678 L38.3803316,69.2662204 C38.3803316,68.752024 37.9627764,68.3402887 37.447696,68.3402887 C36.9290245,68.3402887 36.5150604,68.7548425 36.5150604,69.2662204 L36.5150604,70.5452678 L35.236013,70.5452678 C34.7218166,70.5452678 34.3100813,70.962823 34.3100813,71.4779034 C34.3100813,71.9965749 34.724635,72.410539 35.236013,72.410539 L36.5150604,72.410539 L36.5150604,73.6895864 C36.5150604,74.2037827 36.9326156,74.6155181 37.447696,74.6155181 C37.9663674,74.6155181 38.3803316,74.2009643 38.3803316,73.6895864 L38.3803316,72.410539 L39.659379,72.410539 C40.1735753,72.410539 40.5853107,71.9929838 40.5853107,71.4779034 C40.5853107,70.9592319 40.1707569,70.5452678 39.659379,70.5452678 L38.3803316,70.5452678 Z" id="Combined-Shape-Copy-3" fill="#D8D8D8" transform="translate(37.447696, 71.477903) rotate(-15.000000) translate(-37.447696, -71.477903) "></path>
                    <path d="M41.3581266,33.7705572 L41.3581266,32.4915098 C41.3581266,31.9773135 40.9405714,31.5655781 40.425491,31.5655781 C39.9068196,31.5655781 39.4928554,31.9801319 39.4928554,32.4915098 L39.4928554,33.7705572 L38.2138081,33.7705572 C37.6996117,33.7705572 37.2878764,34.1881124 37.2878764,34.7031928 C37.2878764,35.2218643 37.7024301,35.6358284 38.2138081,35.6358284 L39.4928554,35.6358284 L39.4928554,36.9148758 C39.4928554,37.4290722 39.9104106,37.8408075 40.425491,37.8408075 C40.9441625,37.8408075 41.3581266,37.4262537 41.3581266,36.9148758 L41.3581266,35.6358284 L42.637174,35.6358284 C43.1513704,35.6358284 43.5631057,35.2182732 43.5631057,34.7031928 C43.5631057,34.1845213 43.148552,33.7705572 42.637174,33.7705572 L41.3581266,33.7705572 Z" id="Combined-Shape-Copy-4" fill="#5C38E3" transform="translate(40.425491, 34.703193) rotate(-20.000000) translate(-40.425491, -34.703193) "></path>
                </g>
                <g id="background-shapes-copy-3" transform="translate(345.000000, 38.000000) rotate(180.000000) translate(-345.000000, -38.000000) translate(276.000000, 0.000000)">
                    <use id="Oval-14" stroke="#5C38E3" mask="url(#mask-46)" stroke-width="3.5" fill="#F4F4F5" xlink:href="#path-45"></use>
                    <use id="Oval-14-Copy-3" stroke="#D3D2D7" mask="url(#mask-48)" stroke-width="3.5" fill="#F4F4F5" xlink:href="#path-47"></use>
                    <use id="Oval-14-Copy-5" stroke="#D3D2D7" mask="url(#mask-50)" stroke-width="3.5" fill="#F4F4F5" xlink:href="#path-49"></use>
                    <path d="M93.4760368,26.0246499 L93.4760368,24.4613697 C93.4760368,23.8329075 92.9656916,23.3296754 92.3361489,23.3296754 C91.7022171,23.3296754 91.1962609,23.8363522 91.1962609,24.4613697 L91.1962609,26.0246499 L89.6329808,26.0246499 C89.0045186,26.0246499 88.5012865,26.5349951 88.5012865,27.1645378 C88.5012865,27.7984696 89.0079633,28.3044258 89.6329808,28.3044258 L91.1962609,28.3044258 L91.1962609,29.8677059 C91.1962609,30.4961681 91.7066062,30.9994002 92.3361489,30.9994002 C92.9700807,30.9994002 93.4760368,30.4927234 93.4760368,29.8677059 L93.4760368,28.3044258 L95.039317,28.3044258 C95.6677792,28.3044258 96.1710113,27.7940805 96.1710113,27.1645378 C96.1710113,26.530606 95.6643345,26.0246499 95.039317,26.0246499 L93.4760368,26.0246499 Z" id="Combined-Shape" fill="#D8D8D8" transform="translate(92.336149, 27.164538) rotate(5.000000) translate(-92.336149, -27.164538) "></path>
                    <path d="M110.936581,65.4558542 L110.936581,64.1768068 C110.936581,63.6626104 110.519026,63.2508751 110.003946,63.2508751 C109.485274,63.2508751 109.07131,63.6654288 109.07131,64.1768068 L109.07131,65.4558542 L107.792263,65.4558542 C107.278066,65.4558542 106.866331,65.8734094 106.866331,66.3884898 C106.866331,66.9071612 107.280885,67.3211254 107.792263,67.3211254 L109.07131,67.3211254 L109.07131,68.6001727 C109.07131,69.1143691 109.488865,69.5261044 110.003946,69.5261044 C110.522617,69.5261044 110.936581,69.1115507 110.936581,68.6001727 L110.936581,67.3211254 L112.215629,67.3211254 C112.729825,67.3211254 113.14156,66.9035702 113.14156,66.3884898 C113.14156,65.8698183 112.727007,65.4558542 112.215629,65.4558542 L110.936581,65.4558542 Z" id="Combined-Shape-Copy" fill="#5C38E3" transform="translate(110.003946, 66.388490) rotate(10.000000) translate(-110.003946, -66.388490) "></path>
                    <path d="M38.3803316,70.5452678 L38.3803316,69.2662204 C38.3803316,68.752024 37.9627764,68.3402887 37.447696,68.3402887 C36.9290245,68.3402887 36.5150604,68.7548425 36.5150604,69.2662204 L36.5150604,70.5452678 L35.236013,70.5452678 C34.7218166,70.5452678 34.3100813,70.962823 34.3100813,71.4779034 C34.3100813,71.9965749 34.724635,72.410539 35.236013,72.410539 L36.5150604,72.410539 L36.5150604,73.6895864 C36.5150604,74.2037827 36.9326156,74.6155181 37.447696,74.6155181 C37.9663674,74.6155181 38.3803316,74.2009643 38.3803316,73.6895864 L38.3803316,72.410539 L39.659379,72.410539 C40.1735753,72.410539 40.5853107,71.9929838 40.5853107,71.4779034 C40.5853107,70.9592319 40.1707569,70.5452678 39.659379,70.5452678 L38.3803316,70.5452678 Z" id="Combined-Shape-Copy-3" fill="#D8D8D8" transform="translate(37.447696, 71.477903) rotate(-15.000000) translate(-37.447696, -71.477903) "></path>
                    <path d="M41.3581266,33.7705572 L41.3581266,32.4915098 C41.3581266,31.9773135 40.9405714,31.5655781 40.425491,31.5655781 C39.9068196,31.5655781 39.4928554,31.9801319 39.4928554,32.4915098 L39.4928554,33.7705572 L38.2138081,33.7705572 C37.6996117,33.7705572 37.2878764,34.1881124 37.2878764,34.7031928 C37.2878764,35.2218643 37.7024301,35.6358284 38.2138081,35.6358284 L39.4928554,35.6358284 L39.4928554,36.9148758 C39.4928554,37.4290722 39.9104106,37.8408075 40.425491,37.8408075 C40.9441625,37.8408075 41.3581266,37.4262537 41.3581266,36.9148758 L41.3581266,35.6358284 L42.637174,35.6358284 C43.1513704,35.6358284 43.5631057,35.2182732 43.5631057,34.7031928 C43.5631057,34.1845213 43.148552,33.7705572 42.637174,33.7705572 L41.3581266,33.7705572 Z" id="Combined-Shape-Copy-4" fill="#5C38E3" transform="translate(40.425491, 34.703193) rotate(-20.000000) translate(-40.425491, -34.703193) "></path>
                </g>
            </g>
        </g>
    </g>
</svg>