<?xml version="1.0" encoding="UTF-8" standalone="no"?>
<svg width="48px" height="95px" viewBox="0 0 48 95" version="1.1" xmlns="http://www.w3.org/2000/svg" xmlns:xlink="http://www.w3.org/1999/xlink">
    <!-- Generator: Sketch 46.2 (44496) - http://www.bohemiancoding.com/sketch -->
    <title>co-definition</title>
    <desc>Created with Sketch.</desc>
    <defs></defs>
    <g id="Website-v3" stroke="none" stroke-width="1" fill="none" fill-rule="evenodd">
        <g id="Landing-2-Copy-5" transform="translate(-1104.000000, -825.000000)" fill="#1A162A">
            <g id="co-definition" transform="translate(1128.000000, 872.500000) rotate(90.000000) translate(-1128.000000, -872.500000) translate(1080.500000, 848.500000)">
                <path d="M79.3999978,6 L78.4999978,6 L75.4999978,15.0917647 L76.3999978,15.0917647 L79.3999978,6 Z M84.6999978,8.27294118 L83.4999978,8.27294118 L81.4499978,10.3976471 L81.4499978,6.09882353 L80.4499978,6.09882353 L80.4499978,13.0164706 L81.4499978,13.0164706 L81.4499978,11.6823529 L82.1999978,10.8917647 L83.7499978,13.0164706 L84.8499978,13.0164706 L82.8499978,10.2494118 L84.6999978,8.27294118 Z M89.3499978,10.6447059 C89.3499978,9.75529412 88.6499978,9.06352941 87.8499978,9.06352941 C87.0499978,9.06352941 86.3499978,9.75529412 86.3499978,10.6447059 C86.3499978,11.5341176 87.0499978,12.2258824 87.8499978,12.2258824 C88.6499978,12.2258824 89.3499978,11.5341176 89.3499978,10.6447059 Z M85.3499978,10.6447059 C85.3499978,9.31058824 86.4999978,8.17411765 87.8499978,8.17411765 C89.1999978,8.17411765 90.3499978,9.31058824 90.3499978,10.6447059 C90.3499978,11.9788235 89.1999978,13.1152941 87.8499978,13.1152941 C86.4999978,13.1152941 85.3499978,11.9788235 85.3499978,10.6447059 Z M89.3999978,6.39529412 L86.2999978,6.39529412 L86.2999978,7.08705882 L89.3999978,7.08705882 L89.3999978,6.39529412 Z M94.9999978,6 L94.0999978,6 L91.0999978,15.0917647 L91.9999978,15.0917647 L94.9999978,6 Z" id="/kÅ/"></path>
                <path d="M1.86428571,36 C1.86428571,36 1.47857143,37.0164706 0,37.2070588 L0,38.4141176 L1.54285714,38.4141176 L1.54285714,44.8941176 L3.47142857,44.8941176 L3.47142857,36 L1.86428571,36 Z M5.20714286,44.0682353 C5.20714286,44.5764706 5.65714286,45.0211765 6.23571429,45.0211765 C6.81428571,45.0211765 7.26428571,44.5764706 7.26428571,44.0682353 C7.26428571,43.56 6.81428571,43.1152941 6.23571429,43.1152941 C5.65714286,43.1152941 5.20714286,43.56 5.20714286,44.0682353 Z M20.3857143,45.6437647 C20.3857143,46.1011765 20.0642857,46.4188235 19.6142857,46.4188235 C19.2928571,46.4188235 18.9714286,46.2917647 18.9714286,46.2917647 L18.9714286,47.4352941 C18.9714286,47.4352941 19.3571429,47.5623529 19.8714286,47.5623529 C21.0285714,47.5623529 21.6714286,46.9270588 21.6714286,45.6564706 L21.6714286,38.7952941 L20.3857143,38.7952941 L20.3857143,45.6437647 Z M21.8,36.8894118 C21.8,36.4447059 21.4785714,36.1270588 21.0285714,36.1270588 C20.5785714,36.1270588 20.2571429,36.4447059 20.2571429,36.8894118 C20.2571429,37.3341176 20.5785714,37.6517647 21.0285714,37.6517647 C21.4785714,37.6517647 21.8,37.3341176 21.8,36.8894118 Z M28.2928571,41.8447059 C28.2928571,40.7011765 27.3928571,39.8117647 26.3642857,39.8117647 C25.3357143,39.8117647 24.4357143,40.7011765 24.4357143,41.8447059 C24.4357143,42.9882353 25.3357143,43.8776471 26.3642857,43.8776471 C27.3928571,43.8776471 28.2928571,42.9882353 28.2928571,41.8447059 Z M23.15,41.8447059 C23.15,40.1294118 24.6285714,38.6682353 26.3642857,38.6682353 C28.1,38.6682353 29.5785714,40.1294118 29.5785714,41.8447059 C29.5785714,43.56 28.1,45.0211765 26.3642857,45.0211765 C24.6285714,45.0211765 23.15,43.56 23.15,41.8447059 Z M32.3428571,38.7952941 L31.0571429,38.7952941 L31.0571429,44.8941176 L32.3428571,44.8941176 L32.3428571,38.7952941 Z M32.4714286,36.8894118 C32.4714286,36.4447059 32.15,36.1270588 31.7,36.1270588 C31.25,36.1270588 30.9285714,36.4447059 30.9285714,36.8894118 C30.9285714,37.3341176 31.25,37.6517647 31.7,37.6517647 C32.15,37.6517647 32.4714286,37.3341176 32.4714286,36.8894118 Z M35.4928571,38.7952941 L34.2071429,38.7952941 L34.2071429,44.8941176 L35.4928571,44.8941176 L35.4928571,41.5905882 C35.4928571,40.4470588 36.1357143,39.8117647 37.1,39.8117647 C37.9357143,39.8117647 38.5785714,40.4470588 38.5785714,41.3364706 L38.5785714,44.8941176 L39.8642857,44.8941176 L39.8642857,41.3364706 C39.8642857,39.6847059 38.8357143,38.6682353 37.3571429,38.6682353 C36.2,38.6682353 35.4928571,39.4305882 35.4928571,39.4305882 L35.4928571,38.7952941 Z M42.4357143,38.0329412 C42.4357143,38.5411765 42.1785714,38.7952941 41.7928571,38.7952941 L41.15,38.7952941 L41.15,39.9388235 L42.3071429,39.9388235 L42.3071429,43.1152941 C42.3071429,44.3858824 42.95,45.0211765 44.1071429,45.0211765 C44.6214286,45.0211765 45.0071429,44.8941176 45.0071429,44.8941176 L45.0071429,43.7505882 C45.0071429,43.7505882 44.6857143,43.8776471 44.3642857,43.8776471 C43.9142857,43.8776471 43.5928571,43.56 43.5928571,43.1025882 L43.5928571,39.9388235 L44.8785714,39.9388235 L44.8785714,38.7952941 L43.5928571,38.7952941 L43.5928571,36.7623529 L42.4357143,36.7623529 L42.4357143,38.0329412 Z M47,43.3694118 L45.7142857,46.1011765 L46.55,46.5458824 L48.1571429,44.0047059 L47,43.3694118 Z M46.55,39.4941176 C46.55,39.9388235 46.9357143,40.32 47.3857143,40.32 C47.8357143,40.32 48.2214286,39.9388235 48.2214286,39.4941176 C48.2214286,39.0494118 47.8357143,38.6682353 47.3857143,38.6682353 C46.9357143,38.6682353 46.55,39.0494118 46.55,39.4941176 Z M60.2428571,44.8941176 L61.5285714,44.8941176 L61.5285714,41.3364706 C61.5285714,39.5576471 60.6285714,38.6682353 59.2142857,38.6682353 C57.8,38.6682353 57.0928571,39.6847059 57.0928571,39.6847059 C57.0928571,39.6847059 56.5785714,38.6682353 55.2285714,38.6682353 C54.2,38.6682353 53.5571429,39.4305882 53.5571429,39.4305882 L53.5571429,38.7952941 L52.2714286,38.7952941 L52.2714286,44.8941176 L53.5571429,44.8941176 L53.5571429,41.5905882 C53.5571429,40.4470588 54.2,39.8117647 54.9714286,39.8117647 C55.7428571,39.8117647 56.2571429,40.32 56.2571429,41.3364706 L56.2571429,44.8941176 L57.5428571,44.8941176 L57.5428571,41.5905882 C57.5428571,40.4470588 58.1857143,39.8117647 58.9571429,39.8117647 C59.7285714,39.8117647 60.2428571,40.32 60.2428571,41.3364706 L60.2428571,44.8941176 Z M67.7,44.8941176 L68.9857143,44.8941176 L68.9857143,38.7952941 L67.7,38.7952941 L67.7,42.0988235 C67.7,43.2423529 67.0571429,43.8776471 66.0928571,43.8776471 C65.2571429,43.8776471 64.6142857,43.2423529 64.6142857,42.3529412 L64.6142857,38.7952941 L63.3285714,38.7952941 L63.3285714,42.3529412 C63.3285714,44.0047059 64.3571429,45.0211765 65.8357143,45.0211765 C66.9928571,45.0211765 67.7,44.2588235 67.7,44.2588235 L67.7,44.8941176 Z M71.6214286,38.0329412 C71.6214286,38.5411765 71.3642857,38.7952941 70.9785714,38.7952941 L70.3357143,38.7952941 L70.3357143,39.9388235 L71.4928571,39.9388235 L71.4928571,43.1152941 C71.4928571,44.3858824 72.1357143,45.0211765 73.2928571,45.0211765 C73.8071429,45.0211765 74.1928571,44.8941176 74.1928571,44.8941176 L74.1928571,43.7505882 C74.1928571,43.7505882 73.8714286,43.8776471 73.55,43.8776471 C73.1,43.8776471 72.7785714,43.56 72.7785714,43.1025882 L72.7785714,39.9388235 L74.0642857,39.9388235 L74.0642857,38.7952941 L72.7785714,38.7952941 L72.7785714,36.7623529 L71.6214286,36.7623529 L71.6214286,38.0329412 Z M80.1071429,44.8941176 L81.3928571,44.8941176 L81.3928571,38.7952941 L80.1071429,38.7952941 L80.1071429,42.0988235 C80.1071429,43.2423529 79.4642857,43.8776471 78.5,43.8776471 C77.6642857,43.8776471 77.0214286,43.2423529 77.0214286,42.3529412 L77.0214286,38.7952941 L75.7357143,38.7952941 L75.7357143,42.3529412 C75.7357143,44.0047059 76.7642857,45.0211765 78.2428571,45.0211765 C79.4,45.0211765 80.1071429,44.2588235 80.1071429,44.2588235 L80.1071429,44.8941176 Z M88.2071429,44.8941176 L86.9214286,44.8941176 L86.9214286,44.2588235 C86.9214286,44.2588235 86.2142857,45.0211765 85.0571429,45.0211765 C83.7714286,45.0211765 82.8714286,44.1317647 82.8714286,43.2423529 C82.8714286,42.2258824 83.5785714,41.5270588 84.6714286,41.3364706 L86.9214286,40.9552941 C86.9214286,40.32 86.4071429,39.8117647 85.6357143,39.8117647 C84.5428571,39.8117647 84.0285714,40.6376471 84.0285714,40.6376471 L83.1928571,39.8117647 C83.1928571,39.8117647 84.0285714,38.6682353 85.6357143,38.6682353 C87.1785714,38.6682353 88.2071429,39.6847059 88.2071429,40.9552941 L88.2071429,44.8941176 Z M85.25,43.8776471 C86.2785714,43.8776471 86.9214286,43.2423529 86.9214286,42.0988235 L86.9214286,41.9717647 L84.9285714,42.2894118 C84.4785714,42.3656471 84.1571429,42.6705882 84.1571429,43.1152941 C84.1571429,43.4964706 84.5428571,43.8776471 85.25,43.8776471 Z M91.4214286,36 L90.1357143,36 L90.1357143,44.8941176 L91.4214286,44.8941176 L91.4214286,36 Z M94.8285714,44.1952941 C94.8285714,43.7505882 94.4428571,43.3694118 93.9928571,43.3694118 C93.5428571,43.3694118 93.1571429,43.7505882 93.1571429,44.1952941 C93.1571429,44.64 93.5428571,45.0211765 93.9928571,45.0211765 C94.4428571,45.0211765 94.8285714,44.64 94.8285714,44.1952941 Z" id="1.-joint;-mutual."></path>
                <path d="M0.185714286,7.56 C0.185714286,11.5623529 3.78571429,15.12 8.28571429,15.12 C12.4857143,15.12 14.5857143,12.1552941 14.5857143,12.1552941 L11.5857143,9.04235294 C11.5857143,9.04235294 10.5357143,10.6729412 8.58571429,10.6729412 C6.78571429,10.6729412 5.43571429,9.33882353 5.43571429,7.56 C5.43571429,5.78117647 6.78571429,4.44705882 8.58571429,4.44705882 C10.5357143,4.44705882 11.5857143,6.07764706 11.5857143,6.07764706 L14.5857143,2.96470588 C14.5857143,2.96470588 12.4857143,0 8.28571429,0 C3.78571429,0 0.185714286,3.55764706 0.185714286,7.56 Z M21.6357143,7.56 C21.6357143,9.33882353 22.9857143,10.6729412 24.4857143,10.6729412 C25.9857143,10.6729412 27.3357143,9.33882353 27.3357143,7.56 C27.3357143,5.78117647 25.9857143,4.44705882 24.4857143,4.44705882 C22.9857143,4.44705882 21.6357143,5.78117647 21.6357143,7.56 Z M32.5857143,7.56 C32.5857143,11.5623529 28.9857143,15.12 24.4857143,15.12 C19.9857143,15.12 16.3857143,11.5623529 16.3857143,7.56 C16.3857143,3.55764706 19.9857143,0 24.4857143,0 C28.9857143,0 32.5857143,3.55764706 32.5857143,7.56 Z" id="co"></path>
            </g>
        </g>
    </g>
</svg>