<?xml version="1.0" encoding="UTF-8" standalone="no"?>
<svg width="164px" height="111px" viewBox="0 0 164 111" version="1.1" xmlns="http://www.w3.org/2000/svg" xmlns:xlink="http://www.w3.org/1999/xlink">
    <!-- Generator: Sketch 46.2 (44496) - http://www.bohemiancoding.com/sketch -->
    <title>Combined Shape Copy 4</title>
    <desc>Created with Sketch.</desc>
    <defs></defs>
    <g id="Website-v3" stroke="none" stroke-width="1" fill="none" fill-rule="evenodd">
        <g id="Artboard" transform="translate(-102.000000, -306.000000)" fill="#1E1930">
            <path d="M211.115211,416.121809 C180.983878,416.121809 156.557606,391.470202 156.557606,361.060905 C156.557606,330.651607 180.983878,306 211.115211,306 C241.246545,306 265.672817,330.651607 265.672817,361.060905 C265.672817,391.470202 241.246545,416.121809 211.115211,416.121809 Z M211.215871,388.541027 C226.281538,388.541027 238.494674,376.237757 238.494674,361.060905 C238.494674,345.884052 226.281538,333.580782 211.215871,333.580782 C196.150204,333.580782 183.937068,345.884052 183.937068,361.060905 C183.937068,376.237757 196.150204,388.541027 211.215871,388.541027 Z M178.50144,310.583398 C169.276647,316.044509 161.681291,324.000048 156.627915,333.530455 C141.545212,333.537516 129.320443,345.860612 129.320443,361.060905 C129.320443,376.261197 141.545212,388.584293 156.627915,388.591354 C161.681291,398.121761 169.276647,406.0773 178.50144,411.538411 C171.807235,414.486394 164.413589,416.121809 156.640885,416.121809 C126.463558,416.121809 102,391.470202 102,361.060905 C102,330.651607 126.463558,306 156.640885,306 C164.413589,306 171.807235,307.635415 178.50144,310.583398 Z" id="Combined-Shape-Copy-4"></path>
        </g>
    </g>
</svg>