<?xml version="1.0" encoding="UTF-8" standalone="no"?>
<svg width="546px" height="811px" viewBox="0 0 546 811" version="1.1" xmlns="http://www.w3.org/2000/svg" xmlns:xlink="http://www.w3.org/1999/xlink">
    <!-- Generator: Sketch 46.2 (44496) - http://www.bohemiancoding.com/sketch -->
    <title>Co-logo</title>
    <desc>Created with Sketch.</desc>
    <defs></defs>
    <g id="Website-v3" stroke="none" stroke-width="1" fill="none" fill-rule="evenodd">
        <g id="Landing-2-Copy-6" transform="translate(-846.000000, -107.000000)">
            <g id="Co-logo" transform="translate(846.000000, 107.000000)">
                <path d="M407.99385,678.327183 C258.692873,678.327183 137.660517,556.178293 137.660517,405.5 C137.660517,254.821707 258.692873,132.672817 407.99385,132.672817 C557.294827,132.672817 678.327183,254.821707 678.327183,405.5 C678.327183,556.178293 557.294827,678.327183 407.99385,678.327183 Z M408.49262,541.664207 C483.143109,541.664207 543.659287,480.701415 543.659287,405.5 C543.659287,330.298585 483.143109,269.335793 408.49262,269.335793 C333.842131,269.335793 273.325953,330.298585 273.325953,405.5 C273.325953,480.701415 333.842131,541.664207 408.49262,541.664207 Z M246.392374,155.383587 C200.683461,182.44343 163.048414,221.863185 138.008901,269.086423 C63.2739992,269.121411 2.7001753,330.182442 2.7001753,405.5 C2.7001753,480.817558 63.2739992,541.878589 138.008901,541.913577 C163.048414,589.136815 200.683461,628.55657 246.392374,655.616413 C213.222542,670.223691 176.586972,678.327183 138.073167,678.327183 C-11.4557107,678.327183 -132.672817,556.178293 -132.672817,405.5 C-132.672817,254.821707 -11.4557107,132.672817 138.073167,132.672817 C176.586972,132.672817 213.222542,140.776309 246.392374,155.383587 Z" id="Combined-Shape-Copy-4" fill="#1E1930" transform="translate(272.827183, 405.500000) rotate(90.000000) translate(-272.827183, -405.500000) "></path>
                <rect id="Rectangle" x="1" y="0" width="546" height="811"></rect>
            </g>
        </g>
    </g>
</svg>