<?xml version="1.0" encoding="UTF-8" standalone="no"?>
<svg width="433px" height="224px" viewBox="0 0 433 224" version="1.1" xmlns="http://www.w3.org/2000/svg" xmlns:xlink="http://www.w3.org/1999/xlink">
    <!-- Generator: Sketch 46.2 (44496) - http://www.bohemiancoding.com/sketch -->
    <title>BUILDING STARTUPS IS</title>
    <desc>Created with Sketch.</desc>
    <defs></defs>
    <g id="Website-v3" stroke="none" stroke-width="1" fill="none" fill-rule="evenodd">
        <g id="Landing-2-Copy-7" transform="translate(-337.000000, -238.000000)" fill="#5C38E3">
            <path d="M365.88,290 L341.76,290 L341.76,239.6 L364.44,239.6 C375.24,239.6 381.72,246.08 381.72,252.92 C381.72,260.48 375.24,263.36 375.24,263.36 C375.24,263.36 384.24,266.24 384.24,275.24 C384.24,282.8 377.04,290 365.88,290 Z M355.44,279.2 L364.8,279.2 C368.04,279.2 370.2,277.04 370.2,274.16 C370.2,271.28 368.04,269.12 364.8,269.12 L355.44,269.12 L355.44,279.2 Z M363,250.4 L355.44,250.4 L355.44,259.04 L363,259.04 C365.952,259.04 367.68,257.24 367.68,254.72 C367.68,252.2 365.88,250.4 363,250.4 Z M417.56,279.2 C412.52,279.2 408.2,274.88 408.2,269.12 L408.2,239.6 L394.52,239.6 L394.52,269.12 C394.52,281.72 404.24,291.44 417.56,291.44 C430.88,291.44 440.6,281.72 440.6,269.12 L440.6,239.6 L426.92,239.6 L426.92,269.12 C426.92,274.88 422.6,279.2 417.56,279.2 Z M453.76,290 L467.44,290 L467.44,239.6 L453.76,239.6 L453.76,290 Z M516.96,290 L516.96,277.76 L494.64,277.76 L494.64,239.6 L480.96,239.6 L480.96,290 L516.96,290 Z M526.16,239.6 L545.6,239.6 C561.08,239.6 572.24,250.76 572.24,264.8 C572.24,278.84 561.08,290 545.6,290 L526.16,290 L526.16,239.6 Z M545.6,251.84 L539.84,251.84 L539.84,277.76 L545.6,277.76 C552.44,277.76 558.56,272.36 558.56,264.8 C558.56,257.24 553.16,251.84 545.6,251.84 Z M582.88,290 L596.56,290 L596.56,239.6 L582.88,239.6 L582.88,290 Z M643.56,239.6 L643.56,267.68 L621.96,239.6 L610.08,239.6 L610.08,290 L623.76,290 L623.76,261.92 L645.432,290 L657.24,290 L657.24,239.6 L643.56,239.6 Z M695.96,291.44 C710.36,291.44 718.28,281.36 718.28,281.36 L718.28,261.92 L696.68,261.92 L696.68,270.56 L704.6,270.56 L704.6,275.96 C704.6,275.96 701.72,279.2 695.96,279.2 C687.68,279.2 681.56,273.08 681.56,264.8 C681.56,256.52 687.68,250.4 695.96,250.4 C704.24,250.4 708.92,256.88 708.92,256.88 L717.2,248.24 C717.2,248.24 710.36,238.16 695.96,238.16 C680.12,238.16 667.88,250.4 667.88,264.8 C667.88,279.2 680.12,291.44 695.96,291.44 Z M362.64,359.52 C362.64,362.4 360.12,364.92 356.16,364.92 C349.68,364.92 345.36,359.52 345.36,359.52 L337.44,367.8 C337.44,367.8 344.28,376.44 357.6,376.44 C370.2,376.44 377.76,368.88 377.76,359.88 C377.76,342.24 354.36,345.84 354.36,339 C354.36,336.84 356.52,334.68 359.76,334.68 C364.728,334.68 368.04,338.64 368.04,338.64 L375.96,330.36 C375.96,330.36 370.56,323.16 358.32,323.16 C346.8,323.16 339.24,330.72 339.24,338.64 C339.24,356.28 362.64,352.68 362.64,359.52 Z M381.92,324.6 L423.68,324.6 L423.68,336.84 L409.64,336.84 L409.64,375 L395.96,375 L395.96,336.84 L381.92,336.84 L381.92,324.6 Z M454.12,353.4 L449.44,338.64 L444.76,353.4 L454.12,353.4 Z M457.72,364.2 L441.16,364.2 L437.56,375 L422.8,375 L441.88,324.6 L457,324.6 L476.08,375 L461.32,375 L457.72,364.2 Z M483.84,375 L483.84,324.6 L507.6,324.6 C518.4,324.6 525.96,332.16 525.96,341.88 C525.96,352.68 517.32,356.64 517.32,356.64 L527.76,375 L513.36,375 L504.72,359.16 L497.52,359.16 L497.52,375 L483.84,375 Z M512.28,341.88 C512.28,339 510.12,336.84 506.88,336.84 L497.52,336.84 L497.52,346.92 L506.88,346.92 C510.12,346.92 512.28,344.76 512.28,341.88 Z M531.92,324.6 L531.92,336.84 L545.96,336.84 L545.96,375 L559.64,375 L559.64,336.84 L573.68,336.84 L573.68,324.6 L531.92,324.6 Z M605.56,364.2 C600.52,364.2 596.2,359.88 596.2,354.12 L596.2,324.6 L582.52,324.6 L582.52,354.12 C582.52,366.72 592.24,376.44 605.56,376.44 C618.88,376.44 628.6,366.72 628.6,354.12 L628.6,324.6 L614.92,324.6 L614.92,354.12 C614.92,359.88 610.6,364.2 605.56,364.2 Z M641.76,324.6 L664.44,324.6 C675.6,324.6 683.16,332.16 683.16,342.24 C683.16,352.32 675.6,359.88 664.44,359.88 L655.44,359.88 L655.44,375 L641.76,375 L641.76,324.6 Z M663.72,336.84 L655.44,336.84 L655.44,347.64 L663.72,347.64 C666.96,347.64 669.48,345.12 669.48,342.24 C669.48,339.36 666.96,336.84 663.72,336.84 Z M714.68,359.52 C714.68,362.4 712.16,364.92 708.2,364.92 C701.72,364.92 697.4,359.52 697.4,359.52 L689.48,367.8 C689.48,367.8 696.32,376.44 709.64,376.44 C722.24,376.44 729.8,368.88 729.8,359.88 C729.8,342.24 706.4,345.84 706.4,339 C706.4,336.84 708.56,334.68 711.8,334.68 C716.768,334.68 720.08,338.64 720.08,338.64 L728,330.36 C728,330.36 722.6,323.16 710.36,323.16 C698.84,323.16 691.28,330.72 691.28,338.64 C691.28,356.28 714.68,352.68 714.68,359.52 Z M341.76,460 L355.44,460 L355.44,409.6 L341.76,409.6 L341.76,460 Z M389.84,444.52 C389.84,447.4 387.32,449.92 383.36,449.92 C376.88,449.92 372.56,444.52 372.56,444.52 L364.64,452.8 C364.64,452.8 371.48,461.44 384.8,461.44 C397.4,461.44 404.96,453.88 404.96,444.88 C404.96,427.24 381.56,430.84 381.56,424 C381.56,421.84 383.72,419.68 386.96,419.68 C391.928,419.68 395.24,423.64 395.24,423.64 L403.16,415.36 C403.16,415.36 397.76,408.16 385.52,408.16 C374,408.16 366.44,415.72 366.44,423.64 C366.44,441.28 389.84,437.68 389.84,444.52 Z M448.36,409.6 L448.36,437.68 L426.76,409.6 L414.88,409.6 L414.88,460 L428.56,460 L428.56,431.92 L450.232,460 L462.04,460 L462.04,409.6 L448.36,409.6 Z M479.16,408.16 L471.24,425.8 L478.8,430.12 L489.24,413.92 L479.16,408.16 Z M496.28,409.6 L496.28,421.84 L510.32,421.84 L510.32,460 L524,460 L524,421.84 L538.04,421.84 L538.04,409.6 L496.28,409.6 Z M578.04,448.48 L578.04,439.84 L597.48,439.84 L597.48,429.04 L578.04,429.04 L578.04,421.12 L603.24,421.12 L603.24,409.6 L564.36,409.6 L564.36,460 L603.96,460 L603.96,448.48 L578.04,448.48 Z M640.16,438.4 L635.48,423.64 L630.8,438.4 L640.16,438.4 Z M643.76,449.2 L627.2,449.2 L623.6,460 L608.84,460 L627.92,409.6 L643.04,409.6 L662.12,460 L647.36,460 L643.76,449.2 Z M690.76,444.52 C690.76,447.4 688.24,449.92 684.28,449.92 C677.8,449.92 673.48,444.52 673.48,444.52 L665.56,452.8 C665.56,452.8 672.4,461.44 685.72,461.44 C698.32,461.44 705.88,453.88 705.88,444.88 C705.88,427.24 682.48,430.84 682.48,424 C682.48,421.84 684.64,419.68 687.88,419.68 C692.848,419.68 696.16,423.64 696.16,423.64 L704.08,415.36 C704.08,415.36 698.68,408.16 686.44,408.16 C674.92,408.16 667.36,415.72 667.36,423.64 C667.36,441.28 690.76,437.68 690.76,444.52 Z M743.52,409.6 L758.28,409.6 L740.28,442 L740.28,460 L726.6,460 L726.6,442 L708.6,409.6 L723.36,409.6 L733.44,429.04 L743.52,409.6 Z M755.96,454.24 C755.96,450.64 758.84,447.76 762.8,447.76 C766.76,447.76 769.64,450.64 769.64,454.24 C769.64,457.84 766.76,460.72 762.8,460.72 C758.84,460.72 755.96,457.84 755.96,454.24 Z" id="BUILDING-STARTUPS-IS"></path>
        </g>
    </g>
</svg>