<?xml version="1.0" encoding="UTF-8" standalone="no"?>
<svg width="152px" height="152px" viewBox="0 0 152 152" version="1.1" xmlns="http://www.w3.org/2000/svg" xmlns:xlink="http://www.w3.org/1999/xlink">
    <!-- Generator: Sketch 46.2 (44496) - http://www.bohemiancoding.com/sketch -->
    <title>Shape</title>
    <desc>Created with Sketch.</desc>
    <defs></defs>
    <g id="Website-v3" stroke="none" stroke-width="1" fill="none" fill-rule="evenodd">
        <g id="Artboard" transform="translate(-532.000000, -253.000000)" fill-rule="nonzero" fill="#1E1930">
            <g id="001-gmail" transform="translate(532.000000, 253.000000)">
                <path d="M76,0 C34.0261852,0 0,34.0261852 0,76 C0,117.973815 34.0261852,152 76,152 C117.973815,152 152,117.973815 152,76 C152,34.0261852 117.973815,0 76,0 Z M110.240111,42.2222222 L75.9718519,69.3134074 L40.5889259,42.2222222 L110.240111,42.2222222 Z M113.765667,109.777778 L37.061963,109.777778 L37.061963,53.6637407 L72.4188519,80.4818889 C73.3667407,81.2067037 74.7692222,81.5691111 75.9000741,81.5691111 C77.0576667,81.5691111 78.0625556,81.1891111 79.021,80.4319259 L113.765667,52.7932593 L113.765667,109.777778 Z" id="Shape"></path>
            </g>
        </g>
    </g>
</svg>