<?xml version="1.0" encoding="UTF-8" standalone="no"?>
<svg width="144px" height="47px" viewBox="0 0 144 47" version="1.1" xmlns="http://www.w3.org/2000/svg" xmlns:xlink="http://www.w3.org/1999/xlink">
    <!-- Generator: Sketch 41.1 (35376) - http://www.bohemiancoding.com/sketch -->
    <title>Shape</title>
    <desc>Created with Sketch.</desc>
    <defs></defs>
    <g id="Website" stroke="none" stroke-width="1" fill="none" fill-rule="evenodd">
        <g id="Desktop-HD" transform="translate(-115.000000, -334.000000)" fill="#C9C7CE">
            <g id="Clients" transform="translate(15.000000, 222.000000)">
                <g id="Datto" transform="translate(100.000000, 112.000000)">
                    <g id="Group">
                        <path d="M23.4651811,0 L23.4651811,15.3347458 C20.7376045,13.0245763 18.210585,12.0686441 14.7610028,12.0686441 C6.05682451,12.0686441 0,19.1186441 0,29.2754237 C0,39.5118644 6.17715877,46.7610169 14.9615599,46.7610169 C18.2506964,46.7610169 21.1387187,45.6457627 23.4651811,43.4152542 L23.4651811,46.0042373 L30.5649025,46.0042373 L30.5649025,0 L23.4651811,0 L23.4651811,0 Z M22.6629526,35.6084746 C21.6601671,38.1974576 18.8122563,39.9898305 15.643454,39.9898305 C10.6696379,39.9898305 7.42061281,35.8872881 7.42061281,29.5144068 C7.42061281,22.9025424 10.6696379,18.7601695 15.8440111,18.7601695 C19.0128134,18.7601695 22.0211699,20.7118644 22.7832869,23.3008475 C23.1844011,24.5754237 23.3448468,26.2881356 23.3448468,29.8728814 C23.3849582,32.7008475 23.1844011,34.4533898 22.6629526,35.6084746 L22.6629526,35.6084746 Z M61.8518106,34.8516949 L61.8518106,22.6635593 C61.8518106,18.6805085 61.4506964,17.1669492 59.6857939,15.3347458 C57.6401114,13.1838983 53.9097493,11.9889831 49.2969359,11.9889831 C44.6038997,11.9889831 39.8707521,13.1042373 35.3381616,15.4144068 L38.3064067,21.070339 C42.9994429,19.0389831 45.3259053,18.4813559 48.5749304,18.4813559 C52.9470752,18.4813559 54.6718663,20.0347458 54.7520891,23.7788136 L54.7520891,24.8144068 C49.0562674,25.3720339 47.1710306,25.5711864 44.9247911,26.009322 C37.7047354,27.4033898 34.335376,30.55 34.335376,35.8474576 C34.335376,42.140678 39.8306407,46.8805085 47.0506964,46.8805085 C50.9013928,46.8805085 53.9498607,45.4864407 56.1158774,42.7779661 C56.837883,45.0881356 58.7231198,46.4822034 61.891922,46.8805085 L65.4618384,41.4237288 C62.2128134,40.0694915 61.8518106,39.3923729 61.8518106,34.8516949 L61.8518106,34.8516949 Z M54.7119777,35.4889831 C54.7119777,37.440678 54.4311978,38.1974576 53.4284123,39.0338983 C52.1448468,40.1491525 49.9788301,40.9059322 48.1738162,40.9059322 C44.724234,40.9059322 41.9164345,38.6754237 41.9164345,35.9669492 C41.9164345,33.7364407 43.4005571,32.4220339 46.6896936,31.6254237 C48.8557103,31.1474576 50.7008357,30.9483051 54.7119777,30.5101695 L54.7119777,35.4889831 L54.7119777,35.4889831 Z M77.7359331,34.5728814 C77.7359331,38.6754237 78.578273,39.6711864 82.108078,39.6711864 C83.3114206,39.6711864 84.6350975,39.5516949 86.1192201,39.2728814 L87.0417827,45.4864407 C84.7153203,46.1237288 82.108078,46.4423729 79.8618384,46.4423729 C73.243454,46.4423729 70.6763231,43.7338983 70.6763231,36.9627119 L70.6763231,18.8398305 L64.5793872,18.8398305 L64.5793872,12.7457627 L70.6763231,12.7457627 L70.6763231,2.50932203 L77.7359331,0 L77.7359331,12.7457627 L86.5203343,12.7457627 L86.5203343,18.8 L77.7359331,18.8 L77.7359331,34.5728814 L77.7359331,34.5728814 Z M101.802786,34.5728814 C101.802786,38.6754237 102.645125,39.6711864 106.17493,39.6711864 C107.378273,39.6711864 108.70195,39.5516949 110.186072,39.2728814 L111.108635,45.4864407 C108.782173,46.1237288 106.215042,46.4423729 103.928691,46.4423729 C97.3103064,46.4423729 94.7431755,43.7338983 94.7431755,36.9627119 L94.7431755,18.8398305 L88.6462396,18.8398305 L88.6462396,12.7457627 L94.7431755,12.7457627 L94.7431755,2.50932203 L101.802786,0 L101.802786,12.7457627 L110.587187,12.7457627 L110.587187,18.8 L101.802786,18.8 L101.802786,34.5728814 L101.802786,34.5728814 Z M127.35376,11.909322 C118.007799,11.909322 111.750418,18.959322 111.750418,29.5542373 C111.750418,39.790678 118.368802,46.920339 127.91532,46.920339 C137.261281,46.920339 143.799443,39.7508475 143.799443,29.5542373 C143.799443,19.1186441 137.140947,11.909322 127.35376,11.909322 L127.35376,11.909322 Z M127.63454,40.029661 C122.420056,40.029661 119.010585,35.7677966 119.010585,29.4347458 C119.010585,23.1016949 122.54039,18.6805085 127.714763,18.6805085 C132.768802,18.6805085 136.138162,22.9423729 136.138162,29.4347458 C136.138162,35.7677966 132.688579,40.029661 127.63454,40.029661 L127.63454,40.029661 Z" id="Shape"></path>
                    </g>
                </g>
            </g>
        </g>
    </g>
</svg>