<?xml version="1.0" encoding="UTF-8" standalone="no"?>
<svg width="170px" height="72px" viewBox="0 0 170 72" version="1.1" xmlns="http://www.w3.org/2000/svg" xmlns:xlink="http://www.w3.org/1999/xlink">
    <!-- Generator: Sketch 41.1 (35376) - http://www.bohemiancoding.com/sketch -->
    <title>logo</title>
    <desc>Created with Sketch.</desc>
    <defs></defs>
    <g id="Website" stroke="none" stroke-width="1" fill="none" fill-rule="evenodd">
        <g id="Desktop-HD" transform="translate(-102.000000, -698.000000)" fill="#C9C7CE">
            <g id="Clients" transform="translate(15.000000, 222.000000)">
                <g id="logo" transform="translate(87.000000, 476.000000)">
                    <path d="M3.25698367,55.8188572 L166.740513,55.8188572 L170,55.8188572 L170,1.69814008 L169.994994,1.69814008 L169.994994,0 L0,0 L0,2.59392403 L0,55.8188572 L3.25698367,55.8188572 Z M169.994994,55.8188572 L0,55.8188572 L0,59.3085652 L169.994994,59.3085652 L169.994994,55.8188572 Z M65.6259949,59.3085652 L49.8670887,59.3085652 L49.8670887,68.9326679 C49.8670887,72.183256 51.7523281,72.9629381 54.0694849,70.6824073 L65.6259949,59.3085652 Z M13.9039581,16.5581578 C13.9039581,15.9086057 14.1293012,15.3570547 14.5799941,14.9034881 C15.030687,14.4499215 15.577144,14.2231417 16.2193815,14.2231417 C16.8728862,14.2231417 17.4277936,14.4499215 17.8841202,14.9034881 C18.3404468,15.3570547 18.5686067,15.9086057 18.5686067,16.5581578 C18.5686067,17.1965108 18.3404468,17.7396626 17.8841202,18.1876296 C17.4277936,18.6355965 16.8728862,18.8595767 16.2193815,18.8595767 C15.577144,18.8595767 15.030687,18.6355965 14.5799941,18.1876296 C14.1293012,17.7396626 13.9039581,17.1965108 13.9039581,16.5581578 Z M14.6306968,39.3707619 L14.6306968,22.8240645 L17.8418679,22.8240645 L17.8418679,39.3707619 L14.6306968,39.3707619 Z M23.3853634,39.3707619 L23.3853634,22.8240645 L26.4951291,22.8240645 L26.4951291,25.0246913 C26.9908914,24.1511557 27.7007221,23.4848148 28.6246426,23.0256487 C29.5485631,22.5664825 30.523172,22.3369029 31.5484984,22.3369029 C32.6414288,22.3369029 33.638572,22.6028793 34.5399579,23.1348401 C35.4413438,23.6668009 36.1061059,24.4479316 36.5342642,25.4782556 C37.6947985,23.38401 39.553879,22.3369029 42.1115614,22.3369029 C42.8552048,22.3369029 43.5650355,22.4656915 44.2410749,22.7232725 C44.9171143,22.9808535 45.5283574,23.35882 46.0748226,23.8571832 C46.6212878,24.3555465 47.0550733,25.0162878 47.376192,25.8394272 C47.6973107,26.6625665 47.8578677,27.5948837 47.8578677,28.636407 L47.8578677,39.3707619 L44.6297956,39.3707619 L44.6297956,28.9891792 C44.6297956,27.8468634 44.3340328,26.9285449 43.7424983,26.2341961 C43.1509638,25.5398473 42.269309,25.1926781 41.0975074,25.1926781 C39.970775,25.1926781 39.0496851,25.587443 38.3342101,26.3769848 C37.6187351,27.1665266 37.2610029,28.1604384 37.2610029,29.3587501 L37.2610029,39.3707619 L34.01603,39.3707619 L34.01603,28.9891792 C34.01603,27.8580626 33.7230839,26.9425438 33.1371831,26.2425954 C32.5512823,25.542647 31.6668107,25.1926781 30.4837417,25.1926781 C29.3344747,25.1926781 28.3993009,25.5818435 27.6781922,26.3601862 C26.9570835,27.1385288 26.5965345,28.1492391 26.5965345,29.3923474 L26.5965345,39.3707619 L23.3853634,39.3707619 Z M53.0464442,45.9054474 L53.0464442,22.8240645 L56.1900117,22.8240645 L56.1900117,25.4110609 C56.6632393,24.5375253 57.387154,23.8235886 58.3617775,23.2692295 C59.336401,22.7148704 60.4715668,22.437695 61.767309,22.437695 C63.3785362,22.437695 64.7728466,22.8268604 65.9502819,23.605203 C67.1277172,24.3835457 68.0009217,25.4138542 68.5699215,26.6961597 C69.1389214,27.9784652 69.423417,29.4371357 69.423417,31.0722152 C69.423417,33.6032286 68.7248534,35.694643 67.3277053,37.3465212 C65.9305572,38.9983995 64.0433088,39.8243262 61.6659036,39.8243262 C60.4377653,39.8243262 59.3476681,39.5723485 58.3955793,39.0683857 C57.4434904,38.5644228 56.7308429,37.92048 56.2576153,37.1365378 L56.2576153,45.9054474 L53.0464442,45.9054474 Z M56.2238135,31.0722152 C56.2238135,32.7856889 56.6801333,34.1911642 57.5927865,35.2886832 C58.5054397,36.3862023 59.6997581,36.9349536 61.1757775,36.9349536 C62.6630642,36.9349536 63.8545657,36.3890021 64.750318,35.2970826 C65.6460702,34.2051631 66.0939396,32.796888 66.0939396,31.0722152 C66.0939396,29.3811399 65.648887,27.9952628 64.7587684,26.9145425 C63.8686499,25.8338222 62.6743315,25.2934701 61.1757775,25.2934701 C59.6997581,25.2934701 58.5054397,25.8394217 57.5927865,26.9313412 C56.6801333,28.0232607 56.2238135,29.4035382 56.2238135,31.0722152 Z M73.5641377,39.3707619 L73.5641377,22.8240645 L76.741507,22.8240645 L76.741507,25.7134371 C77.7442988,23.6079923 79.4062041,22.5552857 81.7272728,22.5552857 C82.1103618,22.5552857 82.4709107,22.5888827 82.8089304,22.6560778 L82.8089304,26.083008 C82.3244355,26.0158129 81.851215,25.9822159 81.3892547,25.9822159 C79.9470373,25.9822159 78.8231387,26.3937794 78.0175251,27.2169187 C77.2119114,28.040058 76.8091106,29.325144 76.8091106,31.0722152 L76.8091106,39.3707619 L73.5641377,39.3707619 Z M84.9046421,31.0386178 C84.9046421,29.7731111 85.1243516,28.591616 85.5637772,27.4940969 C86.0032029,26.3965778 86.5862781,25.4726598 87.3130205,24.7223151 C88.0397628,23.9719704 88.8847994,23.3812228 89.8481556,22.9500546 C90.8115117,22.5188864 91.8171053,22.3033055 92.8649664,22.3033055 C95.3775795,22.3033055 97.3380644,23.0900357 98.7464798,24.6635197 C100.154895,26.2370037 100.859092,28.3396172 100.859092,30.9714231 C100.859092,31.3969918 100.836558,31.744161 100.791489,32.0129411 L88.2679214,32.0129411 C88.3017233,33.480033 88.7946613,34.6839262 89.7467502,35.6246568 C90.698839,36.5653874 91.8790734,37.0357457 93.2874889,37.0357457 C95.6536268,37.0357457 97.2084941,35.9214446 97.9521375,33.6928089 L100.757687,34.6503335 C100.273192,36.1846204 99.3718197,37.4417088 98.0535429,38.4216366 C96.735266,39.4015644 95.1465973,39.8915209 93.2874889,39.8915209 C91.7776675,39.8915209 90.3946243,39.5499512 89.1383177,38.8668016 C87.8820112,38.1836519 86.8623337,37.1589428 86.0792547,35.7926436 C85.2961757,34.4263443 84.9046421,32.8416849 84.9046421,31.0386178 Z M88.3693268,29.3923474 L97.4620114,29.3923474 C97.4282094,28.1492391 97.0141415,27.1329293 96.2197952,26.3433875 C95.4254488,25.5538457 94.3184509,25.1590807 92.8987682,25.1590807 C91.5917586,25.1590807 90.5270125,25.5790435 89.7044979,26.4189815 C88.8819833,27.2589196 88.4369307,28.2500317 88.3693268,29.3923474 Z M103.461831,35.0703004 L106.402588,34.0455811 C106.503994,34.9527142 106.892711,35.6946484 107.56875,36.2714059 C108.244789,36.8481634 109.146162,37.1365378 110.272894,37.1365378 C111.151745,37.1365378 111.844675,36.9237567 112.351705,36.498188 C112.858734,36.0726194 113.112245,35.5518656 113.112245,34.935911 C113.112245,34.420749 112.926337,33.9727887 112.554516,33.5920168 C112.182694,33.2112449 111.653138,32.9480682 110.965831,32.802479 L108.12648,32.1809279 C106.830738,31.9009486 105.813877,31.3493975 105.075867,30.5262582 C104.337857,29.7031189 103.968858,28.7036075 103.968858,27.5276942 C103.968858,26.1053991 104.551933,24.8791079 105.718101,23.8487839 C106.884269,22.8184598 108.27858,22.3033055 109.901074,22.3033055 C110.768658,22.3033055 111.560176,22.4124959 112.275651,22.6308798 C112.991126,22.8492637 113.568568,23.1180398 114.007993,23.4372163 C114.447419,23.7563927 114.830502,24.1259599 115.157254,24.545929 C115.484007,24.965898 115.723434,25.349464 115.875543,25.6966384 C116.027652,26.0438128 116.14314,26.390982 116.222011,26.7381564 L113.348858,27.8132718 C113.315056,27.6116866 113.264354,27.404505 113.19675,27.1917207 C113.129146,26.9789364 113.008024,26.7409575 112.833381,26.4777769 C112.658737,26.2145963 112.453112,25.9822169 112.216498,25.7806318 C111.979884,25.5790466 111.65877,25.4082618 111.253146,25.2682721 C110.847523,25.1282824 110.396837,25.0582887 109.901074,25.0582887 C109.101094,25.0582887 108.439149,25.2766693 107.915218,25.7134371 C107.391288,26.1502049 107.129327,26.6653592 107.129327,27.2589154 C107.129327,28.322837 107.760287,28.9891778 109.022227,29.257958 L111.726372,29.8459117 C113.213658,30.1706878 114.354458,30.7642351 115.148804,31.6265716 C115.94315,32.488908 116.340317,33.5360151 116.340317,34.7679242 C116.340317,35.3726797 116.213562,35.9690267 115.960047,36.5569834 C115.706532,37.1449401 115.337533,37.6908916 114.853038,38.1948545 C114.368543,38.6988173 113.726316,39.107581 112.926336,39.4211579 C112.126356,39.7347348 111.230617,39.8915209 110.239092,39.8915209 C109.157429,39.8915209 108.180004,39.731935 107.306786,39.4127586 C106.433568,39.0935821 105.737822,38.6820186 105.219525,38.1780558 C104.701228,37.6740929 104.298427,37.1589386 104.01111,36.6325774 C103.723794,36.1062163 103.540702,35.5854625 103.461831,35.0703004 Z M119.095164,35.0703004 L122.035921,34.0455811 C122.137327,34.9527142 122.526044,35.6946484 123.202083,36.2714059 C123.878123,36.8481634 124.779495,37.1365378 125.906227,37.1365378 C126.785079,37.1365378 127.478009,36.9237567 127.985038,36.498188 C128.492068,36.0726194 128.745579,35.5518656 128.745579,34.935911 C128.745579,34.420749 128.559671,33.9727887 128.187849,33.5920168 C127.816027,33.2112449 127.286471,32.9480682 126.599164,32.802479 L123.759813,32.1809279 C122.464071,31.9009486 121.44721,31.3493975 120.7092,30.5262582 C119.971191,29.7031189 119.602191,28.7036075 119.602191,27.5276942 C119.602191,26.1053991 120.185267,24.8791079 121.351435,23.8487839 C122.517603,22.8184598 123.911913,22.3033055 125.534408,22.3033055 C126.401991,22.3033055 127.193509,22.4124959 127.908984,22.6308798 C128.624459,22.8492637 129.201901,23.1180398 129.641326,23.4372163 C130.080752,23.7563927 130.463835,24.1259599 130.790588,24.545929 C131.11734,24.965898 131.356767,25.349464 131.508876,25.6966384 C131.660985,26.0438128 131.776473,26.390982 131.855344,26.7381564 L128.982191,27.8132718 C128.948389,27.6116866 128.897687,27.404505 128.830083,27.1917207 C128.762479,26.9789364 128.641357,26.7409575 128.466714,26.4777769 C128.29207,26.2145963 128.086445,25.9822169 127.849831,25.7806318 C127.613217,25.5790466 127.292103,25.4082618 126.88648,25.2682721 C126.480856,25.1282824 126.03017,25.0582887 125.534408,25.0582887 C124.734428,25.0582887 124.072482,25.2766693 123.548552,25.7134371 C123.024621,26.1502049 122.76266,26.6653592 122.76266,27.2589154 C122.76266,28.322837 123.39362,28.9891778 124.655561,29.257958 L127.359705,29.8459117 C128.846991,30.1706878 129.987791,30.7642351 130.782137,31.6265716 C131.576483,32.488908 131.973651,33.5360151 131.973651,34.7679242 C131.973651,35.3726797 131.846895,35.9690267 131.59338,36.5569834 C131.339866,37.1449401 130.970866,37.6908916 130.486371,38.1948545 C130.001877,38.6988173 129.359649,39.107581 128.559669,39.4211579 C127.759689,39.7347348 126.86395,39.8915209 125.872426,39.8915209 C124.790762,39.8915209 123.813337,39.731935 122.940119,39.4127586 C122.066902,39.0935821 121.371155,38.6820186 120.852858,38.1780558 C120.334561,37.6740929 119.93176,37.1589386 119.644444,36.6325774 C119.357127,36.1062163 119.174036,35.5854625 119.095164,35.0703004 Z M135.556642,16.5581578 C135.556642,15.9086057 135.781985,15.3570547 136.232678,14.9034881 C136.683371,14.4499215 137.229828,14.2231417 137.872065,14.2231417 C138.52557,14.2231417 139.080477,14.4499215 139.536804,14.9034881 C139.99313,15.3570547 140.22129,15.9086057 140.22129,16.5581578 C140.22129,17.1965108 139.99313,17.7396626 139.536804,18.1876296 C139.080477,18.6355965 138.52557,18.8595767 137.872065,18.8595767 C137.229828,18.8595767 136.683371,18.6355965 136.232678,18.1876296 C135.781985,17.7396626 135.556642,17.1965108 135.556642,16.5581578 Z M136.28338,39.3707619 L136.28338,22.8240645 L139.494552,22.8240645 L139.494552,39.3707619 L136.28338,39.3707619 Z M142.604317,22.8240645 L146.288714,22.8240645 L151.020966,35.5910594 L155.803921,22.8240645 L159.302407,22.8240645 L152.643452,39.3707619 L149.364678,39.3707619 L142.604317,22.8240645 Z" id="Combined-Shape"></path>
                </g>
            </g>
        </g>
    </g>
</svg>