<?xml version="1.0" encoding="UTF-8" standalone="no"?>
<svg width="136px" height="160px" viewBox="0 0 136 160" version="1.1" xmlns="http://www.w3.org/2000/svg" xmlns:xlink="http://www.w3.org/1999/xlink">
    <!-- Generator: Sketch 41.1 (35376) - http://www.bohemiancoding.com/sketch -->
    <title>Group 2</title>
    <desc>Created with Sketch.</desc>
    <defs></defs>
    <g id="Website" stroke="none" stroke-width="1" fill="none" fill-rule="evenodd">
        <g id="Desktop-HD" transform="translate(-114.000000, -490.000000)">
            <g id="logo" transform="translate(116.000000, 333.000000)">
                <g id="128">
                    <g id="Logo">
                        <g id="128">
                            <g id="Oval-1-+-body">
                                <g id="Group-2" transform="translate(0.000000, 160.000000)">
                                    <circle id="Oval-1" stroke="#C9C7CE" stroke-width="5" cx="65" cy="64" r="64"></circle>
                                    <path d="M82.5,107 C89.127417,107 97.5,103.627417 97.5,97 C97.5,90.372583 91.9457545,87 82.5,87 C73.0542455,87 65.5,97 65.5,97 C65.5,97 73.0456543,107 82.5,107 Z M48.5,107 C41.872583,107 33.5,103.627417 33.5,97 C33.5,90.372583 39.0542455,87 48.5,87 C57.9457545,87 65.5,97 65.5,97 C65.5,97 57.9543457,107 48.5,107 Z" id="Oval-7" stroke="#C9C7CE" stroke-width="5"></path>
                                    <path d="M64.998169,52.8256497 C63.4859074,51.0090161 60.880546,49 56.7509241,49 C49.7215677,49 45,55.5118038 45,61.593247 C45,70.4464364 64.998169,83.9599991 64.998169,83.9599991 C64.998169,83.9599991 84.996338,70.4464364 84.996338,61.593247 C84.996338,55.5118038 80.2739703,49 73.244214,49 C69.1161919,49 66.5104305,51.0090161 64.998169,52.8256497 Z" id="Shape" stroke="#C9C7CE" stroke-width="5"></path>
                                    <circle id="Oval-2" stroke="#C9C7CE" stroke-width="5" cx="65" cy="32" r="10"></circle>
                                    <path d="M0.9849375,156 L8.1369375,156 L8.1369375,153.648 L6.1689375,153.648 L6.1689375,148.488 L7.2489375,148.488 C7.9209375,148.488 8.2569375,148.656 8.5209375,149.112 L11.4969375,154.728 C12.0009375,155.64 12.4569375,156 13.8969375,156 L16.0809375,156 L16.0809375,153.648 L15.2889375,153.648 C14.7129375,153.648 14.3769375,153.456 14.1609375,153.048 L11.5449375,148.296 C11.0169375,147.288 10.4409375,147.024 10.4409375,147.024 L10.4409375,146.976 L14.5449375,141.336 L16.0809375,141.336 L16.0809375,138.96 L9.8409375,138.96 L9.8409375,141.336 L11.3049375,141.336 L8.0649375,145.968 L6.1689375,145.968 L6.1689375,141.336 L7.8009375,141.336 L7.8009375,138.96 L0.9849375,138.96 L0.9849375,141.336 L3.0249375,141.336 L3.0249375,153.648 L0.9849375,153.648 L0.9849375,156 Z M17.8329375,156 L24.8409375,156 L24.8409375,153.648 L22.9209375,153.648 L23.5449375,145.056 C23.5929375,144.456 23.4729375,143.472 23.4729375,143.472 L23.5689375,143.472 C23.5689375,143.472 23.7369375,144.408 23.9529375,144.984 L27.2169375,152.832 L29.9049375,152.832 L33.1689375,144.984 C33.3849375,144.408 33.5769375,143.472 33.5769375,143.472 L33.6489375,143.472 C33.6489375,143.472 33.5289375,144.456 33.5769375,145.056 L34.2009375,153.648 L32.3049375,153.648 L32.3049375,156 L39.2889375,156 L39.2889375,153.648 L37.2729375,153.648 L36.2889375,141.336 L38.3289375,141.336 L38.3289375,138.96 L32.7849375,138.96 L29.0169375,148.584 C28.7049375,149.424 28.5849375,150 28.5849375,150 L28.5369375,150 C28.5369375,150 28.4169375,149.424 28.1289375,148.584 L24.3369375,138.96 L18.7929375,138.96 L18.7929375,141.336 L20.8569375,141.336 L19.8489375,153.648 L17.8329375,153.648 L17.8329375,156 Z M41.4009375,156 L49.6089375,156 C50.5209375,156 51.3129375,155.952 52.1529375,155.712 C54.0009375,155.16 55.5369375,153.456 55.5369375,151.08 C55.5369375,149.28 54.6729375,147.624 52.7769375,147.048 L52.7769375,147 C54.0969375,146.304 54.8649375,144.936 54.8649375,143.352 C54.8649375,141.456 53.8089375,140.016 52.2729375,139.416 C51.3849375,139.056 50.4969375,138.96 49.2249375,138.96 L41.4009375,138.96 L41.4009375,141.336 L43.4409375,141.336 L43.4409375,153.648 L41.4009375,153.648 L41.4009375,156 Z M46.5849375,145.92 L46.5849375,141.48 L49.2249375,141.48 C49.8249375,141.48 50.2809375,141.552 50.6889375,141.744 C51.3609375,142.104 51.6729375,142.848 51.6729375,143.688 C51.6729375,144.984 50.9289375,145.92 49.5849375,145.92 L46.5849375,145.92 Z M46.5849375,153.48 L46.5849375,148.416 L49.8729375,148.416 C51.4329375,148.416 52.3449375,149.424 52.3449375,150.888 C52.3449375,151.968 51.8409375,152.928 50.9769375,153.288 C50.6169375,153.432 50.1609375,153.48 49.7529375,153.48 L46.5849375,153.48 Z M67.0089375,156 L74.2569375,156 L74.2569375,153.648 L72.2169375,153.648 L72.2169375,148.872 L76.7529375,141.336 L78.2889375,141.336 L78.2889375,138.96 L72.0009375,138.96 L72.0009375,141.336 L73.6329375,141.336 L71.0409375,145.8 C70.8009375,146.208 70.6569375,146.568 70.6569375,146.568 L70.6089375,146.568 C70.6089375,146.568 70.4889375,146.208 70.2489375,145.8 L67.6569375,141.336 L69.3129375,141.336 L69.3129375,138.96 L62.9769375,138.96 L62.9769375,141.336 L64.5369375,141.336 L69.0729375,148.872 L69.0729375,153.648 L67.0089375,153.648 L67.0089375,156 Z M79.5369375,147.36 C79.5369375,152.376 83.3289375,156.288 88.3689375,156.288 C93.4089375,156.288 97.2009375,152.376 97.2009375,147.36 C97.2009375,142.488 93.4089375,138.672 88.3689375,138.672 C83.3289375,138.672 79.5369375,142.488 79.5369375,147.36 Z M82.7769375,147.36 C82.7769375,144 85.2969375,141.432 88.3689375,141.432 C91.4409375,141.432 93.9609375,144 93.9609375,147.36 C93.9609375,150.864 91.4409375,153.528 88.3689375,153.528 C85.2969375,153.528 82.7769375,150.864 82.7769375,147.36 Z M99.2409375,147.408 C99.2409375,152.496 102.984938,156.288 108.216938,156.288 C110.736937,156.288 115.296937,155.376 115.296937,152.784 L115.296937,147.648 L109.344937,147.648 L109.344937,150 L112.440937,150 L112.440937,151.824 C112.440937,153.24 109.896937,153.6 108.528937,153.6 C104.760938,153.6 102.504938,150.936 102.504938,147.288 C102.504938,143.664 104.760938,141.36 108.384937,141.36 C110.208937,141.36 112.056938,141.96 112.056938,143.136 L112.056938,144.384 L114.912937,144.384 L114.912937,142.032 C114.912937,139.872 111.288938,138.672 108.240938,138.672 C102.936937,138.672 99.2409375,142.344 99.2409375,147.408 Z M116.928938,156 L123.312938,156 L123.312938,153.648 L121.632938,153.648 L122.688938,150.456 L128.064938,150.456 L129.120938,153.648 L127.440938,153.648 L127.440938,156 L133.848938,156 L133.848938,153.648 L132.288938,153.648 L127.176938,138.96 L123.600938,138.96 L118.488938,153.648 L116.928938,153.648 L116.928938,156 Z M123.408938,148.008 L125.040938,143.184 C125.280937,142.344 125.352937,141.696 125.352937,141.696 L125.424937,141.696 C125.424937,141.696 125.472938,142.344 125.736938,143.184 L127.344938,148.008 L123.408938,148.008 Z" id="KMB-YOGA" fill="#C9C7CE"></path>
                                </g>
                            </g>
                        </g>
                    </g>
                </g>
            </g>
        </g>
    </g>
</svg>