<?xml version="1.0" encoding="UTF-8" standalone="no"?>
<svg width="55px" height="35px" viewBox="0 0 55 35" version="1.1" xmlns="http://www.w3.org/2000/svg" xmlns:xlink="http://www.w3.org/1999/xlink">
    <!-- Generator: Sketch 41.1 (35376) - http://www.bohemiancoding.com/sketch -->
    <title>lrn</title>
    <desc>Created with Sketch.</desc>
    <defs></defs>
    <g id="Website" stroke="none" stroke-width="1" fill="none" fill-rule="evenodd">
        <g id="Desktop-HD" transform="translate(-160.000000, -800.000000)" fill="#C9C7CE">
            <g id="Clients" transform="translate(15.000000, 222.000000)">
                <path d="M145.910156,613 L145.910156,578.242188 L152.308594,578.242188 L152.308594,613 L145.910156,613 Z M159.105469,613 L159.105469,589.375 L165.316406,589.375 L165.316406,592.890625 C165.660158,592.156246 166.109372,591.527346 166.664062,591.003906 C167.218753,590.480466 167.820309,590.097657 168.46875,589.855469 C169.117191,589.61328 169.72656,589.441407 170.296875,589.339844 C170.86719,589.238281 171.441403,589.1875 172.019531,589.1875 C172.394533,589.1875 172.894528,589.21875 173.519531,589.28125 L173.519531,595.726562 C172.878903,595.601562 172.238284,595.539062 171.597656,595.539062 C170.738277,595.539062 169.960941,595.652343 169.265625,595.878906 C168.570309,596.10547 167.92969,596.464841 167.34375,596.957031 C166.75781,597.449221 166.304689,598.136714 165.984375,599.019531 C165.664061,599.902348 165.503906,600.960931 165.503906,602.195312 L165.503906,613 L159.105469,613 Z M177.855469,613 L177.855469,589.375 L184.066406,589.375 L184.066406,592.304688 C184.75391,591.148432 185.718744,590.269534 186.960938,589.667969 C188.203131,589.066403 189.503899,588.765625 190.863281,588.765625 C193.66017,588.765625 195.785149,589.63671 197.238281,591.378906 C198.691414,593.121102 199.417969,595.367174 199.417969,598.117188 L199.417969,613 L193.042969,613 L193.042969,599.21875 C193.042969,597.812493 192.679691,596.679692 191.953125,595.820312 C191.226559,594.960933 190.128914,594.53125 188.660156,594.53125 C187.300774,594.53125 186.226566,594.992183 185.4375,595.914062 C184.648434,596.835942 184.253906,597.999993 184.253906,599.40625 L184.253906,613 L177.855469,613 Z" id="lrn"></path>
            </g>
        </g>
    </g>
</svg>