<?xml version="1.0" encoding="UTF-8" standalone="no"?>
<svg width="254px" height="58px" viewBox="0 0 254 58" version="1.1" xmlns="http://www.w3.org/2000/svg" xmlns:xlink="http://www.w3.org/1999/xlink">
    <!-- Generator: Sketch 41.1 (35376) - http://www.bohemiancoding.com/sketch -->
    <title>Fanduel-logo</title>
    <desc>Created with Sketch.</desc>
    <defs></defs>
    <g id="Website" stroke="none" stroke-width="1" fill="none" fill-rule="evenodd">
        <g id="Desktop-HD" transform="translate(-60.000000, -411.000000)" fill="#C9C7CE">
            <g id="Clients" transform="translate(15.000000, 222.000000)">
                <g id="Fanduel-logo" transform="translate(45.000000, 189.000000)">
                    <g id="Group">
                        <path d="M110.865409,43.9369863 C105.753459,47.7506849 102.159119,44.969863 106.232704,36.5479452 C109.427673,29.7945205 114.220126,19.6246575 102.877987,19.6246575 C98.3251572,19.6246575 95.3698113,22.0082192 92.3345912,25.1068493 C92.9735849,23.7561644 92.7339623,19.7041096 88.5006289,19.6246575 L87.3823899,19.6246575 C85.1459119,19.6246575 82.190566,21.0547945 80.4333333,22.0082192 C79.8742138,22.3260274 80.2735849,23.2794521 80.9924528,23.0410959 C82.6698113,22.3260274 84.7465409,22.1671233 83.7880503,24.3123288 C83.7880503,24.3123288 79.6345912,33.4493151 78.1169811,36.3890411 C75.8805031,41.2356164 60.3050314,49.4191781 66.6949686,36.4684932 C71.4874214,26.7753425 71.6471698,26.2986301 74.0433962,21.1342466 C74.6823899,19.7835616 73.4842767,19.4657534 72.7654088,20.4986301 C71.2477987,22.6438356 69.6503145,23.2 67.6534591,23.3589041 C65.736478,20.8164384 62.2220126,19.6246575 59.2666667,19.6246575 C46.8062893,19.6246575 34.9050314,31.5424658 34.9050314,41.3150685 C34.9050314,46.6383562 38.3396226,49.4986301 42.8924528,49.4986301 C48.1641509,49.4986301 53.5157233,47.1150685 55.4327044,44.8109589 C55.7522013,47.3534247 56.9503145,49.4986301 60.9440252,49.4986301 C67.5735849,49.4986301 75.081761,42.9041096 76.0402516,41.2356164 C75.1616352,42.9835616 75.0018868,43.460274 74.7622642,43.8575342 C72.6056604,48.3068493 79.7144654,52.2 82.1106918,47.1150685 L89.1396226,32.4958904 C90.8968553,28.7616438 93.8522013,25.5835616 97.8459119,25.5835616 C102.718239,25.5835616 100.561635,30.6684932 98.9641509,33.9260274 C98.245283,35.4356164 96.0886792,40.0438356 96.0886792,40.0438356 C93.5327044,45.4465753 96.1685535,49.5780822 102.318868,49.5780822 C104.555346,49.5780822 108.788679,48.7835616 112.143396,45.1287671 C112.622642,44.1753425 111.903774,43.1424658 110.865409,43.9369863 M57.5893082,36.230137 C55.9119497,40.0438356 52.1578616,43.3808219 48.1641509,43.3808219 C45.7679245,43.3808219 44.4899371,41.6328767 44.4899371,39.3287671 C44.4899371,34.0849315 49.3622642,25.5041096 56.3113208,25.5041096 C58.4679245,25.5041096 59.6660377,27.0136986 59.6660377,29.0794521 C59.6660377,30.5890411 59.3465409,32.3369863 57.5893082,36.230137" id="Shape"></path>
                        <path d="M142.974843,0.715068493 L133.549686,0.715068493 C99.8427673,0.715068493 107.910063,23.8356164 122.207547,23.8356164 C123.645283,23.8356164 123.645283,22.1671233 122.207547,22.1671233 C115.977358,22.1671233 111.584277,7.15068493 129.715723,7.15068493 L141.856604,7.15068493 C147.527673,7.15068493 153.518239,9.53424658 153.518239,15.7315068 C153.518239,29.1589041 139.380503,43.3808219 127,43.3808219 L124.523899,43.3808219 L138.022642,15.0958904 C140.019497,10.3287671 133.230189,6.91232877 130.59434,11.9972603 L116.616352,40.9972603 C115.178616,44.0164384 114.379874,45.9232877 114.379874,47.1150685 C114.379874,49.1808219 116.855975,49.4191781 122.926415,49.4191781 L125.881761,49.4191781 C141.856604,49.4191781 163.02327,33.9260274 163.02327,16.3671233 C162.943396,8.10410959 157.352201,0.715068493 142.974843,0.715068493" id="Shape"></path>
                        <path d="M38.9786164,25.4246575 C39.6974843,24.0739726 40.336478,22.8027397 40.4962264,22.2465753 C40.7358491,21.5315068 40.1767296,20.9753425 39.6176101,20.9753425 L26.1188679,20.9753425 L32.6685535,7.15068493 L48.2440252,7.15068493 C49.5220126,7.15068493 50.6402516,6.43561644 51.1993711,5.32328767 C51.918239,3.97260274 52.3974843,2.86027397 52.5572327,2.38356164 C52.9566038,1.50958904 52.3974843,0.873972603 51.7584906,0.873972603 L23.7226415,0.873972603 C-9.98427673,0.873972603 -1.91698113,23.9150685 12.3805031,23.9150685 C13.818239,23.9150685 13.818239,22.2465753 12.3805031,22.2465753 C6.15031447,22.2465753 1.7572327,7.15068493 19.8886792,7.15068493 L23.6427673,7.15068493 C23.6427673,7.15068493 10.463522,34.7205479 5.51132075,44.890411 C3.11509434,49.7369863 3.91383648,57.4438356 7.98742138,57.4438356 C8.46666667,57.4438356 8.70628931,57.2054795 9.02578616,56.6493151 C12.8597484,48.6246575 23.0037736,27.3315068 23.0037736,27.3315068 L36.0232704,27.3315068 C37.3811321,27.3315068 38.4993711,26.5369863 38.9786164,25.4246575" id="Shape"></path>
                        <path d="M252.322642,9.1369863 C253.281132,7.15068493 253.600629,5.56164384 253.600629,4.36986301 C253.600629,1.82739726 251.523899,0.873972603 249.047799,0.873972603 L248.488679,0.873972603 C246.252201,0.873972603 243.37673,2.30410959 241.619497,3.25753425 C241.060377,3.57534247 241.459748,4.52876712 242.178616,4.29041096 C243.855975,3.57534247 245.932704,3.41643836 244.974214,5.56164384 C244.974214,5.56164384 244.175472,7.46849315 243.296855,9.37534247 L243.296855,9.45479452 C243.137107,9.85205479 242.897484,10.3287671 242.657862,10.6465753 L233.951572,29.2383562 L233.951572,29.3178082 L233.791824,29.5561644 C230.437107,36.5479452 221.810692,43.3808219 213.184277,43.3808219 C211.267296,43.3808219 209.82956,43.0630137 208.711321,42.5863014 C218.376101,37.8191781 227.242138,31.3041096 227.242138,25.5835616 C227.242138,22.3260274 225.165409,19.6246575 220.293082,19.6246575 C208.950943,19.6246575 196.730189,30.509589 196.730189,39.2493151 C196.730189,40.3616438 196.889937,41.3150685 197.12956,42.2684932 C194.733333,42.9835616 192.656604,43.460274 191.298742,43.460274 C188.263522,43.460274 188.42327,41.4739726 189.062264,39.6465753 L195.851572,25.3452055 C198.008176,20.8958904 190.979245,16.7643836 188.343396,22.3260274 L180.915094,37.660274 C179.31761,40.9972603 175.403774,43.460274 171.809434,43.460274 C166.777358,43.460274 169.812579,38.2164384 171.410063,34.9589041 L175.803145,25.7424658 C177.001258,23.2794521 175.962893,21.1342466 174.285535,20.1808219 C174.125786,20.1013699 173.966038,20.0219178 173.646541,19.8630137 C173.167296,19.7041096 172.68805,19.6246575 172.208805,19.6246575 L171.250314,19.6246575 C169.013836,19.6246575 166.058491,21.0547945 164.301258,22.0082192 C163.742138,22.3260274 164.141509,23.2794521 164.860377,23.0410959 C166.537736,22.3260274 168.614465,22.1671233 167.655975,24.3123288 L163.262893,33.5287671 C160.467296,39.2493151 155.99434,49.5780822 167.256604,49.5780822 C172.049057,49.5780822 176.042767,46.8767123 179.157862,43.460274 C178.998113,47.0356164 181.713836,49.5780822 187.624528,49.5780822 C190.340252,49.5780822 194.893082,48.3863014 199.925157,46.4794521 C202.720755,48.8630137 206.79434,49.5780822 210.228931,49.5780822 C217.018239,49.5780822 223.328302,46.4794521 228.360377,41.7123288 C227.002516,46.3205479 229.638365,49.7369863 235.22956,49.7369863 C237.466038,49.7369863 241.699371,48.9424658 245.054088,45.2876712 C245.85283,44.4136986 245.133962,43.3808219 244.095597,44.1753425 C238.983648,47.9890411 235.389308,45.2082192 239.462893,36.7863014 L252.322642,9.1369863 L252.322642,9.1369863 Z M216.698742,25.5041096 C218.136478,25.5041096 218.775472,26.2191781 218.775472,27.2520548 C218.775472,31.1452055 212.465409,35.5150685 205.755975,38.7726027 C205.116981,33.4493151 211.746541,25.5041096 216.698742,25.5041096 L216.698742,25.5041096 Z" id="Shape"></path>
                    </g>
                </g>
            </g>
        </g>
    </g>
</svg>