<?xml version="1.0" encoding="UTF-8" standalone="no"?>
<svg width="188px" height="25px" viewBox="0 0 188 25" version="1.1" xmlns="http://www.w3.org/2000/svg" xmlns:xlink="http://www.w3.org/1999/xlink">
    <!-- Generator: Sketch 41.1 (35376) - http://www.bohemiancoding.com/sketch -->
    <title>Shape</title>
    <desc>Created with Sketch.</desc>
    <defs></defs>
    <g id="Website-2.0" stroke="none" stroke-width="1" fill="none" fill-rule="evenodd">
        <g id="press-icons" transform="translate(-608.000000, -85.000000)" fill="#524D66">
            <path d="M646.461,103.644 L646.19,103.395 C644.855,104.82 644.267,105.205 643.271,105.205 C642.525,105.205 641.642,104.729 640.443,103.599 L640.443,100.182 L646.462,95.59 L642.344,91.517 C640.556,92.943 640.262,93.191 638.972,94.209 C638.248,94.752 637.841,95.001 637.389,95.205 C637.457,95.703 637.547,96.427 637.547,96.924 L637.547,104.571 C636.845,105.227 636.167,105.521 635.669,105.521 C634.991,105.521 634.493,105.115 634.493,104.39 L634.493,94.163 C634.086,92.873 633.294,92.036 631.733,91.494 L627.932,94.571 L627.932,87.376 C627.932,86.335 628.521,85.385 629.063,85.136 L629.063,85 C627.524,85 626.439,86.018 625.963,87.172 L625.307,85.792 L625.058,85.837 L625.058,104.232 C623.542,105.023 621.913,105.906 620.125,105.906 C619.786,105.906 619.492,105.906 619.152,105.861 L619.152,90.136 C619.944,90.227 620.442,90.272 620.917,90.272 C621.618,90.272 622.071,90.136 622.41,89.978 L624.47,85.792 L624.13,85.724 C623.338,87.308 622.908,87.557 621.212,87.557 C620.42,87.557 618.655,87.353 616.89,87.127 C615.216,86.923 613.519,86.72 612.637,86.72 C610.035,86.72 608.542,88.507 608.542,90.362 C608.542,91.109 608.791,91.856 609.289,92.534 L609.583,92.307 C609.243,91.9 609.04,91.357 609.04,90.905 C609.04,90.135 609.628,89.479 611.212,89.479 C611.846,89.479 614.063,89.683 616.145,89.841 C613.769,91.017 611.801,92.284 609.493,94.027 C608.498,95.361 608,97.081 608,98.846 C608,103.348 611.417,108.235 618.996,108.235 C621.213,106.991 624.472,105.114 624.472,105.114 L627.481,107.828 L629.563,105.769 L627.934,104.073 L627.934,95.34 C628.658,94.367 629.45,93.96 630.061,93.96 C630.785,93.96 631.441,94.458 631.622,95.362 L631.622,105.861 C631.871,106.743 632.912,107.58 633.953,107.875 L637.686,105.069 L641.984,108.033 L646.461,103.644 Z M643.814,96.923 L640.443,99.639 L640.443,93.779 L640.556,93.666 L643.814,96.923 Z M618.746,105.816 C616.642,105.567 614.854,104.775 613.519,103.552 C616.098,101.675 616.686,100.589 616.686,98.507 L616.686,90.023 L616.777,89.933 C617.614,90.023 618.067,90.069 618.745,90.114 L618.745,105.816 L618.746,105.816 Z M613.972,100.544 C613.972,101.811 613.768,102.557 613.09,103.146 C611.551,101.562 610.715,99.299 610.715,96.743 C610.715,95.341 610.964,94.232 611.462,93.485 C612.299,92.738 613.294,92.037 613.973,91.652 L613.973,100.544 L613.972,100.544 L613.972,100.544 Z M684.109,94.028 L679.313,91.404 C677.842,92.874 675.964,94.028 673.837,95.204 C674.131,96.086 674.041,97.218 674.041,98.621 C674.041,102.105 674.086,103.983 673.453,104.911 L678.77,108.169 C680.218,106.653 681.801,105.477 683.951,104.322 C683.77,103.779 683.725,103.236 683.725,102.739 L683.725,96.788 C683.725,95.046 683.906,94.412 684.109,94.028 L684.109,94.028 Z M672.163,97.67 L668.43,95.204 C669.855,94.322 670.308,94.073 670.828,93.688 C671.688,93.077 671.936,92.692 671.936,92.308 C671.936,92.037 671.823,91.494 671.144,90.476 C670.307,89.231 669.515,88.01 667.841,85.679 C665.51,87.262 664.221,88.213 661.755,90.136 C660.737,90.95 659.99,92.195 659.99,93.779 C659.99,94.322 660.035,97.128 660.035,98.961 C660.035,100.386 659.786,101.133 658.271,102.399 C654.651,102.399 652.479,104.729 652.479,107.083 C652.479,108.078 652.796,109.119 653.565,109.956 L653.814,109.707 C653.339,109.21 652.977,108.418 652.977,107.49 C652.977,106.246 653.882,104.866 656.778,104.866 C659.946,104.866 662.91,107.038 664.63,108.078 C667.096,105.997 668.657,105.115 671.824,104.074 L671.824,98.757 C671.824,98.371 671.937,98.009 672.163,97.67 L672.163,97.67 Z M663.43,87.104 L663.34,86.833 C661.575,86.833 660.625,86.629 659.697,86.471 C658.815,86.335 658.068,86.177 657.027,86.177 C654.267,86.177 652.48,87.602 652.48,89.887 C652.48,90.86 652.684,91.404 653.317,92.105 L653.566,91.856 C653.226,91.449 653.045,91.019 653.045,90.566 C653.045,89.57 653.882,88.688 655.737,88.688 C657.117,88.688 658.362,88.937 659.447,89.186 C657.116,90.906 655.691,92.15 655.691,95.792 C655.352,95.656 654.899,95.588 654.266,95.588 C652.501,95.588 651.596,96.742 651.596,97.874 C651.596,98.371 651.709,98.914 652.049,99.299 L652.343,99.141 C652.212444,98.9051231 652.142356,98.6405766 652.139,98.371 C652.139,97.625 652.727,97.036 653.813,97.036 C654.763,97.036 655.487,97.467 655.804,98.055 C655.804,100.589 655.306,101.901 653.971,101.901 L653.971,102.173 C655.984,102.173 658.405,100.725 658.405,98.371 L658.405,93.688 C658.407,89.842 660.67,88.055 663.43,87.104 L663.43,87.104 Z M680.715,105.951 L680.557,106.064 L677.254,104.074 L677.254,93.485 L680.715,95.454 L680.715,105.951 Z M668.905,93.621 C668.905,94.526 668.068,95.001 665.262,96.743 L665.262,94.073 C665.262,92.739 665.352,91.992 665.375,91.449 L664.81,91.449 C664.877,92.037 664.923,92.739 664.923,94.073 L664.923,104.729 C663.181,103.689 661.031,102.603 658.792,102.444 C660.919,101.223 663.045,99.593 663.045,97.218 L663.045,91.991 C663.045,90.317 663.724,89.299 665.466,87.805 C666.533063,89.3547004 667.536887,90.9470068 668.475,92.578 C668.724,92.987 668.905,93.417 668.905,93.621 L668.905,93.621 Z M668.43,98.847 L668.363,104.866 C667.729,105.205 667.3,105.408 666.734,105.816 C666.259,105.521 665.806,105.227 665.263,104.911 L665.263,97.128 L668.43,98.847 L668.43,98.847 Z M729.631,105.069 L729.336,104.729 L727.912,105.951 C727.211,105.951 726.713,105.454 726.713,104.639 C726.713,103.937 726.758,95.657 726.779,94.231 C726.236,93.145 725.535,92.308 723.953,91.765 L720.15,94.571 C720.15,93.417 719.472,92.354 718.181,91.698 L715.964,93.576 L717.142,94.82 C717.142,94.82 717.097,102.174 717.097,103.395 C717.097,104.616 716.214,105.476 716.214,105.476 L719.675,108.033 L721.53,105.77 L720.149,104.526 L720.149,95.34 C720.805,94.457 721.53,94.072 722.141,94.072 C722.866,94.072 723.453,94.57 723.612,95.294 C723.657,95.837 723.657,96.697 723.657,97.625 C723.657,99.05 723.657,104.073 723.612,106.019 C723.86,106.901 725.151,108.123 725.987,108.123 L729.631,105.069 L729.631,105.069 Z M714.449,104.48 C714.30672,103.964607 714.238371,103.431617 714.246,102.897 L714.246,94.118 L709.699,91.561 C708.228,93.032 706.553,94.072 704.428,95.249 C704.563,95.656 704.631,96.335 704.631,96.788 L704.631,104.186 C703.975,104.911 703.295,105.318 702.707,105.318 C702.119,105.318 701.553,105.069 700.92,104.39 C700.92,103.825 700.965,97.467 700.965,93.576 L704.223,93.576 L704.223,92.784 L700.965,92.649 C700.965,92.649 700.988,89.594 701.033,88.983 L700.671,88.983 L696.101,93.78 C694.155,93.486 692.684,92.784 690.558,91.314 C688.884,93.034 687.752,93.826 685.739,94.776 C685.829,95.794 685.875,96.337 685.875,97.332 C685.875,98.509 685.875,98.894 685.784,99.89 L688.454,101.767 L685.942,104.392 C684.856,105.523 684.449,106.451 684.449,107.378 C684.449,108.215 684.788,108.871 685.286,109.505 L685.58,109.324 C685.241,108.826 685.038,108.237 685.038,107.694 C685.038,106.835 685.49,106.065 686.78,106.065 C688.092,106.065 689.495,106.902 690.92,108.034 C692.504,106.563 693.68,105.613 695.445,104.73 L695.445,100.477 C695.445,99.979 695.49,99.753 695.604,99.436 L692.934,97.626 L696.351,93.915 L697.957,93.915 C697.957,97.717 697.912,102.603 697.912,103.146 C697.912,103.825 697.776,104.639 697.324,105.318 L701.125,108.124 L704.382,105.16 L709.111,108.236 C710.943,106.539 712.414,105.408 714.449,104.48 L714.449,104.48 Z M711.191,106.019 L711.033,106.155 L707.685,104.096 L707.685,93.666 L711.191,95.748 L711.191,106.019 Z M693.928,95.883 L690.422,99.684 L688.883,98.552 L688.883,93.485 C690.467,94.571 691.395,95.159 693.928,95.883 L693.928,95.883 Z M692.548,105.951 C691.349,104.866 689.675,103.937 687.005,103.937 L691.1,99.593 L692.503,100.837 L692.548,105.951 L692.548,105.951 Z M771.939,93.87 L766.918,91.268 C765.379,92.693 763.863,93.734 761.85,94.752 C761.985,95.114 762.098,96.675 762.098,97.626 L762.121,104.526 C761.646,105.023 761.193,105.273 760.74,105.273 C760.265,105.273 759.767,105.069 759.135,104.617 L759.135,87.897 C759.135,86.924 759.723,85.793 760.469,85.793 L760.469,85.68 C758.93,85.68 757.551,86.381 757.143,87.558 C756.758,86.924 756.17,86.381 755.288,86.381 L755.267,86.562 C755.765,86.562 756.261,87.964 756.261,89.3 L756.261,102.739 C756.261,104.028 756.081,104.684 755.583,105.408 L758.931,107.829 L762.077,105.115 L766.919,108.033 C768.751,106.313 769.837,105.318 771.896,104.096 C771.761,103.485 771.714,102.263 771.714,101.765 L771.714,95.838 C771.713,94.82 771.76,94.277 771.939,93.87 L771.939,93.87 Z M753.953,87.376 L753.592,87.059 L752.211,88.507 C752.211,88.507 748.658,87.353 745.762,85.679 C741.803,88.688 738.795,90.815 734.903,93.575 C733.975,94.955 733.477,96.742 733.477,98.71 C733.477,104.073 738.411,108.235 744.631,108.235 C748.682,106.539 751.578,104.14 753.705,101.267 C753.84,100.678 753.885,99.841 753.885,99.389 C753.885,95.497 751.239,93.326 748.432,92.647 L753.953,87.376 Z M768.84,105.612 L768.592,105.77 L765.039,103.53 L765.039,93.53 L768.795,95.363 L768.84,105.612 Z M749.518,90.973 L745.061,94.955 L745.061,88.801 C746.644,89.434 748.07,90.182 749.518,90.973 Z M751.148,100.883 C751.148,102.105 751.035,102.942 750.695,103.937 C749.496,105.16 747.685,105.861 745.65,105.861 L745.06,105.861 L745.06,95.114 C745.405266,95.0700104 745.752943,95.0476335 746.101,95.047 C749.111,95.046 751.148,97.761 751.148,100.883 Z M744.631,105.816 C742.414,105.657 740.717,104.911 739.36,103.779 C741.419,102.354 742.71,101.63 742.71,99.458 L742.71,88.643 L743.343,88.145 C743.796,88.303 744.181,88.484 744.632,88.643 L744.632,105.816 L744.631,105.816 Z M740.129,101.019 C740.129,102.15 739.789,102.851 739.043,103.44 C737.324,101.765 736.486,99.435 736.486,97.082 C736.486,93.576 737.709,92.24 739.359,91.019 C739.63,90.815 739.88,90.657 740.129,90.477 L740.129,101.019 Z M795.086,103.644 L794.836,103.395 C793.547,104.684 792.801,105.227 792.031,105.227 C791.285,105.227 790.584,104.775 789.066,103.598 L789.066,100.181 L794.972,95.453 C793.591,94.276 790.742,91.448 790.742,91.448 C789.158,92.873 788.23,93.665 786.012,95.203 C786.104,95.656 786.194,96.289 786.194,96.787 L786.194,103.439 C786.194,103.891 786.149,104.231 785.967,104.774 L790.606,108.032 L795.086,103.644 L795.086,103.644 Z M783.75,104.435 C783.547,102.557 783.592,97.467 783.592,95.068 C783.592,93.529 782.258,92.399 780.582,91.697 L777.166,94.57 L777.166,88.303 C777.166,87.262 777.777,86.131 778.547,86.131 L778.547,85.927 C776.918,85.927 775.108,87.217 774.813,88.054 C774.452,87.42 773.569,87.058 772.733,87.058 L772.688,87.375 C773.524,87.375 774.315,88.8 774.315,91.312 C774.315,96.38 774.27,101.223 774.27,103.304 C774.27,103.983 774.18,104.435 773.819,104.978 L778.954,108.124 C780.922,106.29 781.668,105.747 783.75,104.435 L783.75,104.435 Z M792.279,96.878 L789.066,99.502 L789.066,93.53 L792.279,96.878 L792.279,96.878 Z M780.832,100.34 C780.832,102.173 780.74,105.77 780.74,105.905 L780.629,106.018 L777.166,103.846 L777.166,95.34 C777.709,94.502 778.457,94.072 779.111,94.072 C779.927,94.072 780.492,94.66 780.787,95.453 C780.787,95.792 780.832,98.009 780.832,100.34 L780.832,100.34 Z" id="Shape"></path>
        </g>
    </g>
</svg>