<?xml version="1.0" encoding="UTF-8" standalone="no"?>
<svg width="68px" height="70px" viewBox="0 0 68 70" version="1.1" xmlns="http://www.w3.org/2000/svg" xmlns:xlink="http://www.w3.org/1999/xlink">
    <!-- Generator: Sketch 41.1 (35376) - http://www.bohemiancoding.com/sketch -->
    <title>NowThis</title>
    <desc>Created with Sketch.</desc>
    <defs></defs>
    <g id="Website-2.0" stroke="none" stroke-width="1" fill="none" fill-rule="evenodd">
        <g id="press-icons" transform="translate(-265.000000, -477.000000)" fill="#524D66">
            <g id="NowThis" transform="translate(265.000000, 477.000000)">
                <g id="Layer_1">
                    <g id="Group">
                        <path d="M0,0 L0,33.0793651 L67.9214781,33.0793651 L67.9214781,0 L0,0 Z M63.2886836,28.3968254 L4.63279446,28.3968254 L4.63279446,4.68253968 L63.2886836,4.68253968 L63.2886836,28.3968254 Z" id="Shape"></path>
                        <polygon id="Shape" points="23.2581986 23.1587302 20.4785219 23.1587302 14.9976905 15.4126984 14.9976905 23.1587302 11.6840647 23.1587302 11.6840647 9.92063492 14.8877598 9.92063492 19.9445727 17.2063492 19.9445727 9.92063492 23.2581986 9.92063492"></polygon>
                        <path d="M32.3667436,23.5396825 C28.5976905,23.5396825 25.9907621,20.6507937 25.9907621,16.6984127 C25.9907621,12.7301587 28.5976905,9.85714286 32.3667436,9.85714286 C36.1672055,9.85714286 38.7898383,12.7301587 38.7898383,16.6984127 C38.7898383,20.6507937 36.1672055,23.5396825 32.3667436,23.5396825 Z M32.3667436,12.9047619 C30.5921478,12.9047619 29.4457275,14.4126984 29.4457275,16.6984127 C29.4457275,18.984127 30.5921478,20.4920635 32.3667436,20.4920635 C34.1413395,20.4920635 35.334873,18.984127 35.334873,16.6984127 C35.334873,14.4126984 34.1413395,12.9047619 32.3667436,12.9047619 Z" id="Shape"></path>
                        <polygon id="Shape" points="50.2226328 10.0793651 52.2327945 17.8571429 54.0387991 10.0793651 57.4937644 10.0793651 54.0387991 23.3174603 50.8979215 23.3174603 48.8720554 15.5555556 46.830485 23.3174603 43.6896074 23.3174603 40.2503464 10.0793651 43.7524249 10.0793651 45.5898383 17.8571429 47.6157044 10.0793651"></polygon>
                        <path d="M0,36.8888889 L0,69.968254 L67.9214781,69.968254 L67.9214781,36.8888889 L0,36.8888889 Z M63.2886836,65.2857143 L4.63279446,65.2857143 L4.63279446,41.5714286 L63.2886836,41.5714286 L63.2886836,65.2857143 Z" id="Shape"></path>
                        <polygon id="Shape" points="10.6946882 46.8095238 22.221709 46.8095238 22.221709 49.7936508 18.1699769 49.7936508 18.1699769 60.047619 14.7307159 60.047619 14.7307159 49.7936508 10.6946882 49.7936508"></polygon>
                        <polygon id="Shape" points="36.7168591 46.8095238 36.7168591 60.047619 33.2775982 60.047619 33.2775982 54.8095238 28.2207852 54.8095238 28.2207852 60.047619 24.7815242 60.047619 24.7815242 46.8095238 28.2207852 46.8095238 28.2207852 51.8412698 33.2775982 51.8412698 33.2775982 46.8095238"></polygon>
                        <rect id="Rectangle-path" x="40.1718245" y="46.8095238" width="3.43926097" height="13.2380952"></rect>
                        <path d="M49.9242494,56.1269841 C50.2069284,57.031746 50.9764434,57.4920635 52.0286374,57.4920635 C53.0808314,57.4920635 53.8032333,57.031746 53.8032333,56.2222222 C53.8032333,55.6031746 53.3949192,55.3174603 52.5625866,55.1269841 L50.0498845,54.5873016 C48.1339492,54.1587302 46.6734411,53.1428571 46.6734411,50.9047619 C46.6734411,48.3174603 48.8092379,46.6190476 51.7145497,46.6190476 C54.9182448,46.6190476 56.7242494,48.3809524 57.0854503,50.6666667 L53.7404157,50.6666667 C53.4577367,49.9365079 52.86097,49.3650794 51.730254,49.3650794 C50.756582,49.3650794 50.0812933,49.7936508 50.0812933,50.5238095 C50.0812933,51.1111111 50.4896074,51.4285714 51.1648961,51.5873016 L53.7247113,52.1904762 C55.9704388,52.7301587 57.1953811,53.952381 57.1953811,56 C57.1953811,58.7142857 54.9339492,60.2698413 52.0757506,60.2698413 C48.934873,60.2698413 46.7990762,58.7460317 46.343649,56.1269841 L49.9242494,56.1269841 L49.9242494,56.1269841 Z" id="Shape"></path>
                    </g>
                </g>
            </g>
        </g>
    </g>
</svg>