<?xml version="1.0" encoding="UTF-8" standalone="no"?>
<svg width="129px" height="50px" viewBox="0 0 129 50" version="1.1" xmlns="http://www.w3.org/2000/svg" xmlns:xlink="http://www.w3.org/1999/xlink">
    <!-- Generator: Sketch 41.1 (35376) - http://www.bohemiancoding.com/sketch -->
    <title>the-huffington-post</title>
    <desc>Created with Sketch.</desc>
    <defs></defs>
    <g id="Website-2.0" stroke="none" stroke-width="1" fill="none" fill-rule="evenodd">
        <g id="press-icons" transform="translate(-437.000000, -72.000000)" fill="#524D66">
            <g id="the-huffington-post" transform="translate(437.000000, 72.000000)">
                <g id="Group">
                    <path d="M51.2261657,9.66252806 C51.2261657,11.5306443 51.2618561,11.7983775 52.2951588,11.8869057 L52.8649159,11.941054 C52.9706972,12.0123922 52.9367268,12.3325547 52.8287954,12.384984 C51.8148429,12.3497447 51.2085355,12.3325547 50.4955867,12.3325547 C49.7826379,12.3325547 49.1599902,12.3506042 48.0200461,12.384984 C47.9134048,12.3325547 47.8772844,12.0287226 48.0200461,11.941054 L48.6616141,11.8869057 C49.6777166,11.7983775 49.7662977,11.5302145 49.7662977,9.66252806 L49.7662977,1.7061666 C49.7662977,1.15479943 49.7662977,1.13675 49.2313711,1.13675 L48.251819,1.13675 C47.4864096,1.13675 46.5064275,1.17198937 46.061372,1.58153957 C45.6335167,1.97304034 45.4559245,2.36368162 45.2607021,2.80933069 C45.1188004,2.91676778 44.8681073,2.82738012 44.7975864,2.68470366 C45.0822499,1.88451218 45.3492832,0.74524923 45.4748448,0.0331561692 C45.5285954,-0.00251294617 45.7590783,-0.0188433845 45.8132589,0.0331561692 C45.9194703,0.603002517 46.5072875,0.584953086 47.3268776,0.584953086 L54.5397865,0.584953086 C55.5004184,0.584953086 55.6616703,0.548854222 55.9287036,0.0868747163 C56.0181447,0.0507758526 56.2133671,0.0688252845 56.2499176,0.140163515 C56.0534052,0.86987626 55.9287036,2.31125232 55.9820243,2.8458593 C55.9115034,2.98767626 55.6079197,2.98767626 55.5197686,2.88109867 C55.4660179,2.43673884 55.3421764,1.77793458 55.0742831,1.58239907 C54.6644881,1.27942646 53.9889497,1.1376095 53.0098277,1.1376095 L51.7451821,1.1376095 C51.2102555,1.1376095 51.2283157,1.15565893 51.2283157,1.74269521 L51.2283157,9.66252806 L51.2265957,9.66252806 L51.2261657,9.66252806 Z M62.5963658,6.58381068 C61.7415153,6.58381068 61.7053949,6.61990955 61.7053949,7.15322728 L61.7053949,9.66252806 C61.7053949,11.5315038 61.794836,11.7811876 62.7920182,11.8877652 L63.3084546,11.941054 C63.4142359,12.0123922 63.3798355,12.3325547 63.2723342,12.3858435 C62.3117023,12.3497447 61.7045348,12.3316952 61.0105063,12.3316952 C60.2450969,12.3316952 59.6396494,12.3677941 58.9460508,12.3858435 C58.8385495,12.3316952 58.8028591,12.0476316 58.9095004,11.941054 L59.2126541,11.8877652 C60.2106964,11.7094196 60.2450969,11.531074 60.2450969,9.66252806 L60.2450969,3.25497975 C60.2450969,1.38729331 60.1212553,1.0843207 59.1945939,1.01298247 L58.7323382,0.977743102 C58.6248369,0.90683462 58.6609573,0.586242331 58.7675986,0.532523784 C59.6405094,0.550573215 60.2459569,0.586242331 61.0113663,0.586242331 C61.7053949,0.586242331 62.3125623,0.567763151 63.0779718,0.532523784 C63.1854731,0.586242331 63.2207335,0.90683462 63.1140922,0.977743102 L62.774388,1.01298247 C61.7423753,1.12041956 61.7062549,1.38686356 61.7062549,3.2554095 L61.7062549,5.30230102 C61.7062549,5.85409794 61.7423753,5.87214737 62.5972258,5.87214737 L67.6910686,5.87214737 C68.5450592,5.87214737 68.5811796,5.85409794 68.5811796,5.30230102 L68.5811796,3.2554095 C68.5811796,1.38729331 68.5450592,1.12041956 67.4949862,1.01298247 L67.156572,0.977743102 C67.0507907,0.90683462 67.0851912,0.586242331 67.1926925,0.532523784 C67.9102934,0.566958711 68.6285928,0.584869644 69.3470191,0.586242331 C70.0406176,0.586242331 70.6469251,0.567763151 71.4475949,0.532523784 C71.5550963,0.586242331 71.5907867,0.90683462 71.4837154,0.977743102 L71.1096108,1.01298247 C70.076308,1.12041956 70.0397576,1.38686356 70.0397576,3.2554095 L70.0397576,9.66252806 C70.0397576,11.5315038 70.076308,11.7618489 71.1091808,11.8877652 L71.5374661,11.941054 C71.6449674,12.0123922 71.6079869,12.3325547 71.5017756,12.3858435 C70.7840186,12.3517037 70.0655859,12.3336498 69.3470191,12.3316952 C68.6177301,12.3316952 67.9761622,12.3497447 67.1926925,12.3858435 C67.0851912,12.3316952 67.0507907,12.0476316 67.156572,11.941054 L67.4949862,11.8877652 C68.5816096,11.7094196 68.5816096,11.531074 68.5816096,9.66252806 L68.5816096,7.15322728 C68.5816096,6.61990955 68.5450592,6.58381068 67.6914986,6.58381068 L62.5963658,6.58381068 L62.5963658,6.58381068 Z M75.998771,3.2554095 C75.998771,1.403194 75.9622206,1.13675 74.9121477,1.01298247 L74.6261941,0.976453857 C74.5204128,0.905975123 74.5565333,0.585382834 74.6623146,0.532523784 C75.427724,0.567763151 76.0331715,0.586242331 76.7641805,0.586242331 L80.1126318,0.586242331 C81.2517158,0.586242331 82.3030788,0.586242331 82.5163614,0.532523784 C82.6221427,0.834636893 82.730074,2.11614655 82.8001649,2.8991481 C82.730074,3.00658519 82.4458405,3.04182456 82.3555394,2.93524696 C82.0885061,2.09766737 81.9281141,1.47496198 81.0018827,1.2433276 C80.6273481,1.15565893 80.0571611,1.1376095 79.2745514,1.1376095 L77.9927056,1.1376095 C77.457779,1.1376095 77.457779,1.17284887 77.457779,1.84927281 L77.457779,5.40801912 C77.457779,5.90652724 77.5123897,5.90652724 78.0460263,5.90652724 L79.078039,5.90652724 C79.8262482,5.90652724 80.378375,5.87128788 80.5929477,5.80080914 C80.8062303,5.72904116 80.9313619,5.62160407 81.020803,5.17767399 L81.1639947,4.44710175 C81.2517158,4.34138365 81.5544395,4.34138365 81.6262504,4.46515118 C81.6262504,4.89189132 81.5557296,5.5863647 81.5557296,6.2614994 C81.5557296,6.90268398 81.6262504,7.57910793 81.6262504,7.9706087 C81.5557296,8.09523573 81.2521458,8.09523573 81.1639947,7.98865813 L81.0027427,7.29504425 C80.9313619,6.97445196 80.8075203,6.70757822 80.4510459,6.61819055 C80.2012129,6.54642258 79.7742176,6.52837314 79.079329,6.52837314 L78.0473163,6.52837314 C77.5132497,6.52837314 77.458639,6.54642258 77.458639,7.00969133 L77.458639,9.51856235 C77.458639,10.4627195 77.5132497,11.0678053 77.7983432,11.3694886 C78.0107659,11.5830736 78.3853005,11.7790388 79.9530998,11.7790388 C81.3239567,11.7790388 81.8408231,11.7085601 82.2334179,11.5125948 C82.5533418,11.3333898 83.0340878,10.7115438 83.4980635,9.7854361 C83.621905,9.69776743 83.8725981,9.75019673 83.943119,9.91006313 C83.8184174,10.5340578 83.3725019,11.9040956 83.1407291,12.3841245 C81.5385293,12.3488852 79.9543898,12.3308357 78.3681003,12.3308357 L76.7659005,12.3308357 C76.0004911,12.3308357 75.3950436,12.3488852 74.3436806,12.3841245 C74.2370393,12.3308357 74.2000589,12.0459126 74.3075602,11.9401945 L74.8958075,11.8860462 C75.90976,11.7983775 75.9996311,11.529355 75.9996311,9.66166856 L75.9996311,3.2554095 L75.998771,3.2554095 L75.998771,3.2554095 Z M3.92902263,25.2752866 C3.07417209,25.2752866 3.03891166,25.310526 3.03891166,25.845133 L3.03891166,28.3544337 C3.03891166,30.2234094 3.12663274,30.471804 4.12424504,30.5796708 L4.64111141,30.6321001 C4.74689271,30.7034384 4.71249229,31.0231712 4.60499096,31.0777492 C3.64392911,31.0416503 3.03848165,31.0236009 2.34316308,31.0236009 C1.57775364,31.0236009 0.972306181,31.0596998 0.278277625,31.0777492 C0.1707763,31.0236009 0.135515866,30.7395372 0.24215718,30.6321001 L0.545310917,30.5796708 C1.54292321,30.4004658 1.57732364,30.2229797 1.57732364,28.3544337 L1.57732364,21.9468854 C1.57732364,20.0787692 1.45348211,19.7762264 0.527250695,19.7044584 L0.0649949962,19.6696488 C-0.042506329,19.5983105 -0.00681588904,19.2772885 0.100255431,19.2248592 C0.973166191,19.2429086 1.57861365,19.2772885 2.34402309,19.2772885 C3.03977167,19.2772885 3.64478913,19.2592391 4.41019856,19.2248592 C4.51769989,19.2772885 4.55339033,19.59917 4.44631901,19.6696488 L4.10704482,19.7048881 C3.0750321,19.8123252 3.03977167,20.079199 3.03977167,21.9473152 L3.03977167,23.9946364 C3.03977167,24.5460036 3.0750321,24.564053 3.92988264,24.564053 L9.02372543,24.564053 C9.87771596,24.564053 9.91383641,24.5460036 9.91383641,23.9946364 L9.91383641,21.9473152 C9.91383641,20.079199 9.87771596,19.812755 8.82807302,19.7048881 L8.48879884,19.6696488 C8.38301753,19.5983105 8.41741796,19.2772885 8.52491928,19.2248592 C9.34407938,19.2600986 9.94995685,19.2772885 10.6792458,19.2772885 C11.3741344,19.2772885 11.9804419,19.2592391 12.7811118,19.2248592 C12.8886131,19.2772885 12.9238735,19.59917 12.8172322,19.6696488 L12.4426976,19.7048881 C11.4106849,19.8123252 11.3741344,20.079199 11.3741344,21.9473152 L11.3741344,28.3548635 C11.3741344,30.2238392 11.4102549,30.4550438 12.4426976,30.5801006 L12.8696928,30.6325299 C12.9771942,30.7038681 12.9410737,31.0236009 12.8344324,31.0781789 C12.1162457,31.0440218 11.3973827,31.0259678 10.6783858,31.0240307 C9.94909684,31.0240307 9.30752893,31.0420801 8.52405927,31.0781789 C8.41655795,31.0240307 8.38129751,30.739967 8.48793883,30.6325299 L8.82764302,30.5801006 C9.91297639,30.4008955 9.91297639,30.2234094 9.91297639,28.3548635 L9.91297639,25.845133 C9.91297639,25.3109557 9.87685595,25.2757164 9.02286542,25.2757164 L3.92902263,25.2757164 L3.92902263,25.2752866 Z M25.779742,23.7445229 C25.779742,22.6413588 25.7431915,20.5944673 25.4413278,20.0598603 C25.3166263,19.8467051 24.9949823,19.7216483 24.5512168,19.686409 L24.1057314,19.6503101 C23.99823,19.5256831 24.0343505,19.2940487 24.1409918,19.22357 C24.8172075,19.2599217 25.4942836,19.2779778 26.1714768,19.2777183 C26.9205461,19.2777183 27.400862,19.2596688 28.0415699,19.22357 C28.1843316,19.3120981 28.1662714,19.544592 28.0768303,19.6503101 L27.649835,19.686409 C27.2056396,19.7216483 26.8672254,19.8819445 26.7597241,20.1144383 C26.510321,20.7010449 26.510321,22.7470769 26.510321,23.7445229 L26.510321,25.7566048 C26.510321,27.3054179 26.2609179,28.9418998 25.2633056,30.0098245 C24.4978962,30.8461148 23.1803599,31.3093836 21.8619637,31.3093836 C20.6321485,31.3093836 19.4049134,31.0777492 18.5315726,30.329987 C17.586851,29.5469855 17.1426555,28.2465669 17.1426555,26.1291966 L17.1426555,21.928836 C17.1426555,20.0779097 17.1065351,19.7757966 16.0745223,19.686409 L15.6290369,19.6503101 C15.5215355,19.5789719 15.557656,19.2768588 15.6655873,19.22357 C16.5556983,19.2596688 17.1607157,19.2777183 17.8728045,19.2777183 C18.6038135,19.2777183 19.1920608,19.2596688 20.0632515,19.22357 C20.1707528,19.2777183 20.2051533,19.5798314 20.099372,19.6503101 L19.6723767,19.686409 C18.639074,19.7762264 18.6038135,20.0779097 18.6038135,21.928836 L18.6038135,25.7729352 C18.6038135,28.6393569 19.4939245,30.5250928 22.2192981,30.5250928 C24.8014799,30.5250928 25.780602,28.4962507 25.780602,25.7909847 L25.780602,23.7445229 L25.779742,23.7445229 L25.779742,23.7445229 Z M33.5495078,24.2963198 C33.5495078,24.7763487 33.6028284,24.7763487 34.137755,24.7763487 L35.34908,24.7763487 C36.0783689,24.7763487 36.648126,24.7411094 36.8618386,24.6706306 C37.057061,24.5992924 37.2002528,24.509475 37.3068941,24.046636 L37.4681461,23.3349727 C37.5558672,23.2283951 37.8594509,23.2283951 37.9304018,23.3349727 C37.9304018,23.7617128 37.8590209,24.4742356 37.8590209,25.1326101 C37.8590209,25.7737947 37.9304018,26.4489294 37.9304018,26.8597689 C37.8590209,26.965487 37.5919876,26.965487 37.4681461,26.8597689 L37.2888339,26.164436 C37.1993928,25.8442735 37.057061,25.5945897 36.7190768,25.4888716 C36.4701038,25.4175333 36.0250483,25.3994839 35.3482199,25.3994839 L34.136895,25.3994839 C33.6019684,25.3994839 33.5486478,25.4175333 33.5486478,25.8803723 L33.5486478,28.3535742 C33.5486478,30.2229797 33.5847682,30.4894237 34.6352712,30.5788113 L35.2407186,30.6321001 C35.3482199,30.7025789 35.3120995,31.0227414 35.2054582,31.0768897 C34.1532352,31.0407908 33.5486478,31.0227414 32.835699,31.0227414 C32.0522293,31.0227414 31.4467818,31.0407908 30.6099915,31.0768897 C30.5024902,31.0227414 30.4672298,30.7386777 30.5738711,30.6321001 L31.0189266,30.5788113 C32.0509393,30.4528951 32.0874897,30.2221202 32.0874897,28.3535742 L32.0874897,21.9460259 C32.0874897,20.0779097 32.0513693,19.8273664 31.0189266,19.7035989 L30.7338331,19.6683595 C30.6280518,19.5970213 30.6624522,19.2759993 30.7690935,19.22357 C31.5185927,19.2588093 32.1227502,19.2759993 32.835699,19.2759993 L36.1123394,19.2759993 C37.2527134,19.2759993 38.2851561,19.2759993 38.517359,19.22357 C38.517359,20.0418109 38.5345592,20.8965804 38.5711097,21.5734341 C38.517359,21.6795819 38.2679559,21.732441 38.1436844,21.6258634 C38.0009226,20.8248124 37.78721,20.1668676 36.897099,19.9352333 C36.5045042,19.8277962 35.917117,19.8277962 35.1689077,19.8277962 L34.0835744,19.8277962 C33.5486478,19.8277962 33.5486478,19.863895 33.5486478,20.540319 L33.5486478,24.2963198 L33.5495078,24.2963198 Z M44.2501897,24.2963198 C44.2501897,24.7763487 44.3035103,24.7763487 44.8380069,24.7763487 L46.0497619,24.7763487 C46.7786208,24.7763487 47.3488079,24.7411094 47.5633805,24.6706306 C47.7586029,24.5992924 47.9017947,24.509475 48.009296,24.046636 L48.169258,23.3349727 C48.2569791,23.2283951 48.5609928,23.2283951 48.6319437,23.3349727 C48.6319437,23.7617128 48.5601328,24.4742356 48.5601328,25.1326101 C48.5601328,25.7737947 48.6319437,26.4489294 48.6319437,26.8597689 C48.5601328,26.965487 48.2935295,26.965487 48.169258,26.8597689 L47.9903758,26.164436 C47.9005047,25.8442735 47.7586029,25.5945897 47.4201888,25.4888716 C47.1716457,25.4175333 46.7261602,25.3994839 46.0497619,25.3994839 L44.8380069,25.3994839 C44.3035103,25.3994839 44.2501897,25.4175333 44.2501897,25.8803723 L44.2501897,28.3535742 C44.2501897,30.2229797 44.2863101,30.4894237 45.3368131,30.5788113 L45.9418305,30.6321001 C46.0493319,30.7025789 46.0132114,31.0227414 45.9065701,31.0768897 C44.8543471,31.0407908 44.2501897,31.0227414 43.5372409,31.0227414 C42.7537712,31.0227414 42.1483238,31.0407908 41.3115335,31.0768897 C41.2040321,31.0227414 41.1683417,30.7386777 41.275413,30.6321001 L41.7213285,30.5788113 C42.7533412,30.4528951 42.7898917,30.2221202 42.7898917,28.3535742 L42.7898917,21.9460259 C42.7898917,20.0779097 42.7537712,19.8273664 41.7213285,19.7035989 L41.436235,19.6683595 C41.3295937,19.5970213 41.3648541,19.2759993 41.4714954,19.22357 C42.2205647,19.2588093 42.8251521,19.2759993 43.5381009,19.2759993 L46.8160313,19.2759993 C47.9555454,19.2759993 48.9879881,19.2759993 49.2197609,19.22357 C49.2197609,20.0418109 49.2369612,20.8965804 49.2730816,21.5734341 C49.2197609,21.6795819 48.9699279,21.732441 48.8452263,21.6258634 C48.7024646,20.8248124 48.4887519,20.1668676 47.5982109,19.9352333 C47.2060461,19.8277962 46.6177989,19.8277962 45.8704497,19.8277962 L44.7838263,19.8277962 C44.2501897,19.8277962 44.2501897,19.863895 44.2501897,20.540319 L44.2501897,24.2963198 L44.2501897,24.2963198 Z M53.5834547,21.9821248 C53.5834547,20.0959592 53.5473343,19.7934163 52.4968313,19.7035989 L52.0517758,19.6683595 C51.9442745,19.5978808 51.981255,19.2772885 52.0870363,19.22357 C52.9780073,19.2596688 53.5834547,19.2768588 54.3308039,19.2768588 C55.0428927,19.2768588 55.6487702,19.2596688 56.5393112,19.22357 C56.6468125,19.2768588 56.6812129,19.5978808 56.5745716,19.6683595 L56.1303761,19.7035989 C55.0798732,19.7921271 55.0437527,20.0959592 55.0437527,21.9821248 L55.0437527,28.3191944 C55.0437527,30.20536 55.0798732,30.4550438 56.1303761,30.5796708 L56.5745716,30.6321001 C56.6820729,30.7034384 56.6468125,31.0244604 56.5393112,31.0768897 C55.6492002,31.0407908 55.0428927,31.0244604 54.3308039,31.0244604 C53.5834547,31.0244604 52.9780073,31.0416503 52.0870363,31.0768897 C51.981255,31.0244604 51.9451345,30.7386777 52.0517758,30.6321001 L52.4968313,30.5796708 C53.5473343,30.4537546 53.5834547,30.20536 53.5834547,28.3191944 L53.5834547,21.981695 L53.5834547,21.9821248 Z M70.6477851,27.9990318 C70.6477851,28.5332091 70.6477851,30.6501496 70.7011057,31.1138481 C70.6658453,31.2195662 70.558344,31.3093836 70.3626916,31.3093836 C70.1494089,31.006411 69.6316826,30.3832758 68.0828035,28.6217372 L63.9517425,23.923728 C63.4714266,23.371931 62.2601017,21.9116461 61.8855671,21.5201453 L61.8503066,21.5201453 C61.7784958,21.7337302 61.7604355,22.1432804 61.7604355,22.6774577 L61.7604355,26.5576558 C61.7604355,27.3939461 61.7784958,29.7077114 62.0807895,30.2414589 C62.1882908,30.4382836 62.5439052,30.5444315 62.9902507,30.5796708 L63.5419475,30.6338191 C63.6477288,30.7764956 63.6313886,30.9900805 63.505827,31.0786087 C62.8117214,31.0450004 62.1169385,31.0272328 61.4220214,31.0253199 C60.6729521,31.0253199 60.1926362,31.0433693 59.5691285,31.0786087 C59.445287,30.99094 59.4263668,30.7403967 59.5338681,30.6338191 L60.014184,30.5796708 C60.4244091,30.526382 60.7082126,30.4206639 60.7980837,30.2229797 C61.0466267,29.5839438 61.0285665,27.4124253 61.0285665,26.557226 L61.0285665,21.4131379 C61.0285665,20.9159191 61.0105063,20.5416082 60.6376917,20.1316283 C60.3882886,19.8823742 59.9608633,19.7577472 59.5338681,19.7048881 L59.2307143,19.6687893 C59.123213,19.5630712 59.123213,19.2953379 59.2659748,19.2248592 C60.015474,19.278148 60.9580456,19.278148 61.2792596,19.278148 C61.5643531,19.278148 61.8675068,19.2600986 62.0979897,19.2248592 C62.4548941,20.1316283 64.55547,22.4819222 65.1432872,23.1398669 L66.8706185,25.0806106 C68.1004337,26.4506484 68.9733444,27.4468052 69.8101348,28.3015747 L69.8453952,28.3015747 C69.9159161,28.2126168 69.9159161,27.9268341 69.9159161,27.5525233 L69.9159161,23.7436634 C69.9159161,22.907373 69.8978558,20.5936078 69.5594417,20.0598603 C69.4536604,19.8999939 69.1685669,19.7934163 68.4556181,19.7035989 L68.1524643,19.6675 C68.0286228,19.5617819 68.046683,19.276429 68.1885848,19.22357 C69.0077449,19.2588093 69.6136223,19.2768588 70.2904507,19.2768588 C71.0567201,19.2768588 71.5202658,19.2588093 72.1252833,19.22357 C72.267185,19.3112386 72.267185,19.5617819 72.1614037,19.6675 L71.9120007,19.7035989 C71.3418136,19.7934163 70.9853392,19.9343738 70.9139584,20.0779097 C70.6108046,20.7173753 70.6473551,22.9254225 70.6473551,23.7436634 L70.6473551,27.9990318 L70.6477851,27.9990318 Z M85.0951032,29.2087735 C85.0951032,29.9204368 85.2026045,30.3480365 85.5220984,30.4726635 C85.5490352,30.5029476 85.5623533,30.5429542 85.5589392,30.5833301 C85.5555251,30.6237059 85.5356781,30.6609114 85.5040382,30.6862484 C85.2903256,30.6862484 84.9708316,30.7567272 84.6315575,30.8452553 C83.6889858,31.0957986 82.40585,31.3093836 81.4434982,31.3093836 C79.3252921,31.3093836 77.3829581,30.7223473 76.0112412,29.3334005 C74.943538,28.2654758 74.373781,26.8597689 74.373781,25.2924765 C74.373781,23.7797623 74.8721572,22.249858 75.9759808,21.0744962 C77.1692455,19.8282259 78.9326972,18.9919356 81.6219504,18.9919356 C82.6376229,18.9919356 83.5801945,19.1874711 83.8837782,19.2588093 C84.2209024,19.3301476 84.7730292,19.4543448 84.9871719,19.4186757 C84.9871719,20.0065715 85.0946732,20.9326793 85.2550652,21.9993147 C85.2017445,22.1411317 84.8805305,22.1596109 84.7734592,22.0538928 C84.2759431,20.1311985 82.9390566,19.5256831 81.1227142,19.5256831 C77.6680516,19.5256831 76.153143,21.983414 76.153143,24.6525812 C76.153143,28.0690808 77.9157347,30.7567272 81.4968188,30.7567272 C82.6006424,30.7567272 83.2598406,30.5250928 83.455493,30.2225499 C83.5432141,30.0979229 83.6339452,29.7773306 83.6339452,29.2087735 L83.6339452,28.4962507 C83.6339452,27.0007263 83.5793345,26.8950082 82.4755109,26.769092 L81.6911812,26.6814233 C81.5492795,26.6100851 81.5673397,26.289063 81.6911812,26.2366337 C82.2089076,26.2727326 83.1875997,26.289063 84.2381026,26.289063 C84.9329912,26.289063 85.5384386,26.2718731 86.1258259,26.2366337 C86.2513874,26.3071125 86.2685876,26.5748457 86.1434561,26.6814233 L85.8583626,26.7166627 C85.1092934,26.8064801 85.0929532,27.3045584 85.0929532,28.212187 L85.0929532,29.2087735 L85.0951032,29.2087735 L85.0951032,29.2087735 Z M94.5126493,28.3544337 C94.5126493,30.2225499 94.5487697,30.4902832 95.5820725,30.5788113 L96.1518295,30.6329596 C96.2576108,30.7042979 96.2223503,31.0240307 96.115709,31.0777492 C95.1013265,31.0425098 94.4963091,31.0244604 93.7825003,31.0244604 C93.0712715,31.0244604 92.4477638,31.0425098 91.3069598,31.0777492 C91.2003184,31.0244604 91.165058,30.7214878 91.3069598,30.6329596 L91.9493877,30.5788113 C92.9633402,30.4907129 93.0532113,30.2221202 93.0532113,28.3544337 L93.0532113,20.3980723 C93.0532113,19.8467051 93.0532113,19.8286557 92.5191447,19.8286557 L91.5395926,19.8286557 C90.7733232,19.8286557 89.7942011,19.863895 89.3482856,20.2734452 C88.9212903,20.6645163 88.7436982,21.0573063 88.5476157,21.5012364 C88.404424,21.6086735 88.1558809,21.5192858 88.08407,21.3774688 C88.3708836,20.5772773 88.6370568,19.4380144 88.7617584,18.7259213 C88.815079,18.6902522 89.0468519,18.6730623 89.1001726,18.7259213 C89.2068139,19.2957677 89.7950611,19.2777183 90.6146512,19.2777183 L97.8267001,19.2777183 C98.788192,19.2777183 98.948584,19.2416194 99.2156172,18.7792101 C99.3041983,18.743541 99.5002808,18.7615905 99.5364012,18.8329287 C99.3394588,19.5635009 99.2151872,21.0040175 99.2676479,21.5381947 C99.197987,21.6813009 98.8952633,21.6813009 98.8053922,21.5734341 C98.7520715,21.1286445 98.62823,20.47027 98.3603367,20.2743047 C97.9505417,19.9713321 97.2745733,19.8295152 96.2950212,19.8295152 L95.0308057,19.8295152 C94.4971691,19.8295152 94.5135093,19.8475646 94.5135093,20.4341711 L94.5135093,28.3544337 L94.5126493,28.3544337 L94.5126493,28.3544337 Z M101.391444,25.2752866 C101.391444,21.7165403 104.061777,18.9923653 107.731872,18.9923653 C111.845733,18.9923653 113.910188,21.9640754 113.910188,25.0982303 C113.910188,28.6926457 111.168905,31.3093836 107.731872,31.3093836 C103.777113,31.3085241 101.391444,28.4790608 101.391444,25.2757164 L101.391444,25.2752866 Z M112.130826,25.6487379 C112.130826,22.7118375 110.82963,19.5437325 107.428718,19.5437325 C105.576686,19.5437325 103.172526,20.8076225 103.172526,24.7050105 C103.172526,27.3393681 104.454802,30.7567272 107.963215,30.7567272 C110.098621,30.7567272 112.130826,29.1554847 112.130826,25.6487379 L112.130826,25.6487379 Z M127.411065,27.9990318 C127.411065,28.5332091 127.411065,30.6501496 127.463525,31.1138481 C127.428265,31.2195662 127.320334,31.3093836 127.125111,31.3093836 C126.911399,31.006411 126.394962,30.3832758 124.846083,28.6217372 L120.715022,23.9241577 C120.233416,23.3723608 119.022951,21.9120758 118.648417,21.520575 L118.613156,21.520575 C118.541775,21.73416 118.523715,22.1437102 118.523715,22.6778874 L118.523715,26.5580855 C118.523715,27.3943759 118.541775,29.7081411 118.844069,30.2418886 C118.951571,30.4387134 119.308045,30.5448612 119.7531,30.5801006 L120.305227,30.6342489 C120.411869,30.7769253 120.392948,30.9905103 120.268677,31.0790384 C119.575001,31.0454478 118.880648,31.0276803 118.186161,31.0257496 C117.437092,31.0257496 116.956346,31.0437991 116.332838,31.0790384 C116.209427,30.9913698 116.190076,30.7408265 116.298008,30.6342489 L116.778324,30.5801006 C117.188119,30.5268118 117.472352,30.4210937 117.562653,30.2234094 C117.811626,29.5843736 117.793566,27.412855 117.793566,26.5576558 L117.793566,21.4131379 C117.793566,20.9159191 117.776366,20.5416082 117.401831,20.1316283 C117.151998,19.8823742 116.725003,19.7577472 116.298008,19.7048881 L115.994854,19.6687893 C115.888213,19.5630712 115.888213,19.2953379 116.030115,19.2248592 C116.779184,19.278148 117.722185,19.278148 118.043399,19.278148 C118.328063,19.278148 118.631217,19.2600986 118.862129,19.2248592 C119.218604,20.1316283 121.31918,22.4819222 121.907427,23.1398669 L123.635618,25.0806106 C124.863283,26.4506484 125.737054,27.4468052 126.572984,28.3015747 L126.608245,28.3015747 C126.680056,28.2126168 126.680056,27.9268341 126.680056,27.5525233 L126.680056,23.7436634 C126.680056,22.907373 126.662856,20.5936078 126.323151,20.0598603 C126.21651,19.8999939 125.931847,19.7934163 125.219758,19.7035989 L124.916604,19.6675 C124.792763,19.5617819 124.810823,19.276429 124.952725,19.22357 C125.771455,19.2588093 126.376902,19.2768588 127.05459,19.2768588 C127.82,19.2768588 128.282256,19.2588093 128.888563,19.22357 C129.030465,19.3112386 129.030465,19.5617819 128.924683,19.6675 L128.67399,19.7035989 C128.103803,19.7934163 127.747329,19.9343738 127.676808,20.0779097 C127.374084,20.7173753 127.410205,22.9254225 127.410205,23.7436634 L127.410205,27.9990318 L127.411065,27.9990318 Z M44.1315082,47.0459097 C44.1315082,48.9140259 44.1676287,49.1465197 45.3067127,49.2702873 L45.7891786,49.3248653 C45.89496,49.4133935 45.8605595,49.7155066 45.7526282,49.7687954 C44.7369557,49.733556 44.1504284,49.7155066 43.4374797,49.7155066 C42.6901304,49.7155066 42.0485625,49.733556 41.2650929,49.7687954 C41.1575916,49.7155066 41.1231911,49.4305834 41.2289724,49.3248653 L41.6035071,49.2702873 C42.6359498,49.1293298 42.6720702,48.9140259 42.6720702,47.0459097 L42.6720702,40.4780652 C42.6720702,38.9662104 42.6359498,38.6632378 41.8352799,38.5738501 L41.193712,38.5029417 C41.0681505,38.3955046 41.0862107,38.1290606 41.2289724,38.0581521 C42.1736941,37.9326656 43.2775177,37.9163351 44.7558759,37.9163351 C46.2342341,37.9163351 47.3389178,38.1114409 48.1757081,38.6271389 C48.9944382,39.1432667 49.6007456,40.0693745 49.6007456,41.2980251 C49.6007456,42.9345069 48.5859331,43.7540371 47.8192337,44.1283479 C47.035764,44.5017993 46.0910424,44.6616657 45.3617534,44.6616657 C45.2361918,44.6075174 45.2361918,44.3406436 45.3436932,44.3054043 C47.2675369,43.9491428 47.9624254,42.8631687 47.9624254,41.315215 C47.9624254,39.5889158 46.9463229,38.4677023 45.0942901,38.4677023 C44.1512885,38.4677023 44.1332282,38.5394703 44.1332282,39.1088869 L44.1332282,47.0463394 L44.1315082,47.0459097 Z M52.1528271,43.9663328 C52.1528271,40.4075865 54.82488,37.6829818 58.4936853,37.6829818 C62.608406,37.6829818 64.6728614,40.6551215 64.6728614,43.788417 C64.6728614,47.3824026 61.9307176,49.9991405 58.4936853,49.9991405 C54.5397865,50 52.1528271,47.1709664 52.1528271,43.9663328 L52.1528271,43.9663328 Z M62.8922095,44.3406436 C62.8922095,41.4028837 61.5914434,38.2347787 58.1896715,38.2347787 C56.3384987,38.2347787 53.933479,39.4995281 53.933479,43.3964864 C53.933479,46.0317035 55.2157549,49.4473436 58.7241681,49.4473436 C60.8612944,49.4486328 62.8922095,47.8473904 62.8922095,44.3406436 L62.8922095,44.3406436 Z M70.5475939,50 C69.0511754,50 68.1073138,49.537161 67.7680396,49.340766 C67.554757,48.949695 67.3238441,47.6862347 67.2877237,46.8499444 C67.3763048,46.7261769 67.6441981,46.6896482 67.7147189,46.7975151 C67.9813222,47.7042842 68.7119012,49.4486328 70.7780767,49.4486328 C72.2736351,49.4486328 73.0037841,48.4700958 73.0037841,47.4013116 C73.0037841,46.6174505 72.8438222,45.7459208 71.5434861,44.908771 L69.8518453,43.8056069 C68.9604443,43.2177111 67.9271415,42.2030752 67.9271415,40.7445092 C67.9271415,39.0530196 69.2446778,37.6829818 71.5615464,37.6829818 C72.1136732,37.6829818 72.7552411,37.7886999 73.2170668,37.9146161 C73.4492696,37.9850949 73.6986727,38.0203342 73.8405744,38.0203342 C74.0018264,38.4470744 74.1630784,39.4445204 74.1630784,40.191423 C74.0912675,40.2988601 73.806174,40.3521489 73.7167329,40.2455713 C73.4853901,39.3912316 73.0046441,38.2334894 71.2949431,38.2334894 C69.5495515,38.2334894 69.1750169,39.3912316 69.1750169,40.2094725 C69.1750169,41.2408686 70.0298675,41.98992 70.6894956,42.3986107 L72.1145332,43.2881898 C73.236417,43.9818037 74.3402406,45.0153486 74.3402406,46.7059787 C74.3402406,48.6656313 72.8618824,50 70.5475939,50 L70.5475939,50 Z M83.2004998,47.0459097 C83.2004998,48.9140259 83.2366203,49.1817591 84.269063,49.2702873 L84.83882,49.3248653 C84.9446013,49.395344 84.9102009,49.7155066 84.8035596,49.7687954 C83.7887471,49.733556 83.1824396,49.7155066 82.4694908,49.7155066 C81.758262,49.7155066 81.1338944,49.733556 79.9939503,49.7687954 C79.887309,49.7155066 79.8520485,49.4133935 79.9939503,49.3248653 L80.6346582,49.2702873 C81.6507607,49.1826186 81.7393418,48.9140259 81.7393418,47.0459097 L81.7393418,39.0899779 C81.7393418,38.538181 81.7393418,38.5201316 81.2044152,38.5201316 L80.2257232,38.5201316 C79.4603137,38.5201316 78.4803316,38.555371 78.0352762,38.9653509 C77.6082809,39.3559922 77.4298287,39.7483525 77.2337463,40.1922825 C77.0918445,40.2997196 76.8420114,40.210332 76.7702006,40.068515 C77.0561541,39.2678938 77.3223274,38.1286308 77.4478889,37.4169675 C77.5012096,37.3808686 77.7329824,37.3636787 77.7863031,37.4169675 C77.8920844,37.9868139 78.4803316,37.9687644 79.2990617,37.9687644 L86.5128307,37.9687644 C87.4751825,37.9687644 87.6347145,37.9326656 87.9021778,37.4702563 C87.9903289,37.4341574 88.1872713,37.4526366 88.2225317,37.5231154 C88.0273093,38.2536876 87.9021778,39.6937744 87.9559284,40.2292409 C87.8841176,40.3710579 87.5813938,40.3710579 87.4923827,40.2644803 C87.4399221,39.8205502 87.3152205,39.1613162 87.0481873,38.9662104 C86.6375322,38.6632378 85.9615639,38.5209911 84.9820118,38.5209911 L83.7169362,38.5209911 C83.1824396,38.5209911 83.2004998,38.5394703 83.2004998,39.1269363 L83.2004998,47.0459097 L83.2004998,47.0459097 Z" id="Shape"></path>
                </g>
            </g>
        </g>
    </g>
</svg>