<?xml version="1.0" encoding="UTF-8" standalone="no"?>
<svg width="171px" height="30px" viewBox="0 0 171 30" version="1.1" xmlns="http://www.w3.org/2000/svg" xmlns:xlink="http://www.w3.org/1999/xlink">
    <!-- Generator: Sketch 41.1 (35376) - http://www.bohemiancoding.com/sketch -->
    <title>the-guardian copy</title>
    <desc>Created with Sketch.</desc>
    <defs></defs>
    <g id="Website-2.0" stroke="none" stroke-width="1" fill="none" fill-rule="evenodd">
        <g id="press-icons" transform="translate(-15.000000, -85.000000)">
            <g id="the-guardian-copy" transform="translate(15.000000, 85.000000)">
                <g id="Group">
                    <path d="M11.0784933,7.1542 L7.55799941,7.1542 L7.57785748,3.4062 L2.36692082,4.1795 L2.36692082,7.0749 L0,7.4318 L0,9.7323 L2.44635308,9.7323 L2.42649501,19.8265 C2.44364516,20.1896 3.02845513,23.4652 6.58334956,23.2572 C10.6157402,23.0215 10.9591443,22.5633 11.3169906,22.3251 C11.2886076,22.3546 11.3169906,20.3619 11.3169906,20.3619 L9.12919355,20.4215 C9.12919355,20.4215 7.89608798,20.3422 7.69710616,18.9737 C7.68938358,18.9747 7.65739003,9.7719 7.65739003,9.7719 L11.0784933,9.7917 L11.0784933,7.1542 L11.0784933,7.1542 Z M18.6513361,0 L11.615363,1.0065 L11.6253924,2.3451 L13.4949589,3.1781 L13.514817,20.699 L11.7446411,21.3931 L11.7645994,22.8308 L20.396539,22.8407 L20.396539,21.4129 L18.6562504,20.6592 L18.6662798,10.2973 C18.6662798,10.2973 19.6508587,9.8611 21.0131419,9.8611 C22.3755255,9.8611 23.0020575,10.7337 23.0020575,11.2692 L23.0020575,20.6891 L21.410905,21.393 L21.410905,22.8408 L30.0229865,22.8408 L30.0229865,21.4527 L28.2528106,20.5899 L28.2528106,9.9702 C28.2528106,9.9702 28.2927273,6.5989 24.3743701,6.7674 C21.9904997,6.7817 20.3019625,7.5309 18.6413067,8.8398 C18.6413067,8.8349 18.6413067,0.0099 18.6513361,1.42108547e-15 L18.6513361,0 Z M44.8944704,15.4134 C45.0942545,11.9564 44.7317947,6.4446 37.7357384,6.7753 C30.880193,7.0993 30.0146622,12.3282 30.0568856,15.7078 C30.4508375,21.1686 33.274895,23.1986 38.5797062,23.2803 C42.7707607,23.14 44.2896018,20.9385 44.2896018,20.9385 L44.2896018,19.4591 C44.2896018,19.4591 42.3205443,20.048 40.2532997,20.0339 C35.3591894,20.0006 35.4152534,15.4134 35.4152534,15.4134 L44.8944704,15.4134 L44.8944704,15.4134 Z M35.4012123,13.5764 C35.4012123,13.5764 35.3722276,11.3481 35.8179308,9.9331 C36.1734704,8.804 36.892573,8.4312 37.7217977,8.43 C39.1030364,8.4279 39.448346,9.2002 39.6036,10.149 C39.8270534,11.5143 39.7902457,13.365 39.7751015,13.3801 L35.4012123,13.5764 L35.4012123,13.5764 Z" id="Shape" fill="#676279"></path>
                    <path d="M58.1765067,19.4494 L51.9311455,19.4494 C51.9311455,19.4494 50.9964123,19.3502 50.9565959,18.3982 C50.9167795,17.4462 51.5930569,17.2084 51.5930569,17.2084 C51.5930569,17.2084 52.9257537,17.6051 54.3179243,17.6051 C55.710095,17.6051 61.1797883,17.0299 61.1797883,12.3101 C61.1797883,10.166 59.4893455,8.9388 59.4893455,8.9388 L62.5137889,9.7468 L62.4627396,6.6485 L58.0969742,7.4516 C58.0969742,7.4516 55.8297449,6.6287 54.2185337,6.6287 C53.1345642,6.6287 47.5453214,7.0571 47.3415255,11.9497 C47.1976047,15.4039 50.1213537,16.6929 50.1015959,16.6929 C50.0816375,16.6929 47.3169537,18.3984 47.2970956,20.5204 C47.2779396,22.5634 49.6177812,23.1907 49.79179,23.2345 C49.7992117,23.2348 49.8032235,23.2357 49.8030229,23.2373 L49.79179,23.2345 C49.5672334,23.2278 45.983956,23.8991 45.9843572,26.4104 C45.9846581,28.81 49.9622886,29.98 54.1788176,29.9998 C58.3953466,30.0197 63.0295971,28.8297 63.0295971,23.8521 C63.0295971,18.8745 58.1765067,19.4494 58.1765067,19.4494 L58.1765067,19.4494 Z M54.1788176,8.5126 C56.118088,8.5026 56.128017,10.5056 56.137946,11.3484 L56.137946,12.8458 C56.137946,12.8458 56.3965021,15.5429 54.3478117,15.5528 C52.299322,15.5627 52.3589965,13.9861 52.3589965,12.8458 L52.3589965,11.0808 C52.3589965,11.0808 52.2397478,8.5225 54.1788176,8.5126 L54.1788176,8.5126 Z M54.1888469,28.096 C51.3048141,28.096 50.2706903,26.926 50.2706903,25.7956 C50.2706903,24.6652 50.9767548,24.1992 50.9767548,24.1992 L57.2319449,24.1893 C57.2319449,24.1893 58.4751801,24.3279 58.4751801,25.4188 C58.4750798,27.095 57.0727795,28.096 54.1888469,28.096 L54.1888469,28.096 Z M70.0505261,6.7376 L63.0096387,7.8284 L63.0096387,9.1968 L64.8195308,10.0694 L64.8195308,18.8943 C64.8195308,18.8943 64.9136059,23.2281 69.1754674,23.2771 C72.6361865,23.3167 74.366546,20.9171 74.366546,20.9171 L74.366546,23.2374 L81.1885935,22.4242 L81.1885935,21.175 L79.4452962,20.1715 L79.4452962,6.7776 L72.437305,7.8684 L72.437305,9.1773 L74.2870135,10.1093 L74.2870135,19.5293 C74.2870135,19.5293 73.8097179,19.9259 72.2782399,20.0448 C70.7467619,20.1638 70.0506264,18.7162 70.0506264,18.7162 L70.0505261,6.7376 L70.0505261,6.7376 Z M82.6280023,7.8691 C82.6280023,7.8691 85.9893308,6.6491 88.759932,6.6491 C91.5305331,6.6491 95.5387531,7.5886 95.5387531,11.0242 L95.5387531,20.5457 L97.2545701,21.4431 L97.2545701,22.579 C97.2545701,22.579 96.0310927,23.238 94.230929,23.238 C92.4306651,23.238 90.8696006,22.3265 90.8696006,20.9523 C90.4783566,20.9593 90.3359402,23.2101 86.1160012,23.2101 C81.1936082,23.2101 81.5733185,18.863 81.5733185,18.7789 C81.5733185,18.6948 81.4317044,15.5338 85.0189935,14.8524 C88.5630563,14.1794 90.2085677,13.9129 90.2085677,13.9129 L90.1913173,10.7157 C90.1913173,10.7157 89.899163,8.7805 88.2254692,8.7945 C86.5518757,8.8086 86.5659167,8.8226 86.5659167,8.8226 L85.3846628,12.0338 L82.6140616,12.0338 L82.6280023,7.8691 L82.6280023,7.8691 Z M90.3420581,19.8516 L90.3420581,15.5327 C90.3420581,15.5327 86.8118358,15.2172 86.8049155,18.0357 C86.7998006,20.1577 88.1372111,20.4055 88.7457906,20.4055 C89.4421267,20.3611 89.9041777,20.1168 90.3420581,19.8516 L90.3420581,19.8516 Z M104.455225,6.593 L97.5781161,7.6727 L97.5781161,9.103 L99.3501977,9.9443 L99.3501977,20.5596 L97.7046862,21.401 L97.7046862,22.7471 L106.76207,22.7471 L106.76207,21.457 L104.596137,20.5876 L104.610278,11.8233 C104.610278,11.8233 105.988508,11.2764 107.380779,11.2764 C108.77315,11.2764 109.462365,11.4306 109.462365,11.4306 L109.462365,6.8451 C109.462365,6.8451 106.514947,5.9246 104.427443,10.0283 C104.427143,10.0426 104.455225,6.593 104.455225,6.593 L104.455225,6.593 Z M118.083172,1.3625 L118.083172,2.7507 L119.81303,3.578 L119.81303,7.3362 C119.81303,7.3362 118.603694,6.7612 117.140917,6.7612 C115.67824,6.7612 109.700963,6.9856 109.53237,15.175 C109.363376,23.3643 115.748546,23.2521 115.692382,23.2521 C115.636218,23.2521 118.617635,23.3363 119.967783,21.5974 C119.960762,21.5974 119.953642,23.2451 119.953642,23.2451 L126.711602,22.4248 L126.711602,21.0926 L125.087052,20.2653 L125.073011,0.2689 L118.083172,1.3625 L118.083172,1.3625 Z M119.80611,9.4818 L119.80611,20.1251 C119.80611,20.1251 119.24848,20.4056 118.209843,20.4056 C116.520604,20.4056 115.091425,19.2595 115.101554,15.5677 C115.110681,12.3426 115.582661,9.8087 116.997398,9.1452 C118.411633,8.4819 119.740418,9.3929 119.80611,9.4818 L119.80611,9.4818 Z M134.41282,2.8805 C134.41282,4.4624 133.125255,5.7461 131.538816,5.7461 C129.952277,5.7461 128.664813,4.4624 128.664813,2.8805 C128.664813,1.2987 129.952277,0.0149 131.538816,0.0149 C133.125255,0.0149 134.41282,1.2986 134.41282,2.8805 Z M134.293471,6.6583 L127.153093,7.6697 L127.153093,9.0381 L129.02276,9.9504 L129.02276,20.5799 L127.312258,21.3533 L127.312258,22.8011 L135.904482,22.8011 L135.904482,21.4129 L134.273613,20.6195 L134.293471,6.6583 L134.293471,6.6583 Z M137.553002,7.8515 C137.553002,7.8515 140.914531,6.6316 143.685032,6.6316 C146.455633,6.6316 150.463953,7.5711 150.463953,11.0067 L150.463953,20.5282 L152.17977,21.4257 L152.17977,22.5614 C152.17977,22.5614 150.956192,23.2206 149.156029,23.2206 C147.355865,23.2206 145.7946,22.3091 145.7946,20.9348 C145.403456,20.9418 145.26104,23.1925 141.041101,23.1925 C136.118708,23.1925 136.498518,18.8455 136.498518,18.7613 C136.498518,18.6772 136.357005,15.5163 139.944194,14.835 C143.488156,14.1619 145.133768,13.8954 145.133768,13.8954 L145.116417,10.6982 C145.116417,10.6982 144.824363,8.763 143.150669,8.7771 C141.476975,8.7912 141.491117,8.8051 141.491117,8.8051 L140.309762,12.0163 L137.539262,12.0163 L137.553002,7.8515 L137.553002,7.8515 Z M145.267258,19.834 L145.267258,15.515 C145.267258,15.515 141.737036,15.1996 141.730015,18.0181 C141.7249,20.1399 143.062311,20.3879 143.670991,20.3879 C144.367026,20.3436 144.829378,20.099 145.267258,19.834 L145.267258,19.834 Z M159.453538,6.6187 L152.432609,7.7293 L152.432609,9.058 L154.322034,9.9504 L154.322034,20.6592 L152.591775,21.3533 L152.591775,22.8407 L161.183998,22.8407 L161.183998,21.3732 L159.592745,20.6195 L159.592745,10.2677 C159.592745,10.2677 160.447946,9.871 161.70101,9.871 C162.954174,9.871 163.928623,10.4263 163.928623,11.6558 L163.928623,20.6195 L162.165669,21.4833 L162.158347,22.8009 L170.909736,22.8009 L170.909736,21.393 L169.199335,20.6791 L169.199335,10.7437 C169.199335,10.7437 169.318584,6.7775 165.281078,6.7775 C161.243572,6.7775 159.473396,8.8994 159.473396,8.8994 L159.453538,6.6187 Z" id="Shape" fill="#524D66"></path>
                </g>
            </g>
        </g>
    </g>
</svg>