<?xml version="1.0" encoding="UTF-8" standalone="no"?>
<svg width="94px" height="30px" viewBox="0 0 94 30" version="1.1" xmlns="http://www.w3.org/2000/svg" xmlns:xlink="http://www.w3.org/1999/xlink">
    <!-- Generator: Sketch 41.1 (35376) - http://www.bohemiancoding.com/sketch -->
    <title>press-vice</title>
    <desc>Created with Sketch.</desc>
    <defs></defs>
    <g id="Website-2.0" stroke="none" stroke-width="1" fill="none" fill-rule="evenodd">
        <g id="press-icons" transform="translate(-252.000000, -275.000000)">
            <g id="press-vice" transform="translate(252.000000, 275.000000)">
                <g id="Group">
                    <path d="M58.2104611,0.454384211 C55.0453755,0.611973684 52.1749878,1.69224211 49.8418286,2.72285789 C49.1835381,3.01366316 48.0485621,3.86403158 47.4192743,3.89013684 C46.677815,3.92171579 45.3270403,3.17661053 44.3249052,2.88875263 C39.8919233,1.61716842 33.147155,-0.0373157895 29.6933342,2.63896316 C25.3555853,2.0119 21.3568185,3.08424211 18.0719024,4.05603158 C17.8864404,1.46928947 15.4623932,-0.0798368421 12.6372032,0.7222 C10.7470997,1.25777895 9.196396,2.32114737 7.28673161,3.05666316 C3.54661889,4.49471579 -0.231100183,7.55766316 0.0110538719,12.3885579 C0.125864838,14.6610842 1.11805121,16.5107684 1.76780456,18.1367684 C2.44564384,19.8331368 3.15555566,21.1862421 4.27659068,23.1375053 C3.96826328,23.7111368 3.69401406,24.0758737 3.60677889,24.7204526 C2.88030834,30.1358737 10.1414255,30.3137684 13.9748205,28.7198211 C17.281299,27.3427158 20.7466233,24.9053474 23.0894719,23.1375053 C21.2098284,31.1562421 33.8470484,31.5105053 37.0512328,27.4706632 C41.5568587,30.8259263 51.2946356,30.4537158 56.1127878,27.6365579 C60.5621985,31.2081895 70.4320718,29.8476105 76.4297312,28.4699789 C79.5316256,27.7574526 82.2665715,27.1833474 84.2909935,25.7217684 C86.3626426,24.2227684 87.6595627,21.9272947 88.2176164,18.9722421 C87.7923984,17.8399789 87.0660742,17.0125053 86.378649,16.1380842 C86.7210994,15.4205053 86.8202536,14.1184 86.6313294,13.1380842 C89.2528204,11.2672947 91.4358226,8.35324211 93.4036387,5.88882105 C93.6383799,5.59361053 94.0869711,5.20771579 93.9852188,4.80555789 C85.0165784,3.41292632 76.3675117,0.634794737 65.9794713,1.13993158 C65.3236207,1.17103684 64.5811791,1.36026316 63.9720433,1.30582105 C63.0770788,1.22535789 62.3060622,0.782247368 61.4652639,0.640257895 C60.3537456,0.451642105 59.2654844,0.401847368 58.2104611,0.454384211 L58.2104611,0.454384211 Z" id="Shape" fill="#524D66"></path>
                    <path d="M58.7603136,3.73972042 C54.703506,3.82098358 50.9104269,5.83642789 47.9210632,7.47121684 C44.7334334,9.21405895 41.8878607,11.2611811 39.8924467,13.3038653 C40.6138861,12.0786547 41.380407,10.8676611 42.2348136,9.72245053 C43.1011609,8.55966105 44.0656891,7.50788158 44.8278179,6.47203947 C43.1612296,6.03777632 41.4899909,5.57774842 39.8089007,5.22101153 C37.4194635,4.71432732 34.0969295,3.87448026 32.1175604,4.97121711 C31.5450037,5.28805947 31.0772074,6.06800474 30.5291653,6.13795211 C30.0769983,6.19679421 29.330059,5.86889632 28.7726475,5.80694895 C26.7296171,5.58052789 24.8509321,5.76769105 23.0049157,6.13795211 C21.2758227,6.48321526 17.6192723,7.09679579 17.1515759,8.72121684 C16.8512432,9.76400684 17.5195214,10.7738358 17.4022121,11.8050989 C17.2873414,12.8199937 16.3101343,14.1607153 15.8138164,14.9701889 C15.206221,15.9620311 14.5883221,16.8414211 13.5560262,17.3026316 C12.9303337,14.1981579 13.6103857,11.4398011 14.1408446,8.80653789 C14.4686432,7.18416947 15.1297262,5.52369737 14.5606349,3.88980263 C12.9668205,3.66890789 11.624857,4.92651974 10.0460852,5.55509895 C7.08057271,6.73836158 3.77746288,7.81495368 3.35832163,11.2212168 C3.12218729,13.1389537 3.84446296,14.3604458 4.36086728,15.7226563 C5.4673484,18.6491826 6.8343038,21.12513 8.45768961,23.38713 C8.01499449,24.1975511 6.97251496,24.4092253 6.86723126,25.5520147 C7.33900934,26.2180674 8.32355002,26.3034537 9.29417554,26.3034537 C12.0997656,26.2973484 14.3996245,24.8893716 16.4832121,23.7191611 C21.0205398,21.1757926 24.0682363,17.2582384 27.2688291,13.5536595 C27.8308615,12.9025542 28.2937682,12.1186511 29.0253469,11.7228621 C29.7442188,15.0141779 28.3460332,16.7723089 27.3513432,19.4695726 C26.9682272,20.5088884 25.757627,23.7617468 26.3477659,25.3022205 C26.9929677,26.9971153 32.4971572,27.0706858 33.9565922,25.9714226 C34.6916389,25.4182647 34.9864499,24.16513 35.3809911,23.38713 C35.8843717,22.3862879 36.319194,21.5217563 36.7166873,20.6373358 C36.739279,24.2874411 39.4604443,25.3594505 42.401905,26.1369242 C48.6548483,27.7843453 54.9581879,24.8414621 58.3683706,22.8053042 C57.9422601,25.5095147 58.9988148,25.7800068 61.1305289,26.2212168 C66.6444527,27.3554805 72.1957283,26.0469784 76.6802993,24.9701889 C80.7915213,23.9838205 84.0987529,23.2855674 84.7078888,19.2197779 C84.0501053,18.65262 82.4043818,18.7228521 81.2783991,18.8877468 C77.9633148,19.3714311 74.7526498,21.04239 70.3267231,20.7206005 C69.5194216,20.6616532 67.7760754,20.3811905 67.6501735,19.88898 C67.456111,19.1190332 68.8374199,18.5805263 69.9946021,18.3881579 C73.3119836,17.8285263 78.1075045,18.3938737 80.7771256,17.3869242 C82.0606006,16.9047663 83.6060134,15.5125379 83.4505807,13.9710116 C83.348823,12.9301695 81.9870588,12.3857963 80.6935765,12.3067432 C77.0351704,12.0784279 74.4198211,14.2054226 70.5794194,13.4714226 C71.0598175,12.8662647 71.1458222,11.87188 71.749054,11.3887747 C74.5566439,11.3303011 77.2843708,11.8872305 79.9416716,11.7228621 C83.6366531,11.4924937 85.7207863,9.94128105 87.4679822,7.88959684 C87.6545987,7.66833368 88.1236639,7.42965789 87.9692557,7.05592105 C81.5519021,6.08313158 72.8029525,3.50536511 64.8921396,4.47162832 C63.8680993,4.59499674 63.1326074,5.66064947 62.4600374,6.08038632 C62.4610936,6.07143895 62.4693846,6.06837053 62.4662161,6.05468632 C62.594563,5.48558105 62.8363384,5.03291674 62.8849755,4.38939042 C61.4941082,3.90107463 60.1125722,3.71337889 58.760303,3.74074732 L58.760303,3.739721 L58.7603136,3.73972042 Z M61.8824391,7.80530421 C62.6639435,8.69319895 64.3747118,8.65507421 65.392378,9.30612684 C64.0186894,9.65791632 62.2888571,9.65611526 61.0438904,10.1377468 C61.3371652,9.37385211 61.6010992,8.58072526 61.8824391,7.80530421 Z M52.181882,10.88713 C51.7707852,12.7564984 50.9102701,14.8969411 50.4274269,16.9695726 C53.0851111,17.0069937 55.888302,16.4683242 58.6210721,16.3044821 C58.9905819,15.8118505 59.1718646,15.1326811 59.3740121,14.4716284 C59.9214143,15.2451021 60.3077015,16.6905116 59.7927716,17.8032484 C55.6425396,17.7457747 52.6584092,21.1316611 48.5883951,21.1369242 C46.7649694,21.1389242 45.2167049,20.0927268 46.0799681,18.0530426 C47.2988793,15.1749374 50.3208457,13.1646563 52.181882,10.88713 Z" id="Shape" fill="#D3D2D7"></path>
                </g>
            </g>
        </g>
    </g>
</svg>