<?xml version="1.0" encoding="UTF-8" standalone="no"?>
<svg width="128px" height="24px" viewBox="0 0 128 24" version="1.1" xmlns="http://www.w3.org/2000/svg" xmlns:xlink="http://www.w3.org/1999/xlink">
    <!-- Generator: Sketch 41.1 (35376) - http://www.bohemiancoding.com/sketch -->
    <title>press-mashable</title>
    <desc>Created with Sketch.</desc>
    <defs></defs>
    <g id="Website-2.0" stroke="none" stroke-width="1" fill="none" fill-rule="evenodd">
        <g id="press-icons" transform="translate(-39.000000, -280.000000)" fill="#524D66">
            <g id="press-mashable" transform="translate(39.000000, 277.000000)">
                <g id="Page-1">
                    <g id="Mashable">
                        <g id="layer1" transform="translate(0.007018, 0.054975)">
                            <g id="g13734" transform="translate(12.521077, 14.243899) scale(1, -1) translate(-12.521077, -14.243899) translate(0.021077, 2.743899)">
                                <polygon id="path13736" points="18.8340959 -3.55271368e-14 18.8340959 14.9742928 13.4329484 -3.55271368e-14 10.9874777 -3.55271368e-14 5.55114365 14.9742928 5.55114365 -3.55271368e-14 0.018046312 -3.55271368e-14 0.018046312 22.6448453 7.7063246 22.6448453 12.2102131 10.1500168 16.6789149 22.6448453 24.3671932 22.6448453 24.3671932 -3.55271368e-14"></polygon>
                            </g>
                            <g id="g13738" transform="translate(66.287346, 13.247963) scale(1, -1) translate(-66.287346, -13.247963) translate(25.287346, 0.247963)">
                                <g id="g13740-Clipped">
                                    <g id="g13740" transform="translate(0.008880, 0.027454)">
                                        <g id="g13746" transform="translate(0.019362, 0.055548)">
                                            <path d="M10.1953161,0.42096935 L10.1953161,2.05072961 C9.23208216,0.829570211 7.3627925,0.0123684944 5.37034967,0.0123684944 C2.99085395,0.0123684944 0.0307788147,1.74427894 0.0307788147,5.41240028 C0.0307788147,9.38232911 2.99085395,10.7102819 5.37034967,10.7102819 C7.42876744,10.7102819 9.26287045,9.99523039 10.1953161,8.774071 L10.1953161,10.4038312 C10.1953161,11.8292911 9.03855569,12.8136477 7.04171455,12.8136477 C5.4979012,12.8136477 3.95408789,12.1682441 2.70056425,11.0492349 L0.866461241,14.6802107 C2.86330242,16.481769 5.53308785,17.2246797 7.91258357,17.2246797 C11.6423662,17.2246797 15.1478341,15.7667175 15.1478341,10.6731363 L15.1478341,0.42096935 L10.1953161,0.42096935 L10.1953161,0.42096935 Z M10.1953161,4.63234411 L10.1953161,6.09030628 C9.68071169,6.87036244 8.52395127,7.24646094 7.42876744,7.24646094 C6.1444555,7.24646094 4.95250849,6.63355967 4.95250849,5.34275244 C4.95250849,4.05194517 6.1444555,3.44368706 7.42876744,3.44368706 C8.52395127,3.44368706 9.68071169,3.84764472 10.1953161,4.63234411 L10.1953161,4.63234411 Z" id="path13748"></path>
                                        </g>
                                        <g id="g13750" transform="translate(15.519062, 0.027535)">
                                            <path d="M0,2.58763602 L2.05841776,6.32076206 C3.21517817,5.23425522 5.69143714,4.11524606 7.52554015,4.11524606 C9.00337856,4.11524606 9.61474622,4.55634922 9.61474622,5.27140072 C9.61474622,7.30511867 0.58057937,5.20175289 0.58057937,11.8554464 C0.58057937,14.7435116 2.96007512,17.2554782 7.2352505,17.2554782 C9.87424763,17.2554782 12.0602169,16.3732718 13.7315818,15.0824646 L11.8359021,11.3818408 C10.9034565,12.3336951 9.1353284,13.178756 7.2704371,13.178756 C6.10927838,13.178756 5.33957085,12.7051504 5.33957085,12.0597468 C5.33957085,10.2628317 14.3429494,12.1293947 14.3429494,5.40605328 C14.3429494,2.28118538 11.7391389,0.0431670389 7.30122539,0.0431670389 C4.50388844,0.0431670389 1.64057655,1.02752365 0,2.58763602" id="path13752"></path>
                                        </g>
                                        <g id="g13754" transform="translate(30.457314, 0.476517)">
                                            <path d="M10.5636966,0 L10.5636966,9.54175867 C10.5636966,11.5429743 9.56527598,12.1883779 7.99067439,12.1883779 C6.54362427,12.1883779 5.58039032,11.3386738 4.99981096,10.59112 L4.99981096,0 L0.0472930008,0 L0.0472930008,22.6448453 L4.99981096,22.6448453 L4.99981096,14.3938939 C5.93225661,15.5500486 7.76635962,16.8037103 10.3701701,16.8037103 C13.9064263,16.8037103 15.5162145,14.7003445 15.5162145,11.6776268 L15.5162145,0 L10.5636966,0 L10.5636966,0 Z" id="path13756"></path>
                                        </g>
                                        <g id="g13758" transform="translate(46.647362, 0.055548)">
                                            <path d="M10.1953161,0.42096935 L10.1953161,2.05072961 C9.23208216,0.829570211 7.3627925,0.0123684944 5.37034967,0.0123684944 C2.99085395,0.0123684944 0.0307788147,1.74427894 0.0307788147,5.41240028 C0.0307788147,9.38232911 2.99085395,10.7102819 5.37034967,10.7102819 C7.42876744,10.7102819 9.26287045,9.99523039 10.1953161,8.774071 L10.1953161,10.4038312 C10.1953161,11.8292911 9.03855569,12.8136477 7.04171455,12.8136477 C5.4979012,12.8136477 3.95408789,12.1682441 2.70056425,11.0492349 L0.866461241,14.6802107 C2.86330242,16.481769 5.53308785,17.2246797 7.91258357,17.2246797 C11.6423662,17.2246797 15.1478341,15.7667175 15.1478341,10.6731363 L15.1478341,0.42096935 L10.1953161,0.42096935 L10.1953161,0.42096935 Z M10.1953161,4.63234411 L10.1953161,6.09030628 C9.68071169,6.87036244 8.52395127,7.24646094 7.42876744,7.24646094 C6.1444555,7.24646094 4.95250849,6.63355967 4.95250849,5.34275244 C4.95250849,4.05194517 6.1444555,3.44368706 7.42876744,3.44368706 C8.52395127,3.44368706 9.68071169,3.84764472 10.1953161,4.63234411 L10.1953161,4.63234411 Z" id="path13760"></path>
                                        </g>
                                        <g id="g13762" transform="translate(63.497349, 0.055548)">
                                            <path d="M0,0.42096935 L0,23.0658147 L4.95251795,23.0658147 L4.95251795,14.8845111 C6.17525327,16.5142713 7.84661815,17.2246797 9.55316963,17.2246797 C13.4456904,17.2246797 16.4013672,14.0023047 16.4013672,8.63477522 C16.4013672,3.06758856 13.3797155,0.0123684944 9.55316963,0.0123684944 C7.81582986,0.0123684944 6.24122821,0.759922339 4.95251795,2.32003472 L4.95251795,0.42096935 L0,0.42096935 L0,0.42096935 Z M7.91259309,4.63234411 C9.87424763,4.63234411 11.352086,6.15995411 11.352086,8.63477522 C11.352086,11.0817372 9.87424763,12.6093472 7.91259309,12.6093472 C6.85259591,12.6093472 5.56388561,11.9964459 4.95251795,11.1142396 L4.95251795,6.09030628 C5.56388561,5.20809989 6.85259591,4.63234411 7.91259309,4.63234411 L7.91259309,4.63234411 Z" id="path13764"></path>
                                        </g>
                                    </g>
                                </g>
                            </g>
                            <polygon id="path13766" points="105.774935 3.09961057 110.727456 3.09961057 110.727456 25.7444559 105.774935 25.7444559"></polygon>
                            <g id="g13776" transform="translate(119.932952, 17.202951) scale(1, -1) translate(-119.932952, -17.202951) translate(111.432952, 8.202951)">
                                <path d="M0,8.67527206 C0,13.4299002 3.37791633,17.2651764 8.23367104,17.2651764 C12.8343227,17.2651764 16.1770524,13.6992053 16.1770524,8.13201861 L16.1770524,6.94336156 L5.11525611,6.94336156 C5.46712238,5.48539944 6.75583268,4.25959685 9.00337856,4.25959685 C10.0985623,4.25959685 11.9018771,4.77034792 12.7991361,5.65255433 L14.9543171,2.22587894 C13.4105038,0.763273594 10.8374816,0.0528652833 8.4579858,0.0528652833 C3.66820601,0.0528652833 0,3.34488811 0,8.67527206 M8.23367104,13.0538017 C6.07849008,13.0538017 5.24280764,11.6979898 5.04928118,10.5093327 L11.4488492,10.5093327 C11.3212977,11.6654874 10.5164036,13.0538017 8.23367104,13.0538017" id="path13778"></path>
                            </g>
                        </g>
                    </g>
                </g>
            </g>
        </g>
    </g>
</svg>