<?xml version="1.0" encoding="UTF-8" standalone="no"?>
<svg width="139px" height="20px" viewBox="0 0 139 20" version="1.1" xmlns="http://www.w3.org/2000/svg" xmlns:xlink="http://www.w3.org/1999/xlink">
    <!-- Generator: Sketch 41.1 (35376) - http://www.bohemiancoding.com/sketch -->
    <title>gizmodo-uk</title>
    <desc>Created with Sketch.</desc>
    <defs></defs>
    <g id="Website-2.0" stroke="none" stroke-width="1" fill="none" fill-rule="evenodd">
        <g id="press-icons" transform="translate(-833.000000, -285.000000)" fill="#524D66">
            <g id="gizmodo-uk" transform="translate(833.000000, 285.000000)">
                <g id="Group">
                    <path d="M22.7798161,17.6107421 L22.7798161,2.37377236 C22.7798161,1.58278658 22.9594567,0.989037858 23.3195509,0.592933697 C23.6792386,0.197237051 24.1445973,0 24.7152205,0 C25.3033201,0 25.7796523,0.195199478 26.1442172,0.586413464 C26.508782,0.97762745 26.6912677,1.57341375 26.6912677,2.37377236 L26.6912677,17.6107421 C26.6912677,18.4106932 26.508782,19.0089246 26.1442172,19.4029912 C25.7800588,19.8003179 25.3037266,19.9975549 24.7152205,19.9975549 C24.1535387,19.9975549 23.6902121,19.7970577 23.3260537,19.3964709 C22.9614889,18.9975142 22.7798161,18.4013203 22.7798161,17.6107421 M129.034008,19.9979624 C123.538711,19.9979624 119.068017,15.5153022 119.068017,10.0052977 C119.068017,4.49529321 123.539931,0.0122254371 129.034008,0.0122254371 C134.529305,0.0122254371 139,4.49529321 139,10.0052977 C139,15.5153022 134.530524,19.9979624 129.034008,19.9979624 M129.034008,4.05803007 C125.762679,4.05803007 123.10099,6.72643547 123.10099,10.0061127 C123.10099,13.2853825 125.763085,15.9533803 129.034008,15.9533803 C132.304525,15.9533803 134.966214,13.2853825 134.966214,10.0061127 C134.966214,6.72602796 132.304525,4.05803007 129.034008,4.05803007 M84.2937325,19.9979624 C78.7984357,19.9979624 74.3277408,15.5153022 74.3277408,10.0052977 C74.3277408,4.49529321 78.7984357,0.0122254371 84.2937325,0.0122254371 C89.7890294,0.0122254371 94.2597243,4.49529321 94.2597243,10.0052977 C94.2601307,15.5153022 89.7894358,19.9979624 84.2937325,19.9979624 M84.2937325,4.05803007 C81.023216,4.05803007 78.3615269,6.72643547 78.3615269,10.0061127 C78.3615269,13.2853825 81.023216,15.9533803 84.2937325,15.9533803 C87.5650619,15.9533803 90.2259382,13.2853825 90.2259382,10.0061127 C90.2259382,6.72602796 87.5650619,4.05803007 84.2937325,4.05803007 M115.875128,9.99877746 L115.875128,9.99633237 C115.875243,7.87387837 115.199458,5.80683368 113.946226,4.09633644 C112.185585,1.6895554 109.378801,0.101063613 106.204202,0.00692774767 C106.105846,0.00448266026 106.007491,0 105.90751,0 L100.903583,0.00611271853 C100.048461,0.00611271853 99.4302861,0.201312197 99.0478385,0.591711154 C98.6657973,0.981702596 98.4739638,1.61294266 98.4739638,2.48420881 L98.4739638,17.5145686 C98.4739638,18.3862423 98.6657973,19.0166673 99.0478385,19.4074738 C99.4302861,19.7974653 100.048868,19.9934798 100.903583,19.9934798 L105.90751,20 C106.007491,20 106.105846,19.9951098 106.204202,19.9918497 C109.378801,19.8985289 112.185585,18.3100371 113.946226,15.903256 C115.200021,14.1930492 115.875868,12.1258142 115.875128,10.0032601 L115.875128,9.99877746 M106.614693,15.9044786 C106.131858,15.9354497 105.613664,15.9411549 105.05564,15.9411549 L102.438657,15.9411549 L102.438657,4.05721505 L105.05564,4.05721505 C105.613664,4.05721505 106.131045,4.06332776 106.614693,4.09429887 C108.305222,4.29941188 109.826445,5.22272203 110.791541,6.629447 C111.470837,7.61700015 111.83585,8.78771248 111.838497,9.98736705 L111.838497,10.0105954 C111.836258,11.2103128 111.471208,12.3811436 110.791541,13.3685154 C109.826719,14.7756667 108.305413,15.6993238 106.614693,15.9044786 M68.6832853,0.0892456905 C67.9549685,-0.138147439 67.1681262,0.149150332 66.744223,0.796690982 L60.7343898,9.97514161 L54.7261824,0.796690982 C54.3014664,0.149150332 53.5146241,-0.138147439 52.7867136,0.0892456905 C52.0583968,0.316231305 51.5613368,1.00452341 51.5613368,1.7845063 L51.5613368,18.0964994 C51.5613368,19.0749419 52.3351735,19.8691878 53.2902765,19.8691878 C54.2457859,19.8691878 55.0192161,19.076572 55.0192161,18.0964994 L55.0192161,7.60625942 L59.2854783,14.1216023 L59.2940132,14.1350503 L59.2997032,14.1432006 L59.3163667,14.167244 C59.342378,14.2067729 59.3704215,14.2442642 59.4004971,14.2825706 L59.4411397,14.3278047 C59.4655254,14.3551082 59.4882853,14.3844492 59.5138901,14.4089001 C59.5370565,14.4337585 59.5614421,14.4537267 59.5862341,14.4765475 L59.6386632,14.5250418 C59.672803,14.5527528 59.7077557,14.5792412 59.7435213,14.6036921 L59.772784,14.6269204 L59.7772547,14.6301805 C59.8154588,14.6554464 59.8544758,14.6790823 59.8947121,14.7027181 L59.9276326,14.7235014 C59.9577082,14.7402095 59.9885967,14.7520274 60.0207044,14.7671054 C60.1958743,14.8486083 60.3791728,14.8999552 60.5632842,14.9191084 L60.5673484,14.9199234 C60.6039268,14.9231835 60.6405053,14.9239985 60.6766772,14.9264436 L60.736422,14.9288887 L60.7965731,14.9264436 C60.8331516,14.9239985 60.86973,14.9231835 60.9063084,14.9199234 L60.9103727,14.9191084 C61.0985121,14.8989286 61.2820034,14.8475622 61.4533589,14.7671054 C61.4842473,14.7520274 61.5151357,14.7402095 61.5456178,14.7235014 L61.5789448,14.7027181 C61.619181,14.6790823 61.658198,14.657484 61.6964021,14.6301805 L61.7016856,14.6269204 L61.7301355,14.6036921 C61.7659011,14.5784262 61.8008538,14.5527528 61.8349936,14.5250418 L61.8890484,14.4757325 C61.9130276,14.4537267 61.9366003,14.433351 61.9589538,14.4097151 C61.9849651,14.3844492 62.0081315,14.3551082 62.0325171,14.3278047 L62.0739726,14.2825706 C62.1032353,14.2442642 62.1312788,14.2059579 62.158103,14.167244 L62.1747665,14.1432006 L62.1796436,14.1350503 L62.1881785,14.1216023 L66.4507829,7.60625942 L66.4507829,18.0964994 C66.4507829,19.0749419 67.2246195,19.8691878 68.1801289,19.8691878 C69.1352319,19.8691878 69.9098814,19.076572 69.9098814,18.0964994 L69.9098814,1.7845063 C69.909475,1.00452341 69.4116022,0.316231305 68.6832853,0.0892456905 M45.6774959,19.5904479 L32.7543428,19.5904479 C32.0739843,19.5904479 31.3188433,19.1645951 31.0388152,18.5007539 C30.7591936,17.8373202 30.7018874,16.9342679 31.3033991,16.2166347 L41.8753732,3.91703003 L33.1412611,3.91703003 C32.1865645,3.91703003 31.4123215,3.08773789 31.4123215,2.06487632 C31.4123215,1.04201475 32.1865645,0.416887404 33.1412611,0.416887404 L44.9191035,0.416887404 C45.5990556,0.416887404 46.3029868,0.525286279 46.9175041,1.20094543 C47.4799988,1.81833001 47.4548004,3.15049513 46.8256517,3.94474102 L36.6105203,15.8869555 L45.6783088,15.8869555 C46.6334118,15.8869555 47.3284016,16.7158401 47.3284016,17.7391092 C47.3279952,18.7619707 46.6325989,19.5904479 45.6774959,19.5904479 M9.89446061,19.9979624 C7.02630663,19.9979624 4.4255815,18.8573291 2.57064955,16.7879702 C0.936813789,14.9643425 0,12.5608215 0,10.1943844 C0,2.76783895 6.15695969,0 10.0383357,0 C13.854277,0 16.6553705,1.87619707 16.7728279,1.95606993 C17.6324206,2.54085334 17.8620517,3.72223807 17.2865514,4.59554179 C17.0145079,5.012172 16.5875082,5.30233119 16.1007672,5.40131795 C15.6140261,5.5003047 15.1080198,5.39988755 14.6955805,5.12245813 C14.64559,5.08985696 12.6585693,3.80537104 10.0383357,3.80537104 C7.60546483,3.80537104 4.25081797,5.41464607 4.25081797,10.1951995 C4.25081797,12.9149517 6.26791421,16.1216839 9.96680458,16.1216839 C12.0477098,16.1216839 13.5108463,15.5662415 14.3610912,15.0234321 L14.3610912,12.196096 L11.4791187,12.196096 C10.4443561,12.196096 9.606304,11.3443906 9.606304,10.293818 C9.606304,9.24324545 10.4443561,8.39154 11.4791187,8.39154 L16.2343124,8.39154 C17.2686686,8.39154 18.1071271,9.24324545 18.1071271,10.293818 L18.1071271,15.9517503 C18.1077606,16.4651087 17.903098,16.9572905 17.5389424,17.3181466 C16.28349,18.5525083 13.5279163,19.9979624 9.89446061,19.9979624" id="Shape"></path>
                </g>
            </g>
        </g>
    </g>
</svg>