<?xml version="1.0" encoding="UTF-8" standalone="no"?>
<svg width="137px" height="25px" viewBox="0 0 137 25" version="1.1" xmlns="http://www.w3.org/2000/svg" xmlns:xlink="http://www.w3.org/1999/xlink">
    <!-- Generator: Sketch 41.1 (35376) - http://www.bohemiancoding.com/sketch -->
    <title>press-politico</title>
    <desc>Created with Sketch.</desc>
    <defs></defs>
    <g id="Website-2.0" stroke="none" stroke-width="1" fill="none" fill-rule="evenodd">
        <g id="press-icons" transform="translate(-429.000000, -280.000000)" fill="#524D66">
            <g id="press-politico" transform="translate(429.000000, 280.000000)">
                <path d="M3.81228909,10.2983663 L4.78240241,10.2983663 C6.88203643,10.2983663 8.28255187,10.0712616 8.98167103,9.61704651 C9.68078961,9.16055814 10.031488,8.35659884 10.031488,7.20516279 C10.031488,5.96742442 9.65801729,5.09306395 8.90879869,4.58661047 C8.1618572,4.07788953 6.78639177,3.82580233 4.78240241,3.82580233 L3.81228909,3.82580233 L3.81228909,10.2983663 Z M3.57317687,13.3915698 L3.57317687,23.8158081 L0.0252045021,23.8158081 L0.0252045021,0.58725 L5.75251515,0.58725 C7.44907418,0.58725 8.69701301,0.680360465 9.49860876,0.866593023 C10.3002045,1.05054651 10.9970465,1.35487209 11.5914114,1.7772907 C12.3224119,2.31780814 12.8940045,3.04455233 13.3084662,3.95979651 C13.7229274,4.8750407 13.9278811,5.88339535 13.9278811,6.98259884 C13.9278811,8.08179651 13.7229274,9.09923837 13.3084662,10.0281105 C12.8940045,10.95925 12.3224119,11.6882674 11.5914114,12.2174244 C10.9970465,12.6421163 10.3002045,12.9419012 9.49860876,13.121314 C8.69701301,13.303 7.44907418,13.3915698 5.75251515,13.3915698 L3.57317687,13.3915698 Z" id="path3690"></path>
                <path d="M36.3201848,12.2492209 C36.3201848,11.0750756 36.1061221,9.95997674 35.6779971,8.90165698 C35.2475949,7.84333721 34.6304572,6.90311047 33.8243072,6.0787093 C33.0386524,5.26339535 32.1300253,4.63657558 31.0961487,4.19825581 C30.0622726,3.75994186 28.9714646,3.53964535 27.8260024,3.53964535 C26.6805407,3.53964535 25.5920098,3.7576686 24.5558561,4.18917442 C23.5242572,4.62294767 22.6019668,5.25203488 21.7958162,6.0787093 C20.9896662,6.89175581 20.3748056,7.8297093 19.9512354,8.88575581 C19.5276646,9.9440814 19.3158795,11.0659884 19.3158795,12.2492209 C19.3158795,13.4233663 19.5276646,14.5339244 19.9512354,15.5808895 C20.3748056,16.6278547 20.9896662,17.5658081 21.7958162,18.3902093 C22.6019668,19.2146105 23.5197029,19.8436977 24.5490248,20.2774709 C25.5783466,20.71125 26.669154,20.927 27.8260024,20.927 C28.9600785,20.927 30.0394997,20.71125 31.0642673,20.2774709 C32.0867572,19.8436977 33.0067705,19.2146105 33.8243072,18.3902093 C34.6304572,17.5658081 35.2475949,16.6255814 35.6779971,15.5740756 C36.1061221,14.5202965 36.3201848,13.4142849 36.3201848,12.2492209 M40.2666774,12.2492209 C40.2666774,13.9002907 39.9569699,15.4605233 39.3352779,16.929907 C38.715863,18.3992965 37.8117907,19.7119767 36.6230604,20.8656802 C35.4252216,22.0171163 34.0725285,22.900564 32.5672593,23.5137558 C31.0619902,24.1269477 29.481571,24.4335407 27.8260024,24.4335407 C26.1499385,24.4335407 24.5513019,24.1246744 23.0300918,23.5069419 C21.5088817,22.8869419 20.1630205,22.0057616 18.997063,20.8656802 C17.8083333,19.7119767 16.9065381,18.4061047 16.2916774,16.9458081 C15.6768173,15.4855058 15.369387,13.9207326 15.369387,12.2492209 C15.369387,10.589064 15.6768173,9.02429651 16.2916774,7.55263953 C16.9065381,6.08325 17.8083333,4.76602907 18.997063,3.60323837 C20.1835157,2.44952907 21.531654,1.57289535 23.0369237,0.968790698 C24.5444699,0.366953488 26.1385524,0.0649011628 27.8260024,0.0649011628 C29.5020662,0.0649011628 31.0893173,0.366953488 32.5900316,0.968790698 C34.0907465,1.57289535 35.4366077,2.44952907 36.6230604,3.60323837 C37.8117907,4.77738372 38.715863,6.1014186 39.3352779,7.57761628 C39.9569699,9.05154651 40.2666774,10.6095058 40.2666774,12.2492209" id="path3692"></path>
                <polygon id="path3694" points="43.6324701 23.8158081 43.6324701 0.589517442 47.4172787 0.589517442 47.4172787 20.4364477 55.8818558 20.4364477 55.8818558 23.8158081"></polygon>
                <polygon id="path3696" points="58.0384223 0.589517442 61.8255046 0.589517442 61.8255046 23.8158081 58.0384223 23.8158081"></polygon>
                <polygon id="path3698" points="73.8130046 3.79400581 73.8130046 23.8158081 70.0259165 23.8158081 70.0259165 3.79400581 63.8386001 3.79400581 63.8386001 0.589517442 79.9707173 0.589517442 79.9707173 3.79400581"></polygon>
                <polygon id="path3700" points="81.9519356 0.589517442 85.7367384 0.589517442 85.7367384 23.8158081 81.9519356 23.8158081"></polygon>
                <path d="M108.894204,6.23768605 C107.821616,5.32698256 106.689816,4.64566279 105.496528,4.18917442 C104.303247,3.7349593 103.048478,3.50784884 101.734497,3.50784884 C99.1885177,3.50784884 97.1184885,4.3231686 95.5221295,5.95152907 C93.9257705,7.57988953 93.1287279,9.68972093 93.1287279,12.2810174 C93.1287279,14.7882849 93.905273,16.8549651 95.4583633,18.485593 C97.0114594,20.1139535 98.9721801,20.927 101.335978,20.927 C102.715994,20.927 104.027696,20.6839942 105.273358,20.1979884 C106.51902,19.7119767 107.716861,18.9761453 108.862321,17.9927733 L108.862321,22.2601221 C107.844388,22.9891395 106.735358,23.5364651 105.537523,23.8952965 C104.337403,24.2541279 103.039366,24.4335407 101.638853,24.4335407 C99.8580338,24.4335407 98.2092942,24.142843 96.6994725,23.5614477 C95.1873715,22.9800523 93.8597307,22.1238605 92.714265,20.990593 C91.5801906,19.8800349 90.7057225,18.5718953 90.0976932,17.0661744 C89.4873903,15.5581802 89.1822359,13.9525291 89.1822359,12.2492209 C89.1822359,10.5459128 89.4873903,8.94707558 90.0976932,7.45043605 C90.7057225,5.95380233 91.5893026,4.63884884 92.7461481,3.50784884 C93.9029994,2.3655 95.2283607,1.50022093 96.7222437,0.914284884 C98.2184061,0.326075581 99.8352626,0.0331046512 101.575087,0.0331046512 C102.943723,0.0331046512 104.248592,0.23069186 105.489702,0.628127907 C106.730805,1.02556395 107.933199,1.62512791 109.101435,2.42909302 L108.894204,6.23768605 Z" id="path3702"></path>
                <path d="M132.543558,12.2492209 C132.543558,11.0750756 132.327214,9.95997674 131.899092,8.90165698 C131.468691,7.84333721 130.85155,6.90311047 130.045401,6.0787093 C129.259744,5.26339535 128.351119,4.63657558 127.317241,4.19825581 C126.283363,3.75994186 125.192558,3.53964535 124.047098,3.53964535 C122.901632,3.53964535 121.813106,3.7576686 120.776949,4.18917442 C119.74535,4.62294767 118.82306,5.25203488 118.016912,6.0787093 C117.213036,6.89175581 116.595901,7.8297093 116.172326,8.88575581 C115.748757,9.9440814 115.536973,11.0659884 115.536973,12.2492209 C115.536973,13.4233663 115.748757,14.5339244 116.172326,15.5808895 C116.595901,16.6278547 117.213036,17.5658081 118.016912,18.3902093 C118.82306,19.2146105 119.740797,19.8436977 120.770116,20.2774709 C121.799441,20.71125 122.890246,20.927 124.047098,20.927 C125.181172,20.927 126.260592,20.71125 127.285358,20.2774709 C128.30785,19.8436977 129.227866,19.2146105 130.045401,18.3902093 C130.85155,17.5658081 131.468691,16.6255814 131.899092,15.5740756 C132.327214,14.5202965 132.543558,13.4142849 132.543558,12.2492209 M136.48777,12.2492209 C136.48777,13.9002907 136.178063,15.4605233 135.556369,16.929907 C134.936954,18.3992965 134.032882,19.7119767 132.844153,20.8656802 C131.646313,22.0171163 130.293621,22.900564 128.788353,23.5137558 C127.283084,24.1269477 125.702664,24.4335407 124.047098,24.4335407 C122.371034,24.4335407 120.772395,24.1246744 119.251182,23.5069419 C117.727696,22.8869419 116.384116,22.0057616 115.218159,20.8656802 C114.029425,19.7119767 113.127632,18.4061047 112.51277,16.9458081 C111.897909,15.4855058 111.590481,13.9207326 111.590481,12.2492209 C111.590481,10.589064 111.897909,9.02429651 112.51277,7.55263953 C113.127632,6.08325 114.029425,4.76602907 115.218159,3.60323837 C116.404608,2.44952907 117.752746,1.57289535 119.258015,0.968790698 C120.765563,0.366953488 122.361922,0.0649011628 124.047098,0.0649011628 C125.723162,0.0649011628 127.310409,0.366953488 128.811124,0.968790698 C130.31184,1.57289535 131.657698,2.44952907 132.844153,3.60323837 C134.032882,4.77738372 134.936954,6.1014186 135.556369,7.57761628 C136.178063,9.05154651 136.48777,10.6095058 136.48777,12.2492209" id="path3704"></path>
            </g>
        </g>
    </g>
</svg>