<?xml version="1.0" encoding="UTF-8" standalone="no"?>
<svg width="100px" height="37px" viewBox="0 0 100 37" version="1.1" xmlns="http://www.w3.org/2000/svg" xmlns:xlink="http://www.w3.org/1999/xlink">
    <!-- Generator: Sketch 41.1 (35376) - http://www.bohemiancoding.com/sketch -->
    <title>Shape</title>
    <desc>Created with Sketch.</desc>
    <defs></defs>
    <g id="Website-2.0" stroke="none" stroke-width="1" fill="none" fill-rule="evenodd">
        <g id="press-icons" transform="translate(-39.000000, -475.000000)" fill="#524D66">
            <g id="Adweek-logo" transform="translate(39.000000, 475.000000)">
                <g id="Calque_1">
                    <path d="M0.0058685446,36.8866129 L5.39319249,36.8866129 L6.26173709,28.698871 L10.334507,28.698871 L11.0974178,36.8866129 L17.4002347,36.8866129 L13.2100939,0.00596774194 L4.11384977,0.00596774194 L0.0058685446,36.8866129 L0.0058685446,36.8866129 Z M6.87206573,23.1369355 L8.29225352,8.61145161 L8.44483568,8.61145161 L9.77112676,23.1369355 L6.87206573,23.1369355 L6.87206573,23.1369355 Z M17.9753521,36.8866129 L25.5692488,36.8866129 C29.8415493,36.8866129 33.0105634,34.4040323 33.0105634,29.7014516 L33.0105634,7.10758065 C33.0105634,2.60790323 29.8532864,0.00596774194 25.6866197,0.00596774194 L18.0105634,0.00596774194 L18.0105634,36.8866129 L17.9753521,36.8866129 Z M24.2312207,30.9427419 L24.2312207,5.91403226 L25.0410798,5.91403226 C26.3086854,5.91403226 26.7194836,6.68983871 26.7194836,7.72822581 L26.7194836,28.9256452 C26.7194836,30.1191935 26.3673709,30.9427419 25.0410798,30.9427419 L24.2312207,30.9427419 L24.2312207,30.9427419 Z M37.1420188,36.9940323 L43.3978873,36.9940323 L45.4284038,14.4837097 L45.6866197,14.4837097 L47.6701878,36.9940323 L53.4213615,36.9940323 L57.6819249,0.0179032258 L52.3884977,0.0179032258 L50.8157277,20.7498387 L50.6631455,20.7498387 L48.8321596,0.0179032258 L42.5293427,0.0179032258 L40.6983568,20.9766129 L40.592723,20.9766129 L38.9143192,0.0179032258 L32.7640845,0.0179032258 L37.1420188,36.9940323 L37.1420188,36.9940323 Z M58.2922535,36.8866129 L70.4988263,36.8866129 L70.4988263,30.9427419 L64.5011737,30.9427419 L64.5011737,20.9646774 L69.2312207,20.9646774 L69.2312207,14.961129 L64.5011737,14.961129 L64.5011737,5.91403226 L70.4049296,5.91403226 L70.4049296,0.0179032258 L58.3157277,0.0179032258 L58.3157277,36.8985484 L58.2922535,36.8985484 L58.2922535,36.8866129 L58.2922535,36.8866129 Z M71.2030516,36.8866129 L83.4096244,36.8866129 L83.4096244,30.9427419 L77.4119718,30.9427419 L77.4119718,20.9646774 L82.1420188,20.9646774 L82.1420188,14.961129 L77.4119718,14.961129 L77.4119718,5.91403226 L83.3157277,5.91403226 L83.3157277,0.0179032258 L71.2265258,0.0179032258 L71.2265258,36.8985484 L71.2030516,36.8985484 L71.2030516,36.8866129 L71.2030516,36.8866129 Z M84.1725352,36.8866129 L90.4284038,36.8866129 L90.4284038,24.1633871 L91.4964789,20.5469355 L93.7382629,36.8866129 L99.9941315,36.8866129 L96.0739437,14.1375806 L99.8884977,0.0179032258 L93.6326291,0.0179032258 L90.4284038,15.2237097 L90.4284038,0.0179032258 L84.1725352,0.0179032258 L84.1725352,36.8866129 L84.1725352,36.8866129 Z" id="Shape"></path>
                </g>
            </g>
        </g>
    </g>
</svg>