<?xml version="1.0" encoding="UTF-8" standalone="no"?>
<svg width="94px" height="40px" viewBox="0 0 94 40" version="1.1" xmlns="http://www.w3.org/2000/svg" xmlns:xlink="http://www.w3.org/1999/xlink">
    <!-- Generator: Sketch 41.1 (35376) - http://www.bohemiancoding.com/sketch -->
    <title>tnw-the-next-web</title>
    <desc>Created with Sketch.</desc>
    <defs></defs>
    <g id="Website-2.0" stroke="none" stroke-width="1" fill="none" fill-rule="evenodd">
        <g id="press-icons" transform="translate(-252.000000, -80.000000)" fill="#524D66">
            <g id="tnw-the-next-web" transform="translate(252.000000, 80.000000)">
                <path d="M65.9663333,0.144333333 L74.2216667,0.144333333 C74.247,0.163333333 74.2703333,0.190333333 74.298,0.198666667 C74.6916667,0.315333333 74.9663333,0.577 75.1656667,0.921333333 C75.4056667,1.336 75.6073333,1.76966667 75.7266667,2.235 C76.1183333,3.76933333 76.505,5.30466667 76.895,6.83866667 C77.428,8.934 77.96,11.0286667 78.4946667,13.1233333 C78.5086667,13.1796667 78.5336667,13.2333333 78.572,13.3363333 C80.07,8.91866667 81.5496667,4.55866667 83.0273333,0.199 L83.3616667,0.199 L91.1866667,0.198666667 C92.059,0.198666667 92.931,0.196333333 93.8036667,0.195333333 L93.8036667,0.245333333 C93.6493333,0.357333333 93.5673333,0.515666667 93.501,0.689333333 C89.9086667,10.03 86.3146667,19.37 82.721,28.71 C82.652,28.889 82.5796667,29.0663333 82.5083333,29.2453333 L73.993,29.2453333 L70.137,12.0806667 L70.085,12.0803333 L66.32,29.2536667 L57.886,29.2536667 L53.7426667,18.643 L53.6893333,18.656 L53.6893333,25.6913333 C53.6893333,26.2783333 53.6913333,26.865 53.6886667,27.4523333 C53.6853333,28.0356667 53.7036667,28.619 53.6756667,29.223 L53.3776667,29.223 C52.2116667,29.223 51.0453333,29.2256667 49.8793333,29.221 C49.5856464,29.2207793 49.2921213,29.2072097 48.9996667,29.1803333 C48.4053333,29.1253333 47.849,28.9506667 47.3683333,28.5826667 C46.8136667,28.1583333 46.3013333,27.6816667 45.863,27.1403333 C42.3063333,22.7453333 38.759,18.3426667 35.2086667,13.9433333 C35.1536667,13.8753333 35.093,13.8113333 35.0353333,13.7453333 C35.0186667,13.7513333 35.001,13.7563333 34.9846667,13.7626667 L34.9846667,25.3753333 C34.9846667,26.0213333 34.987,26.668 34.9836667,27.313 C34.9803333,27.9556667 34.9986667,28.598 34.972,29.2436667 L27.1823333,29.2436667 L27.1823333,27.3453333 L27.1823333,25.458 L27.1823333,23.5703333 L27.1823333,21.6826667 L27.1823333,19.795 L27.1823333,17.8826667 L27.1823333,15.9953333 L27.1823333,14.108 L27.1823333,12.2203333 C27.1823333,11.5903333 27.184,10.962 27.1816667,10.3326667 C27.179,9.708 27.1926667,9.08233333 27.1733333,8.45633333 L19.3546667,8.45633333 L19.3546667,29.222 C19.1063333,29.28 11.2903333,29.2753333 11.0763333,29.2176667 L11.0763333,8.44666667 L3.81533333,8.44666667 C3.77133333,8.35566667 3.734,8.28133333 3.7,8.20566667 L2.18866667,4.77666667 C1.55333333,3.335 0.918,1.89233333 0.279333333,0.451333333 C0.245333333,0.375 0.178,0.312 0.126666667,0.242666667 C0.147333333,0.211 0.0776666667,0.136 0.176666667,0.141333333 C0.235333333,0.144333333 0.294333333,0.141666667 0.352666667,0.141666667 L34.053,0.141666667 C34.1163333,0.157666667 34.179,0.181666667 34.2433333,0.189 C34.7866667,0.252 35.2633333,0.462 35.6473333,0.853333333 C35.8466202,1.05698427 36.0327726,1.27308585 36.2046667,1.50033333 C37.536,3.25766667 38.8606667,5.021 40.1906667,6.78033333 C41.854,8.98166667 43.5206667,11.1796667 45.187,13.378 C45.233,13.4383333 45.2606667,13.527 45.3746667,13.5416667 L45.3746667,13.3023333 L45.383,5.402 C45.384,4.614 45.3823333,3.82566667 45.3886667,3.03733333 C45.393,2.52133333 45.466,2.01733333 45.6803333,1.54266667 C45.9976667,0.840333333 46.5243333,0.388666667 47.282,0.215 C47.37,0.194666667 47.456,0.166333333 47.5433333,0.141666667 L56.201,0.141666667 C56.2396667,0.155333333 56.2773333,0.177333333 56.317,0.182 C56.8066667,0.24 57.2036667,0.472 57.535,0.826666667 C57.8237709,1.13279459 58.0412944,1.49897628 58.172,1.899 C58.2733333,2.21 58.3703333,2.521 58.4686667,2.83333333 C59.5623333,6.29933333 60.656,9.767 61.7506667,13.233 C61.7763333,13.315 61.811,13.3943333 61.8593333,13.5216667 C61.8796667,13.4383333 61.8866667,13.415 61.8916667,13.39 C62.0806667,12.3006667 62.2693333,11.2106667 62.459,10.1213333 C62.7733333,8.31366667 63.0883333,6.50666667 63.4036667,4.69966667 C63.552,3.84933333 63.6776667,2.995 63.859,2.151 C64.0763333,1.14266667 64.674,0.461666667 65.7043333,0.208333333 C65.7916667,0.189666667 65.8793333,0.166666667 65.9663333,0.144333333 L65.9663333,0.144333333 Z M66.4196667,39.7593333 L63.871,32.4 C63.9246667,32.3833333 63.9473333,32.3706667 63.97,32.3706667 C64.3893333,32.3693333 64.8083333,32.3696667 65.261,32.3696667 L67.004,37.7773333 C67.248,37.1453333 67.421,36.5483333 67.6203333,35.962 C67.8216667,35.367 68.0163333,34.7696667 68.2126667,34.173 C68.4093333,33.577 68.6056667,32.9796667 68.8053333,32.3713333 L69.913,32.3713333 C70.4996667,34.1453333 71.089,35.9296667 71.679,37.7126667 L71.7363333,37.7143333 C72.31,35.9356667 72.8826667,34.1573333 73.455,32.382 L74.8146667,32.382 L72.2586667,39.76 L71.1513333,39.76 C71.1166667,39.6746667 71.0786667,39.5913333 71.0493333,39.505 C70.5146667,37.946 69.9816667,36.387 69.4473333,34.8286667 C69.4196667,34.7483333 69.389,34.6686667 69.3593333,34.588 C69.2866667,34.675 69.2566667,34.7513333 69.2296667,34.8286667 C68.7286667,36.293 68.228,37.7566667 67.7256667,39.221 C67.6633333,39.402 67.593,39.5803333 67.5256667,39.76 C67.1583333,39.7593333 66.7886667,39.7593333 66.4196667,39.7593333 L66.4196667,39.7593333 Z M83.5853333,39.6883333 L83.5853333,32.3876667 C83.657,32.3806667 83.7206667,32.369 83.7856667,32.369 C84.8173333,32.3676667 85.8483333,32.364 86.88,32.37 C87.3263333,32.3733333 87.7663333,32.432 88.18,32.615 C89.1303333,33.0366667 89.534,34.064 89.1243333,35.008 C88.996,35.3016667 88.795,35.5306667 88.5353333,35.713 C88.4546667,35.77 88.3733333,35.8256667 88.2713333,35.896 C88.423,35.967 88.55,36.0243333 88.6746667,36.085 C89.3393333,36.4113333 89.6856667,36.9346667 89.6806667,37.6876667 C89.675,38.446 89.3516667,39.0063333 88.6783333,39.36 C88.2685209,39.5767409 87.813212,39.6933666 87.3496667,39.7003333 C86.1256667,39.7176667 84.9006667,39.7096667 83.6766667,39.7103333 C83.6533333,39.7106667 83.6296667,39.7 83.5853333,39.6883333 L83.5853333,39.6883333 Z M84.8646667,38.5446667 C85.718,38.5446667 86.547,38.554 87.376,38.5373333 C87.5526667,38.5343333 87.737,38.4583333 87.9013333,38.3816667 C88.2503333,38.2196667 88.4006667,37.9213333 88.3953333,37.5456667 C88.3903333,37.1776667 88.2283333,36.8913333 87.886,36.7473333 C87.6883333,36.664 87.4693333,36.5963333 87.2576667,36.5886667 C86.5033333,36.565 85.7486667,36.5693333 84.9936667,36.565 C84.9543333,36.5646667 84.915,36.58 84.864,36.59 C84.8646667,37.2416667 84.8646667,37.8836667 84.8646667,38.5446667 L84.8646667,38.5446667 Z M84.863,35.4486667 C84.9123333,35.4596667 84.9366667,35.4696667 84.9606667,35.4696667 C85.539,35.47 86.1173333,35.476 86.6956667,35.4656667 C86.9726667,35.461 87.2453333,35.413 87.498,35.2836667 C87.853,35.1026667 87.9953333,34.8063333 87.9823333,34.419 C87.9693333,34.0293333 87.7703333,33.7643333 87.4133333,33.642 C87.199145,33.5709083 86.9756088,33.5319299 86.75,33.5263333 C86.1886667,33.5103333 85.627,33.52 85.065,33.5216667 C85.0013333,33.5216667 84.9366667,33.533 84.863,33.541 L84.863,35.4486667 L84.863,35.4486667 Z M35.604,32.3816667 L36.8813333,32.3816667 L36.8813333,39.7116667 C36.542,39.7116667 36.2103333,39.721 35.879,39.704 C35.808,39.7 35.7303333,39.6083333 35.677,39.5403333 C35.0226667,38.7 34.372,37.8563333 33.7206667,37.0143333 C33.1413333,36.2643333 32.5613333,35.515 31.9813333,34.7653333 C31.9356667,34.7063333 31.8863333,34.65 31.8396667,34.5946667 C31.8233333,34.6016667 31.8153333,34.604 31.808,34.609 C31.8023333,34.6133333 31.7953333,34.619 31.7933333,34.6256667 C31.7886991,34.6416063 31.7861226,34.6580733 31.7856667,34.6746667 C31.7816667,36.335 31.7783333,37.9956667 31.7746667,39.656 C31.7746667,39.6626667 31.7666667,39.6693333 31.751,39.6946667 L30.5093333,39.6946667 L30.5093333,32.369 C30.889,32.369 31.2556667,32.3606667 31.621,32.3763333 C31.6913333,32.38 31.7696667,32.4733333 31.8226667,32.542 C32.467,33.3683333 33.1066667,34.1993333 33.7476667,35.0283333 L35.41,37.1776667 C35.4593333,37.2403333 35.513,37.301 35.6036667,37.4106667 L35.604,32.3816667 L35.604,32.3816667 Z M19.9193333,39.685 L19.9193333,32.3863333 L25.3366667,32.3863333 C25.3556667,32.7543333 25.3396667,33.127 25.345,33.5336667 C24.647,33.552 23.963,33.54 23.28,33.5416667 C22.5946667,33.544 21.91,33.542 21.209,33.542 L21.209,35.4186667 L24.8293333,35.4186667 C24.887,35.621 24.8956667,36.273 24.8476667,36.5826667 L21.2516667,36.5826667 C21.181,36.781 21.1666667,38.2416667 21.2296667,38.548 L25.3786667,38.548 L25.3786667,39.6703333 C25.207,39.7226667 20.2633333,39.739 19.9193333,39.685 L19.9193333,39.685 Z M38.9966667,39.685 L38.9966667,32.3863333 L44.414,32.3863333 C44.4333333,32.7543333 44.417,33.1266667 44.4223333,33.535 C43.7243333,33.55 43.0403333,33.5403333 42.3576667,33.542 C41.6723333,33.544 40.9876667,33.5423333 40.286,33.5423333 L40.286,35.419 L43.9066667,35.419 C43.9643333,35.621 43.9733333,36.273 43.924,36.5903333 L40.2856667,36.5903333 L40.2856667,38.5483333 L44.456,38.5483333 L44.456,39.6703333 C44.2846667,39.7223333 39.342,39.739 38.9966667,39.685 L38.9966667,39.685 Z M76.356,32.3776667 L81.7443333,32.3776667 C81.8063333,32.5673333 81.7676667,32.7596667 81.775,32.9476667 C81.7816667,33.1313333 81.7766667,33.3153333 81.7766667,33.536 C81.49,33.5386667 81.2173333,33.542 80.945,33.543 C80.6766667,33.544 80.4083333,33.543 80.14,33.543 L77.6806667,33.543 C77.6183333,33.7296667 77.606,35.1196667 77.6636667,35.4206667 L81.2913333,35.4206667 L81.2913333,36.583 L77.685,36.583 C77.619,36.7796667 77.6056667,38.2293333 77.664,38.5486667 L81.8106667,38.5486667 L81.8106667,39.6716667 C81.637,39.722 76.6786667,39.7366667 76.3566667,39.685 C76.356,37.26 76.356,34.8326667 76.356,32.3776667 L76.356,32.3776667 Z M17.788,39.7003333 L16.539,39.7003333 L16.539,36.648 L13.015,36.648 C13.008,37.6556667 13.016,38.6663333 13.0106667,39.6943333 L11.7726667,39.6943333 C11.718,39.5236667 11.703,32.6933333 11.7603333,32.383 L13.0066667,32.383 L13.0066667,35.4096667 L16.5253333,35.4096667 L16.5253333,32.3846667 L17.7783333,32.3846667 C17.83,32.563 17.8416667,39.4166667 17.788,39.7003333 Z M52.431,32.3803333 L49.878,35.9613333 C50.756,37.2003333 51.6303333,38.434 52.526,39.699 C52.408,39.7056667 52.3356667,39.7123333 52.2636667,39.7126667 C51.937,39.714 51.6093333,39.7023333 51.2833333,39.7173333 C51.0873333,39.726 50.9656667,39.6663333 50.8523333,39.499 C50.3263333,38.721 49.786,37.953 49.25,37.1823333 C49.2023333,37.115 49.151,37.0503333 49.0823333,36.9593333 C49.0183333,37.0476667 48.9643333,37.1186667 48.9133333,37.19 C48.3713333,37.967 47.8266667,38.742 47.291,39.5233333 C47.196,39.6613333 47.096,39.725 46.923,39.7173333 C46.5966667,39.7026667 46.2693333,39.714 45.9423333,39.7126667 C45.8693333,39.7123333 45.7963333,39.706 45.6743333,39.7 C46.5723333,38.4453333 47.4473333,37.2226667 48.3346667,35.984 C47.486,34.791 46.6423333,33.605 45.7763333,32.389 C45.8783333,32.38 45.94,32.3693333 46.002,32.369 C46.363,32.3676667 46.7233333,32.375 47.084,32.365 C47.2346667,32.361 47.327,32.4113333 47.412,32.5366667 C47.9226667,33.2843333 48.4406667,34.0273333 48.9573333,34.7703333 C49.004,34.8376667 49.0553333,34.9023333 49.117,34.9843333 C49.1783333,34.9023333 49.2283333,34.8383333 49.2753333,34.7713333 C49.7893333,34.036 50.3046667,33.3016667 50.8123333,32.5626667 C50.9056667,32.4273333 51.002,32.3546667 51.1793333,32.3636667 C51.5136667,32.3796667 51.8496667,32.368 52.1856667,32.3686667 C52.2493333,32.3686667 52.313,32.374 52.431,32.3803333 L52.431,32.3803333 Z M57.1873333,33.571 L57.1873333,39.6946667 L55.8813333,39.6946667 C55.8656667,39.292 55.8753333,38.8843333 55.8743333,38.4783333 C55.8723333,38.076 55.8743333,37.6733333 55.8743333,37.2713333 L55.8743333,36.039 L55.8743333,34.8316667 L55.8743333,33.5746667 L53.5573333,33.5746667 L53.5573333,32.385 L59.5006667,32.385 L59.5006667,33.5716667 C58.7303333,33.571 57.973,33.571 57.1873333,33.571 L57.1873333,33.571 Z M7.836,39.704 L6.533,39.704 C6.531,39.357 6.52866667,39.0166667 6.52766667,38.6763333 C6.527,38.341 6.52766667,38.0056667 6.52766667,37.67 L6.52766667,36.6383333 L6.52766667,35.6316667 L6.52766667,34.6003333 L6.52766667,33.5796667 L4.25333333,33.5796667 C4.193,33.3823333 4.18433333,32.6606667 4.23533333,32.382 L10.1406667,32.382 C10.1476667,32.4603333 10.157,32.526 10.1573333,32.5903333 C10.1593333,32.907 10.1583333,33.2236667 10.1583333,33.5703333 L7.836,33.5703333 L7.836,39.704 L7.836,39.704 Z" id="Shape"></path>
            </g>
        </g>
    </g>
</svg>