<?xml version="1.0" encoding="UTF-8" standalone="no"?>
<svg width="99px" height="40px" viewBox="0 0 99 40" version="1.1" xmlns="http://www.w3.org/2000/svg" xmlns:xlink="http://www.w3.org/1999/xlink">
    <!-- Generator: Sketch 41.1 (35376) - http://www.bohemiancoding.com/sketch -->
    <title>business-insider-1</title>
    <desc>Created with Sketch.</desc>
    <defs></defs>
    <g id="Website-2.0" stroke="none" stroke-width="1" fill="none" fill-rule="evenodd">
        <g id="press-icons" transform="translate(-853.000000, -73.000000)" fill="#524D66">
            <g id="business-insider-1" transform="translate(853.000000, 73.000000)">
                <path d="M7.65142948,8.41488959 C7.19630623,8.08870662 6.6976582,7.93640379 5.85232147,7.89287066 C5.46210801,7.87116719 5.24549047,7.87116719 4.92031258,7.87116719 C4.83364041,7.87116719 4.79036722,7.91470032 4.79036722,8.02334385 L4.79036722,13.1762776 C4.79036722,14.6113565 4.8554028,14.9810726 5.54890597,15.2635962 C6.13410038,15.5028391 6.63262262,15.5245426 7.13114485,15.5245426 C8.10667853,15.5245426 9.75395299,15.0025237 9.75395299,12.7413249 C9.75395299,11.3933123 9.29882973,9.56706625 7.65142948,8.41488959 L7.65142948,8.41488959 Z M4.79036722,6.67545741 C4.79036722,6.84946372 4.8554028,6.89287066 4.94207497,6.91457413 C5.1371817,6.95823344 5.4622338,6.97981073 5.96088183,6.97981073 C6.6761474,6.97981073 7.15303304,6.89299685 7.52135832,6.56681388 C8.08491614,6.11015773 8.41009403,5.32757098 8.41009403,4.2622082 C8.41009403,2.80529968 7.56475731,0.891987382 5.70061372,0.891987382 C5.39719822,0.891987382 5.20209149,0.891987382 4.98534816,0.935520505 C4.83351461,0.979053628 4.79024142,1.06599369 4.79024142,1.30511041 L4.79024142,6.67545741 L4.79036722,6.67545741 Z M2.18919568,6.30574132 C2.18919568,3.00088328 2.18919568,2.39205047 2.1457967,1.6962776 C2.10239771,0.957223975 1.92905337,0.609211356 1.2137878,0.4570347 C1.04044346,0.41362776 0.671866582,0.391798107 0.36845108,0.391798107 C0.130071156,0.391798107 0,0.348264984 0,0.196088328 C0,0.0439116719 0.151707751,0.000504731861 0.476885642,0.000252365931 C1.62563787,0.000252365931 2.99125921,0.065615142 3.42474587,0.065615142 C4.48682592,0.065615142 5.33228844,0.000252365931 6.0691906,0.000504731861 C9.9924587,0.000504731861 10.6860877,2.10940063 10.6860877,3.26182965 C10.6860877,5.04466877 9.66728081,6.10990536 8.47512961,7.06675079 C10.252601,7.67533123 12.4200343,9.21930599 12.4200343,11.7631546 C12.4200343,14.0897161 10.6209263,16.5029653 6.63262262,16.5029653 C6.3726061,16.5029653 5.74401271,16.4594322 5.11529352,16.4376025 C4.46506353,16.3941956 3.81483355,16.3723659 3.48965565,16.3723659 C3.25114994,16.3723659 2.77426429,16.3723659 2.25410546,16.3941956 C1.75558323,16.3941956 1.19215121,16.4376025 0.758538755,16.4376025 C0.476759848,16.4376025 0.324926302,16.3723659 0.324926302,16.2201893 C0.324926302,16.1115457 0.411724269,16.046183 0.671866582,16.046183 C0.996918679,16.046183 1.25706099,16.002776 1.45216773,15.9593691 C1.88565438,15.8723028 1.99408895,15.3940694 2.08076112,14.7634069 C2.18906989,13.850347 2.18906989,12.1324921 2.18906989,10.1322397 L2.18906989,6.30574132 L2.18919568,6.30574132 Z M15.3453774,7.80605678 C15.3453774,5.00126183 15.3671398,4.47936909 15.3237408,3.89223975 C15.2803418,3.24 15.1069975,3.06611987 14.5000407,2.89211356 C14.3483329,2.84845426 14.023155,2.82687697 13.7631385,2.82687697 C13.5462694,2.82687697 13.4380864,2.7615142 13.4380864,2.63116719 C13.4380864,2.50069401 13.5680318,2.45716088 13.8498107,2.45716088 C14.8686175,2.45716088 16.1474409,2.50069401 16.7108729,2.50069401 C17.1878844,2.50069401 18.4667078,2.45716088 19.1603367,2.45716088 C19.4421156,2.45716088 19.572061,2.50069401 19.572061,2.63116719 C19.572061,2.7615142 19.4637522,2.82687697 19.2687713,2.82687697 C19.0519022,2.82687697 18.9435934,2.84858044 18.7053393,2.89211356 C18.2066912,2.97905363 18.0549835,3.24 18.0114587,3.89223975 C17.9681855,4.4792429 17.9681855,5.00126183 17.9681855,7.80605678 L17.9681855,10.3934385 C17.9681855,13.0894637 18.4883443,14.133123 19.4203532,14.8723028 C20.26569,15.5464984 21.1761881,15.6114826 21.8265438,15.6114826 C22.6499924,15.6114826 23.625526,15.3723659 24.3840648,14.6330599 C25.4461449,13.6329338 25.4895438,12.0239748 25.4895438,10.1323659 L25.4895438,7.80605678 C25.4895438,5.00126183 25.4679072,4.47936909 25.4461449,3.89223975 C25.4027459,3.26182965 25.2510381,3.06611987 24.6442071,2.89211356 C24.4924994,2.84845426 24.1673215,2.82687697 23.9504524,2.82687697 C23.733709,2.82687697 23.6254003,2.7615142 23.6254003,2.63116719 C23.6254003,2.50069401 23.7554714,2.45716088 24.0156137,2.45716088 C24.9910216,2.45716088 26.269845,2.50069401 26.2914816,2.50069401 C26.5084765,2.50069401 27.7872999,2.45716088 28.5240762,2.45716088 C28.7842186,2.45716088 28.9144155,2.50069401 28.9144155,2.63116719 C28.9144155,2.7615142 28.8059809,2.82687697 28.5892376,2.82687697 C28.3724943,2.82687697 28.2640597,2.84858044 28.0256798,2.89211356 C27.5053952,2.97905363 27.3755756,3.24 27.3320508,3.89223975 C27.3104142,4.4792429 27.2886518,5.00126183 27.2886518,7.80605678 L27.2886518,9.78460568 C27.2886518,11.8500946 27.0719085,14.0244795 25.4679072,15.3506625 C24.1239225,16.4812618 22.6717548,16.6768454 21.4362046,16.6768454 C20.4390343,16.6768454 18.4667078,16.6334385 17.0794498,15.4158991 C16.1040419,14.5678233 15.3452516,13.1982334 15.3452516,10.5239117 L15.3452516,7.80605678 L15.3453774,7.80605678 Z M30.6911321,16.1984858 C30.3875909,16.0681388 30.3226811,15.9809464 30.3226811,15.5679495 C30.3226811,14.5676972 30.4092274,13.4155205 30.430864,13.1111672 C30.430864,12.8285174 30.5175362,12.6326814 30.6693698,12.6326814 C30.8428399,12.6326814 30.8644765,12.8066877 30.8644765,12.9371609 C30.8644765,13.1762776 30.9295121,13.567571 31.0379466,13.8937539 C31.4497967,15.26347 32.8803278,15.7202524 34.0726048,15.7202524 C35.7198793,15.7202524 36.7169238,14.6765931 36.7169238,13.3721136 C36.7169238,12.567571 36.5216912,11.7631546 34.8311436,10.7629022 L33.7256645,10.1105363 C31.4714333,8.78435331 30.7345311,7.54485804 30.7345311,5.91432177 C30.7345311,3.65312303 32.9020902,2.19634069 35.5464091,2.19634069 C36.7818335,2.19634069 37.757493,2.370347 38.2558895,2.50069401 C38.4293596,2.54410095 38.515906,2.60933754 38.515906,2.73993691 C38.515906,2.97917981 38.4509962,3.50094637 38.4509962,4.95772871 C38.4509962,5.34902208 38.3641982,5.54460568 38.2124905,5.54460568 C38.0824193,5.54460568 38.0175095,5.43596215 38.0175095,5.2185489 C38.0175095,5.04454259 37.9307116,4.4792429 37.5188615,4.00088328 C37.2370826,3.65312303 36.6303774,3.13135647 35.3945756,3.13135647 C34.0292058,3.13135647 32.7935299,3.84870662 32.7935299,5.10977918 C32.7935299,5.93615142 33.0969454,6.58826498 34.8092554,7.54498423 L35.5896823,7.97968454 C38.1039301,9.37135647 38.8843571,10.7846057 38.8843571,12.4588013 C38.8843571,13.8283912 38.3639466,14.9375394 36.9768145,15.915836 C36.0664422,16.5682019 34.8092554,16.6765931 33.7905743,16.6765931 C32.6853469,16.6767192 31.5147065,16.5683281 30.6911321,16.1984858 L30.6911321,16.1984858 Z M42.092108,7.80605678 C42.092108,5.00126183 42.092108,4.47936909 42.0705972,3.89223975 C42.0271982,3.26182965 41.8320915,3.04429022 41.4202414,2.91381703 C41.2034981,2.84845426 40.9649924,2.82700315 40.7266125,2.82700315 C40.5316315,2.82700315 40.4230712,2.78347003 40.4230712,2.60946372 C40.4230712,2.50082019 40.5747789,2.45728707 40.8783202,2.45728707 C41.5937116,2.45728707 42.8940457,2.50082019 43.435967,2.50082019 C43.9129784,2.50082019 45.1484028,2.45728707 45.8854307,2.45728707 C46.1238107,2.45728707 46.2756442,2.50082019 46.2756442,2.60946372 C46.2756442,2.78347003 46.1673355,2.82700315 45.9721029,2.82700315 C45.777122,2.82700315 45.6254142,2.84858044 45.4086709,2.89223975 C44.8883863,2.97917981 44.7366785,3.24012618 44.6932795,3.89236593 C44.6500064,4.47936909 44.6500064,5.00138801 44.6500064,7.80618297 L44.6500064,11.0675079 C44.6500064,12.850347 44.6500064,14.328959 44.7365527,15.1117981 C44.8015883,15.611735 44.9317853,15.8943849 45.4952173,15.9813249 C45.7552338,16.0249842 46.1888463,16.0466877 46.4706252,16.0466877 C46.6873685,16.0466877 46.7740407,16.1553312 46.7740407,16.2425237 C46.7740407,16.3728707 46.6223329,16.4381073 46.4054638,16.4381073 C45.1484028,16.4381073 43.847817,16.3728707 43.3275324,16.3728707 C42.8940457,16.3728707 41.5935858,16.4381073 40.8349212,16.4381073 C40.5964155,16.4381073 40.4664701,16.3728707 40.4664701,16.2425237 C40.4664701,16.1554574 40.5315057,16.0466877 40.7698856,16.0466877 C41.0516645,16.0466877 41.2684079,16.0249842 41.4417522,15.9813249 C41.8319657,15.894511 41.9404003,15.6335647 42.00531,15.0900946 C42.0918564,14.3290852 42.0918564,12.8504732 42.0918564,11.0676341 L42.0918564,7.80605678 L42.092108,7.80605678 Z M51.1957052,13.9155836 C51.2389784,15.3505363 51.4774841,15.7853628 51.8459352,15.9159621 C52.1711131,16.0246057 52.5395642,16.0463091 52.8429797,16.0463091 C53.059723,16.0463091 53.1681576,16.1333754 53.1681576,16.2421451 C53.1681576,16.3943218 52.9946874,16.4377287 52.7346709,16.4377287 C51.4992465,16.4377287 50.6102592,16.3724921 50.2635705,16.3724921 C50.0902262,16.3724921 49.1798539,16.4377287 48.204446,16.4377287 C47.9443037,16.4377287 47.7709593,16.4161514 47.7709593,16.2421451 C47.7709593,16.1335016 47.9010305,16.0463091 48.0743748,16.0463091 C48.3345172,16.0463091 48.6812058,16.0246057 48.9415997,15.9594953 C49.4399962,15.8290221 49.5050318,15.3288328 49.5266684,13.7198738 L49.7001385,2.76164038 C49.7001385,2.39205047 49.8300839,2.1311041 50.0253164,2.1311041 C50.2636963,2.1311041 50.5238386,2.41375394 50.8488907,2.73993691 C51.0873964,2.97917981 53.9485845,5.91432177 56.7228488,8.63217666 C58.0235604,9.91495268 60.5595705,12.524164 60.8413494,12.7849842 L60.9280216,12.7849842 L60.7326633,4.56618297 C60.7112783,3.4355836 60.5378081,3.10940063 60.0828107,2.9355205 C59.8010318,2.82687697 59.3455311,2.82687697 59.0855146,2.82687697 C58.8471347,2.82687697 58.7819733,2.73993691 58.7819733,2.63116719 C58.7819733,2.47899054 58.9770801,2.45716088 59.258859,2.45716088 C60.2560292,2.45716088 61.2747103,2.50069401 61.6866861,2.50069401 C61.9034295,2.50069401 62.6185693,2.45716088 63.5507039,2.45716088 C63.8108463,2.45716088 63.9840648,2.47886435 63.9840648,2.63116719 C63.9840648,2.73981073 63.875756,2.82687697 63.6590127,2.82687697 C63.4637802,2.82687697 63.3121982,2.82687697 63.0736925,2.89211356 C62.5534079,3.04429022 62.4018259,3.37047319 62.3800635,4.41413249 L62.1633202,16.0681388 C62.1633202,16.4811356 62.0116125,16.655142 61.8597789,16.655142 C61.5347268,16.655142 61.2747103,16.4594322 61.0794778,16.2635962 C59.8872008,15.1548265 57.5028983,12.8719243 55.509061,10.9367823 C53.4281741,8.93640379 51.4123227,6.69678233 51.0436201,6.37072555 L50.9787103,6.37072555 L51.1957052,13.9155836 L51.1957052,13.9155836 Z M67.3216353,7.80605678 C67.3216353,5.00126183 67.3216353,4.47936909 67.2997471,3.89223975 C67.256474,3.26182965 67.0831296,3.06611987 66.476047,2.89211356 C66.3244651,2.84845426 65.999413,2.82687697 65.7176341,2.82687697 C65.5224015,2.82687697 65.3924562,2.7615142 65.3924562,2.63116719 C65.3924562,2.50069401 65.5441639,2.45716088 65.8259428,2.45716088 C66.8229873,2.45716088 68.0369009,2.50069401 68.5786963,2.50069401 C69.1855273,2.50069401 73.4122109,2.52227129 73.7807878,2.50069401 C74.1276023,2.47886435 74.4311436,2.41375394 74.5827255,2.39205047 C74.6911601,2.370347 74.7994689,2.30511041 74.886141,2.30511041 C74.9945756,2.30511041 75.0162122,2.39205047 75.0162122,2.47899054 C75.0162122,2.60946372 74.9079034,2.82700315 74.8643787,3.67495268 C74.8428679,3.87066246 74.7993431,4.67520505 74.7561957,4.89249211 C74.7344333,4.97930599 74.6911601,5.19684543 74.5394524,5.19684543 C74.4093812,5.19684543 74.387493,5.10990536 74.387493,4.95772871 C74.387493,4.82725552 74.3659822,4.50107256 74.2576734,4.28353312 C74.1057141,3.95747634 73.9541321,3.69665615 73.0003609,3.60958991 C72.6753088,3.5659306 70.3994409,3.52264984 70.0092274,3.52264984 C69.9226811,3.52264984 69.8791563,3.58788644 69.8791563,3.69665615 L69.8791563,8.26246057 C69.8791563,8.37123028 69.9009187,8.45829653 70.0092274,8.45829653 C70.4427141,8.45829653 72.9138145,8.45829653 73.3473011,8.41488959 C73.8025502,8.37123028 74.0842033,8.32782334 74.2576734,8.13223975 C74.4093812,8.00164038 74.4744168,7.89299685 74.5612147,7.89299685 C74.6477611,7.89299685 74.7129225,7.97993691 74.7129225,8.08883281 C74.7129225,8.19747634 74.6692719,8.50182965 74.5612147,9.43684543 C74.5175642,9.80656151 74.4744168,10.5457413 74.4744168,10.6760883 C74.4744168,10.828265 74.4526544,11.0892114 74.2794358,11.0892114 C74.1493647,11.0892114 74.1057141,11.0238486 74.1057141,10.9370347 C74.0842033,10.7411987 74.0842033,10.5022082 74.0408043,10.2628391 C73.9324956,9.89324921 73.693864,9.61059937 72.9787243,9.54548896 C72.6319098,9.50182965 70.4643507,9.45842271 69.9877166,9.45842271 C69.9009187,9.45842271 69.8791563,9.54548896 69.8791563,9.65425868 L69.8791563,11.1327445 C69.8791563,11.7632808 69.8576455,13.3287066 69.8791563,13.8721767 C69.9226811,15.1332492 70.5076239,15.4158991 72.4586912,15.4158991 C72.9572135,15.4158991 73.7591512,15.3941956 74.2577992,15.1766562 C74.7345591,14.9592429 74.9513024,14.5679495 75.0812478,13.8070662 C75.1248983,13.6112303 75.1680457,13.5244164 75.2982427,13.5244164 C75.4499504,13.5244164 75.4717128,13.7636593 75.4717128,13.9591167 C75.4717128,14.3722397 75.3198793,15.6334385 75.2114447,16.0030284 C75.0813736,16.4812618 74.908155,16.4812618 74.1927637,16.4812618 C72.7622325,16.4812618 71.6133545,16.4595584 70.6814714,16.4161514 C69.7493367,16.3943218 69.0339454,16.3724921 68.4705133,16.3724921 C68.2535184,16.3724921 67.8417942,16.3943218 67.3867967,16.3943218 C66.9315476,16.4161514 66.454662,16.4377287 66.0644485,16.4377287 C65.8260686,16.4377287 65.6959975,16.3724921 65.6959975,16.2421451 C65.6959975,16.1550789 65.761033,16.0463091 65.9995388,16.0463091 C66.2811919,16.0463091 66.4979352,16.0246057 66.6714053,15.9809464 C67.0616188,15.8941325 67.1698018,15.5463722 67.2348374,15.0025237 C67.3216353,14.2199369 67.3216353,12.7631546 67.3216353,11.0671293 L67.3216353,7.80605678 L67.3216353,7.80605678 Z M77.8551347,16.1984858 C77.5517192,16.0681388 77.4865578,15.9809464 77.4865578,15.5679495 C77.4865578,14.5676972 77.57323,13.4155205 77.5949924,13.1111672 C77.5949924,12.8285174 77.6815388,12.6326814 77.8333723,12.6326814 C78.0068424,12.6326814 78.028479,12.8066877 78.028479,12.9371609 C78.028479,13.1762776 78.0937662,13.567571 78.202075,13.8937539 C78.6136734,15.26347 80.0444562,15.7202524 81.2364816,15.7202524 C82.8838818,15.7202524 83.8808005,14.6765931 83.8808005,13.3721136 C83.8808005,12.567571 83.6858196,11.7631546 81.9951461,10.7629022 L80.8897929,10.1105363 C78.6355616,8.78435331 77.8984079,7.54485804 77.8984079,5.91432177 C77.8984079,3.65312303 80.0660928,2.19634069 82.7105375,2.19634069 C83.9459619,2.19634069 84.9213698,2.370347 85.419892,2.50069401 C85.5933621,2.54410095 85.6800343,2.60933754 85.6800343,2.73993691 C85.6800343,2.97917981 85.6149987,3.50094637 85.6149987,4.95772871 C85.6149987,5.34902208 85.5282008,5.54460568 85.376493,5.54460568 C85.2465476,5.54460568 85.1815121,5.43596215 85.1815121,5.2185489 C85.1815121,5.04454259 85.0948399,4.4792429 84.682864,4.00088328 C84.4012109,3.65312303 83.7942541,3.13135647 82.5587039,3.13135647 C81.1930826,3.13135647 79.9575324,3.84870662 79.9575324,5.10977918 C79.9575324,5.93615142 80.2609479,6.58826498 81.9733837,7.54498423 L82.7535591,7.97968454 C85.2680584,9.37135647 86.0482338,10.7846057 86.0482338,12.4588013 C86.0482338,13.8283912 85.5279492,14.9375394 84.140817,15.915836 C83.2304447,16.5682019 81.9733837,16.6765931 80.9544511,16.6765931 C79.8492236,16.6767192 78.6788348,16.5683281 77.8551347,16.1984858 L77.8551347,16.1984858 Z M88.6491537,16.1984858 C88.345864,16.0681388 88.2807027,15.9809464 88.2807027,15.5679495 C88.2807027,14.5676972 88.367249,13.4155205 88.3890114,13.1111672 C88.3890114,12.8285174 88.4756836,12.6326814 88.6275172,12.6326814 C88.8008615,12.6326814 88.8224981,12.8066877 88.8224981,12.9371609 C88.8224981,13.1762776 88.8876595,13.567571 88.9959682,13.8937539 C89.4076925,15.26347 90.8383494,15.7202524 92.0305006,15.7202524 C93.6779009,15.7202524 94.6749454,14.6765931 94.6749454,13.3721136 C94.6749454,12.567571 94.4799644,11.7631546 92.789291,10.7629022 L91.6838119,10.1105363 C89.4294549,8.78435331 88.6925527,7.54485804 88.6925527,5.91432177 C88.6925527,3.65312303 90.8601118,2.19634069 93.5044307,2.19634069 C94.7401067,2.19634069 95.7153888,2.370347 96.2141626,2.50069401 C96.3873812,2.54410095 96.4739276,2.60933754 96.4739276,2.73993691 C96.4739276,2.97917981 96.408892,3.50094637 96.408892,4.95772871 C96.408892,5.34902208 96.3222198,5.54460568 96.1703863,5.54460568 C96.0403151,5.54460568 95.9754053,5.43596215 95.9754053,5.2185489 C95.9754053,5.04454259 95.8886074,4.4792429 95.4767573,4.00088328 C95.1949784,3.65312303 94.5882732,3.13135647 93.3525972,3.13135647 C91.9871017,3.13135647 90.7515515,3.84870662 90.7515515,5.10977918 C90.7515515,5.93615142 91.0548412,6.58826498 92.767277,7.54498423 L93.5475781,7.97968454 C96.0618259,9.37135647 96.8422529,10.7846057 96.8422529,12.4588013 C96.8422529,13.8283912 96.3218424,14.9375394 94.9347103,15.915836 C94.0244638,16.5682019 92.767277,16.6765931 91.7483443,16.6765931 C90.6432427,16.6767192 89.4727281,16.5683281 88.6491537,16.1984858 L88.6491537,16.1984858 Z M3.077554,29.5309779 C3.077554,26.2259937 3.077554,25.6172871 3.03415502,24.9216404 C2.99075604,24.1822082 2.77401271,23.8127445 2.29725286,23.7039748 C2.05874714,23.638612 1.77696823,23.6169085 1.51695172,23.6169085 C1.30008259,23.6169085 1.17013723,23.5735016 1.17013723,23.3997476 C1.17013723,23.2691483 1.34348158,23.2256151 1.69029606,23.2256151 C2.51399619,23.2256151 3.87949174,23.2909779 4.50808513,23.2909779 C5.05000635,23.2909779 6.32882973,23.2256151 7.15240407,23.2256151 C7.43418297,23.2256151 7.60765311,23.2691483 7.60765311,23.3997476 C7.60765311,23.5735016 7.47758196,23.6169085 7.26083863,23.6169085 C7.0439695,23.6169085 6.87062516,23.6387382 6.61048285,23.6825237 C6.02528844,23.7909148 5.8518183,24.1607571 5.80854511,24.9217666 C5.76514612,25.6175394 5.76514612,26.2261199 5.76514612,29.5311041 L5.76514612,33.3576025 C5.76514612,35.4666246 5.76514612,37.1844795 5.8516925,38.1192429 C5.91685388,38.7062461 6.06856163,39.0975394 6.71891741,39.1846057 C7.02233291,39.2280126 7.49921855,39.2714196 7.82427065,39.2714196 C8.06277637,39.2714196 8.17108513,39.3367823 8.17108513,39.4454259 C8.17108513,39.5976025 7.99774079,39.6628391 7.75936086,39.6628391 C6.32870394,39.6628391 4.96320839,39.5976025 4.37788818,39.5976025 C3.87936595,39.5976025 2.51387039,39.6628391 1.64677128,39.6628391 C1.36511817,39.6628391 1.21328463,39.5976025 1.21328463,39.4454259 C1.21328463,39.3367823 1.2999568,39.2714196 1.56009911,39.2714196 C1.885277,39.2714196 2.14541931,39.2278864 2.34052605,39.1846057 C2.77388691,39.0975394 2.90395807,38.7279495 2.96911944,38.0974132 C3.07742821,37.1844795 3.07742821,35.4664984 3.07742821,33.3576025 L3.07742821,29.5309779 L3.077554,29.5309779 Z M14.1100788,37.1408202 C14.1534778,38.5757729 14.3918577,39.0105994 14.7604346,39.1411987 C15.0854867,39.2498423 15.4540635,39.2715457 15.757479,39.2715457 C15.9742224,39.2715457 16.0826569,39.3584858 16.0826569,39.4673817 C16.0826569,39.6195584 15.9093126,39.6629653 15.6491703,39.6629653 C14.4137459,39.6629653 13.5250102,39.5977287 13.1780699,39.5977287 C13.0047255,39.5977287 12.0943532,39.6629653 11.1189454,39.6629653 C10.858803,39.6629653 10.6854587,39.6411356 10.6854587,39.4673817 C10.6854587,39.358612 10.8155299,39.2715457 10.9888742,39.2715457 C11.2490165,39.2715457 11.595831,39.2498423 11.8559733,39.1847319 C12.3544956,39.0542587 12.4195311,38.5543218 12.4411677,36.9452366 L12.6146379,25.9870032 C12.6146379,25.6174132 12.7445832,25.3565931 12.93969,25.3565931 C13.1781957,25.3565931 13.4382122,25.6391167 13.7633901,25.9651735 C14.0018958,26.2044164 16.8630839,29.1395584 19.637474,31.8574132 C20.9380597,33.1401893 23.4740699,35.7492744 23.7558488,36.0102208 L23.8423952,36.0102208 L23.6474142,27.7914196 C23.6256518,26.6608202 23.4523075,26.3347634 22.9970584,26.1606309 C22.7152795,26.0522397 22.2601563,26.0522397 21.9998882,26.0522397 C21.7615083,26.0522397 21.6964727,25.9651735 21.6964727,25.8564038 C21.6964727,25.7042271 21.8917052,25.6823975 22.1733583,25.6823975 C23.1705286,25.6823975 24.1892097,25.7260568 24.6010597,25.7260568 C24.8179288,25.7260568 25.5330686,25.6823975 26.4653291,25.6823975 C26.7253456,25.6823975 26.89869,25.7042271 26.89869,25.8564038 C26.89869,25.9650473 26.7902554,26.0522397 26.5735121,26.0522397 C26.3782795,26.0522397 26.2266976,26.0522397 25.9881919,26.1173502 C25.468033,26.269653 25.3163253,26.595836 25.2945629,27.6393691 L25.0776938,39.2933754 C25.0776938,39.7063722 24.9261118,39.8803785 24.7744041,39.8803785 C24.4492262,39.8803785 24.1892097,39.684795 23.9939771,39.4888328 C22.8019517,38.3800631 20.4175235,36.0971609 18.4234346,34.1620189 C16.3426734,32.1617666 14.3268221,29.9221451 13.9582452,29.5960883 L13.8932097,29.5960883 L14.1100788,37.1408202 L14.1100788,37.1408202 Z M31.0160584,39.4238486 C30.7127687,39.2933754 30.6476074,39.206183 30.6476074,38.7931861 C30.6476074,37.7930599 30.7342795,36.6408833 30.7559161,36.3364038 C30.7559161,36.0538801 30.8425883,35.8580442 30.9944219,35.8580442 C31.1677662,35.8580442 31.1895286,36.0319243 31.1895286,36.1623975 C31.1895286,36.4016404 31.2545642,36.7930599 31.3628729,37.1191167 C31.7745972,38.4888328 33.2052541,38.9453628 34.3975311,38.9453628 C36.0448056,38.9453628 37.0418501,37.9018297 37.0418501,36.597224 C37.0418501,35.7929338 36.8467433,34.9883912 35.1561957,33.988265 L34.0505909,33.3360252 C31.7963596,32.0094637 31.0594574,30.770347 31.0594574,29.1395584 C31.0594574,26.8783596 33.2268907,25.4215773 35.8713355,25.4215773 C37.1068856,25.4215773 38.0822935,25.5954574 38.5808158,25.7260568 C38.7542859,25.7695899 38.8409581,25.8347003 38.8409581,25.9651735 C38.8409581,26.2044164 38.7757967,26.7260568 38.7757967,28.1829653 C38.7757967,28.5743849 38.6892503,28.7698423 38.537291,28.7698423 C38.4073456,28.7698423 38.3421842,28.6611987 38.3421842,28.4437855 C38.3421842,28.2699054 38.2556379,27.7047319 37.843662,27.2262461 C37.5618831,26.8783596 36.9550521,26.3565931 35.7195019,26.3565931 C34.3540064,26.3565931 33.1184562,27.0740694 33.1184562,28.335142 C33.1184562,29.161388 33.4218717,29.8137539 35.1340559,30.770347 L35.9144828,31.2051735 C38.4288564,32.5965931 39.2090318,34.0099685 39.2090318,35.6840379 C39.2090318,37.0538801 38.6888729,38.162776 37.3017408,39.1410726 C36.3913685,39.7933123 35.1340559,39.902082 34.1153748,39.902082 C33.0105248,39.9022082 31.8398844,39.7934385 31.0160584,39.4238486 L31.0160584,39.4238486 Z M44.2379047,31.031041 C44.2379047,28.2262461 44.2379047,27.7047319 44.2163939,27.1174763 C44.1729949,26.4870662 43.9778882,26.2695268 43.5660381,26.1390536 C43.3492948,26.073817 43.1107891,26.0522397 42.8724091,26.0522397 C42.6771766,26.0522397 42.5688679,26.0085804 42.5688679,25.8347003 C42.5688679,25.7260568 42.7205756,25.6823975 43.0241169,25.6823975 C43.7395083,25.6823975 45.0398424,25.7260568 45.5817637,25.7260568 C46.0587751,25.7260568 47.2940737,25.6823975 48.0312274,25.6823975 C48.2696074,25.6823975 48.4214409,25.7260568 48.4214409,25.8347003 C48.4214409,26.0085804 48.3131321,26.0522397 48.1178996,26.0522397 C47.9229187,26.0522397 47.7712109,26.0739432 47.5544676,26.1173502 C47.034183,26.2044164 46.8824752,26.4653628 46.8390762,27.1176025 C46.795803,27.7047319 46.795803,28.2263722 46.795803,31.0311672 L46.795803,34.2927445 C46.795803,36.0757098 46.795803,37.5541956 46.8823494,38.3369085 C46.947385,38.8370978 47.077582,39.1196215 47.641014,39.2064353 C47.9010305,39.2500946 48.3346429,39.2717981 48.6164219,39.2717981 C48.8331652,39.2717981 48.9197116,39.3804416 48.9197116,39.4676341 C48.9197116,39.5979811 48.7681296,39.6632177 48.5512605,39.6632177 C47.2940737,39.6632177 45.9936137,39.5979811 45.4733291,39.5979811 C45.0398424,39.5979811 43.7393825,39.6632177 42.9807179,39.6632177 C42.7422122,39.6632177 42.612141,39.5979811 42.612141,39.4676341 C42.612141,39.3805678 42.6771766,39.2717981 42.9156823,39.2717981 C43.1974612,39.2717981 43.4140788,39.2500946 43.5875489,39.2064353 C43.9777624,39.1196215 44.086197,38.8586751 44.1511067,38.315205 C44.2376531,37.5543218 44.2376531,36.075836 44.2376531,34.2928707 L44.2376531,31.031041 L44.2379047,31.031041 Z M56.5277421,33.0748265 C56.5277421,35.0317981 56.5493787,36.4450473 56.571141,36.8146372 C56.5926518,37.2712934 56.6364282,37.9235331 56.7878844,38.1192429 C57.0263901,38.4671293 57.7849288,38.8584227 59.2804956,38.8584227 C61.0144422,38.8584227 62.2933914,38.5541956 63.4422694,37.5973502 C64.6776938,36.5755205 65.068033,34.9230284 65.068033,33.0098423 C65.068033,30.6617035 64.1358983,29.1395584 63.2905616,28.4005047 C61.5347268,26.8349527 59.4539657,26.6393691 57.958399,26.6393691 C57.5679339,26.6393691 56.9394663,26.682776 56.7877586,26.7697161 C56.6144142,26.8349527 56.5492529,26.9220189 56.5492529,27.139306 C56.5276163,27.7699685 56.5276163,29.2919874 56.5276163,30.7485174 L56.5276163,33.0748265 L56.5277421,33.0748265 Z M53.9700953,31.031041 C53.9700953,28.2262461 53.9700953,27.7047319 53.9482071,27.1174763 C53.9048081,26.4870662 53.7314638,26.2912303 53.1246328,26.117224 C52.9727992,26.073817 52.6476213,26.0521136 52.3659682,26.0521136 C52.1708615,26.0521136 52.0409161,25.9867508 52.0409161,25.8562776 C52.0409161,25.7259306 52.1926239,25.6822713 52.4744028,25.6822713 C53.4715731,25.6822713 54.6852351,25.7259306 55.2272821,25.7259306 C55.8123507,25.7259306 57.1780978,25.6822713 58.3269759,25.6822713 C60.7111525,25.6822713 63.9190292,25.6822713 65.9999161,27.7912934 C66.9536874,28.7481388 67.7990241,30.291735 67.7990241,32.4879495 C67.7990241,34.814511 66.8019797,36.5755205 65.7181372,37.6408833 C64.8511639,38.5104101 62.8351868,39.8150158 59.3237687,39.8150158 C58.6301398,39.8150158 57.8065654,39.7497792 57.0480267,39.7062461 C56.2893621,39.6408833 55.5956074,39.5976025 55.1188475,39.5976025 C54.9019784,39.5976025 54.4901283,39.6194322 54.0351309,39.6194322 C53.5800076,39.6410095 53.1029962,39.6628391 52.7126569,39.6628391 C52.4744028,39.6628391 52.3443316,39.5976025 52.3443316,39.4672555 C52.3443316,39.3801893 52.4093672,39.2714196 52.6476213,39.2714196 C52.9294003,39.2714196 53.1462694,39.2497161 53.3197395,39.2060568 C53.709953,39.1192429 53.8182618,38.7714826 53.8832973,38.2277603 C53.9699695,37.4451735 53.9699695,35.9883912 53.9699695,34.2923659 L53.9699695,31.031041 L53.9700953,31.031041 Z M72.675183,31.031041 C72.675183,28.2262461 72.675183,27.7047319 72.6535464,27.1174763 C72.6101474,26.4870662 72.4369288,26.2912303 71.8298463,26.117224 C71.6782643,26.073817 71.3529606,26.0521136 71.0711817,26.0521136 C70.8763266,26.0521136 70.7461296,25.9867508 70.7461296,25.8562776 C70.7461296,25.7259306 70.8979632,25.6822713 71.1796163,25.6822713 C72.1767865,25.6822713 73.3904485,25.7259306 73.9324956,25.7259306 C74.5393266,25.7259306 78.7660102,25.7475079 79.134587,25.7259306 C79.4815273,25.7041009 79.784817,25.6389905 79.9365248,25.6172871 C80.0450851,25.5953312 80.1532681,25.5302208 80.2400661,25.5302208 C80.3483748,25.5302208 80.3701372,25.6172871 80.3701372,25.7042271 C80.3701372,25.8347003 80.2618285,26.0522397 80.2183037,26.9001893 C80.1967929,27.0957729 80.1531423,27.9003155 80.1099949,28.1176025 C80.0883583,28.2045426 80.0450851,28.422082 79.8932516,28.422082 C79.7633062,28.422082 79.741418,28.335142 79.741418,28.1828391 C79.741418,28.0524921 79.7196557,27.7263091 79.6114727,27.5087697 C79.4596391,27.1827129 79.3079314,26.9218927 78.3542859,26.8347003 C78.029108,26.7911672 75.7532402,26.7478864 75.3630267,26.7478864 C75.2764803,26.7478864 75.2330813,26.8129968 75.2330813,26.9218927 L75.2330813,31.4878233 C75.2330813,31.5964669 75.2547179,31.6834069 75.3630267,31.6834069 C75.7965133,31.6834069 78.2676137,31.6834069 78.7012262,31.64 C79.1562236,31.5964669 79.4380025,31.5530599 79.6114727,31.3574763 C79.7633062,31.2270032 79.828216,31.1182334 79.9151398,31.1182334 C80.0016861,31.1182334 80.0667217,31.2051735 80.0667217,31.313817 C80.0667217,31.4225868 80.023197,31.7268139 79.9151398,32.6619558 C79.8713634,33.0316719 79.828216,33.7708517 79.828216,33.9013249 C79.828216,34.0533754 79.8065794,34.3144479 79.6333609,34.3144479 C79.5031639,34.3144479 79.4596391,34.2492114 79.4596391,34.1621451 C79.4380025,33.9665615 79.4380025,33.7274448 79.3947294,33.4882019 C79.2864206,33.1184858 79.0477891,32.835836 78.3326493,32.7705994 C77.9859606,32.7270662 75.8182757,32.6836593 75.3416417,32.6836593 C75.2547179,32.6836593 75.2330813,32.7705994 75.2330813,32.8793691 L75.2330813,34.3578549 C75.2330813,34.9883912 75.2114447,36.553817 75.2330813,37.0974132 C75.2766061,38.3583596 75.8615489,38.6410095 77.8126163,38.6410095 C78.3108869,38.6410095 79.1130762,38.619306 79.6115985,38.4017666 C80.0884841,38.1846057 80.305479,37.7930599 80.4351728,37.0321767 C80.4786976,36.8364669 80.521845,36.749653 80.6521677,36.749653 C80.8037497,36.749653 80.8256379,36.9887697 80.8256379,37.1844795 C80.8256379,37.597224 80.6738043,38.8584227 80.565244,39.2278864 C80.4352986,39.7062461 80.2620801,39.7062461 79.5468145,39.7062461 C78.1161576,39.7062461 76.9672795,39.6846688 76.0353964,39.6408833 C75.1032618,39.619306 74.3877446,39.5974763 73.8244384,39.5974763 C73.6074435,39.5974763 73.1957192,39.619306 72.7407217,39.619306 C72.2855985,39.6408833 71.8087128,39.6627129 71.418122,39.6627129 C71.1799936,39.6627129 71.0500483,39.5974763 71.0500483,39.4671293 C71.0500483,39.3800631 71.1149581,39.2712934 71.3532122,39.2712934 C71.6349911,39.2712934 71.851986,39.2495899 72.0252046,39.2059306 C72.415418,39.1191167 72.5237268,38.7713565 72.5887624,38.2276341 C72.6754346,37.4451735 72.6754346,35.9883912 72.6754346,34.2923659 L72.675183,31.031041 L72.675183,31.031041 Z M88.0645883,32.4662461 C88.0645883,32.6618297 88.1078615,32.7270662 88.2379327,32.7923028 C88.6496569,32.9229022 89.2132147,32.9663091 89.690352,32.9663091 C90.4488907,32.9663091 90.7089072,32.9010726 91.0339593,32.6618297 C91.6194053,32.2488328 92.2696353,31.4442902 92.2696353,29.9222713 C92.2696353,27.3131861 90.4921639,26.6392429 89.3649225,26.6392429 C88.8882884,26.6392429 88.4330394,26.6608202 88.2379327,26.7044795 C88.1078615,26.7480126 88.0645883,26.8129968 88.0645883,26.9652997 L88.0645883,32.4662461 L88.0645883,32.4662461 Z M85.6368869,31.031041 C85.6368869,28.2262461 85.6368869,27.7047319 85.6151245,27.1174763 C85.5717255,26.4870662 85.3983812,26.2912303 84.7912986,26.117224 C84.6395909,26.073817 84.3146645,26.0521136 84.0328856,26.0521136 C83.8377789,26.0521136 83.7078335,25.9867508 83.7078335,25.8562776 C83.7078335,25.7259306 83.8595413,25.6822713 84.1411944,25.6822713 C85.1382389,25.6822713 86.3521525,25.7259306 86.7422402,25.7259306 C87.3924701,25.7259306 89.1266684,25.6822713 89.711737,25.6822713 C90.9256506,25.6822713 92.3129085,25.7911672 93.3315896,26.4651104 C93.8735108,26.8347003 94.6755743,27.7697161 94.6755743,29.008959 C94.6755743,30.3788013 93.8951474,31.5963407 92.0311296,33.09653 C93.721803,35.1837224 95.065662,36.8581703 96.21454,38.010347 C97.2766201,39.0755836 97.9484867,39.1626498 98.252028,39.2277603 C98.4471347,39.2712934 98.5554435,39.2712934 98.7071512,39.2712934 C98.858859,39.2712934 98.9456569,39.3799369 98.9456569,39.4671293 C98.9456569,39.619306 98.8155858,39.6627129 98.5770801,39.6627129 L96.7564612,39.6627129 C95.6942554,39.6627129 95.1740966,39.5540694 94.6755743,39.293123 C93.8517484,38.8801262 93.1367344,38.010347 92.0745286,36.5753943 C91.3156125,35.575142 90.5139263,34.3357729 90.2752948,34.053123 C90.166986,33.9444795 90.0582999,33.922776 89.9283545,33.922776 L88.2161703,33.8793691 C88.1294981,33.8793691 88.0644625,33.922776 88.0644625,34.0315457 L88.0644625,34.2923659 C88.0644625,36.0099685 88.0859733,37.4450473 88.1727713,38.2277603 C88.2378069,38.7714826 88.324479,39.1192429 88.9096734,39.2060568 C89.1914524,39.2497161 89.6033024,39.2714196 89.8416823,39.2714196 C89.9933901,39.2714196 90.0801881,39.3800631 90.0801881,39.4672555 C90.0801881,39.5976025 89.9283545,39.6628391 89.6901004,39.6628391 C88.5844956,39.6628391 87.0021309,39.5976025 86.7204778,39.5976025 C86.3520267,39.5976025 85.1381131,39.6628391 84.3794485,39.6628391 C84.1410686,39.6628391 84.0109975,39.5976025 84.0109975,39.4672555 C84.0109975,39.3801893 84.076033,39.2714196 84.3145388,39.2714196 C84.5961919,39.2714196 84.813061,39.2497161 84.9864053,39.2060568 C85.3767446,39.1192429 85.4848018,38.7714826 85.5498374,38.2277603 C85.6366353,37.4451735 85.6366353,35.9883912 85.6366353,34.2923659 L85.6366353,31.031041 L85.6368869,31.031041 Z" id="Shape"></path>
            </g>
        </g>
    </g>
</svg>