<?xml version="1.0" encoding="UTF-8" standalone="no"?>
<svg width="48px" height="48px" viewBox="0 0 48 48" version="1.1" xmlns="http://www.w3.org/2000/svg" xmlns:xlink="http://www.w3.org/1999/xlink">
    <!-- Generator: Sketch 41.1 (35376) - http://www.bohemiancoding.com/sketch -->
    <title>icon-facebook</title>
    <desc>Created with Sketch.</desc>
    <defs></defs>
    <g id="Icons" stroke="none" stroke-width="1" fill="none" fill-rule="evenodd">
        <g id="icon-facebook" fill="#A9A6B3">
            <path d="M31.1761321,10.0057732 L27.6483019,10 C23.6849057,10 21.1235849,12.6802062 21.1235849,16.8285361 L21.1235849,19.9769485 L17.5765094,19.9769485 C17.27,19.9769485 17.0217925,20.2303918 17.0217925,20.5430103 L17.0217925,25.104701 C17.0217925,25.4173196 17.270283,25.6704742 17.5765094,25.6704742 L21.1235849,25.6704742 L21.1235849,37.1810722 C21.1235849,37.4936907 21.3717925,37.7468454 21.6783019,37.7468454 L26.3062264,37.7468454 C26.6127358,37.7468454 26.8609434,37.4934021 26.8609434,37.1810722 L26.8609434,25.6704742 L31.0083019,25.6704742 C31.3148113,25.6704742 31.5630189,25.4173196 31.5630189,25.104701 L31.564717,20.5430103 C31.564717,20.3929072 31.5061321,20.2491546 31.4022642,20.1429278 C31.2983962,20.036701 31.1568868,19.9769485 31.009717,19.9769485 L26.8609434,19.9769485 L26.8609434,17.308 C26.8609434,16.0251959 27.1606604,15.3739794 28.7990566,15.3739794 L31.175566,15.3731134 C31.4817925,15.3731134 31.73,15.1196701 31.73,14.8073402 L31.73,10.5715464 C31.73,10.2595052 31.4820755,10.0063505 31.1761321,10.0057732 Z"></path>
        </g>
    </g>
</svg>