<?xml version="1.0" encoding="UTF-8" standalone="no"?>
<svg width="48px" height="49px" viewBox="0 0 48 49" version="1.1" xmlns="http://www.w3.org/2000/svg" xmlns:xlink="http://www.w3.org/1999/xlink">
    <!-- Generator: Sketch 41.1 (35376) - http://www.bohemiancoding.com/sketch -->
    <title>icon-hamburger</title>
    <desc>Created with Sketch.</desc>
    <defs></defs>
    <g id="Symbols" stroke="none" stroke-width="1" fill="none" fill-rule="evenodd">
        <g id="icon-hamburger" fill="#FFFFFF">
            <path d="M45.8902179,37.493406 C47.0175989,37.493406 47.9315218,38.4151768 47.9315218,39.5277006 L47.9315218,42.9764298 C47.9315218,44.0999397 47.0181331,45.0107244 45.8902179,45.0107244 L2.1097821,45.0107244 C0.98240111,45.0107244 0.0684782401,44.0889536 0.0684782401,42.9764298 L0.0684782401,39.5277006 C0.0684782401,38.4041908 0.981866921,37.493406 2.1097821,37.493406 L45.8902179,37.493406 Z M45.8902179,20.7413408 C47.0175989,20.7413408 47.9315218,21.6631116 47.9315218,22.7756354 L47.9315218,26.2243646 C47.9315218,27.3478745 47.0181331,28.2586592 45.8902179,28.2586592 L2.1097821,28.2586592 C0.98240111,28.2586592 0.0684782401,27.3368884 0.0684782401,26.2243646 L0.0684782401,22.7756354 C0.0684782401,21.6521255 0.981866921,20.7413408 2.1097821,20.7413408 L45.8902179,20.7413408 Z M45.8902179,3.98927557 C47.0175989,3.98927557 47.9315218,4.91104636 47.9315218,6.02357018 L47.9315218,9.47229936 C47.9315218,10.5958092 47.0181331,11.506594 45.8902179,11.506594 L2.1097821,11.506594 C0.98240111,11.506594 0.0684782401,10.5848232 0.0684782401,9.47229936 L0.0684782401,6.02357018 C0.0684782401,4.90006029 0.981866921,3.98927557 2.1097821,3.98927557 L45.8902179,3.98927557 Z"></path>
        </g>
    </g>
</svg>