<?xml version="1.0" encoding="UTF-8" standalone="no"?>
<svg width="48px" height="48px" viewBox="0 0 48 48" version="1.1" xmlns="http://www.w3.org/2000/svg" xmlns:xlink="http://www.w3.org/1999/xlink">
    <!-- Generator: Sketch 41.1 (35376) - http://www.bohemiancoding.com/sketch -->
    <title>icon-twitter</title>
    <desc>Created with Sketch.</desc>
    <defs></defs>
    <g id="Icons" stroke="none" stroke-width="1" fill="none" fill-rule="evenodd">
        <g id="icon-twitter" fill="#A9A6B3">
            <path d="M30.0444444,11 L30.1866667,11 C32.0355556,11 33.7422222,11.8478261 35.0222222,13.1195652 C36.5866667,12.8369565 37.8666667,12.2717391 39.1466667,11.5652174 C38.72,13.1195652 37.5822222,14.3913043 36.3022222,15.2391304 C37.5822222,15.0978261 38.8622222,14.673913 40,14.25 C39.1466667,15.5217391 38.0088889,16.6521739 36.7288889,17.6413043 L36.7288889,18.4891304 C36.7288889,27.1086957 30.1866667,37 18.0977778,37 C14.4,37 10.9866667,35.8695652 8,34.0326087 C8.56888889,34.0326087 8.99555556,34.173913 9.56444444,34.173913 C12.6933333,34.173913 15.3955556,33.1847826 17.6711111,31.3478261 C14.8266667,31.3478261 12.4088889,29.3695652 11.5555556,26.826087 C11.9822222,26.9673913 12.4088889,26.9673913 12.8355556,26.9673913 C13.4044444,26.9673913 13.9733333,26.826087 14.5422222,26.6847826 C11.5555556,26.1195652 9.28,23.4347826 9.28,20.326087 C9.28,20.326087 9.28,20.326087 9.28,20.1847826 C10.1333333,20.6086957 11.1288889,21.0326087 12.2666667,21.0326087 C10.56,19.9021739 9.28,17.923913 9.28,15.6630435 C9.28,14.5326087 9.56444444,13.4021739 10.1333333,12.4130435 C13.4044444,16.3695652 18.24,18.9130435 23.6444444,19.1956522 C23.5022222,18.7717391 23.5022222,18.2065217 23.5022222,17.6413043 C23.6444444,13.9673913 26.4888889,11 30.0444444,11 L30.0444444,11 Z"></path>
        </g>
    </g>
</svg>