<?xml version="1.0" encoding="UTF-8" standalone="no"?>
<svg width="48px" height="48px" viewBox="0 0 48 48" version="1.1" xmlns="http://www.w3.org/2000/svg" xmlns:xlink="http://www.w3.org/1999/xlink">
    <!-- Generator: Sketch 41.1 (35376) - http://www.bohemiancoding.com/sketch -->
    <title>icon-checkmark</title>
    <desc>Created with Sketch.</desc>
    <defs></defs>
    <g id="Icons" stroke="none" stroke-width="1" fill="none" fill-rule="evenodd">
        <g id="icon-checkmark" fill="#5C38E3">
            <path d="M19.9558576,30.7194374 L14.1765678,25.5157415 C13.9687461,25.328618 13.6363126,25.3441311 13.4431905,25.5586149 L12.1350549,27.0114467 C11.942901,27.2248553 11.9571641,27.5544825 12.1690751,27.7452879 L19.640442,34.4725369 C19.8803118,34.6885167 20.2168845,34.7246616 20.4870823,34.5906252 C20.5906321,34.5683587 20.6882179,34.5140502 20.7609449,34.4273776 L21.5238076,33.5182333 L21.706937,33.3148474 C21.7406016,33.2774592 21.7698238,33.2374445 21.7946214,33.1954899 L36.1298585,16.1114196 C36.3161395,15.8894186 36.2853043,15.562174 36.0642112,15.3766549 L34.5666112,14.1200193 C34.3466266,13.9354302 34.012848,13.9669685 33.8235716,14.1925393 L20.3019753,30.3069504 L19.9558576,30.7194374 Z M24,48 C37.254834,48 48,37.254834 48,24 C48,10.745166 37.254834,0 24,0 C10.745166,0 0,10.745166 0,24 C0,37.254834 10.745166,48 24,48 Z" id="Combined-Shape"></path>
        </g>
    </g>
</svg>