<?xml version="1.0" encoding="UTF-8" standalone="no"?>
<svg width="200px" height="200px" viewBox="0 0 200 200" version="1.1" xmlns="http://www.w3.org/2000/svg" xmlns:xlink="http://www.w3.org/1999/xlink">
    <!-- Generator: Sketch 41.1 (35376) - http://www.bohemiancoding.com/sketch -->
    <title>logo-budbot</title>
    <desc>Created with Sketch.</desc>
    <defs>
        <circle id="path-1" cx="100" cy="100" r="75"></circle>
        <mask id="mask-2" maskContentUnits="userSpaceOnUse" maskUnits="objectBoundingBox" x="-10" y="-10" width="170" height="170">
            <rect x="15" y="15" width="170" height="170" fill="white"></rect>
            <use xlink:href="#path-1" fill="black"></use>
        </mask>
        <ellipse id="path-3" cx="51.4285714" cy="42.6591615" rx="51.4285714" ry="42.6591615"></ellipse>
        <ellipse id="path-5" cx="51.4285714" cy="42.6591615" rx="46.5768194" ry="38.7810559"></ellipse>
        <path d="M49.9730458,31.0248447 C69.533751,31.0248447 93.1536388,31.9372907 93.1536388,22.2991071 C93.1536388,12.6609236 67.7435352,0 49.9730458,0 C32.2025564,1.07719283e-15 6.79245283,12.6609236 6.79245283,22.2991071 C6.79245283,31.9372907 30.4123407,31.0248447 49.9730458,31.0248447 Z" id="path-7"></path>
        <mask id="mask-8" maskContentUnits="userSpaceOnUse" maskUnits="objectBoundingBox" x="-0.970106352" y="-0.970106352" width="88.3013987" height="32.9881823">
            <rect x="5.82234648" y="-0.970106352" width="88.3013987" height="32.9881823" fill="white"></rect>
            <use xlink:href="#path-7" fill="black"></use>
        </mask>
        <path d="M3.34984771,20.2798604 C3.64341683,19.253241 4.75491807,18.4210016 5.82871171,18.4210016 L93.1470295,18.4210016 C94.2224992,18.4210016 95.3312959,19.2496442 95.6258935,20.2798604 L98.4441873,30.1355123 C98.7377564,31.1621317 98.1050368,31.9943711 97.0430425,31.9943711 L1.93269869,31.9943711 C0.865298678,31.9943711 0.236956263,31.1657285 0.531553907,30.1355123 L3.34984771,20.2798604 Z" id="path-9"></path>
        <mask id="mask-10" maskContentUnits="userSpaceOnUse" maskUnits="objectBoundingBox" x="-0.970106352" y="-0.970106352" width="99.9973701" height="15.5135823">
            <rect x="-0.511179929" y="17.4508952" width="99.9973701" height="15.5135823" fill="white"></rect>
            <use xlink:href="#path-9" fill="black"></use>
        </mask>
        <path d="M0.528301887,3.67034993 C0.528301887,3.67034993 1.05660377,2.52314679 1.05660377,1.62544068 C1.05660377,0.727734583 0.528301887,0 0.528301887,0 C0.528301887,0 1.58241255e-17,0.727734583 0,1.62544068 C-1.58241255e-17,2.52314679 0.528301887,3.67034993 0.528301887,3.67034993 Z" id="path-11"></path>
        <mask id="mask-12" maskContentUnits="userSpaceOnUse" maskUnits="objectBoundingBox" x="-0.5" y="-0.5" width="2.05660377" height="4.67034993">
            <rect x="-0.5" y="-0.5" width="2.05660377" height="4.67034993" fill="white"></rect>
            <use xlink:href="#path-11" fill="black"></use>
        </mask>
        <path d="M0.41509434,2.77007542 C0.41509434,2.77007542 0.830188679,1.90426173 0.830188679,1.22674769 C0.830188679,0.549233647 0.41509434,1.23089647e-14 0.41509434,1.23089647e-14 C0.41509434,1.23089647e-14 5.1821984e-15,0.549233647 5.16976516e-15,1.22674769 C5.15733192e-15,1.90426173 0.41509434,2.77007542 0.41509434,2.77007542 Z" id="path-13"></path>
        <mask id="mask-14" maskContentUnits="userSpaceOnUse" maskUnits="objectBoundingBox" x="-0.5" y="-0.5" width="1.83018868" height="3.77007542">
            <rect x="-0.5" y="-0.5" width="1.83018868" height="3.77007542" fill="white"></rect>
            <use xlink:href="#path-13" fill="black"></use>
        </mask>
        <path d="M0.301886792,2.07755657 C0.301886792,2.07755657 0.603773585,1.42819629 0.603773585,0.920060765 C0.603773585,0.411925236 0.301886792,9.2317235e-15 0.301886792,9.2317235e-15 C0.301886792,9.2317235e-15 3.76887157e-15,0.411925236 3.75982921e-15,0.920060765 C3.75078685e-15,1.42819629 0.301886792,2.07755657 0.301886792,2.07755657 Z" id="path-15"></path>
        <mask id="mask-16" maskContentUnits="userSpaceOnUse" maskUnits="objectBoundingBox" x="-0.5" y="-0.5" width="1.60377358" height="3.07755657">
            <rect x="-0.5" y="-0.5" width="1.60377358" height="3.07755657" fill="white"></rect>
            <use xlink:href="#path-15" fill="black"></use>
        </mask>
        <path d="M0.301886792,2.07755657 C0.301886792,2.07755657 0.603773585,1.42819629 0.603773585,0.920060765 C0.603773585,0.411925236 0.301886792,9.2317235e-15 0.301886792,9.2317235e-15 C0.301886792,9.2317235e-15 3.76887157e-15,0.411925236 3.75982921e-15,0.920060765 C3.75078685e-15,1.42819629 0.301886792,2.07755657 0.301886792,2.07755657 Z" id="path-17"></path>
        <mask id="mask-18" maskContentUnits="userSpaceOnUse" maskUnits="objectBoundingBox" x="-0.5" y="-0.5" width="1.60377358" height="3.07755657">
            <rect x="-0.5" y="-0.5" width="1.60377358" height="3.07755657" fill="white"></rect>
            <use xlink:href="#path-17" fill="black"></use>
        </mask>
        <path d="M0.41509434,2.77007542 C0.41509434,2.77007542 0.830188679,1.90426173 0.830188679,1.22674769 C0.830188679,0.549233647 0.41509434,0 0.41509434,0 C0.41509434,0 1.24332415e-17,0.549233647 0,1.22674769 C-1.24332415e-17,1.90426173 0.41509434,2.77007542 0.41509434,2.77007542 Z" id="path-19"></path>
        <mask id="mask-20" maskContentUnits="userSpaceOnUse" maskUnits="objectBoundingBox" x="-0.5" y="-0.5" width="1.83018868" height="3.77007542">
            <rect x="-0.5" y="-0.5" width="1.83018868" height="3.77007542" fill="white"></rect>
            <use xlink:href="#path-19" fill="black"></use>
        </mask>
        <path d="M0.528301887,3.67034993 C0.528301887,3.67034993 1.05660377,2.52314679 1.05660377,1.62544068 C1.05660377,0.727734583 0.528301887,3.44651011e-15 0.528301887,3.44651011e-15 C0.528301887,3.44651011e-15 -7.2218471e-15,0.727734583 -7.23767123e-15,1.62544068 C-7.25349535e-15,2.52314679 0.528301887,3.67034993 0.528301887,3.67034993 Z" id="path-21"></path>
        <mask id="mask-22" maskContentUnits="userSpaceOnUse" maskUnits="objectBoundingBox" x="-0.5" y="-0.5" width="2.05660377" height="4.67034993">
            <rect x="-0.5" y="-0.5" width="2.05660377" height="4.67034993" fill="white"></rect>
            <use xlink:href="#path-21" fill="black"></use>
        </mask>
        <path d="M0.716981132,4.84763199 C0.716981132,4.84763199 1.43396226,2.63993916 1.43396226,2.14680845 C1.43396226,0.964542038 0.716981132,0 0.716981132,0 C0.716981132,0 2.14755989e-17,0.961158883 0,2.14680845 C0,2.63993916 0.716981132,4.84763199 0.716981132,4.84763199 Z" id="path-23"></path>
        <mask id="mask-24" maskContentUnits="userSpaceOnUse" maskUnits="objectBoundingBox" x="-0.5" y="-0.5" width="2.43396226" height="5.84763199">
            <rect x="-0.5" y="-0.5" width="2.43396226" height="5.84763199" fill="white"></rect>
            <use xlink:href="#path-23" fill="black"></use>
        </mask>
    </defs>
    <g id="Website-2.0" stroke="none" stroke-width="1" fill="none" fill-rule="evenodd">
        <g id="logo-budbot">
            <g>
                <rect id="Rectangle-6" x="44" y="44" width="112.5" height="112.5"></rect>
                <circle id="Oval-9-Copy" fill="#F4F4F5" cx="100" cy="100" r="100"></circle>
                <g id="Oval-9">
                    <use fill="#FFFFFF" fill-rule="evenodd" xlink:href="#path-1"></use>
                    <use stroke="#E7E7E8" mask="url(#mask-2)" stroke-width="20" xlink:href="#path-1"></use>
                </g>
                <g id="face" transform="translate(48.821429, 55.517857)">
                    <g transform="translate(0.000000, 3.878106)">
                        <g id="Combined-Shape">
                            <mask id="mask-4" fill="white">
                                <use xlink:href="#path-3"></use>
                            </mask>
                            <use id="Mask-Copy" fill="#000000" xlink:href="#path-3"></use>
                            <mask id="mask-6" fill="white">
                                <use xlink:href="#path-5"></use>
                            </mask>
                            <use id="Mask" fill="#FFFFFF" xlink:href="#path-5"></use>
                            <path d="M30.0808625,54.2536561 C30.4008194,54.2800296 30.7244443,54.2934783 31.0512129,54.2934783 C37.4821297,54.2934783 42.6954178,49.0846172 42.6954178,42.6591615 C42.6954178,36.2337058 37.4821297,31.0248447 31.0512129,31.0248447 C30.7244443,31.0248447 30.4008194,31.0382933 30.0808625,31.0646668 L30.0808625,31.0248447 L3.88140162,31.0248447 L3.88140162,54.2934783 L30.0808625,54.2934783 L30.0808625,54.2536561 Z M72.7762803,54.2536561 C72.4563234,54.2800296 72.1326985,54.2934783 71.8059299,54.2934783 C65.3750132,54.2934783 60.1617251,49.0846172 60.1617251,42.6591615 C60.1617251,36.2337058 65.3750132,31.0248447 71.8059299,31.0248447 C72.1326985,31.0248447 72.4563234,31.0382933 72.7762803,31.0646668 L72.7762803,31.0248447 L98.9757412,31.0248447 L98.9757412,54.2934783 L72.7762803,54.2934783 L72.7762803,54.2536561 Z" fill="#000000" mask="url(#mask-6)"></path>
                        </g>
                        <ellipse id="Oval-3-Copy-2" fill="#000000" cx="51.4285714" cy="54.2934783" rx="7.76280323" ry="5.81715839"></ellipse>
                        <ellipse id="Oval-3" fill="#FFFFFF" cx="27.1698113" cy="42.6591615" rx="7.76280323" ry="5.81715839"></ellipse>
                        <ellipse id="Oval-3-Copy-3" fill="#000000" cx="27.1698113" cy="42.6591615" rx="3.88140162" ry="2.90857919"></ellipse>
                        <ellipse id="Oval-3-Copy-2" fill="#FFFFFF" cx="75.6873315" cy="42.6591615" rx="7.76280323" ry="5.81715839"></ellipse>
                        <ellipse id="Oval-3-Copy-3" fill="#000000" cx="75.6873315" cy="42.6591615" rx="3.88140162" ry="2.90857919"></ellipse>
                        <path d="M39.7843666,55.2630047 C39.7843666,55.2630047 39.7843666,63.9887422 51.4285714,63.9887422 C63.0727763,63.9887422 63.0727763,55.2630047 63.0727763,55.2630047" id="Path-2" stroke="#000000" stroke-width="2.91031906" stroke-linecap="round"></path>
                    </g>
                    <g id="hat" transform="translate(1.940701, 0.000000)">
                        <g id="Oval-5">
                            <use fill="#BA4848" fill-rule="evenodd" xlink:href="#path-7"></use>
                            <use stroke="#A63434" mask="url(#mask-8)" stroke-width="1.9402127" xlink:href="#path-7"></use>
                        </g>
                        <g id="Rectangle-7">
                            <use fill="#BA4848" fill-rule="evenodd" xlink:href="#path-9"></use>
                            <use stroke="#A63434" mask="url(#mask-10)" stroke-width="1.9402127" xlink:href="#path-9"></use>
                        </g>
                        <rect id="Rectangle-8" fill="#F5DA6D" x="37.8436658" y="20.3600543" width="24.2587601" height="9.69526398" rx="1.9402127"></rect>
                        <g id="weed-leaf" transform="translate(46.576819, 22.299107)">
                            <g id="leaf" transform="translate(1.660317, 2.437854) rotate(-32.000000) translate(-1.660317, -2.437854) translate(1.132015, 0.602679)">
                                <g id="Oval-6-Copy">
                                    <use fill="#49724F" fill-rule="evenodd" xlink:href="#path-11"></use>
                                    <use stroke="#355E3B" mask="url(#mask-12)" stroke-width="1" xlink:href="#path-11"></use>
                                </g>
                                <path id="Line" stroke="#719A77" stroke-width="0.5" stroke-linecap="round"></path>
                            </g>
                            <g id="leaf-copy-2" transform="translate(1.560375, 4.086465) rotate(-70.000000) translate(-1.560375, -4.086465) translate(1.145280, 2.701427)">
                                <g id="Oval-6-Copy">
                                    <use fill="#49724F" fill-rule="evenodd" xlink:href="#path-13"></use>
                                    <use stroke="#355E3B" mask="url(#mask-14)" stroke-width="1" xlink:href="#path-13"></use>
                                </g>
                                <path id="Line" stroke="#719A77" stroke-width="0.5" stroke-linecap="round"></path>
                            </g>
                            <g id="leaf-copy-4" transform="translate(1.997243, 5.186209) rotate(-110.000000) translate(-1.997243, -5.186209) translate(1.695356, 4.147431)">
                                <g id="Oval-6-Copy">
                                    <use fill="#49724F" fill-rule="evenodd" xlink:href="#path-15"></use>
                                    <use stroke="#355E3B" mask="url(#mask-16)" stroke-width="1" xlink:href="#path-15"></use>
                                </g>
                                <path id="Line" stroke="#719A77" stroke-width="0.5" stroke-linecap="round"></path>
                            </g>
                            <g id="leaf-copy-5" transform="translate(4.714224, 5.186209) scale(-1, 1) rotate(-110.000000) translate(-4.714224, -5.186209) translate(4.412337, 4.147431)">
                                <g id="Oval-6-Copy">
                                    <use fill="#49724F" fill-rule="evenodd" xlink:href="#path-17"></use>
                                    <use stroke="#355E3B" mask="url(#mask-18)" stroke-width="1" xlink:href="#path-17"></use>
                                </g>
                                <path id="Line" stroke="#719A77" stroke-width="0.5" stroke-linecap="round"></path>
                            </g>
                            <g id="leaf-copy-3" transform="translate(5.169811, 4.086465) scale(-1, 1) rotate(-70.000000) translate(-5.169811, -4.086465) translate(4.754717, 2.701427)">
                                <g id="Oval-6-Copy">
                                    <use fill="#49724F" fill-rule="evenodd" xlink:href="#path-19"></use>
                                    <use stroke="#355E3B" mask="url(#mask-20)" stroke-width="1" xlink:href="#path-19"></use>
                                </g>
                                <path id="Line" stroke="#719A77" stroke-width="0.5" stroke-linecap="round"></path>
                            </g>
                            <g id="leaf-copy" transform="translate(4.981132, 2.437854) rotate(32.000000) translate(-4.981132, -2.437854) translate(4.452830, 0.602679)">
                                <g id="Oval-6-Copy">
                                    <use fill="#49724F" fill-rule="evenodd" xlink:href="#path-21"></use>
                                    <use stroke="#355E3B" mask="url(#mask-22)" stroke-width="1" xlink:href="#path-21"></use>
                                </g>
                                <path id="Line" stroke="#719A77" stroke-width="0.5" stroke-linecap="round"></path>
                            </g>
                            <g id="leaf-large" transform="translate(2.641509, 0.000000)">
                                <g id="Oval-6">
                                    <use fill="#49724F" fill-rule="evenodd" xlink:href="#path-23"></use>
                                    <use stroke="#355E3B" mask="url(#mask-24)" stroke-width="1" xlink:href="#path-23"></use>
                                </g>
                                <path id="Line" stroke="#719A77" stroke-width="0.5" stroke-linecap="round"></path>
                            </g>
                        </g>
                    </g>
                </g>
            </g>
        </g>
    </g>
</svg>