<?xml version="1.0" encoding="UTF-8" standalone="no"?>
<svg width="200px" height="200px" viewBox="0 0 200 200" version="1.1" xmlns="http://www.w3.org/2000/svg" xmlns:xlink="http://www.w3.org/1999/xlink">
    <!-- Generator: Sketch 41.1 (35376) - http://www.bohemiancoding.com/sketch -->
    <title>logo-webot</title>
    <desc>Created with Sketch.</desc>
    <defs>
        <circle id="path-1" cx="100" cy="100" r="75"></circle>
        <mask id="mask-2" maskContentUnits="userSpaceOnUse" maskUnits="objectBoundingBox" x="-10" y="-10" width="170" height="170">
            <rect x="15" y="15" width="170" height="170" fill="white"></rect>
            <use xlink:href="#path-1" fill="black"></use>
        </mask>
    </defs>
    <g id="Website-2.0" stroke="none" stroke-width="1" fill="none" fill-rule="evenodd">
        <g id="logo-webot">
            <g>
                <circle id="Oval-9-Copy" fill="#F4F4F5" cx="100" cy="100" r="100"></circle>
                <g id="Oval-9">
                    <use fill="#FFFFFF" fill-rule="evenodd" xlink:href="#path-1"></use>
                    <use stroke="#E7E7E8" mask="url(#mask-2)" stroke-width="20" xlink:href="#path-1"></use>
                </g>
                <g transform="translate(43.750000, 43.750000)">
                    <path d="M52.293956,37.3282967 L107.678571,37.3282967 L107.678571,45.2953297 L49.2557241,45.2953297 C51.1442689,43.1967481 52.293956,40.4215957 52.293956,37.3794617 L52.293956,37.3282967 Z M24.6016484,49.2282082 L24.6016484,53.2623626 L107.678571,53.2623626 L107.678571,61.2293956 L24.6016484,61.2293956 L24.6016484,69.1964286 L107.678571,69.1964286 L107.678571,71.2215998 C107.678571,74.5031994 105.020203,77.1634615 101.737224,77.1634615 L30.5429958,77.1634615 C27.2616802,77.1634615 24.6016484,74.5111139 24.6016484,71.2215998 L24.6016484,49.2282082 L24.6016484,49.2282082 Z M52.293956,29.3612637 L107.678571,29.3612637 L107.678571,27.3360925 C107.678571,24.0465784 105.01854,21.3942308 101.737224,21.3942308 L52.1357222,21.3942308 C52.2398159,22.025644 52.293956,22.6739021 52.293956,23.334824 L52.293956,29.3612637 Z M81.9642857,85.1304945 L99.7664835,85.1304945 L99.7664835,95.0892857 L81.9642857,85.1304945 Z" id="Combined-Shape" fill="#EA222F"></path>
                    <g id="Group" transform="translate(4.821429, 17.410714)">
                        <path d="M0,5.94034446 C0,2.65958281 2.66160697,0 5.92937634,0 L35.6090852,0 C38.8837893,0 41.5384615,2.64930724 41.5384615,5.94034446 L41.5384615,19.9525127 C41.5384615,23.2332743 38.8768546,25.8928571 35.6090852,25.8928571 L5.92937634,25.8928571 C2.65467221,25.8928571 0,23.2435499 0,19.9525127 L0,5.94034446 Z M27.6923077,25.8928571 L9.89010989,25.8928571 L9.89010989,35.8516484 L27.6923077,25.8928571 Z" id="Combined-Shape" fill="#0A3B5E"></path>
                        <ellipse id="Oval" fill="#FFFFFF" cx="10.8791209" cy="12.9464286" rx="2.96703297" ry="2.98763736"></ellipse>
                        <ellipse id="Oval-Copy" fill="#FFFFFF" cx="20.7692308" cy="12.9464286" rx="2.96703297" ry="2.98763736"></ellipse>
                        <ellipse id="Oval-Copy-2" fill="#FFFFFF" cx="30.6593407" cy="12.9464286" rx="2.96703297" ry="2.98763736"></ellipse>
                    </g>
                    <rect id="Rectangle-6" x="0" y="0" width="112.5" height="112.5"></rect>
                </g>
            </g>
        </g>
    </g>
</svg>