<?xml version="1.0" encoding="UTF-8" standalone="no"?>
<svg width="200px" height="200px" viewBox="0 0 200 200" version="1.1" xmlns="http://www.w3.org/2000/svg" xmlns:xlink="http://www.w3.org/1999/xlink">
    <!-- Generator: Sketch 41.1 (35376) - http://www.bohemiancoding.com/sketch -->
    <title>logo-impressiv</title>
    <desc>Created with Sketch.</desc>
    <defs>
        <circle id="path-1" cx="100" cy="100" r="75"></circle>
        <mask id="mask-2" maskContentUnits="userSpaceOnUse" maskUnits="objectBoundingBox" x="-10" y="-10" width="170" height="170">
            <rect x="15" y="15" width="170" height="170" fill="white"></rect>
            <use xlink:href="#path-1" fill="black"></use>
        </mask>
    </defs>
    <g id="Website-2.0" stroke="none" stroke-width="1" fill="none" fill-rule="evenodd">
        <g id="logo-impressiv">
            <g id="logo">
                <circle id="Oval-9-Copy" fill="#F4F4F5" cx="100" cy="100" r="100"></circle>
                <g id="Oval-9">
                    <use fill="#FFFFFF" fill-rule="evenodd" xlink:href="#path-1"></use>
                    <use stroke="#E7E7E8" mask="url(#mask-2)" stroke-width="20" xlink:href="#path-1"></use>
                </g>
                <path d="M46.1365131,113.22449 L153.378287,113.22449 L155.516442,113.22449 L155.516442,77.7688138 L155.513158,77.7688138 L155.513158,76.6563247 L44,76.6563247 L44,78.3556616 L44,113.22449 L46.1365131,113.22449 Z M155.513158,113.22449 L44,113.22449 L44,115.510674 L155.513158,115.510674 L155.513158,113.22449 Z M87.0492791,115.510674 L76.7117665,115.510674 L76.7117665,121.801139 C76.7117665,123.938678 77.948444,124.455955 79.4820301,122.948582 L87.0492791,115.510674 Z M53.1207055,87.5039393 C53.1207055,87.0784034 53.2685258,86.7170701 53.564171,86.4199287 C53.8598161,86.1227872 54.2182804,85.9742187 54.6395748,85.9742187 C55.0682602,85.9742187 55.4322678,86.1227872 55.7316085,86.4199287 C56.0309492,86.7170701 56.1806173,87.0784034 56.1806173,87.5039393 C56.1806173,87.9221384 56.0309492,88.2779691 55.7316085,88.5714422 C55.4322678,88.8649152 55.0682602,89.0116496 54.6395748,89.0116496 C54.2182804,89.0116496 53.8598161,88.8649152 53.564171,88.5714422 C53.2685258,88.2779691 53.1207055,87.9221384 53.1207055,87.5039393 Z M53.5974309,102.44898 L53.5974309,91.6088731 L55.7038919,91.6088731 L55.7038919,102.44898 L53.5974309,102.44898 Z M59.3403089,102.44898 L59.3403089,91.6088731 L61.3802502,91.6088731 L61.3802502,93.0505522 C61.7054598,92.4782797 62.1710939,92.0417451 62.7771664,91.7409353 C63.383239,91.4401254 64.022562,91.2897227 64.6951547,91.2897227 C65.4120941,91.2897227 66.0661992,91.4639697 66.6574894,91.812469 C67.2487797,92.1609682 67.6848497,92.6727042 67.9657126,93.3476922 C68.7269988,91.9757057 69.9465167,91.2897227 71.6243029,91.2897227 C72.1121174,91.2897227 72.5777515,91.3740949 73.0212192,91.5428419 C73.4646869,91.7115889 73.8656496,91.9592031 74.2241193,92.2856919 C74.582589,92.6121807 74.8671432,93.0450469 75.0777904,93.5843036 C75.2884375,94.1235604 75.3937595,94.734342 75.3937595,95.4166668 L75.3937595,102.44898 L73.2762118,102.44898 L73.2762118,95.6477757 C73.2762118,94.8994194 73.0821976,94.2978087 72.6941634,93.8429255 C72.3061291,93.3880422 71.727782,93.160604 70.9591046,93.160604 C70.2199918,93.160604 69.6157761,93.4192233 69.1464395,93.9364695 C68.6771028,94.4537158 68.442438,95.1048493 68.442438,95.8898897 L68.442438,102.44898 L66.3138037,102.44898 L66.3138037,95.6477757 C66.3138037,94.9067562 66.1216372,94.3069797 65.7372986,93.8484281 C65.3529599,93.3898764 64.772765,93.160604 63.9966965,93.160604 C63.2428014,93.160604 62.629347,93.4155549 62.1563148,93.9254643 C61.6832825,94.4353738 61.44677,95.0975124 61.44677,95.9119001 L61.44677,102.44898 L59.3403089,102.44898 Z M78.7973571,106.729996 L78.7973571,91.6088731 L80.8594716,91.6088731 L80.8594716,93.3036714 C81.169899,92.731399 81.6447719,92.2636833 82.2841045,91.9005104 C82.9234371,91.5373375 83.6680821,91.3557538 84.5180619,91.3557538 C85.5749932,91.3557538 86.4896317,91.6107047 87.2620046,92.1206141 C88.0343775,92.6305235 88.6071814,93.3055014 88.9804333,94.145568 C89.3536853,94.9856346 89.5403085,95.9412419 89.5403085,97.0124185 C89.5403085,98.6705413 89.0820654,100.040673 88.1655655,101.122855 C87.2490656,102.205037 86.0110702,102.74612 84.4515421,102.74612 C83.6459091,102.74612 82.9308281,102.581043 82.3062778,102.250886 C81.6817274,101.920729 81.2142456,101.498868 80.9038182,100.98529 L80.9038182,106.729996 L78.7973571,106.729996 Z M80.8816449,97.0124185 C80.8816449,98.134953 81.1809811,99.0557108 81.7796625,99.7747198 C82.3783439,100.493729 83.1617918,100.853228 84.1300296,100.853228 C85.1056585,100.853228 85.8872586,100.495563 86.4748533,99.7802224 C87.062448,99.0648818 87.356241,98.1422898 87.356241,97.0124185 C87.356241,95.9045578 87.0642958,94.9966392 86.4803967,94.2886354 C85.8964975,93.5806317 85.1130497,93.2266351 84.1300296,93.2266351 C83.1617918,93.2266351 82.3783439,93.5843001 81.7796625,94.2996406 C81.1809811,95.0149812 80.8816449,95.9192314 80.8816449,97.0124185 Z M92.2565346,102.44898 L92.2565346,91.6088731 L94.3408224,91.6088731 L94.3408224,93.5017648 C94.9986328,92.1224414 96.0888079,91.4327901 97.6113804,91.4327901 C97.8626787,91.4327901 98.0991913,91.4548003 98.3209251,91.4988212 L98.3209251,93.7438788 C98.0031066,93.6998578 97.6926839,93.6778477 97.3896476,93.6778477 C96.4435832,93.6778477 95.7063292,93.947472 95.1778635,94.4867287 C94.6493978,95.0259855 94.3851689,95.8678737 94.3851689,97.0124185 L94.3851689,102.44898 L92.2565346,102.44898 Z M99.6956681,96.9904082 C99.6956681,96.1613468 99.839793,95.3873233 100.128047,94.6683143 C100.416301,93.9493053 100.798786,93.3440262 101.275514,92.8524589 C101.752242,92.3608915 102.306568,91.9738797 102.93851,91.6914119 C103.570451,91.4089441 104.230099,91.2677123 104.917474,91.2677123 C106.565696,91.2677123 107.851733,91.7831166 108.775624,92.8139407 C109.699515,93.8447648 110.161454,95.2222333 110.161454,96.9463874 C110.161454,97.2251868 110.146672,97.452625 110.117107,97.6287089 L101.901909,97.6287089 C101.924082,98.5898331 102.247439,99.3785301 102.87199,99.9948235 C103.49654,100.611117 104.270749,100.919259 105.19464,100.919259 C106.746777,100.919259 107.766738,100.189256 108.254552,98.7292273 L110.094934,99.3565228 C109.777115,100.361668 109.185834,101.185214 108.321072,101.827187 C107.45631,102.469159 106.414176,102.79014 105.19464,102.79014 C104.204229,102.79014 103.296982,102.56637 102.472871,102.118824 C101.64876,101.671278 100.979873,100.999968 100.466189,100.104875 C99.952506,99.2097825 99.6956681,98.1716372 99.6956681,96.9904082 Z M101.968429,95.9119001 L107.93304,95.9119001 C107.910866,95.0975124 107.639246,94.4317054 107.118172,93.9144592 C106.597097,93.3972129 105.87093,93.1385937 104.939648,93.1385937 C104.082277,93.1385937 103.383825,93.4137205 102.844273,93.9639825 C102.304721,94.5142445 102.012776,95.1635438 101.968429,95.9119001 Z M111.868796,99.6316524 L113.797871,98.9603362 C113.864391,99.5546191 114.119381,100.040677 114.562849,100.418523 C115.006316,100.79637 115.597598,100.98529 116.336711,100.98529 C116.913219,100.98529 117.367766,100.845892 117.700367,100.567093 C118.032968,100.288294 118.199266,99.9471364 118.199266,99.5436109 C118.199266,99.2061169 118.077314,98.9126483 117.833407,98.6631962 C117.589499,98.4137441 117.242121,98.2413313 116.791263,98.1459525 L114.928708,97.7387607 C114.078728,97.5553401 113.411688,97.1940068 112.92757,96.6547501 C112.443451,96.1154933 112.201395,95.4606914 112.201395,94.6903247 C112.201395,93.7585477 112.58388,92.9551773 113.348862,92.2801893 C114.113844,91.6052013 115.028482,91.2677123 116.092804,91.2677123 C116.661921,91.2677123 117.18114,91.3392453 117.650477,91.4823134 C118.119814,91.6253815 118.498603,91.8014627 118.786857,92.0105623 C119.075111,92.2196618 119.326406,92.4617735 119.540749,92.7369044 C119.755091,93.0120354 119.91215,93.263318 120.011931,93.4907596 C120.111711,93.7182012 120.187469,93.9456394 120.239207,94.173081 L118.354478,94.8774128 C118.332305,94.7453499 118.299046,94.6096207 118.254699,94.470221 C118.210352,94.3308213 118.130899,94.1749161 118.016336,94.0025006 C117.901774,93.8300852 117.766887,93.6778484 117.611674,93.5457855 C117.45646,93.4137226 117.245816,93.3018377 116.979735,93.2101274 C116.713655,93.118417 116.418014,93.0725626 116.092804,93.0725626 C115.568034,93.0725626 115.133812,93.2156285 114.790125,93.5017648 C114.446437,93.787901 114.274596,94.1253899 114.274596,94.5142417 C114.274596,95.2112402 114.688493,95.6477748 115.516299,95.8238586 L117.290161,96.2090401 C118.26579,96.4218081 119.014131,96.810654 119.535205,97.3755896 C120.05628,97.9405252 120.316813,98.6265082 120.316813,99.4335591 C120.316813,99.8297477 120.233664,100.220428 120.067364,100.605611 C119.901064,100.990795 119.659008,101.34846 119.341189,101.678617 C119.023371,102.008774 118.602083,102.276564 118.077313,102.481995 C117.552542,102.687426 116.964957,102.79014 116.314537,102.79014 C115.604989,102.79014 114.963818,102.685592 114.391006,102.476493 C113.818193,102.267393 113.361798,101.997769 113.021806,101.667612 C112.681814,101.337454 112.417585,100.999965 112.229111,100.655135 C112.040638,100.310304 111.920534,99.9691464 111.868796,99.6316524 Z M122.123935,99.6316524 L124.05301,98.9603362 C124.11953,99.5546191 124.37452,100.040677 124.817988,100.418523 C125.261456,100.79637 125.852737,100.98529 126.59185,100.98529 C127.168358,100.98529 127.622905,100.845892 127.955506,100.567093 C128.288107,100.288294 128.454405,99.9471364 128.454405,99.5436109 C128.454405,99.2061169 128.332453,98.9126483 128.088546,98.6631962 C127.844639,98.4137441 127.497261,98.2413313 127.046402,98.1459525 L125.183847,97.7387607 C124.333867,97.5553401 123.666828,97.1940068 123.182709,96.6547501 C122.69859,96.1154933 122.456534,95.4606914 122.456534,94.6903247 C122.456534,93.7585477 122.839019,92.9551773 123.604001,92.2801893 C124.368983,91.6052013 125.283621,91.2677123 126.347944,91.2677123 C126.917061,91.2677123 127.43628,91.3392453 127.905616,91.4823134 C128.374953,91.6253815 128.753743,91.8014627 129.041997,92.0105623 C129.330251,92.2196618 129.581545,92.4617735 129.795888,92.7369044 C130.010231,93.0120354 130.16729,93.263318 130.26707,93.4907596 C130.36685,93.7182012 130.442608,93.9456394 130.494346,94.173081 L128.609618,94.8774128 C128.587444,94.7453499 128.554185,94.6096207 128.509838,94.470221 C128.465491,94.3308213 128.386038,94.1749161 128.271475,94.0025006 C128.156913,93.8300852 128.022027,93.6778484 127.866813,93.5457855 C127.711599,93.4137226 127.500955,93.3018377 127.234875,93.2101274 C126.968794,93.118417 126.673154,93.0725626 126.347944,93.0725626 C125.823174,93.0725626 125.388951,93.2156285 125.045264,93.5017648 C124.701577,93.787901 124.529735,94.1253899 124.529735,94.5142417 C124.529735,95.2112402 124.943632,95.6477748 125.771439,95.8238586 L127.545301,96.2090401 C128.52093,96.4218081 129.26927,96.810654 129.790345,97.3755896 C130.311419,97.9405252 130.571953,98.6265082 130.571953,99.4335591 C130.571953,99.8297477 130.488804,100.220428 130.322503,100.605611 C130.156203,100.990795 129.914147,101.34846 129.596329,101.678617 C129.27851,102.008774 128.857222,102.276564 128.332452,102.481995 C127.807682,102.687426 127.220096,102.79014 126.569677,102.79014 C125.860128,102.79014 125.218957,102.685592 124.646145,102.476493 C124.073333,102.267393 123.616937,101.997769 123.276945,101.667612 C122.936953,101.337454 122.672725,100.999965 122.484251,100.655135 C122.295777,100.310304 122.175673,99.9691464 122.123935,99.6316524 Z M132.92232,87.5039393 C132.92232,87.0784034 133.07014,86.7170701 133.365785,86.4199287 C133.66143,86.1227872 134.019895,85.9742187 134.441189,85.9742187 C134.869874,85.9742187 135.233882,86.1227872 135.533223,86.4199287 C135.832563,86.7170701 135.982232,87.0784034 135.982232,87.5039393 C135.982232,87.9221384 135.832563,88.2779691 135.533223,88.5714422 C135.233882,88.8649152 134.869874,89.0116496 134.441189,89.0116496 C134.019895,89.0116496 133.66143,88.8649152 133.365785,88.5714422 C133.07014,88.2779691 132.92232,87.9221384 132.92232,87.5039393 Z M133.399045,102.44898 L133.399045,91.6088731 L135.505506,91.6088731 L135.505506,102.44898 L133.399045,102.44898 Z M137.545447,91.6088731 L139.962334,91.6088731 L143.066593,99.9728131 L146.204111,91.6088731 L148.499045,91.6088731 L144.13091,102.44898 L141.980102,102.44898 L137.545447,91.6088731 Z" id="Combined-Shape" fill="#ED767A"></path>
            </g>
        </g>
    </g>
</svg>