<?xml version="1.0" encoding="UTF-8" standalone="no"?>
<svg width="200px" height="200px" viewBox="0 0 200 200" version="1.1" xmlns="http://www.w3.org/2000/svg" xmlns:xlink="http://www.w3.org/1999/xlink">
    <!-- Generator: Sketch 41.1 (35376) - http://www.bohemiancoding.com/sketch -->
    <title>logo-bbp</title>
    <desc>Created with Sketch.</desc>
    <defs>
        <circle id="path-1" cx="100" cy="100" r="75"></circle>
        <mask id="mask-2" maskContentUnits="userSpaceOnUse" maskUnits="objectBoundingBox" x="-10" y="-10" width="170" height="170">
            <rect x="15" y="15" width="170" height="170" fill="white"></rect>
            <use xlink:href="#path-1" fill="black"></use>
        </mask>
        <linearGradient x1="50%" y1="0%" x2="50%" y2="100%" id="linearGradient-3">
            <stop stop-color="#655F8A" offset="0%"></stop>
            <stop stop-color="#141A24" offset="100%"></stop>
        </linearGradient>
    </defs>
    <g id="Website-2.0" stroke="none" stroke-width="1" fill="none" fill-rule="evenodd">
        <g id="logo-bbp">
            <g id="logo-mbb">
                <circle id="Oval-9-Copy" fill="#F4F4F5" cx="100" cy="100" r="100"></circle>
                <g id="Oval-9">
                    <use fill="#FFFFFF" fill-rule="evenodd" xlink:href="#path-1"></use>
                    <use stroke="#E7E7E8" mask="url(#mask-2)" stroke-width="20" xlink:href="#path-1"></use>
                </g>
                <path d="M102.482143,136.767857 C127.729446,136.767857 148.196429,116.300874 148.196429,91.0535714 C148.196429,65.8062686 127.729446,45.3392857 102.482143,45.3392857 C77.23484,45.3392857 56.7678571,65.8062686 56.7678571,91.0535714 C56.7678571,116.300874 77.23484,136.767857 102.482143,136.767857 Z M131.053571,96.7678571 C134.209484,96.7678571 136.767857,94.2094843 136.767857,91.0535714 C136.767857,87.8976586 134.209484,85.3392857 131.053571,85.3392857 C127.897659,85.3392857 125.339286,87.8976586 125.339286,91.0535714 C125.339286,94.2094843 127.897659,96.7678571 131.053571,96.7678571 Z M73.9107143,96.7678571 C77.0666271,96.7678571 79.625,94.2094843 79.625,91.0535714 C79.625,87.8976586 77.0666271,85.3392857 73.9107143,85.3392857 C70.7548014,85.3392857 68.1964286,87.8976586 68.1964286,91.0535714 C68.1964286,94.2094843 70.7548014,96.7678571 73.9107143,96.7678571 Z" id="logo" fill="url(#linearGradient-3)"></path>
                <circle id="Oval-Copy" fill="url(#linearGradient-3)" cx="56.7678571" cy="136.767857" r="11.4285714"></circle>
                <rect id="Rectangle-6" x="44" y="44" width="112.5" height="112.5"></rect>
            </g>
        </g>
    </g>
</svg>