<?xml version="1.0" encoding="UTF-8" standalone="no"?>
<svg width="200px" height="200px" viewBox="0 0 200 200" version="1.1" xmlns="http://www.w3.org/2000/svg" xmlns:xlink="http://www.w3.org/1999/xlink">
    <!-- Generator: Sketch 41.1 (35376) - http://www.bohemiancoding.com/sketch -->
    <title>logo-wrinkle</title>
    <desc>Created with Sketch.</desc>
    <defs>
        <circle id="path-1" cx="100" cy="100" r="75"></circle>
        <mask id="mask-2" maskContentUnits="userSpaceOnUse" maskUnits="objectBoundingBox" x="-10" y="-10" width="170" height="170">
            <rect x="15" y="15" width="170" height="170" fill="white"></rect>
            <use xlink:href="#path-1" fill="black"></use>
        </mask>
        <rect id="path-3" x="48.8214286" y="48.8214286" width="102.857143" height="102.857143" rx="8.03571429"></rect>
        <mask id="mask-4" maskContentUnits="userSpaceOnUse" maskUnits="objectBoundingBox" x="0" y="0" width="102.857143" height="102.857143" fill="white">
            <use xlink:href="#path-3"></use>
        </mask>
        <rect id="path-5" x="48.8214286" y="48.8214286" width="102.857143" height="13.6607143"></rect>
        <mask id="mask-6" maskContentUnits="userSpaceOnUse" maskUnits="objectBoundingBox" x="0" y="0" width="102.857143" height="13.6607143" fill="white">
            <use xlink:href="#path-5"></use>
        </mask>
        <rect id="path-7" x="56.8571429" y="52.8392857" width="16.0714286" height="5.625"></rect>
        <mask id="mask-8" maskContentUnits="userSpaceOnUse" maskUnits="objectBoundingBox" x="0" y="0" width="16.0714286" height="5.625" fill="white">
            <use xlink:href="#path-7"></use>
        </mask>
    </defs>
    <g id="Website-2.0" stroke="none" stroke-width="1" fill="none" fill-rule="evenodd">
        <g id="logo-wrinkle">
            <g>
                <circle id="Oval-9-Copy" fill="#F4F4F5" cx="100" cy="100" r="100"></circle>
                <g id="Oval-9">
                    <use fill="#FFFFFF" fill-rule="evenodd" xlink:href="#path-1"></use>
                    <use stroke="#E7E7E8" mask="url(#mask-2)" stroke-width="20" xlink:href="#path-1"></use>
                </g>
                <use id="Rectangle" stroke="#4879AF" mask="url(#mask-4)" stroke-width="1.60714286" fill="#FFFFFF" xlink:href="#path-3"></use>
                <use id="Rectangle-2" stroke="#4879AF" mask="url(#mask-6)" stroke-width="1.60714286" fill="#D5F6F6" xlink:href="#path-5"></use>
                <use id="Rectangle-3" stroke="#4879AF" mask="url(#mask-8)" stroke-width="1.60714286" fill="#FFFFFF" xlink:href="#path-7"></use>
                <circle id="Oval" stroke="#4879AF" stroke-width="0.803571429" fill="#FFFFFF" cx="140.830357" cy="55.6517857" r="2.8125"></circle>
                <circle id="Oval-Copy" stroke="#4879AF" stroke-width="0.803571429" fill="#FFFFFF" cx="131.1875" cy="55.6517857" r="2.8125"></circle>
                <circle id="Oval-2" stroke="#4879AF" stroke-width="0.803571429" fill="#D5F6F6" cx="100.651786" cy="107.080357" r="36.5625"></circle>
                <circle id="Oval-2-Copy" stroke="#4879AF" stroke-width="0.803571429" fill="#D5F6F6" cx="100.651786" cy="107.080357" r="30.1339286"></circle>
                <path d="M100.651786,137.214286 C117.294295,137.214286 130.785714,124.23336 130.785714,107.883929 C130.785714,106.276786 127.558752,114.714286 118.732143,114.714286 C109.905533,114.714286 106.342993,105.071429 100.25,105.071429 C94.1570067,105.071429 89.8866346,114.714286 80.9642857,114.714286 C72.0419368,114.714286 70.5178571,105.728623 70.5178571,107.080357 C70.5178571,123.722845 84.0092765,137.214286 100.651786,137.214286 Z" id="Oval-2-Copy-2" stroke="#4879AF" stroke-width="0.803571429" fill="#6DCDE2"></path>
                <circle id="Oval-3" fill="#000000" cx="84.5803571" cy="97.4375" r="6.02678571"></circle>
                <circle id="Oval-3-Copy" fill="#000000" cx="116.723214" cy="97.4375" r="6.02678571"></circle>
                <circle id="Oval-4" fill="#FFFFFF" cx="115.116071" cy="95.8303571" r="2.8125"></circle>
                <circle id="Oval-4-Copy" fill="#FFFFFF" cx="82.9732143" cy="95.8303571" r="2.8125"></circle>
                <circle id="Oval-5" fill="#6DCDE2" cx="78.1517857" cy="106.276786" r="2.8125"></circle>
                <circle id="Oval-5-Copy" fill="#6DCDE2" cx="123.151786" cy="106.276786" r="2.8125"></circle>
                <rect id="Rectangle-6" x="44" y="44" width="112.5" height="112.5"></rect>
            </g>
        </g>
    </g>
</svg>