<?xml version="1.0" encoding="UTF-8" standalone="no"?>
<svg width="50px" height="33px" viewBox="0 0 50 33" version="1.1" xmlns="http://www.w3.org/2000/svg" xmlns:xlink="http://www.w3.org/1999/xlink">
    <!-- Generator: Sketch 41.1 (35376) - http://www.bohemiancoding.com/sketch -->
    <title>logo</title>
    <desc>Created with Sketch.</desc>
    <defs></defs>
    <g id="Website" stroke="none" stroke-width="1" fill="none" fill-rule="evenodd">
        <g id="landing" transform="translate(-163.000000, -574.000000)" fill="#FFFFFF">
            <g id="footer" transform="translate(0.000000, 554.000000)">
                <g id="logo" transform="translate(163.000000, 20.000000)">
                    <path d="M32.8947368,32.5657895 C41.9783676,32.5657895 49.3421053,25.2756892 49.3421053,16.2828947 C49.3421053,7.29010029 41.9783676,0 32.8947368,0 C23.8111061,0 16.4473684,7.29010029 16.4473684,16.2828947 C16.4473684,25.2756892 23.8111061,32.5657895 32.8947368,32.5657895 Z M32.8947368,24.4243421 C37.4365522,24.4243421 41.1184211,20.779292 41.1184211,16.2828947 C41.1184211,11.7864975 37.4365522,8.14144737 32.8947368,8.14144737 C28.3529215,8.14144737 24.6710526,11.7864975 24.6710526,16.2828947 C24.6710526,20.779292 28.3529215,24.4243421 32.8947368,24.4243421 Z" id="Oval-1"></path>
                    <path d="M23.0275801,31.2103634 C21.012568,32.0821562 18.787018,32.5657895 16.4473684,32.5657895 C7.36373767,32.5657895 0,25.2756892 0,16.2828947 C0,7.29010029 7.36373767,0 16.4473684,0 C18.787018,0 21.012568,0.483633293 23.0275801,1.35542607 C20.2508397,2.97041392 17.9645731,5.32306698 16.4434643,8.14144827 C11.9034433,8.14353638 8.22368421,11.7877859 8.22368421,16.2828947 C8.22368421,20.7780035 11.9034433,24.4222531 16.4434643,24.4243412 C17.9645731,27.2427225 20.2508397,29.5953756 23.0275801,31.2103634 Z" id="Oval-1"></path>
                </g>
            </g>
        </g>
    </g>
</svg>