<?xml version="1.0" encoding="UTF-8" standalone="no"?>
<svg width="256px" height="256px" viewBox="0 0 256 256" version="1.1" xmlns="http://www.w3.org/2000/svg" xmlns:xlink="http://www.w3.org/1999/xlink">
    <!-- Generator: Sketch 41.1 (35376) - http://www.bohemiancoding.com/sketch -->
    <title>illustration-email-2</title>
    <desc>Created with Sketch.</desc>
    <defs>
        <circle id="path-1" cx="128" cy="128" r="88"></circle>
        <mask id="mask-2" maskContentUnits="userSpaceOnUse" maskUnits="objectBoundingBox" x="-24" y="-24" width="224" height="224">
            <rect x="16" y="16" width="224" height="224" fill="white"></rect>
            <use xlink:href="#path-1" fill="black"></use>
        </mask>
        <circle id="path-3" cx="5" cy="177.25" r="5"></circle>
        <mask id="mask-4" maskContentUnits="userSpaceOnUse" maskUnits="objectBoundingBox" x="0" y="0" width="10" height="10" fill="white">
            <use xlink:href="#path-3"></use>
        </mask>
        <circle id="path-5" cx="111" cy="195.75" r="5"></circle>
        <mask id="mask-6" maskContentUnits="userSpaceOnUse" maskUnits="objectBoundingBox" x="0" y="0" width="10" height="10" fill="white">
            <use xlink:href="#path-5"></use>
        </mask>
        <circle id="path-7" cx="62.25" cy="5" r="5"></circle>
        <mask id="mask-8" maskContentUnits="userSpaceOnUse" maskUnits="objectBoundingBox" x="0" y="0" width="10" height="10" fill="white">
            <use xlink:href="#path-7"></use>
        </mask>
        <circle id="path-9" cx="3.75" cy="114.5" r="3.75"></circle>
        <mask id="mask-10" maskContentUnits="userSpaceOnUse" maskUnits="objectBoundingBox" x="0" y="0" width="7.5" height="7.5" fill="white">
            <use xlink:href="#path-9"></use>
        </mask>
        <circle id="path-11" cx="175" cy="150.25" r="3.75"></circle>
        <mask id="mask-12" maskContentUnits="userSpaceOnUse" maskUnits="objectBoundingBox" x="0" y="0" width="7.5" height="7.5" fill="white">
            <use xlink:href="#path-11"></use>
        </mask>
        <circle id="path-13" cx="165.25" cy="38.25" r="3.75"></circle>
        <mask id="mask-14" maskContentUnits="userSpaceOnUse" maskUnits="objectBoundingBox" x="0" y="0" width="7.5" height="7.5" fill="white">
            <use xlink:href="#path-13"></use>
        </mask>
        <path d="M57.75,3.75 L57.75,7.25 L63.5,7.25 L63.5,17.25 L48.5,17.25 L48.5,7.25 L54,7.25 L54,3.75 L51.6252061,3.75 C50.5895584,3.75 49.75,2.91775346 49.75,1.875 C49.75,0.839466094 50.5929028,1.09044608e-16 51.6252061,4.58342634e-17 L56,-2.22044605e-16 L56,1.75 L56,-2.22044605e-16 L60.3747939,4.58342634e-17 C61.4070972,1.09044608e-16 62.25,0.839466094 62.25,1.875 C62.25,2.91775346 61.4104416,3.75 60.3747939,3.75 L57.75,3.75 Z" id="path-15"></path>
        <mask id="mask-16" maskContentUnits="userSpaceOnUse" maskUnits="objectBoundingBox" x="0" y="0" width="15" height="17.25" fill="white">
            <use xlink:href="#path-15"></use>
        </mask>
        <circle id="path-17" cx="56" cy="70" r="56"></circle>
        <mask id="mask-18" maskContentUnits="userSpaceOnUse" maskUnits="objectBoundingBox" x="0" y="0" width="112" height="112" fill="white">
            <use xlink:href="#path-17"></use>
        </mask>
        <circle id="path-19" cx="44.75" cy="44.75" r="44.75"></circle>
        <mask id="mask-20" maskContentUnits="userSpaceOnUse" maskUnits="objectBoundingBox" x="0" y="0" width="89.5" height="89.5" fill="white">
            <use xlink:href="#path-19"></use>
        </mask>
        <circle id="path-21" cx="21.25" cy="22" r="14"></circle>
        <mask id="mask-22" maskContentUnits="userSpaceOnUse" maskUnits="objectBoundingBox" x="0" y="0" width="28" height="28" fill="white">
            <use xlink:href="#path-21"></use>
        </mask>
        <circle id="path-23" cx="21.25" cy="22.25" r="6"></circle>
        <mask id="mask-24" maskContentUnits="userSpaceOnUse" maskUnits="objectBoundingBox" x="0" y="0" width="12" height="12" fill="white">
            <use xlink:href="#path-23"></use>
        </mask>
    </defs>
    <g id="Illustrations" stroke="none" stroke-width="1" fill="none" fill-rule="evenodd">
        <g id="illustration-email-2">
            <g id="Oval-13">
                <use fill="#E7E7E8" fill-rule="evenodd" xlink:href="#path-1"></use>
                <use stroke="#F4F4F5" mask="url(#mask-2)" stroke-width="48" xlink:href="#path-1"></use>
            </g>
            <g id="background-shapes" transform="translate(43.750000, 13.500000)">
                <use id="Oval-14" stroke="#5C38E3" mask="url(#mask-4)" stroke-width="5" fill="#F4F4F5" xlink:href="#path-3"></use>
                <use id="Oval-14-Copy-3" stroke="#D3D2D7" mask="url(#mask-6)" stroke-width="5" fill="#F4F4F5" xlink:href="#path-5"></use>
                <use id="Oval-14-Copy-4" stroke="#D3D2D7" mask="url(#mask-8)" stroke-width="5" fill="#F4F4F5" xlink:href="#path-7"></use>
                <use id="Oval-14-Copy" stroke="#D3D2D7" mask="url(#mask-10)" stroke-width="5" fill="#F4F4F5" xlink:href="#path-9"></use>
                <use id="Oval-14-Copy-5" stroke="#D3D2D7" mask="url(#mask-12)" stroke-width="5" fill="#F4F4F5" xlink:href="#path-11"></use>
                <use id="Oval-14-Copy-2" stroke="#5C38E3" mask="url(#mask-14)" stroke-width="5" fill="#F4F4F5" xlink:href="#path-13"></use>
                <path d="M107.625,34.875 L107.625,32.6230879 C107.625,31.7217407 106.897463,31 106,31 C105.09628,31 104.375,31.7266812 104.375,32.6230879 L104.375,34.875 L102.123088,34.875 C101.221741,34.875 100.5,35.6025373 100.5,36.5 C100.5,37.4037197 101.226681,38.125 102.123088,38.125 L104.375,38.125 L104.375,40.3769121 C104.375,41.2782593 105.102537,42 106,42 C106.90372,42 107.625,41.2733188 107.625,40.3769121 L107.625,38.125 L109.876912,38.125 C110.778259,38.125 111.5,37.3974627 111.5,36.5 C111.5,35.5962803 110.773319,34.875 109.876912,34.875 L107.625,34.875 Z" id="Combined-Shape" fill="#D8D8D8" transform="translate(106.000000, 36.500000) rotate(5.000000) translate(-106.000000, -36.500000) "></path>
                <path d="M185.829545,201.420455 L185.829545,199.577981 C185.829545,198.840515 185.234288,198.25 184.5,198.25 C183.760593,198.25 183.170455,198.844557 183.170455,199.577981 L183.170455,201.420455 L181.327981,201.420455 C180.590515,201.420455 180,202.015712 180,202.75 C180,203.489407 180.594557,204.079545 181.327981,204.079545 L183.170455,204.079545 L183.170455,205.922019 C183.170455,206.659485 183.765712,207.25 184.5,207.25 C185.239407,207.25 185.829545,206.655443 185.829545,205.922019 L185.829545,204.079545 L187.672019,204.079545 C188.409485,204.079545 189,203.484288 189,202.75 C189,202.010593 188.405443,201.420455 187.672019,201.420455 L185.829545,201.420455 Z" id="Combined-Shape-Copy" fill="#5C38E3" transform="translate(184.500000, 202.750000) rotate(10.000000) translate(-184.500000, -202.750000) "></path>
                <path d="M40.5795455,221.920455 L40.5795455,220.077981 C40.5795455,219.340515 39.9842877,218.75 39.25,218.75 C38.510593,218.75 37.9204545,219.344557 37.9204545,220.077981 L37.9204545,221.920455 L36.077981,221.920455 C35.3405151,221.920455 34.75,222.515712 34.75,223.25 C34.75,223.989407 35.3445573,224.579545 36.077981,224.579545 L37.9204545,224.579545 L37.9204545,226.422019 C37.9204545,227.159485 38.5157123,227.75 39.25,227.75 C39.989407,227.75 40.5795455,227.155443 40.5795455,226.422019 L40.5795455,224.579545 L42.422019,224.579545 C43.1594849,224.579545 43.75,223.984288 43.75,223.25 C43.75,222.510593 43.1554427,221.920455 42.422019,221.920455 L40.5795455,221.920455 Z" id="Combined-Shape-Copy-3" fill="#D8D8D8" transform="translate(39.250000, 223.250000) rotate(-15.000000) translate(-39.250000, -223.250000) "></path>
                <path d="M185.829545,98.1704545 L185.829545,96.327981 C185.829545,95.5905151 185.234288,95 184.5,95 C183.760593,95 183.170455,95.5945573 183.170455,96.327981 L183.170455,98.1704545 L181.327981,98.1704545 C180.590515,98.1704545 180,98.7657123 180,99.5 C180,100.239407 180.594557,100.829545 181.327981,100.829545 L183.170455,100.829545 L183.170455,102.672019 C183.170455,103.409485 183.765712,104 184.5,104 C185.239407,104 185.829545,103.405443 185.829545,102.672019 L185.829545,100.829545 L187.672019,100.829545 C188.409485,100.829545 189,100.234288 189,99.5 C189,98.760593 188.405443,98.1704545 187.672019,98.1704545 L185.829545,98.1704545 Z" id="Combined-Shape-Copy-2" fill="#5C38E3" transform="translate(184.500000, 99.500000) rotate(10.000000) translate(-184.500000, -99.500000) "></path>
                <path d="M31.5795455,52.9204545 L31.5795455,51.077981 C31.5795455,50.3405151 30.9842877,49.75 30.25,49.75 C29.510593,49.75 28.9204545,50.3445573 28.9204545,51.077981 L28.9204545,52.9204545 L27.077981,52.9204545 C26.3405151,52.9204545 25.75,53.5157123 25.75,54.25 C25.75,54.989407 26.3445573,55.5795455 27.077981,55.5795455 L28.9204545,55.5795455 L28.9204545,57.422019 C28.9204545,58.1594849 29.5157123,58.75 30.25,58.75 C30.989407,58.75 31.5795455,58.1554427 31.5795455,57.422019 L31.5795455,55.5795455 L33.422019,55.5795455 C34.1594849,55.5795455 34.75,54.9842877 34.75,54.25 C34.75,53.510593 34.1554427,52.9204545 33.422019,52.9204545 L31.5795455,52.9204545 Z" id="Combined-Shape-Copy-4" fill="#5C38E3" transform="translate(30.250000, 54.250000) rotate(-20.000000) translate(-30.250000, -54.250000) "></path>
            </g>
            <g id="illustration-clock" transform="translate(64.000000, 64.000000)">
                <rect id="Rectangle-28" x="0" y="0" width="128" height="128"></rect>
                <g id="outer-face" transform="translate(8.000000, 2.000000)" stroke="#938F9F" stroke-width="5" fill="#272040">
                    <use id="Combined-Shape" mask="url(#mask-16)" xlink:href="#path-15"></use>
                    <use id="Oval-15" mask="url(#mask-18)" xlink:href="#path-17"></use>
                </g>
                <g id="inner-face" transform="translate(19.250000, 27.250000)">
                    <use id="Oval-15-Copy" stroke="#938F9F" mask="url(#mask-20)" stroke-width="5" fill="#FFFFFF" xlink:href="#path-19"></use>
                    <path d="M46.75,2.5 L43,2.5 L43,6.87479392 C43,7.91044164 43.8322465,8.75 44.875,8.75 C45.9105339,8.75 46.75,7.90709719 46.75,6.87479392 L46.75,2.5 Z M46.75,87 L43,87 L43,82.6252061 C43,81.5895584 43.8322465,80.75 44.875,80.75 C45.9105339,80.75 46.75,81.5929028 46.75,82.6252061 L46.75,87 Z M2.5,43 L2.5,46.75 L6.87479392,46.75 C7.91044164,46.75 8.75,45.9177535 8.75,44.875 C8.75,43.8394661 7.90709719,43 6.87479392,43 L2.5,43 Z M87,43 L87,46.75 L82.6252061,46.75 C81.5895584,46.75 80.75,45.9177535 80.75,44.875 C80.75,43.8394661 81.5929028,43 82.6252061,43 L87,43 Z" id="Combined-Shape" fill="#938F9F"></path>
                </g>
                <g id="clock-face" transform="translate(42.750000, 50.000000)">
                    <use id="Oval-16" stroke="#938F9F" mask="url(#mask-22)" stroke-width="5" fill="#5C38E3" xlink:href="#path-21"></use>
                    <use id="Oval-16-Copy" stroke="#938F9F" mask="url(#mask-24)" stroke-width="5" fill="#FFFFFF" xlink:href="#path-23"></use>
                    <rect id="Rectangle" fill="#938F9F" transform="translate(32.785218, 10.410218) rotate(45.000000) translate(-32.785218, -10.410218) " x="30.9102182" y="-2.22931547" width="3.75" height="25.2790674" rx="1.875"></rect>
                    <rect id="Rectangle-Copy" fill="#938F9F" transform="translate(8.625000, 22.125000) rotate(-90.000000) translate(-8.625000, -22.125000) " x="6.75" y="13.5" width="3.75" height="17.25" rx="1.875"></rect>
                </g>
            </g>
        </g>
    </g>
</svg>