<?xml version="1.0" encoding="UTF-8" standalone="no"?>
<svg width="512px" height="512px" viewBox="0 0 512 512" version="1.1" xmlns="http://www.w3.org/2000/svg" xmlns:xlink="http://www.w3.org/1999/xlink">
    <!-- Generator: Sketch 41.1 (35376) - http://www.bohemiancoding.com/sketch -->
    <title>illustration-pitch-4</title>
    <desc>Created with Sketch.</desc>
    <defs>
        <circle id="path-1" cx="256" cy="256" r="176"></circle>
        <mask id="mask-2" maskContentUnits="userSpaceOnUse" maskUnits="objectBoundingBox" x="-48" y="-48" width="448" height="448">
            <rect x="32" y="32" width="448" height="448" fill="white"></rect>
            <use xlink:href="#path-1" fill="black"></use>
        </mask>
        <circle id="path-3" cx="10" cy="354.5" r="10"></circle>
        <mask id="mask-4" maskContentUnits="userSpaceOnUse" maskUnits="objectBoundingBox" x="0" y="0" width="20" height="20" fill="white">
            <use xlink:href="#path-3"></use>
        </mask>
        <circle id="path-5" cx="222" cy="391.5" r="10"></circle>
        <mask id="mask-6" maskContentUnits="userSpaceOnUse" maskUnits="objectBoundingBox" x="0" y="0" width="20" height="20" fill="white">
            <use xlink:href="#path-5"></use>
        </mask>
        <circle id="path-7" cx="124.5" cy="10" r="10"></circle>
        <mask id="mask-8" maskContentUnits="userSpaceOnUse" maskUnits="objectBoundingBox" x="0" y="0" width="20" height="20" fill="white">
            <use xlink:href="#path-7"></use>
        </mask>
        <circle id="path-9" cx="7.5" cy="229" r="7.5"></circle>
        <mask id="mask-10" maskContentUnits="userSpaceOnUse" maskUnits="objectBoundingBox" x="0" y="0" width="15" height="15" fill="white">
            <use xlink:href="#path-9"></use>
        </mask>
        <circle id="path-11" cx="350" cy="300.5" r="7.5"></circle>
        <mask id="mask-12" maskContentUnits="userSpaceOnUse" maskUnits="objectBoundingBox" x="0" y="0" width="15" height="15" fill="white">
            <use xlink:href="#path-11"></use>
        </mask>
        <circle id="path-13" cx="330.5" cy="76.5" r="7.5"></circle>
        <mask id="mask-14" maskContentUnits="userSpaceOnUse" maskUnits="objectBoundingBox" x="0" y="0" width="15" height="15" fill="white">
            <use xlink:href="#path-13"></use>
        </mask>
        <rect id="path-15" x="0" y="0" width="240" height="160"></rect>
        <mask id="mask-16" maskContentUnits="userSpaceOnUse" maskUnits="objectBoundingBox" x="0" y="0" width="240" height="160" fill="white">
            <use xlink:href="#path-15"></use>
        </mask>
    </defs>
    <g id="Illustrations" stroke="none" stroke-width="1" fill="none" fill-rule="evenodd">
        <g id="illustration-pitch-4">
            <g id="Oval-13">
                <use fill="#E7E7E8" fill-rule="evenodd" xlink:href="#path-1"></use>
                <use stroke="#F4F4F5" mask="url(#mask-2)" stroke-width="96" xlink:href="#path-1"></use>
            </g>
            <g id="background-shapes" transform="translate(87.500000, 27.000000)">
                <use id="Oval-14" stroke="#5C38E3" mask="url(#mask-4)" stroke-width="10" fill="#F4F4F5" xlink:href="#path-3"></use>
                <use id="Oval-14-Copy-3" stroke="#D3D2D7" mask="url(#mask-6)" stroke-width="10" fill="#F4F4F5" xlink:href="#path-5"></use>
                <use id="Oval-14-Copy-4" stroke="#D3D2D7" mask="url(#mask-8)" stroke-width="10" fill="#F4F4F5" xlink:href="#path-7"></use>
                <use id="Oval-14-Copy" stroke="#D3D2D7" mask="url(#mask-10)" stroke-width="10" fill="#F4F4F5" xlink:href="#path-9"></use>
                <use id="Oval-14-Copy-5" stroke="#D3D2D7" mask="url(#mask-12)" stroke-width="10" fill="#F4F4F5" xlink:href="#path-11"></use>
                <use id="Oval-14-Copy-2" stroke="#5C38E3" mask="url(#mask-14)" stroke-width="10" fill="#F4F4F5" xlink:href="#path-13"></use>
                <path d="M215.25,69.75 L215.25,65.2461758 C215.25,63.4605192 213.794925,62 212,62 C210.208727,62 208.75,63.4533624 208.75,65.2461758 L208.75,69.75 L204.246176,69.75 C202.460519,69.75 201,71.2050746 201,73 C201,74.7912731 202.453362,76.25 204.246176,76.25 L208.75,76.25 L208.75,80.7538242 C208.75,82.5394808 210.205075,84 212,84 C213.791273,84 215.25,82.5466376 215.25,80.7538242 L215.25,76.25 L219.753824,76.25 C221.539481,76.25 223,74.7949254 223,73 C223,71.2087269 221.546638,69.75 219.753824,69.75 L215.25,69.75 Z" id="Combined-Shape" fill="#D8D8D8" transform="translate(212.000000, 73.000000) rotate(5.000000) translate(-212.000000, -73.000000) "></path>
                <path d="M371.659091,402.840909 L371.659091,399.155962 C371.659091,397.68103 370.468575,396.5 369,396.5 C367.534413,396.5 366.340909,397.689115 366.340909,399.155962 L366.340909,402.840909 L362.655962,402.840909 C361.18103,402.840909 360,404.031425 360,405.5 C360,406.965587 361.189115,408.159091 362.655962,408.159091 L366.340909,408.159091 L366.340909,411.844038 C366.340909,413.31897 367.531425,414.5 369,414.5 C370.465587,414.5 371.659091,413.310885 371.659091,411.844038 L371.659091,408.159091 L375.344038,408.159091 C376.81897,408.159091 378,406.968575 378,405.5 C378,404.034413 376.810885,402.840909 375.344038,402.840909 L371.659091,402.840909 Z" id="Combined-Shape-Copy" fill="#5C38E3" transform="translate(369.000000, 405.500000) rotate(10.000000) translate(-369.000000, -405.500000) "></path>
                <path d="M81.1590909,443.840909 L81.1590909,440.155962 C81.1590909,438.68103 79.9685754,437.5 78.5,437.5 C77.0344129,437.5 75.8409091,438.689115 75.8409091,440.155962 L75.8409091,443.840909 L72.155962,443.840909 C70.6810303,443.840909 69.5,445.031425 69.5,446.5 C69.5,447.965587 70.6891147,449.159091 72.155962,449.159091 L75.8409091,449.159091 L75.8409091,452.844038 C75.8409091,454.31897 77.0314246,455.5 78.5,455.5 C79.9655871,455.5 81.1590909,454.310885 81.1590909,452.844038 L81.1590909,449.159091 L84.844038,449.159091 C86.3189697,449.159091 87.5,447.968575 87.5,446.5 C87.5,445.034413 86.3108853,443.840909 84.844038,443.840909 L81.1590909,443.840909 Z" id="Combined-Shape-Copy-3" fill="#D8D8D8" transform="translate(78.500000, 446.500000) rotate(-15.000000) translate(-78.500000, -446.500000) "></path>
                <path d="M371.659091,196.340909 L371.659091,192.655962 C371.659091,191.18103 370.468575,190 369,190 C367.534413,190 366.340909,191.189115 366.340909,192.655962 L366.340909,196.340909 L362.655962,196.340909 C361.18103,196.340909 360,197.531425 360,199 C360,200.465587 361.189115,201.659091 362.655962,201.659091 L366.340909,201.659091 L366.340909,205.344038 C366.340909,206.81897 367.531425,208 369,208 C370.465587,208 371.659091,206.810885 371.659091,205.344038 L371.659091,201.659091 L375.344038,201.659091 C376.81897,201.659091 378,200.468575 378,199 C378,197.534413 376.810885,196.340909 375.344038,196.340909 L371.659091,196.340909 Z" id="Combined-Shape-Copy-2" fill="#5C38E3" transform="translate(369.000000, 199.000000) rotate(10.000000) translate(-369.000000, -199.000000) "></path>
                <path d="M63.1590909,105.840909 L63.1590909,102.155962 C63.1590909,100.68103 61.9685754,99.5 60.5,99.5 C59.0344129,99.5 57.8409091,100.689115 57.8409091,102.155962 L57.8409091,105.840909 L54.155962,105.840909 C52.6810303,105.840909 51.5,107.031425 51.5,108.5 C51.5,109.965587 52.6891147,111.159091 54.155962,111.159091 L57.8409091,111.159091 L57.8409091,114.844038 C57.8409091,116.31897 59.0314246,117.5 60.5,117.5 C61.9655871,117.5 63.1590909,116.310885 63.1590909,114.844038 L63.1590909,111.159091 L66.844038,111.159091 C68.3189697,111.159091 69.5,109.968575 69.5,108.5 C69.5,107.034413 68.3108853,105.840909 66.844038,105.840909 L63.1590909,105.840909 Z" id="Combined-Shape-Copy-4" fill="#5C38E3" transform="translate(60.500000, 108.500000) rotate(-20.000000) translate(-60.500000, -108.500000) "></path>
            </g>
            <g id="process-illustration-1" transform="translate(128.000000, 128.000000)">
                <rect id="Rectangle-10" x="0" y="0" width="256" height="256"></rect>
                <g id="illustration" transform="translate(0.000000, 16.000000)">
                    <rect id="Rectangle-9" fill="#938F9F" transform="translate(108.589842, 196.852020) rotate(35.000000) translate(-108.589842, -196.852020) " x="103.589842" y="166.35202" width="10" height="61" rx="5"></rect>
                    <rect id="Rectangle-9-Copy" fill="#938F9F" transform="translate(148.089842, 196.852020) scale(-1, 1) rotate(35.000000) translate(-148.089842, -196.852020) " x="143.089842" y="166.35202" width="10" height="61" rx="5"></rect>
                    <path d="M120.566319,8.5 L2.49251324,8.5 C1.11337382,8.5 0,9.61812022 0,10.9973914 L0,13.5026086 C0,14.8771742 1.11593619,16 2.49251324,16 L253.507487,16 C254.886626,16 256,14.8818798 256,13.5026086 L256,10.9973914 C256,9.62282578 254.884064,8.5 253.507487,8.5 L135.433759,8.5 C135.477444,8.17286263 135.5,7.83905878 135.5,7.5 C135.5,3.36629279 132.142136,0 128,0 C123.866293,0 120.5,3.35786438 120.5,7.5 C120.5,7.83897133 120.522579,8.17278234 120.566319,8.5 Z" id="Combined-Shape" fill="#938F9F"></path>
                    <g id="Group" transform="translate(8.000000, 16.000000)">
                        <use id="Rectangle-4" stroke="#938F9F" mask="url(#mask-16)" stroke-width="10" fill="#FFFFFF" xlink:href="#path-15"></use>
                        <rect id="Combined-Shape-Copy" fill="#3C3653" x="0" y="0" width="240" height="5"></rect>
                        <rect id="Combined-Shape-Copy-2" fill="#3C3653" x="0" y="155" width="240" height="5"></rect>
                    </g>
                    <g id="pie-chart" transform="translate(20.500000, 42.500000)">
                        <circle id="Oval" fill="#272040" cx="50" cy="56.5" r="50"></circle>
                        <path d="M50,5 C50,5 72.6582031,5.87109375 87.0566406,22.9960937 C101.455078,40.1210938 100,55 100,55 L50,55 L50,5 Z" id="Rectangle-Copy" fill="#FFFFFF"></path>
                        <path d="M55,0 C55,0 77.6582031,0.87109375 92.0566406,17.9960937 C106.455078,35.1210938 105,50 105,50 L55,50 L55,0 Z" id="Rectangle" fill="#5C38E3"></path>
                    </g>
                    <rect id="Rectangle-8" fill="#272040" x="140.5" y="49.5" width="95" height="10" rx="2"></rect>
                    <rect id="Rectangle-8-Copy" fill="#272040" x="140.5" y="77" width="62" height="10" rx="2"></rect>
                    <rect id="Rectangle-8-Copy-2" fill="#272040" x="140.5" y="104.5" width="95" height="10" rx="2"></rect>
                    <rect id="Rectangle-8-Copy-3" fill="#272040" x="140.5" y="132" width="83.5" height="10" rx="2"></rect>
                </g>
            </g>
        </g>
    </g>
</svg>