<?xml version="1.0" encoding="UTF-8" standalone="no"?>
<svg width="2289px" height="791px" viewBox="0 0 2289 791" version="1.1" xmlns="http://www.w3.org/2000/svg" xmlns:xlink="http://www.w3.org/1999/xlink" style="background: #FFFFFF;">
    <!-- Generator: Sketch 41.1 (35376) - http://www.bohemiancoding.com/sketch -->
    <title>illustration-offer copy</title>
    <desc>Created with Sketch.</desc>
    <defs>
        <circle id="path-1" cx="191" cy="242.5" r="176"></circle>
        <mask id="mask-2" maskContentUnits="userSpaceOnUse" maskUnits="objectBoundingBox" x="-48" y="-48" width="448" height="448">
            <rect x="-33" y="18.5" width="448" height="448" fill="white"></rect>
            <use xlink:href="#path-1" fill="black"></use>
        </mask>
        <circle id="path-3" cx="10" cy="354.5" r="10"></circle>
        <mask id="mask-4" maskContentUnits="userSpaceOnUse" maskUnits="objectBoundingBox" x="0" y="0" width="20" height="20" fill="white">
            <use xlink:href="#path-3"></use>
        </mask>
        <circle id="path-5" cx="222" cy="391.5" r="10"></circle>
        <mask id="mask-6" maskContentUnits="userSpaceOnUse" maskUnits="objectBoundingBox" x="0" y="0" width="20" height="20" fill="white">
            <use xlink:href="#path-5"></use>
        </mask>
        <circle id="path-7" cx="124.5" cy="10" r="10"></circle>
        <mask id="mask-8" maskContentUnits="userSpaceOnUse" maskUnits="objectBoundingBox" x="0" y="0" width="20" height="20" fill="white">
            <use xlink:href="#path-7"></use>
        </mask>
        <circle id="path-9" cx="7.5" cy="229" r="7.5"></circle>
        <mask id="mask-10" maskContentUnits="userSpaceOnUse" maskUnits="objectBoundingBox" x="0" y="0" width="15" height="15" fill="white">
            <use xlink:href="#path-9"></use>
        </mask>
        <circle id="path-11" cx="350" cy="300.5" r="7.5"></circle>
        <mask id="mask-12" maskContentUnits="userSpaceOnUse" maskUnits="objectBoundingBox" x="0" y="0" width="15" height="15" fill="white">
            <use xlink:href="#path-11"></use>
        </mask>
        <circle id="path-13" cx="330.5" cy="76.5" r="7.5"></circle>
        <mask id="mask-14" maskContentUnits="userSpaceOnUse" maskUnits="objectBoundingBox" x="0" y="0" width="15" height="15" fill="white">
            <use xlink:href="#path-13"></use>
        </mask>
        <rect id="path-15" x="17.5" y="76.5" width="221" height="137" rx="2"></rect>
        <mask id="mask-16" maskContentUnits="userSpaceOnUse" maskUnits="objectBoundingBox" x="0" y="0" width="221" height="137" fill="white">
            <use xlink:href="#path-15"></use>
        </mask>
        <rect id="path-17" x="57.5" y="17.5" width="10" height="35" rx="5"></rect>
        <mask id="mask-18" maskContentUnits="userSpaceOnUse" maskUnits="objectBoundingBox" x="-5" y="-5" width="20" height="45">
            <rect x="52.5" y="12.5" width="20" height="45" fill="white"></rect>
            <use xlink:href="#path-17" fill="black"></use>
        </mask>
        <rect id="path-19" x="188.5" y="17.5" width="10" height="35" rx="5"></rect>
        <mask id="mask-20" maskContentUnits="userSpaceOnUse" maskUnits="objectBoundingBox" x="-5" y="-5" width="20" height="45">
            <rect x="183.5" y="12.5" width="20" height="45" fill="white"></rect>
            <use xlink:href="#path-19" fill="black"></use>
        </mask>
        <circle id="path-21" cx="189.5" cy="217" r="176"></circle>
        <mask id="mask-22" maskContentUnits="userSpaceOnUse" maskUnits="objectBoundingBox" x="-48" y="-48" width="448" height="448">
            <rect x="-34.5" y="-7" width="448" height="448" fill="white"></rect>
            <use xlink:href="#path-21" fill="black"></use>
        </mask>
        <circle id="path-23" cx="10" cy="354.5" r="10"></circle>
        <mask id="mask-24" maskContentUnits="userSpaceOnUse" maskUnits="objectBoundingBox" x="0" y="0" width="20" height="20" fill="white">
            <use xlink:href="#path-23"></use>
        </mask>
        <circle id="path-25" cx="222" cy="391.5" r="10"></circle>
        <mask id="mask-26" maskContentUnits="userSpaceOnUse" maskUnits="objectBoundingBox" x="0" y="0" width="20" height="20" fill="white">
            <use xlink:href="#path-25"></use>
        </mask>
        <circle id="path-27" cx="124.5" cy="10" r="10"></circle>
        <mask id="mask-28" maskContentUnits="userSpaceOnUse" maskUnits="objectBoundingBox" x="0" y="0" width="20" height="20" fill="white">
            <use xlink:href="#path-27"></use>
        </mask>
        <circle id="path-29" cx="7.5" cy="229" r="7.5"></circle>
        <mask id="mask-30" maskContentUnits="userSpaceOnUse" maskUnits="objectBoundingBox" x="0" y="0" width="15" height="15" fill="white">
            <use xlink:href="#path-29"></use>
        </mask>
        <circle id="path-31" cx="350" cy="300.5" r="7.5"></circle>
        <mask id="mask-32" maskContentUnits="userSpaceOnUse" maskUnits="objectBoundingBox" x="0" y="0" width="15" height="15" fill="white">
            <use xlink:href="#path-31"></use>
        </mask>
        <circle id="path-33" cx="330.5" cy="76.5" r="7.5"></circle>
        <mask id="mask-34" maskContentUnits="userSpaceOnUse" maskUnits="objectBoundingBox" x="0" y="0" width="15" height="15" fill="white">
            <use xlink:href="#path-33"></use>
        </mask>
        <ellipse id="path-35" cx="50.5" cy="79.75" rx="39" ry="22.25"></ellipse>
        <mask id="mask-36" maskContentUnits="userSpaceOnUse" maskUnits="objectBoundingBox" x="0" y="0" width="78" height="44.5" fill="white">
            <use xlink:href="#path-35"></use>
        </mask>
        <circle id="path-37" cx="44.25" cy="59.75" r="22.25"></circle>
        <mask id="mask-38" maskContentUnits="userSpaceOnUse" maskUnits="objectBoundingBox" x="0" y="0" width="44.5" height="44.5" fill="white">
            <use xlink:href="#path-37"></use>
        </mask>
        <circle id="path-39" cx="101.25" cy="70.75" r="22.25"></circle>
        <mask id="mask-40" maskContentUnits="userSpaceOnUse" maskUnits="objectBoundingBox" x="0" y="0" width="44.5" height="44.5" fill="white">
            <use xlink:href="#path-39"></use>
        </mask>
        <ellipse id="path-41" cx="164" cy="44.75" rx="39" ry="22.25"></ellipse>
        <mask id="mask-42" maskContentUnits="userSpaceOnUse" maskUnits="objectBoundingBox" x="0" y="0" width="78" height="44.5" fill="white">
            <use xlink:href="#path-41"></use>
        </mask>
        <circle id="path-43" cx="145.75" cy="73.75" r="22.25"></circle>
        <mask id="mask-44" maskContentUnits="userSpaceOnUse" maskUnits="objectBoundingBox" x="0" y="0" width="44.5" height="44.5" fill="white">
            <use xlink:href="#path-43"></use>
        </mask>
        <path d="M72.8101383,218.984886 C72.6388549,217.888664 73.3944333,217 74.5052435,217 L304.492525,217 C305.599989,217 306.359373,217.885725 306.18763,218.984886 L288.814138,330.176069 C287.534924,338.3631 279.791922,345 271.496988,345 L107.500781,345 C99.2159967,345 91.4632072,338.365421 90.1836305,330.176069 L72.8101383,218.984886 Z M127,264.990179 C127,256.711332 133.713907,250 142,250 C150.284271,250 157,256.71826 157,264.990179 L157,297.509821 C157,305.788668 150.286093,312.5 142,312.5 C133.715729,312.5 127,305.78174 127,297.509821 L127,264.990179 Z M177,264.990179 C177,256.711332 183.713907,250 192,250 C200.284271,250 207,256.71826 207,264.990179 L207,297.509821 C207,305.788668 200.286093,312.5 192,312.5 C183.715729,312.5 177,305.78174 177,297.509821 L177,264.990179 Z M227,264.990179 C227,256.711332 233.713907,250 242,250 C250.284271,250 257,256.71826 257,264.990179 L257,297.509821 C257,305.788668 250.286093,312.5 242,312.5 C233.715729,312.5 227,305.78174 227,297.509821 L227,264.990179 Z" id="path-45"></path>
        <mask id="mask-46" maskContentUnits="userSpaceOnUse" maskUnits="objectBoundingBox" x="0" y="0" width="233.429222" height="128" fill="white">
            <use xlink:href="#path-45"></use>
        </mask>
        <rect id="path-47" x="61.5" y="179" width="256" height="43" rx="10"></rect>
        <mask id="mask-48" maskContentUnits="userSpaceOnUse" maskUnits="objectBoundingBox" x="0" y="0" width="256" height="43" fill="white">
            <use xlink:href="#path-47"></use>
        </mask>
        <rect id="path-49" x="-3.12638804e-13" y="0.150000095" width="22.5" height="125" rx="11.25"></rect>
        <mask id="mask-50" maskContentUnits="userSpaceOnUse" maskUnits="objectBoundingBox" x="0" y="0" width="22.5" height="125" fill="white">
            <use xlink:href="#path-49"></use>
        </mask>
        <rect id="path-51" x="-2.98427949e-13" y="0.150000095" width="22.5" height="125" rx="11.25"></rect>
        <mask id="mask-52" maskContentUnits="userSpaceOnUse" maskUnits="objectBoundingBox" x="0" y="0" width="22.5" height="125" fill="white">
            <use xlink:href="#path-51"></use>
        </mask>
        <circle id="path-53" cx="189.5" cy="229" r="176"></circle>
        <mask id="mask-54" maskContentUnits="userSpaceOnUse" maskUnits="objectBoundingBox" x="-48" y="-48" width="448" height="448">
            <rect x="-34.5" y="5" width="448" height="448" fill="white"></rect>
            <use xlink:href="#path-53" fill="black"></use>
        </mask>
        <circle id="path-55" cx="10" cy="354.5" r="10"></circle>
        <mask id="mask-56" maskContentUnits="userSpaceOnUse" maskUnits="objectBoundingBox" x="0" y="0" width="20" height="20" fill="white">
            <use xlink:href="#path-55"></use>
        </mask>
        <circle id="path-57" cx="222" cy="391.5" r="10"></circle>
        <mask id="mask-58" maskContentUnits="userSpaceOnUse" maskUnits="objectBoundingBox" x="0" y="0" width="20" height="20" fill="white">
            <use xlink:href="#path-57"></use>
        </mask>
        <circle id="path-59" cx="124.5" cy="10" r="10"></circle>
        <mask id="mask-60" maskContentUnits="userSpaceOnUse" maskUnits="objectBoundingBox" x="0" y="0" width="20" height="20" fill="white">
            <use xlink:href="#path-59"></use>
        </mask>
        <circle id="path-61" cx="7.5" cy="229" r="7.5"></circle>
        <mask id="mask-62" maskContentUnits="userSpaceOnUse" maskUnits="objectBoundingBox" x="0" y="0" width="15" height="15" fill="white">
            <use xlink:href="#path-61"></use>
        </mask>
        <circle id="path-63" cx="350" cy="300.5" r="7.5"></circle>
        <mask id="mask-64" maskContentUnits="userSpaceOnUse" maskUnits="objectBoundingBox" x="0" y="0" width="15" height="15" fill="white">
            <use xlink:href="#path-63"></use>
        </mask>
        <circle id="path-65" cx="330.5" cy="76.5" r="7.5"></circle>
        <mask id="mask-66" maskContentUnits="userSpaceOnUse" maskUnits="objectBoundingBox" x="0" y="0" width="15" height="15" fill="white">
            <use xlink:href="#path-65"></use>
        </mask>
        <rect id="path-67" x="0" y="56" width="25" height="25" rx="2"></rect>
        <mask id="mask-68" maskContentUnits="userSpaceOnUse" maskUnits="objectBoundingBox" x="0" y="0" width="25" height="25" fill="white">
            <use xlink:href="#path-67"></use>
        </mask>
        <rect id="path-69" x="224" y="56" width="25" height="25" rx="2"></rect>
        <mask id="mask-70" maskContentUnits="userSpaceOnUse" maskUnits="objectBoundingBox" x="0" y="0" width="25" height="25" fill="white">
            <use xlink:href="#path-69"></use>
        </mask>
        <rect id="path-71" x="12.5" y="0" width="224" height="140" rx="70"></rect>
        <mask id="mask-72" maskContentUnits="userSpaceOnUse" maskUnits="objectBoundingBox" x="0" y="0" width="224" height="140" fill="white">
            <use xlink:href="#path-71"></use>
        </mask>
        <rect id="path-73" x="0" y="0" width="88.5" height="77" rx="25"></rect>
        <mask id="mask-74" maskContentUnits="userSpaceOnUse" maskUnits="objectBoundingBox" x="0" y="0" width="88.5" height="77" fill="white">
            <use xlink:href="#path-73"></use>
        </mask>
        <rect id="path-75" x="0" y="0" width="88.5" height="77" rx="25"></rect>
        <mask id="mask-76" maskContentUnits="userSpaceOnUse" maskUnits="objectBoundingBox" x="0" y="0" width="88.5" height="77" fill="white">
            <use xlink:href="#path-75"></use>
        </mask>
    </defs>
    <g id="Website-2.0" stroke="none" stroke-width="1" fill="none" fill-rule="evenodd">
        <g id="illustration-offer-copy">
            <g id="illustration-offer" transform="translate(100.000000, 100.000000)">
                <path d="M598.25,210.25 L567.00008,210.25 C560.093416,210.25 554.5,215.846435 554.5,222.749987 L554.5,235.250013 C554.5,242.156131 560.096476,247.75 567.00008,247.75 L598.25,247.75 L598.25,278.99992 C598.25,285.906584 603.846435,291.5 610.749987,291.5 L623.250013,291.5 C630.156131,291.5 635.75,285.903524 635.75,278.99992 L635.75,247.75 L666.99992,247.75 C673.906584,247.75 679.5,242.153565 679.5,235.250013 L679.5,222.749987 C679.5,215.843869 673.903524,210.25 666.99992,210.25 L635.75,210.25 L635.75,179.00008 C635.75,172.093416 630.153565,166.5 623.250013,166.5 L610.749987,166.5 C603.843869,166.5 598.25,172.096476 598.25,179.00008 L598.25,210.25 Z" id="Combined-Shape" fill="#5C38E3"></path>
                <path d="M1409,243.999987 C1409,237.096435 1414.59342,231.5 1421.50008,231.5 L1521.49992,231.5 C1528.40352,231.5 1534,237.093869 1534,243.999987 L1534,256.500013 C1534,263.403565 1528.40658,269 1521.49992,269 L1421.50008,269 C1414.59648,269 1409,263.406131 1409,256.500013 L1409,243.999987 Z M1409,178.999987 C1409,172.096435 1414.59342,166.5 1421.50008,166.5 L1521.49992,166.5 C1528.40352,166.5 1534,172.093869 1534,178.999987 L1534,191.500013 C1534,198.403565 1528.40658,204 1521.49992,204 L1421.50008,204 C1414.59648,204 1409,198.406131 1409,191.500013 L1409,178.999987 Z" id="Combined-Shape" fill="#5C38E3"></path>
                <g id="time">
                    <g id="illustration-calendar">
                        <g id="Oval-13">
                            <use fill="#E7E7E8" fill-rule="evenodd" xlink:href="#path-1"></use>
                            <use stroke="#F4F4F5" mask="url(#mask-2)" stroke-width="96" xlink:href="#path-1"></use>
                        </g>
                        <g id="background-shapes">
                            <use id="Oval-14" stroke="#5C38E3" mask="url(#mask-4)" stroke-width="10" fill="#F4F4F5" xlink:href="#path-3"></use>
                            <use id="Oval-14-Copy-3" stroke="#D3D2D7" mask="url(#mask-6)" stroke-width="10" fill="#F4F4F5" xlink:href="#path-5"></use>
                            <use id="Oval-14-Copy-4" stroke="#D3D2D7" mask="url(#mask-8)" stroke-width="10" fill="#F4F4F5" xlink:href="#path-7"></use>
                            <use id="Oval-14-Copy" stroke="#D3D2D7" mask="url(#mask-10)" stroke-width="10" fill="#F4F4F5" xlink:href="#path-9"></use>
                            <use id="Oval-14-Copy-5" stroke="#D3D2D7" mask="url(#mask-12)" stroke-width="10" fill="#F4F4F5" xlink:href="#path-11"></use>
                            <use id="Oval-14-Copy-2" stroke="#5C38E3" mask="url(#mask-14)" stroke-width="10" fill="#F4F4F5" xlink:href="#path-13"></use>
                            <path d="M215.25,69.75 L215.25,65.2461758 C215.25,63.4605192 213.794925,62 212,62 C210.208727,62 208.75,63.4533624 208.75,65.2461758 L208.75,69.75 L204.246176,69.75 C202.460519,69.75 201,71.2050746 201,73 C201,74.7912731 202.453362,76.25 204.246176,76.25 L208.75,76.25 L208.75,80.7538242 C208.75,82.5394808 210.205075,84 212,84 C213.791273,84 215.25,82.5466376 215.25,80.7538242 L215.25,76.25 L219.753824,76.25 C221.539481,76.25 223,74.7949254 223,73 C223,71.2087269 221.546638,69.75 219.753824,69.75 L215.25,69.75 Z" id="Combined-Shape" fill="#D8D8D8" transform="translate(212.000000, 73.000000) rotate(5.000000) translate(-212.000000, -73.000000) "></path>
                            <path d="M371.659091,402.840909 L371.659091,399.155962 C371.659091,397.68103 370.468575,396.5 369,396.5 C367.534413,396.5 366.340909,397.689115 366.340909,399.155962 L366.340909,402.840909 L362.655962,402.840909 C361.18103,402.840909 360,404.031425 360,405.5 C360,406.965587 361.189115,408.159091 362.655962,408.159091 L366.340909,408.159091 L366.340909,411.844038 C366.340909,413.31897 367.531425,414.5 369,414.5 C370.465587,414.5 371.659091,413.310885 371.659091,411.844038 L371.659091,408.159091 L375.344038,408.159091 C376.81897,408.159091 378,406.968575 378,405.5 C378,404.034413 376.810885,402.840909 375.344038,402.840909 L371.659091,402.840909 Z" id="Combined-Shape-Copy" fill="#5C38E3" transform="translate(369.000000, 405.500000) rotate(10.000000) translate(-369.000000, -405.500000) "></path>
                            <path d="M81.1590909,443.840909 L81.1590909,440.155962 C81.1590909,438.68103 79.9685754,437.5 78.5,437.5 C77.0344129,437.5 75.8409091,438.689115 75.8409091,440.155962 L75.8409091,443.840909 L72.155962,443.840909 C70.6810303,443.840909 69.5,445.031425 69.5,446.5 C69.5,447.965587 70.6891147,449.159091 72.155962,449.159091 L75.8409091,449.159091 L75.8409091,452.844038 C75.8409091,454.31897 77.0314246,455.5 78.5,455.5 C79.9655871,455.5 81.1590909,454.310885 81.1590909,452.844038 L81.1590909,449.159091 L84.844038,449.159091 C86.3189697,449.159091 87.5,447.968575 87.5,446.5 C87.5,445.034413 86.3108853,443.840909 84.844038,443.840909 L81.1590909,443.840909 Z" id="Combined-Shape-Copy-3" fill="#D8D8D8" transform="translate(78.500000, 446.500000) rotate(-15.000000) translate(-78.500000, -446.500000) "></path>
                            <path d="M371.659091,196.340909 L371.659091,192.655962 C371.659091,191.18103 370.468575,190 369,190 C367.534413,190 366.340909,191.189115 366.340909,192.655962 L366.340909,196.340909 L362.655962,196.340909 C361.18103,196.340909 360,197.531425 360,199 C360,200.465587 361.189115,201.659091 362.655962,201.659091 L366.340909,201.659091 L366.340909,205.344038 C366.340909,206.81897 367.531425,208 369,208 C370.465587,208 371.659091,206.810885 371.659091,205.344038 L371.659091,201.659091 L375.344038,201.659091 C376.81897,201.659091 378,200.468575 378,199 C378,197.534413 376.810885,196.340909 375.344038,196.340909 L371.659091,196.340909 Z" id="Combined-Shape-Copy-2" fill="#5C38E3" transform="translate(369.000000, 199.000000) rotate(10.000000) translate(-369.000000, -199.000000) "></path>
                            <path d="M63.1590909,105.840909 L63.1590909,102.155962 C63.1590909,100.68103 61.9685754,99.5 60.5,99.5 C59.0344129,99.5 57.8409091,100.689115 57.8409091,102.155962 L57.8409091,105.840909 L54.155962,105.840909 C52.6810303,105.840909 51.5,107.031425 51.5,108.5 C51.5,109.965587 52.6891147,111.159091 54.155962,111.159091 L57.8409091,111.159091 L57.8409091,114.844038 C57.8409091,116.31897 59.0314246,117.5 60.5,117.5 C61.9655871,117.5 63.1590909,116.310885 63.1590909,114.844038 L63.1590909,111.159091 L66.844038,111.159091 C68.3189697,111.159091 69.5,109.968575 69.5,108.5 C69.5,107.034413 68.3108853,105.840909 66.844038,105.840909 L63.1590909,105.840909 Z" id="Combined-Shape-Copy-4" fill="#5C38E3" transform="translate(60.500000, 108.500000) rotate(-20.000000) translate(-60.500000, -108.500000) "></path>
                        </g>
                        <g transform="translate(63.000000, 114.500000)">
                            <rect id="Rectangle-46" x="0" y="0" width="256" height="256"></rect>
                            <g id="Group" transform="translate(0.000000, 25.000000)">
                                <rect id="Rectangle-31" fill="#938F9F" x="0" y="0" width="256" height="231" rx="12.5"></rect>
                                <rect id="Rectangle-31-Copy" fill="#FFFFFF" x="5" y="64" width="246" height="162"></rect>
                                <use id="Rectangle-32" stroke="#E7E7E8" mask="url(#mask-16)" stroke-width="7" xlink:href="#path-15"></use>
                                <path d="M74.5,178.82522 L74.5,169.473969 L97.6495205,149.784652 C99.96136,147.873666 101.913898,146.127177 103.507193,144.545132 C105.100487,142.963087 106.396973,141.467215 107.396687,140.057471 C108.396401,138.647728 109.114935,137.269333 109.55231,135.922245 C109.989685,134.575157 110.20837,133.118444 110.20837,131.552062 C110.20837,128.231333 109.16962,125.654674 107.092088,123.822008 C105.014557,121.989342 102.445017,121.073022 99.3833915,121.073022 C96.3217662,121.073022 93.6194537,121.911024 91.2763731,123.587052 C88.9332926,125.26308 86.4496644,127.792748 83.8254141,131.176133 L75.4840889,124.644354 C77.0773837,122.388765 78.7097054,120.383827 80.3811029,118.629479 C82.0525004,116.875132 83.8566454,115.402756 85.793592,114.212306 C87.7305386,113.021856 89.8705201,112.105536 92.2136007,111.46332 C94.5566813,110.821103 97.2277531,110.5 100.226896,110.5 C103.475968,110.5 106.467256,110.977739 109.20085,111.933232 C111.934444,112.888725 114.27749,114.251456 116.230057,116.021467 C118.182624,117.791478 119.697793,119.913893 120.77561,122.388776 C121.853427,124.863659 122.392328,127.604786 122.392328,130.612238 L122.392328,130.800203 C122.392328,133.431724 122.040871,135.82042 121.337947,137.966362 C120.635023,140.112305 119.565032,142.179898 118.127942,144.169202 C116.690853,146.158507 114.871088,148.163445 112.668592,150.184077 C110.466096,152.204709 107.896556,154.436769 104.959895,156.880325 L91.135789,168.440162 L123.095248,168.440162 L123.095248,178.82522 L74.5,178.82522 Z M132.748692,168.158215 L140.996295,160.451657 C143.433098,163.333798 146.041689,165.5267 148.822145,167.030426 C151.6026,168.534152 154.882864,169.286004 158.663034,169.286004 C161.974588,169.286004 164.739382,168.354021 166.957498,166.490027 C169.175614,164.626033 170.284656,162.159019 170.284656,159.088911 L170.284656,158.900947 C170.284656,155.580218 168.894449,153.019222 166.113993,151.217884 C163.333537,149.416545 159.569044,148.515889 154.820401,148.515889 L149.33762,148.515889 L147.416303,141.091278 L165.551656,121.77789 L136.497602,121.77789 L136.497602,111.439824 L180.922188,111.439824 L180.922188,120.321163 L162.224499,139.540568 C164.786267,139.853844 167.246465,140.44906 169.605166,141.326234 C171.963867,142.203408 174.056987,143.378176 175.88459,144.850575 C177.712193,146.322973 179.188312,148.186939 180.31299,150.442529 C181.437669,152.698118 182,155.392254 182,158.525017 L182,158.712982 C182,161.783089 181.422049,164.633861 180.266129,167.265382 C179.110209,169.896903 177.509128,172.144627 175.462838,174.008621 C173.416547,175.872615 170.940729,177.337159 168.03531,178.402299 C165.12989,179.467438 161.943348,180 158.475588,180 C152.602266,180 147.564719,178.887886 143.362794,176.663624 C139.16087,174.439362 135.622871,171.604254 132.748692,168.158215 Z" id="23" fill="#5C38E3"></path>
                                <rect id="Rectangle-33" fill="#272040" x="5" y="5" width="246" height="49" rx="7.5"></rect>
                            </g>
                            <g id="Rectangle-34">
                                <use fill="#FFFFFF" fill-rule="evenodd" xlink:href="#path-17"></use>
                                <use stroke="#938F9F" mask="url(#mask-18)" stroke-width="10" xlink:href="#path-17"></use>
                            </g>
                            <g id="Rectangle-34-Copy">
                                <use fill="#FFFFFF" fill-rule="evenodd" xlink:href="#path-19"></use>
                                <use stroke="#938F9F" mask="url(#mask-20)" stroke-width="10" xlink:href="#path-19"></use>
                            </g>
                            <rect id="Rectangle-35" fill="#E7E7E8" x="5" y="84" width="246" height="5"></rect>
                            <rect id="Rectangle-35-Copy" fill="#524D66" x="5" y="79" width="246" height="5"></rect>
                        </g>
                    </g>
                    <path d="M50.40625,584 L50.40625,548.875 L42.59375,550.78125 L40.53125,542.71875 L53.40625,538.875 L60.125,538.875 L60.125,584 L50.40625,584 Z M90.5625,584 L90.5625,539.1875 L101.1875,539.1875 L112.96875,558.15625 L124.75,539.1875 L135.375,539.1875 L135.375,584 L125.5625,584 L125.5625,554.75 L112.96875,573.875 L112.71875,573.875 L100.21875,554.9375 L100.21875,584 L90.5625,584 Z M167.84375,584.78125 C164.468733,584.78125 161.29689,584.177089 158.328125,582.96875 C155.35936,581.760411 152.84376,580.119802 150.78125,578.046875 C148.71874,575.973948 147.093756,573.520847 145.90625,570.6875 C144.718744,567.854153 144.125,564.864599 144.125,561.71875 L144.125,561.59375 C144.125,558.447901 144.723952,555.453139 145.921875,552.609375 C147.119798,549.765611 148.760406,547.302094 150.84375,545.21875 C152.927094,543.135406 155.458318,541.484381 158.4375,540.265625 C161.416682,539.046869 164.593733,538.4375 167.96875,538.4375 C172.468773,538.4375 176.541648,539.46874 180.1875,541.53125 C183.833352,543.59376 186.666657,546.380191 188.6875,549.890625 C190.708343,553.401059 191.71875,557.260396 191.71875,561.46875 L191.71875,561.59375 C191.71875,564.739599 191.114589,567.734361 189.90625,570.578125 C188.697911,573.421889 187.052094,575.885406 184.96875,577.96875 C182.885406,580.052094 180.354182,581.708327 177.375,582.9375 C174.395818,584.166673 171.218767,584.78125 167.84375,584.78125 Z M167.96875,575.6875 C170.552096,575.6875 172.880198,575.057298 174.953125,573.796875 C177.026052,572.536452 178.624994,570.843761 179.75,568.71875 C180.875006,566.593739 181.4375,564.260429 181.4375,561.71875 L181.4375,561.59375 C181.4375,557.697897 180.151055,554.380222 177.578125,551.640625 C175.005195,548.901028 171.760436,547.53125 167.84375,547.53125 C165.260404,547.53125 162.93751,548.156244 160.875,549.40625 C158.81249,550.656256 157.218756,552.343739 156.09375,554.46875 C154.968744,556.593761 154.40625,558.927071 154.40625,561.46875 L154.40625,561.59375 C154.40625,564.135429 154.979161,566.479156 156.125,568.625 C157.270839,570.770844 158.885406,572.484369 160.96875,573.765625 C163.052094,575.046881 165.385404,575.6875 167.96875,575.6875 Z M200.46875,584 L200.46875,539.1875 L209.5625,539.1875 L230.5625,566.78125 L230.5625,539.1875 L240.28125,539.1875 L240.28125,584 L231.90625,584 L210.1875,555.53125 L210.1875,584 L200.46875,584 Z M261.4375,584 L261.4375,548.28125 L247.8125,548.28125 L247.8125,539.1875 L284.90625,539.1875 L284.90625,548.28125 L271.28125,548.28125 L271.28125,584 L261.4375,584 Z M292.46875,584 L292.46875,539.1875 L302.3125,539.1875 L302.3125,556.9375 L320.5,556.9375 L320.5,539.1875 L330.34375,539.1875 L330.34375,584 L320.5,584 L320.5,566.03125 L302.3125,566.03125 L302.3125,584 L292.46875,584 Z" id="1-MONTH" fill="#1A1529"></path>
                </g>
                <g id="cost" transform="translate(854.500000, 0.000000)">
                    <g id="illustration-basket">
                        <g id="Oval-13">
                            <use fill="#E7E7E8" fill-rule="evenodd" xlink:href="#path-21"></use>
                            <use stroke="#F4F4F5" mask="url(#mask-22)" stroke-width="96" xlink:href="#path-21"></use>
                        </g>
                        <g id="background-shapes" transform="translate(189.750000, 229.000000) scale(1, -1) translate(-189.750000, -229.000000) ">
                            <use id="Oval-14" stroke="#5C38E3" mask="url(#mask-24)" stroke-width="10" fill="#F4F4F5" xlink:href="#path-23"></use>
                            <use id="Oval-14-Copy-3" stroke="#D3D2D7" mask="url(#mask-26)" stroke-width="10" fill="#F4F4F5" xlink:href="#path-25"></use>
                            <use id="Oval-14-Copy-4" stroke="#D3D2D7" mask="url(#mask-28)" stroke-width="10" fill="#F4F4F5" xlink:href="#path-27"></use>
                            <use id="Oval-14-Copy" stroke="#D3D2D7" mask="url(#mask-30)" stroke-width="10" fill="#F4F4F5" xlink:href="#path-29"></use>
                            <use id="Oval-14-Copy-5" stroke="#D3D2D7" mask="url(#mask-32)" stroke-width="10" fill="#F4F4F5" xlink:href="#path-31"></use>
                            <use id="Oval-14-Copy-2" stroke="#5C38E3" mask="url(#mask-34)" stroke-width="10" fill="#F4F4F5" xlink:href="#path-33"></use>
                            <path d="M215.25,69.75 L215.25,65.2461758 C215.25,63.4605192 213.794925,62 212,62 C210.208727,62 208.75,63.4533624 208.75,65.2461758 L208.75,69.75 L204.246176,69.75 C202.460519,69.75 201,71.2050746 201,73 C201,74.7912731 202.453362,76.25 204.246176,76.25 L208.75,76.25 L208.75,80.7538242 C208.75,82.5394808 210.205075,84 212,84 C213.791273,84 215.25,82.5466376 215.25,80.7538242 L215.25,76.25 L219.753824,76.25 C221.539481,76.25 223,74.7949254 223,73 C223,71.2087269 221.546638,69.75 219.753824,69.75 L215.25,69.75 Z" id="Combined-Shape" fill="#D8D8D8" transform="translate(212.000000, 73.000000) rotate(5.000000) translate(-212.000000, -73.000000) "></path>
                            <path d="M371.659091,402.840909 L371.659091,399.155962 C371.659091,397.68103 370.468575,396.5 369,396.5 C367.534413,396.5 366.340909,397.689115 366.340909,399.155962 L366.340909,402.840909 L362.655962,402.840909 C361.18103,402.840909 360,404.031425 360,405.5 C360,406.965587 361.189115,408.159091 362.655962,408.159091 L366.340909,408.159091 L366.340909,411.844038 C366.340909,413.31897 367.531425,414.5 369,414.5 C370.465587,414.5 371.659091,413.310885 371.659091,411.844038 L371.659091,408.159091 L375.344038,408.159091 C376.81897,408.159091 378,406.968575 378,405.5 C378,404.034413 376.810885,402.840909 375.344038,402.840909 L371.659091,402.840909 Z" id="Combined-Shape-Copy" fill="#5C38E3" transform="translate(369.000000, 405.500000) rotate(10.000000) translate(-369.000000, -405.500000) "></path>
                            <path d="M81.1590909,443.840909 L81.1590909,440.155962 C81.1590909,438.68103 79.9685754,437.5 78.5,437.5 C77.0344129,437.5 75.8409091,438.689115 75.8409091,440.155962 L75.8409091,443.840909 L72.155962,443.840909 C70.6810303,443.840909 69.5,445.031425 69.5,446.5 C69.5,447.965587 70.6891147,449.159091 72.155962,449.159091 L75.8409091,449.159091 L75.8409091,452.844038 C75.8409091,454.31897 77.0314246,455.5 78.5,455.5 C79.9655871,455.5 81.1590909,454.310885 81.1590909,452.844038 L81.1590909,449.159091 L84.844038,449.159091 C86.3189697,449.159091 87.5,447.968575 87.5,446.5 C87.5,445.034413 86.3108853,443.840909 84.844038,443.840909 L81.1590909,443.840909 Z" id="Combined-Shape-Copy-3" fill="#D8D8D8" transform="translate(78.500000, 446.500000) rotate(-15.000000) translate(-78.500000, -446.500000) "></path>
                            <path d="M371.659091,196.340909 L371.659091,192.655962 C371.659091,191.18103 370.468575,190 369,190 C367.534413,190 366.340909,191.189115 366.340909,192.655962 L366.340909,196.340909 L362.655962,196.340909 C361.18103,196.340909 360,197.531425 360,199 C360,200.465587 361.189115,201.659091 362.655962,201.659091 L366.340909,201.659091 L366.340909,205.344038 C366.340909,206.81897 367.531425,208 369,208 C370.465587,208 371.659091,206.810885 371.659091,205.344038 L371.659091,201.659091 L375.344038,201.659091 C376.81897,201.659091 378,200.468575 378,199 C378,197.534413 376.810885,196.340909 375.344038,196.340909 L371.659091,196.340909 Z" id="Combined-Shape-Copy-2" fill="#5C38E3" transform="translate(369.000000, 199.000000) rotate(10.000000) translate(-369.000000, -199.000000) "></path>
                            <path d="M63.1590909,105.840909 L63.1590909,102.155962 C63.1590909,100.68103 61.9685754,99.5 60.5,99.5 C59.0344129,99.5 57.8409091,100.689115 57.8409091,102.155962 L57.8409091,105.840909 L54.155962,105.840909 C52.6810303,105.840909 51.5,107.031425 51.5,108.5 C51.5,109.965587 52.6891147,111.159091 54.155962,111.159091 L57.8409091,111.159091 L57.8409091,114.844038 C57.8409091,116.31897 59.0314246,117.5 60.5,117.5 C61.9655871,117.5 63.1590909,116.310885 63.1590909,114.844038 L63.1590909,111.159091 L66.844038,111.159091 C68.3189697,111.159091 69.5,109.968575 69.5,108.5 C69.5,107.034413 68.3108853,105.840909 66.844038,105.840909 L63.1590909,105.840909 Z" id="Combined-Shape-Copy-4" fill="#5C38E3" transform="translate(60.500000, 108.500000) rotate(-20.000000) translate(-60.500000, -108.500000) "></path>
                        </g>
                        <g id="basket-items" transform="translate(94.000000, 228.000000)">
                            <rect id="Rectangle-43" fill="#FFFFFF" x="0" y="0" width="189" height="101.5"></rect>
                            <use id="Oval-9-Copy-4" stroke="#272040" mask="url(#mask-36)" stroke-width="10" fill="#5C38E3" xlink:href="#path-35"></use>
                            <use id="Oval-9" stroke="#D3D2D7" mask="url(#mask-38)" stroke-width="10" fill="#5C38E3" xlink:href="#path-37"></use>
                            <g id="Group-2" transform="translate(50.500000, 51.500000)">
                                <rect id="Rectangle-41" fill="#D3D2D7" x="0" y="0" width="46.5" height="30.5" rx="5"></rect>
                                <rect id="Rectangle-42" fill="#5C38E3" x="5.5" y="4.5" width="12.5" height="5" rx="2"></rect>
                                <rect id="Rectangle-42-Copy" fill="#1A1529" x="5.5" y="12.5" width="35.5" height="5" rx="2"></rect>
                                <rect id="Rectangle-42-Copy-2" fill="#1A1529" x="5.5" y="20.5" width="35.5" height="5" rx="2"></rect>
                                <g id="Group" transform="translate(5.500000, 4.500000)"></g>
                            </g>
                            <g id="Group-2-Copy" transform="translate(105.000000, 62.500000)">
                                <rect id="Rectangle-41" fill="#D3D2D7" x="0" y="0" width="46.5" height="30.5" rx="5"></rect>
                                <rect id="Rectangle-42" fill="#5C38E3" x="5.5" y="4.5" width="12.5" height="5" rx="2"></rect>
                                <rect id="Rectangle-42-Copy" fill="#1A1529" x="5.5" y="12.5" width="35.5" height="5" rx="2"></rect>
                                <rect id="Rectangle-42-Copy-2" fill="#1A1529" x="5.5" y="20.5" width="35.5" height="5" rx="2"></rect>
                                <g id="Group" transform="translate(5.500000, 4.500000)"></g>
                            </g>
                            <use id="Oval-9-Copy" stroke="#D3D2D7" mask="url(#mask-40)" stroke-width="10" fill="#5C38E3" xlink:href="#path-39"></use>
                            <use id="Oval-9-Copy-3" stroke="#272040" mask="url(#mask-42)" stroke-width="10" fill="#5C38E3" xlink:href="#path-41"></use>
                            <use id="Oval-9-Copy-2" stroke="#D3D2D7" mask="url(#mask-44)" stroke-width="10" fill="#5C38E3" xlink:href="#path-43"></use>
                            <g id="Group-2-Copy-2" transform="translate(142.500000, 40.500000)">
                                <rect id="Rectangle-41" fill="#D3D2D7" x="0" y="0" width="46.5" height="30.5" rx="5"></rect>
                                <rect id="Rectangle-42" fill="#5C38E3" x="5.5" y="4.5" width="12.5" height="5" rx="2"></rect>
                                <rect id="Rectangle-42-Copy" fill="#1A1529" x="5.5" y="12.5" width="35.5" height="5" rx="2"></rect>
                                <rect id="Rectangle-42-Copy-2" fill="#1A1529" x="5.5" y="20.5" width="35.5" height="5" rx="2"></rect>
                                <g id="Group" transform="translate(5.500000, 4.500000)"></g>
                            </g>
                        </g>
                        <use id="Combined-Shape" stroke="#938F9F" mask="url(#mask-46)" stroke-width="10" fill="#272040" xlink:href="#path-45"></use>
                        <use id="Rectangle-37" stroke="#938F9F" mask="url(#mask-48)" stroke-width="10" fill="#272040" xlink:href="#path-47"></use>
                        <g id="Group" transform="translate(127.000000, 250.000000)"></g>
                        <g id="Group-2" transform="translate(137.250000, 159.250000) rotate(45.000000) translate(-137.250000, -159.250000) translate(126.000000, 96.500000)" stroke="#938F9F" stroke-width="10" fill="#FFFFFF">
                            <use id="Rectangle-38" mask="url(#mask-50)" xlink:href="#path-49"></use>
                        </g>
                        <g id="Group-2-Copy" transform="translate(241.750000, 159.250000) scale(-1, 1) rotate(45.000000) translate(-241.750000, -159.250000) translate(230.500000, 96.500000)" stroke="#938F9F" stroke-width="10" fill="#FFFFFF">
                            <use id="Rectangle-38" mask="url(#mask-52)" xlink:href="#path-51"></use>
                        </g>
                        <rect id="Rectangle-46" x="61.5" y="89" width="256" height="256"></rect>
                    </g>
                    <path d="M140.46875,544.0625 L136.1875,551.5625 C133.479153,549.749991 130.833346,548.489587 128.25,547.78125 L128.25,557.5 C133.145858,558.83334 136.687489,560.562489 138.875,562.6875 C141.062511,564.812511 142.15625,567.645816 142.15625,571.1875 L142.15625,571.3125 C142.15625,574.833351 140.916679,577.708322 138.4375,579.9375 C135.958321,582.166678 132.666687,583.499998 128.5625,583.9375 L128.5625,590.28125 L121.90625,590.28125 L121.90625,583.8125 C116.239555,583.062496 111.208355,581.031267 106.8125,577.71875 L111.8125,570.4375 C115.479185,573.208347 118.958317,574.937497 122.25,575.625 L122.25,565.4375 C119.854155,564.791663 117.833342,564.088545 116.1875,563.328125 C114.541658,562.567705 113.119798,561.656255 111.921875,560.59375 C110.723952,559.531245 109.848961,558.286465 109.296875,556.859375 C108.744789,555.432285 108.46875,553.770843 108.46875,551.875 L108.46875,551.75 C108.46875,548.270816 109.687488,545.41147 112.125,543.171875 C114.562512,540.93228 117.822896,539.604169 121.90625,539.1875 L121.90625,535.5 L128.5625,535.5 L128.5625,539.40625 C132.750021,539.927086 136.718731,541.479154 140.46875,544.0625 Z M132.8125,571.71875 C132.8125,570.635411 132.473962,569.72917 131.796875,569 C131.119788,568.27083 129.937508,567.593753 128.25,566.96875 L128.25,575.9375 C131.291682,575.499998 132.8125,574.135428 132.8125,571.84375 L132.8125,571.71875 Z M117.8125,551.28125 C117.8125,552.364589 118.124997,553.249997 118.75,553.9375 C119.375003,554.625003 120.541658,555.281247 122.25,555.90625 L122.25,547.1875 C119.291652,547.541668 117.8125,548.864572 117.8125,551.15625 L117.8125,551.28125 Z M156.75,584 L156.75,548.875 L148.9375,550.78125 L146.875,542.71875 L159.75,538.875 L166.46875,538.875 L166.46875,584 L156.75,584 Z M195.625,584.78125 C192.687485,584.78125 189.973971,584.187506 187.484375,583 C184.994779,581.812494 182.90105,580.18751 181.203125,578.125 C179.5052,576.06249 178.182296,573.619806 177.234375,570.796875 C176.286454,567.973944 175.8125,564.947933 175.8125,561.71875 L175.8125,561.59375 C175.8125,557.281228 176.640617,553.369809 178.296875,549.859375 C179.953133,546.348941 182.307276,543.567719 185.359375,541.515625 C188.411474,539.463531 191.885397,538.4375 195.78125,538.4375 C199.656269,538.4375 203.10936,539.453115 206.140625,541.484375 C209.17189,543.515635 211.5052,546.276024 213.140625,549.765625 C214.77605,553.255226 215.59375,557.156228 215.59375,561.46875 L215.59375,561.59375 C215.59375,565.906272 214.770842,569.822899 213.125,573.34375 C211.479158,576.864601 209.125015,579.651031 206.0625,581.703125 C202.999985,583.755219 199.520853,584.78125 195.625,584.78125 Z M195.78125,575.875 C198.697931,575.875 201.046866,574.546888 202.828125,571.890625 C204.609384,569.234362 205.5,565.843771 205.5,561.71875 L205.5,561.59375 C205.5,557.489563 204.583343,554.083347 202.75,551.375 C200.916657,548.666653 198.541681,547.3125 195.625,547.3125 C192.708319,547.3125 190.359384,548.635403 188.578125,551.28125 C186.796866,553.927097 185.90625,557.322896 185.90625,561.46875 L185.90625,561.59375 C185.90625,565.739604 186.817699,569.156237 188.640625,571.84375 C190.463551,574.531263 192.843735,575.875 195.78125,575.875 Z M224.4375,584 L224.4375,539.1875 L234.28125,539.1875 L234.28125,558.78125 L252.46875,539.1875 L264.375,539.1875 L246.125,558.21875 L265.21875,584 L253.375,584 L239.46875,564.9375 L234.28125,570.3125 L234.28125,584 L224.4375,584 Z" id="$10K" fill="#1A1529"></path>
                </g>
                <g id="bot" transform="translate(1709.000000, 0.000000)">
                    <g id="illustration-bot">
                        <g id="Oval-13">
                            <use fill="#E7E7E8" fill-rule="evenodd" xlink:href="#path-53"></use>
                            <use stroke="#F4F4F5" mask="url(#mask-54)" stroke-width="96" xlink:href="#path-53"></use>
                        </g>
                        <g id="background-shapes">
                            <use id="Oval-14" stroke="#5C38E3" mask="url(#mask-56)" stroke-width="10" fill="#F4F4F5" xlink:href="#path-55"></use>
                            <use id="Oval-14-Copy-3" stroke="#D3D2D7" mask="url(#mask-58)" stroke-width="10" fill="#F4F4F5" xlink:href="#path-57"></use>
                            <use id="Oval-14-Copy-4" stroke="#D3D2D7" mask="url(#mask-60)" stroke-width="10" fill="#F4F4F5" xlink:href="#path-59"></use>
                            <use id="Oval-14-Copy" stroke="#D3D2D7" mask="url(#mask-62)" stroke-width="10" fill="#F4F4F5" xlink:href="#path-61"></use>
                            <use id="Oval-14-Copy-5" stroke="#D3D2D7" mask="url(#mask-64)" stroke-width="10" fill="#F4F4F5" xlink:href="#path-63"></use>
                            <use id="Oval-14-Copy-2" stroke="#5C38E3" mask="url(#mask-66)" stroke-width="10" fill="#F4F4F5" xlink:href="#path-65"></use>
                            <path d="M215.25,69.75 L215.25,65.2461758 C215.25,63.4605192 213.794925,62 212,62 C210.208727,62 208.75,63.4533624 208.75,65.2461758 L208.75,69.75 L204.246176,69.75 C202.460519,69.75 201,71.2050746 201,73 C201,74.7912731 202.453362,76.25 204.246176,76.25 L208.75,76.25 L208.75,80.7538242 C208.75,82.5394808 210.205075,84 212,84 C213.791273,84 215.25,82.5466376 215.25,80.7538242 L215.25,76.25 L219.753824,76.25 C221.539481,76.25 223,74.7949254 223,73 C223,71.2087269 221.546638,69.75 219.753824,69.75 L215.25,69.75 Z" id="Combined-Shape" fill="#D8D8D8" transform="translate(212.000000, 73.000000) rotate(5.000000) translate(-212.000000, -73.000000) "></path>
                            <path d="M371.659091,402.840909 L371.659091,399.155962 C371.659091,397.68103 370.468575,396.5 369,396.5 C367.534413,396.5 366.340909,397.689115 366.340909,399.155962 L366.340909,402.840909 L362.655962,402.840909 C361.18103,402.840909 360,404.031425 360,405.5 C360,406.965587 361.189115,408.159091 362.655962,408.159091 L366.340909,408.159091 L366.340909,411.844038 C366.340909,413.31897 367.531425,414.5 369,414.5 C370.465587,414.5 371.659091,413.310885 371.659091,411.844038 L371.659091,408.159091 L375.344038,408.159091 C376.81897,408.159091 378,406.968575 378,405.5 C378,404.034413 376.810885,402.840909 375.344038,402.840909 L371.659091,402.840909 Z" id="Combined-Shape-Copy" fill="#5C38E3" transform="translate(369.000000, 405.500000) rotate(10.000000) translate(-369.000000, -405.500000) "></path>
                            <path d="M81.1590909,443.840909 L81.1590909,440.155962 C81.1590909,438.68103 79.9685754,437.5 78.5,437.5 C77.0344129,437.5 75.8409091,438.689115 75.8409091,440.155962 L75.8409091,443.840909 L72.155962,443.840909 C70.6810303,443.840909 69.5,445.031425 69.5,446.5 C69.5,447.965587 70.6891147,449.159091 72.155962,449.159091 L75.8409091,449.159091 L75.8409091,452.844038 C75.8409091,454.31897 77.0314246,455.5 78.5,455.5 C79.9655871,455.5 81.1590909,454.310885 81.1590909,452.844038 L81.1590909,449.159091 L84.844038,449.159091 C86.3189697,449.159091 87.5,447.968575 87.5,446.5 C87.5,445.034413 86.3108853,443.840909 84.844038,443.840909 L81.1590909,443.840909 Z" id="Combined-Shape-Copy-3" fill="#D8D8D8" transform="translate(78.500000, 446.500000) rotate(-15.000000) translate(-78.500000, -446.500000) "></path>
                            <path d="M371.659091,196.340909 L371.659091,192.655962 C371.659091,191.18103 370.468575,190 369,190 C367.534413,190 366.340909,191.189115 366.340909,192.655962 L366.340909,196.340909 L362.655962,196.340909 C361.18103,196.340909 360,197.531425 360,199 C360,200.465587 361.189115,201.659091 362.655962,201.659091 L366.340909,201.659091 L366.340909,205.344038 C366.340909,206.81897 367.531425,208 369,208 C370.465587,208 371.659091,206.810885 371.659091,205.344038 L371.659091,201.659091 L375.344038,201.659091 C376.81897,201.659091 378,200.468575 378,199 C378,197.534413 376.810885,196.340909 375.344038,196.340909 L371.659091,196.340909 Z" id="Combined-Shape-Copy-2" fill="#5C38E3" transform="translate(369.000000, 199.000000) rotate(10.000000) translate(-369.000000, -199.000000) "></path>
                            <path d="M63.1590909,105.840909 L63.1590909,102.155962 C63.1590909,100.68103 61.9685754,99.5 60.5,99.5 C59.0344129,99.5 57.8409091,100.689115 57.8409091,102.155962 L57.8409091,105.840909 L54.155962,105.840909 C52.6810303,105.840909 51.5,107.031425 51.5,108.5 C51.5,109.965587 52.6891147,111.159091 54.155962,111.159091 L57.8409091,111.159091 L57.8409091,114.844038 C57.8409091,116.31897 59.0314246,117.5 60.5,117.5 C61.9655871,117.5 63.1590909,116.310885 63.1590909,114.844038 L63.1590909,111.159091 L66.844038,111.159091 C68.3189697,111.159091 69.5,109.968575 69.5,108.5 C69.5,107.034413 68.3108853,105.840909 66.844038,105.840909 L63.1590909,105.840909 Z" id="Combined-Shape-Copy-4" fill="#5C38E3" transform="translate(60.500000, 108.500000) rotate(-20.000000) translate(-60.500000, -108.500000) "></path>
                        </g>
                        <g transform="translate(61.500000, 101.000000)">
                            <rect id="Rectangle-46" x="0" y="0" width="256" height="256"></rect>
                            <g id="face" transform="translate(4.000000, 21.000000)">
                                <use id="Rectangle-44" stroke="#938F9F" mask="url(#mask-68)" stroke-width="10" fill="#676279" xlink:href="#path-67"></use>
                                <use id="Rectangle-44-Copy" stroke="#938F9F" mask="url(#mask-70)" stroke-width="10" fill="#676279" xlink:href="#path-69"></use>
                                <use id="Rectangle-40" stroke="#938F9F" mask="url(#mask-72)" stroke-width="10" fill="#272040" xlink:href="#path-71"></use>
                                <path d="M102.348837,112 L166.4993,112 C189.697006,112 208.5,93.1959595 208.5,70 C208.5,46.7989404 189.695646,28 166.4993,28 L82.5006999,28 C59.3029941,28 40.5,46.8040405 40.5,70 C40.5,93.0338959 59.0343592,111.728879 82,111.997078 L82,121.995438 C82,126.140625 84.5468376,127.30972 87.688521,124.607872 L102.348837,112 Z" id="Combined-Shape" fill="#FFFFFF"></path>
                                <circle id="Oval-10" fill="#5C38E3" cx="83" cy="68.5" r="12.5"></circle>
                                <circle id="Oval-10-Copy" fill="#5C38E3" cx="166" cy="68.5" r="12.5"></circle>
                                <path d="M124.5,96 C134.164983,96 141.123037,80.2905663 141.123037,80.2905663 C141.60737,79.3016638 141.099654,78.5 139.992539,78.5 L109.007461,78.5 C107.898771,78.5 107.383362,79.3089639 107.876963,80.2905663 C107.876963,80.2905663 114.835017,96 124.5,96 Z" id="Oval-11" fill="#938F9F"></path>
                            </g>
                            <g id="body" transform="translate(84.500000, 173.500000)">
                                <use id="Rectangle-40-Copy-2" stroke="#938F9F" mask="url(#mask-74)" stroke-width="10" fill="#272040" xlink:href="#path-73"></use>
                                <use id="Rectangle-40-Copy-3" stroke="#938F9F" mask="url(#mask-76)" stroke-width="10" fill="#272040" xlink:href="#path-75"></use>
                                <circle id="Oval-12" fill="#FFFFFF" cx="23.75" cy="17.75" r="3.75"></circle>
                                <circle id="Oval-12-Copy" fill="#5C38E3" cx="35" cy="18" r="2.5"></circle>
                            </g>
                        </g>
                    </g>
                    <path d="M101.40625,584 L101.40625,548.875 L93.59375,550.78125 L91.53125,542.71875 L104.40625,538.875 L111.125,538.875 L111.125,584 L101.40625,584 Z M141.5625,584 L141.5625,539.1875 L162.375,539.1875 C167.520859,539.1875 171.416653,540.510403 174.0625,543.15625 C176.12501,545.21876 177.15625,547.760402 177.15625,550.78125 L177.15625,550.90625 C177.15625,555.135438 175.18752,558.354156 171.25,560.5625 C174.020847,561.604172 176.114576,562.984366 177.53125,564.703125 C178.947924,566.421884 179.65625,568.718736 179.65625,571.59375 L179.65625,571.71875 C179.65625,575.71877 178.156265,578.765615 175.15625,580.859375 C172.156235,582.953135 168.062526,584 162.875,584 L141.5625,584 Z M167.34375,552.5625 L167.34375,552.4375 C167.34375,550.958326 166.791672,549.822921 165.6875,549.03125 C164.583328,548.239579 162.989594,547.84375 160.90625,547.84375 L151.15625,547.84375 L151.15625,557.3125 L160.25,557.3125 C164.97919,557.3125 167.34375,555.729182 167.34375,552.5625 Z M169.84375,570.375 C169.84375,568.833326 169.244798,567.635421 168.046875,566.78125 C166.848952,565.927079 165.020846,565.5 162.5625,565.5 L151.15625,565.5 L151.15625,575.375 L162.875,575.375 C165.104178,575.375 166.822911,574.968754 168.03125,574.15625 C169.239589,573.343746 169.84375,572.125008 169.84375,570.5 L169.84375,570.375 Z M209.5,584.78125 C206.124983,584.78125 202.95314,584.177089 199.984375,582.96875 C197.01561,581.760411 194.50001,580.119802 192.4375,578.046875 C190.37499,575.973948 188.750006,573.520847 187.5625,570.6875 C186.374994,567.854153 185.78125,564.864599 185.78125,561.71875 L185.78125,561.59375 C185.78125,558.447901 186.380202,555.453139 187.578125,552.609375 C188.776048,549.765611 190.416656,547.302094 192.5,545.21875 C194.583344,543.135406 197.114568,541.484381 200.09375,540.265625 C203.072932,539.046869 206.249983,538.4375 209.625,538.4375 C214.125022,538.4375 218.197898,539.46874 221.84375,541.53125 C225.489602,543.59376 228.322907,546.380191 230.34375,549.890625 C232.364593,553.401059 233.375,557.260396 233.375,561.46875 L233.375,561.59375 C233.375,564.739599 232.770839,567.734361 231.5625,570.578125 C230.354161,573.421889 228.708344,575.885406 226.625,577.96875 C224.541656,580.052094 222.010432,581.708327 219.03125,582.9375 C216.052068,584.166673 212.875017,584.78125 209.5,584.78125 Z M209.625,575.6875 C212.208346,575.6875 214.536448,575.057298 216.609375,573.796875 C218.682302,572.536452 220.281244,570.843761 221.40625,568.71875 C222.531256,566.593739 223.09375,564.260429 223.09375,561.71875 L223.09375,561.59375 C223.09375,557.697897 221.807305,554.380222 219.234375,551.640625 C216.661445,548.901028 213.416686,547.53125 209.5,547.53125 C206.916654,547.53125 204.59376,548.156244 202.53125,549.40625 C200.46874,550.656256 198.875006,552.343739 197.75,554.46875 C196.624994,556.593761 196.0625,558.927071 196.0625,561.46875 L196.0625,561.59375 C196.0625,564.135429 196.635411,566.479156 197.78125,568.625 C198.927089,570.770844 200.541656,572.484369 202.625,573.765625 C204.708344,575.046881 207.041654,575.6875 209.625,575.6875 Z M252.5625,584 L252.5625,548.28125 L238.9375,548.28125 L238.9375,539.1875 L276.03125,539.1875 L276.03125,548.28125 L262.40625,548.28125 L262.40625,584 L252.5625,584 Z" id="1-BOT" fill="#1A1529"></path>
                </g>
            </g>
        </g>
    </g>
</svg>