<?xml version="1.0" encoding="UTF-8" standalone="no"?>
<svg width="512px" height="512px" viewBox="0 0 512 512" version="1.1" xmlns="http://www.w3.org/2000/svg" xmlns:xlink="http://www.w3.org/1999/xlink">
    <!-- Generator: Sketch 41.1 (35376) - http://www.bohemiancoding.com/sketch -->
    <title>illustration-pitch-1</title>
    <desc>Created with Sketch.</desc>
    <defs>
        <circle id="path-1" cx="233.5" cy="229" r="176"></circle>
        <mask id="mask-2" maskContentUnits="userSpaceOnUse" maskUnits="objectBoundingBox" x="-48" y="-48" width="448" height="448">
            <rect x="9.5" y="5" width="448" height="448" fill="white"></rect>
            <use xlink:href="#path-1" fill="black"></use>
        </mask>
        <circle id="path-3" cx="75" cy="354.5" r="10"></circle>
        <mask id="mask-4" maskContentUnits="userSpaceOnUse" maskUnits="objectBoundingBox" x="0" y="0" width="20" height="20" fill="white">
            <use xlink:href="#path-3"></use>
        </mask>
        <circle id="path-5" cx="287" cy="391.5" r="10"></circle>
        <mask id="mask-6" maskContentUnits="userSpaceOnUse" maskUnits="objectBoundingBox" x="0" y="0" width="20" height="20" fill="white">
            <use xlink:href="#path-5"></use>
        </mask>
        <circle id="path-7" cx="189.5" cy="10" r="10"></circle>
        <mask id="mask-8" maskContentUnits="userSpaceOnUse" maskUnits="objectBoundingBox" x="0" y="0" width="20" height="20" fill="white">
            <use xlink:href="#path-7"></use>
        </mask>
        <circle id="path-9" cx="7.5" cy="169" r="7.5"></circle>
        <mask id="mask-10" maskContentUnits="userSpaceOnUse" maskUnits="objectBoundingBox" x="0" y="0" width="15" height="15" fill="white">
            <use xlink:href="#path-9"></use>
        </mask>
        <circle id="path-11" cx="415" cy="300.5" r="7.5"></circle>
        <mask id="mask-12" maskContentUnits="userSpaceOnUse" maskUnits="objectBoundingBox" x="0" y="0" width="15" height="15" fill="white">
            <use xlink:href="#path-11"></use>
        </mask>
        <circle id="path-13" cx="395.5" cy="76.5" r="7.5"></circle>
        <mask id="mask-14" maskContentUnits="userSpaceOnUse" maskUnits="objectBoundingBox" x="0" y="0" width="15" height="15" fill="white">
            <use xlink:href="#path-13"></use>
        </mask>
        <rect id="path-15" x="-1.42108547e-14" y="56" width="25" height="25" rx="2"></rect>
        <mask id="mask-16" maskContentUnits="userSpaceOnUse" maskUnits="objectBoundingBox" x="0" y="0" width="25" height="25" fill="white">
            <use xlink:href="#path-15"></use>
        </mask>
        <rect id="path-17" x="224" y="56" width="25" height="25" rx="2"></rect>
        <mask id="mask-18" maskContentUnits="userSpaceOnUse" maskUnits="objectBoundingBox" x="0" y="0" width="25" height="25" fill="white">
            <use xlink:href="#path-17"></use>
        </mask>
        <rect id="path-19" x="12.5" y="-2.66453526e-14" width="224" height="140" rx="70"></rect>
        <mask id="mask-20" maskContentUnits="userSpaceOnUse" maskUnits="objectBoundingBox" x="0" y="0" width="224" height="140" fill="white">
            <use xlink:href="#path-19"></use>
        </mask>
        <rect id="path-21" x="0" y="0" width="88.5" height="77" rx="25"></rect>
        <mask id="mask-22" maskContentUnits="userSpaceOnUse" maskUnits="objectBoundingBox" x="0" y="0" width="88.5" height="77" fill="white">
            <use xlink:href="#path-21"></use>
        </mask>
        <rect id="path-23" x="0" y="0" width="88.5" height="77" rx="25"></rect>
        <mask id="mask-24" maskContentUnits="userSpaceOnUse" maskUnits="objectBoundingBox" x="0" y="0" width="88.5" height="77" fill="white">
            <use xlink:href="#path-23"></use>
        </mask>
    </defs>
    <g id="Illustrations" stroke="none" stroke-width="1" fill="none" fill-rule="evenodd">
        <g id="illustration-pitch-1">
            <g id="background-dark" transform="translate(22.500000, 27.000000)">
                <g id="Oval-13">
                    <use fill="#524D66" fill-rule="evenodd" xlink:href="#path-1"></use>
                    <use stroke="#7D798C" mask="url(#mask-2)" stroke-width="96" xlink:href="#path-1"></use>
                </g>
                <g id="background-shapes">
                    <use id="Oval-14" stroke="#5C38E3" mask="url(#mask-4)" stroke-width="10" fill="#7D798C" xlink:href="#path-3"></use>
                    <use id="Oval-14-Copy-3" stroke="#3C3653" mask="url(#mask-6)" stroke-width="10" fill="#7D798C" xlink:href="#path-5"></use>
                    <use id="Oval-14-Copy-4" stroke="#3C3653" mask="url(#mask-8)" stroke-width="10" fill="#7D798C" xlink:href="#path-7"></use>
                    <use id="Oval-14-Copy" stroke="#3C3653" mask="url(#mask-10)" stroke-width="10" fill="#7D798C" xlink:href="#path-9"></use>
                    <use id="Oval-14-Copy-5" stroke="#3C3653" mask="url(#mask-12)" stroke-width="10" fill="#7D798C" xlink:href="#path-11"></use>
                    <use id="Oval-14-Copy-2" stroke="#5C38E3" mask="url(#mask-14)" stroke-width="10" fill="#7D798C" xlink:href="#path-13"></use>
                    <path d="M280.25,69.75 L280.25,65.2461758 C280.25,63.4605192 278.794925,62 277,62 C275.208727,62 273.75,63.4533624 273.75,65.2461758 L273.75,69.75 L269.246176,69.75 C267.460519,69.75 266,71.2050746 266,73 C266,74.7912731 267.453362,76.25 269.246176,76.25 L273.75,76.25 L273.75,80.7538242 C273.75,82.5394808 275.205075,84 277,84 C278.791273,84 280.25,82.5466376 280.25,80.7538242 L280.25,76.25 L284.753824,76.25 C286.539481,76.25 288,74.7949254 288,73 C288,71.2087269 286.546638,69.75 284.753824,69.75 L280.25,69.75 Z" id="Combined-Shape" fill="#524D66" transform="translate(277.000000, 73.000000) rotate(5.000000) translate(-277.000000, -73.000000) "></path>
                    <path d="M436.659091,402.840909 L436.659091,399.155962 C436.659091,397.68103 435.468575,396.5 434,396.5 C432.534413,396.5 431.340909,397.689115 431.340909,399.155962 L431.340909,402.840909 L427.655962,402.840909 C426.18103,402.840909 425,404.031425 425,405.5 C425,406.965587 426.189115,408.159091 427.655962,408.159091 L431.340909,408.159091 L431.340909,411.844038 C431.340909,413.31897 432.531425,414.5 434,414.5 C435.465587,414.5 436.659091,413.310885 436.659091,411.844038 L436.659091,408.159091 L440.344038,408.159091 C441.81897,408.159091 443,406.968575 443,405.5 C443,404.034413 441.810885,402.840909 440.344038,402.840909 L436.659091,402.840909 Z" id="Combined-Shape-Copy" fill="#5C38E3" transform="translate(434.000000, 405.500000) rotate(10.000000) translate(-434.000000, -405.500000) "></path>
                    <path d="M146.159091,443.840909 L146.159091,440.155962 C146.159091,438.68103 144.968575,437.5 143.5,437.5 C142.034413,437.5 140.840909,438.689115 140.840909,440.155962 L140.840909,443.840909 L137.155962,443.840909 C135.68103,443.840909 134.5,445.031425 134.5,446.5 C134.5,447.965587 135.689115,449.159091 137.155962,449.159091 L140.840909,449.159091 L140.840909,452.844038 C140.840909,454.31897 142.031425,455.5 143.5,455.5 C144.965587,455.5 146.159091,454.310885 146.159091,452.844038 L146.159091,449.159091 L149.844038,449.159091 C151.31897,449.159091 152.5,447.968575 152.5,446.5 C152.5,445.034413 151.310885,443.840909 149.844038,443.840909 L146.159091,443.840909 Z" id="Combined-Shape-Copy-3" fill="#524D66" transform="translate(143.500000, 446.500000) rotate(-15.000000) translate(-143.500000, -446.500000) "></path>
                    <path d="M436.659091,196.340909 L436.659091,192.655962 C436.659091,191.18103 435.468575,190 434,190 C432.534413,190 431.340909,191.189115 431.340909,192.655962 L431.340909,196.340909 L427.655962,196.340909 C426.18103,196.340909 425,197.531425 425,199 C425,200.465587 426.189115,201.659091 427.655962,201.659091 L431.340909,201.659091 L431.340909,205.344038 C431.340909,206.81897 432.531425,208 434,208 C435.465587,208 436.659091,206.810885 436.659091,205.344038 L436.659091,201.659091 L440.344038,201.659091 C441.81897,201.659091 443,200.468575 443,199 C443,197.534413 441.810885,196.340909 440.344038,196.340909 L436.659091,196.340909 Z" id="Combined-Shape-Copy-2" fill="#5C38E3" transform="translate(434.000000, 199.000000) rotate(10.000000) translate(-434.000000, -199.000000) "></path>
                    <path d="M118.159091,85.8409091 L118.159091,82.155962 C118.159091,80.6810303 116.968575,79.5 115.5,79.5 C114.034413,79.5 112.840909,80.6891147 112.840909,82.155962 L112.840909,85.8409091 L109.155962,85.8409091 C107.68103,85.8409091 106.5,87.0314246 106.5,88.5 C106.5,89.9655871 107.689115,91.1590909 109.155962,91.1590909 L112.840909,91.1590909 L112.840909,94.844038 C112.840909,96.3189697 114.031425,97.5 115.5,97.5 C116.965587,97.5 118.159091,96.3108853 118.159091,94.844038 L118.159091,91.1590909 L121.844038,91.1590909 C123.31897,91.1590909 124.5,89.9685754 124.5,88.5 C124.5,87.0344129 123.310885,85.8409091 121.844038,85.8409091 L118.159091,85.8409091 Z" id="Combined-Shape-Copy-4" fill="#5C38E3" transform="translate(115.500000, 88.500000) rotate(-20.000000) translate(-115.500000, -88.500000) "></path>
                </g>
            </g>
            <g id="illustration-bot" transform="translate(117.500000, 123.500000)">
                <rect id="Rectangle-46" x="10" y="9" width="256" height="256"></rect>
                <g id="face" transform="translate(138.500000, 100.000000) rotate(15.000000) translate(-138.500000, -100.000000) translate(14.000000, 30.000000)">
                    <use id="Rectangle-44" stroke="#938F9F" mask="url(#mask-16)" stroke-width="10" fill="#676279" xlink:href="#path-15"></use>
                    <use id="Rectangle-44-Copy" stroke="#938F9F" mask="url(#mask-18)" stroke-width="10" fill="#676279" xlink:href="#path-17"></use>
                    <use id="Rectangle-40" stroke="#938F9F" mask="url(#mask-20)" stroke-width="10" fill="#272040" xlink:href="#path-19"></use>
                    <path d="M102.348837,112 L166.4993,112 C189.697006,112 208.5,93.1959595 208.5,70 C208.5,46.7989404 189.695646,28 166.4993,28 L82.5006999,28 C59.3029941,28 40.5,46.8040405 40.5,70 C40.5,93.0338959 59.0343592,111.728879 82,111.997078 L82,121.995438 C82,126.140625 84.5468376,127.30972 87.688521,124.607872 L102.348837,112 Z" id="Combined-Shape" fill="#FFFFFF"></path>
                    <circle id="Oval-10" fill="#5C38E3" cx="83" cy="68.5" r="12.5"></circle>
                    <circle id="Oval-10-Copy" fill="#5C38E3" cx="166" cy="68.5" r="12.5"></circle>
                    <circle id="Oval" fill="#938F9F" cx="124.508819" cy="85.7159258" r="11.25"></circle>
                </g>
                <g id="body" transform="translate(94.500000, 182.500000)">
                    <use id="Rectangle-40-Copy-2" stroke="#938F9F" mask="url(#mask-22)" stroke-width="10" fill="#272040" xlink:href="#path-21"></use>
                    <use id="Rectangle-40-Copy-3" stroke="#938F9F" mask="url(#mask-24)" stroke-width="10" fill="#272040" xlink:href="#path-23"></use>
                    <circle id="Oval-12" fill="#FFFFFF" cx="23.75" cy="17.75" r="3.75"></circle>
                    <circle id="Oval-12-Copy" fill="#5C38E3" cx="35" cy="18" r="2.5"></circle>
                </g>
            </g>
        </g>
    </g>
</svg>