<?xml version="1.0" encoding="UTF-8" standalone="no"?>
<svg width="512px" height="512px" viewBox="0 0 512 512" version="1.1" xmlns="http://www.w3.org/2000/svg" xmlns:xlink="http://www.w3.org/1999/xlink">
    <!-- Generator: Sketch 41.1 (35376) - http://www.bohemiancoding.com/sketch -->
    <title>illustration-process-3</title>
    <desc>Created with Sketch.</desc>
    <defs>
        <circle id="path-1" cx="233.5" cy="229" r="176"></circle>
        <mask id="mask-2" maskContentUnits="userSpaceOnUse" maskUnits="objectBoundingBox" x="-48" y="-48" width="448" height="448">
            <rect x="9.5" y="5" width="448" height="448" fill="white"></rect>
            <use xlink:href="#path-1" fill="black"></use>
        </mask>
        <circle id="path-3" cx="75" cy="354.5" r="10"></circle>
        <mask id="mask-4" maskContentUnits="userSpaceOnUse" maskUnits="objectBoundingBox" x="0" y="0" width="20" height="20" fill="white">
            <use xlink:href="#path-3"></use>
        </mask>
        <circle id="path-5" cx="287" cy="406.5" r="10"></circle>
        <mask id="mask-6" maskContentUnits="userSpaceOnUse" maskUnits="objectBoundingBox" x="0" y="0" width="20" height="20" fill="white">
            <use xlink:href="#path-5"></use>
        </mask>
        <circle id="path-7" cx="189.5" cy="10" r="10"></circle>
        <mask id="mask-8" maskContentUnits="userSpaceOnUse" maskUnits="objectBoundingBox" x="0" y="0" width="20" height="20" fill="white">
            <use xlink:href="#path-7"></use>
        </mask>
        <circle id="path-9" cx="7.5" cy="169" r="7.5"></circle>
        <mask id="mask-10" maskContentUnits="userSpaceOnUse" maskUnits="objectBoundingBox" x="0" y="0" width="15" height="15" fill="white">
            <use xlink:href="#path-9"></use>
        </mask>
        <circle id="path-11" cx="415" cy="300.5" r="7.5"></circle>
        <mask id="mask-12" maskContentUnits="userSpaceOnUse" maskUnits="objectBoundingBox" x="0" y="0" width="15" height="15" fill="white">
            <use xlink:href="#path-11"></use>
        </mask>
        <circle id="path-13" cx="395.5" cy="76.5" r="7.5"></circle>
        <mask id="mask-14" maskContentUnits="userSpaceOnUse" maskUnits="objectBoundingBox" x="0" y="0" width="15" height="15" fill="white">
            <use xlink:href="#path-13"></use>
        </mask>
        <rect id="path-15" x="0" y="0" width="256" height="256" rx="2"></rect>
        <mask id="mask-16" maskContentUnits="userSpaceOnUse" maskUnits="objectBoundingBox" x="-4" y="-4" width="264" height="264">
            <rect x="-4" y="-4" width="264" height="264" fill="white"></rect>
            <use xlink:href="#path-15" fill="black"></use>
        </mask>
        <circle id="path-17" cx="8" cy="8" r="8"></circle>
        <circle id="path-19" cx="8" cy="8" r="8"></circle>
        <circle id="path-21" cx="8" cy="8" r="8"></circle>
        <circle id="path-23" cx="8" cy="8" r="8"></circle>
    </defs>
    <g id="Illustrations" stroke="none" stroke-width="1" fill="none" fill-rule="evenodd">
        <g id="illustration-process-3">
            <g id="background-dark" transform="translate(22.500000, 27.000000)">
                <g id="Oval-13">
                    <use fill="#524D66" fill-rule="evenodd" xlink:href="#path-1"></use>
                    <use stroke="#7D798C" mask="url(#mask-2)" stroke-width="96" xlink:href="#path-1"></use>
                </g>
                <g id="background-shapes">
                    <use id="Oval-14" stroke="#5C38E3" mask="url(#mask-4)" stroke-width="10" fill="#7D798C" xlink:href="#path-3"></use>
                    <use id="Oval-14-Copy-3" stroke="#3C3653" mask="url(#mask-6)" stroke-width="10" fill="#7D798C" xlink:href="#path-5"></use>
                    <use id="Oval-14-Copy-4" stroke="#3C3653" mask="url(#mask-8)" stroke-width="10" fill="#7D798C" xlink:href="#path-7"></use>
                    <use id="Oval-14-Copy" stroke="#3C3653" mask="url(#mask-10)" stroke-width="10" fill="#7D798C" xlink:href="#path-9"></use>
                    <use id="Oval-14-Copy-5" stroke="#3C3653" mask="url(#mask-12)" stroke-width="10" fill="#7D798C" xlink:href="#path-11"></use>
                    <use id="Oval-14-Copy-2" stroke="#5C38E3" mask="url(#mask-14)" stroke-width="10" fill="#7D798C" xlink:href="#path-13"></use>
                    <path d="M280.25,69.75 L280.25,65.2461758 C280.25,63.4605192 278.794925,62 277,62 C275.208727,62 273.75,63.4533624 273.75,65.2461758 L273.75,69.75 L269.246176,69.75 C267.460519,69.75 266,71.2050746 266,73 C266,74.7912731 267.453362,76.25 269.246176,76.25 L273.75,76.25 L273.75,80.7538242 C273.75,82.5394808 275.205075,84 277,84 C278.791273,84 280.25,82.5466376 280.25,80.7538242 L280.25,76.25 L284.753824,76.25 C286.539481,76.25 288,74.7949254 288,73 C288,71.2087269 286.546638,69.75 284.753824,69.75 L280.25,69.75 Z" id="Combined-Shape" fill="#524D66" transform="translate(277.000000, 73.000000) rotate(5.000000) translate(-277.000000, -73.000000) "></path>
                    <path d="M436.659091,402.840909 L436.659091,399.155962 C436.659091,397.68103 435.468575,396.5 434,396.5 C432.534413,396.5 431.340909,397.689115 431.340909,399.155962 L431.340909,402.840909 L427.655962,402.840909 C426.18103,402.840909 425,404.031425 425,405.5 C425,406.965587 426.189115,408.159091 427.655962,408.159091 L431.340909,408.159091 L431.340909,411.844038 C431.340909,413.31897 432.531425,414.5 434,414.5 C435.465587,414.5 436.659091,413.310885 436.659091,411.844038 L436.659091,408.159091 L440.344038,408.159091 C441.81897,408.159091 443,406.968575 443,405.5 C443,404.034413 441.810885,402.840909 440.344038,402.840909 L436.659091,402.840909 Z" id="Combined-Shape-Copy" fill="#5C38E3" transform="translate(434.000000, 405.500000) rotate(10.000000) translate(-434.000000, -405.500000) "></path>
                    <path d="M146.159091,443.840909 L146.159091,440.155962 C146.159091,438.68103 144.968575,437.5 143.5,437.5 C142.034413,437.5 140.840909,438.689115 140.840909,440.155962 L140.840909,443.840909 L137.155962,443.840909 C135.68103,443.840909 134.5,445.031425 134.5,446.5 C134.5,447.965587 135.689115,449.159091 137.155962,449.159091 L140.840909,449.159091 L140.840909,452.844038 C140.840909,454.31897 142.031425,455.5 143.5,455.5 C144.965587,455.5 146.159091,454.310885 146.159091,452.844038 L146.159091,449.159091 L149.844038,449.159091 C151.31897,449.159091 152.5,447.968575 152.5,446.5 C152.5,445.034413 151.310885,443.840909 149.844038,443.840909 L146.159091,443.840909 Z" id="Combined-Shape-Copy-3" fill="#524D66" transform="translate(143.500000, 446.500000) rotate(-15.000000) translate(-143.500000, -446.500000) "></path>
                    <path d="M436.659091,196.340909 L436.659091,192.655962 C436.659091,191.18103 435.468575,190 434,190 C432.534413,190 431.340909,191.189115 431.340909,192.655962 L431.340909,196.340909 L427.655962,196.340909 C426.18103,196.340909 425,197.531425 425,199 C425,200.465587 426.189115,201.659091 427.655962,201.659091 L431.340909,201.659091 L431.340909,205.344038 C431.340909,206.81897 432.531425,208 434,208 C435.465587,208 436.659091,206.810885 436.659091,205.344038 L436.659091,201.659091 L440.344038,201.659091 C441.81897,201.659091 443,200.468575 443,199 C443,197.534413 441.810885,196.340909 440.344038,196.340909 L436.659091,196.340909 Z" id="Combined-Shape-Copy-2" fill="#5C38E3" transform="translate(434.000000, 199.000000) rotate(10.000000) translate(-434.000000, -199.000000) "></path>
                    <path d="M103.159091,70.8409091 L103.159091,67.155962 C103.159091,65.6810303 101.968575,64.5 100.5,64.5 C99.0344129,64.5 97.8409091,65.6891147 97.8409091,67.155962 L97.8409091,70.8409091 L94.155962,70.8409091 C92.6810303,70.8409091 91.5,72.0314246 91.5,73.5 C91.5,74.9655871 92.6891147,76.1590909 94.155962,76.1590909 L97.8409091,76.1590909 L97.8409091,79.844038 C97.8409091,81.3189697 99.0314246,82.5 100.5,82.5 C101.965587,82.5 103.159091,81.3108853 103.159091,79.844038 L103.159091,76.1590909 L106.844038,76.1590909 C108.31897,76.1590909 109.5,74.9685754 109.5,73.5 C109.5,72.0344129 108.310885,70.8409091 106.844038,70.8409091 L103.159091,70.8409091 Z" id="Combined-Shape-Copy-4" fill="#5C38E3" transform="translate(100.500000, 73.500000) rotate(-20.000000) translate(-100.500000, -73.500000) "></path>
                </g>
            </g>
            <g id="illustration-development" transform="translate(128.000000, 128.000000)">
                <g id="Rectangle-11">
                    <use fill="#FFFFFF" fill-rule="evenodd" xlink:href="#path-15"></use>
                    <use stroke="#938F9F" mask="url(#mask-16)" stroke-width="8" xlink:href="#path-15"></use>
                </g>
                <g id="chat-bot" transform="translate(12.500000, 17.500000)">
                    <g id="robot" transform="translate(0.000000, 27.500000)">
                        <mask id="mask-18" fill="white">
                            <use xlink:href="#path-17"></use>
                        </mask>
                        <use id="Mask" fill="#7D798C" xlink:href="#path-17"></use>
                        <g mask="url(#mask-18)">
                            <g transform="translate(1.750000, 3.125000)">
                                <rect id="Rectangle-19-Copy-2" stroke="none" fill="#E7E7E8" fill-rule="evenodd" x="4.875" y="6.25" width="2.75" height="2.625" rx="0.5"></rect>
                                <rect id="Rectangle-19" stroke="none" fill="#C9C7CE" fill-rule="evenodd" x="0" y="7.5" width="12.5" height="5.375" rx="0.5"></rect>
                                <rect id="Rectangle-19-Copy" stroke="none" fill="#D3D2D7" fill-rule="evenodd" x="3.375" y="1.5" width="5.75" height="5.375" rx="0.5"></rect>
                                <path id="Line" stroke="#272040" stroke-width="0.5" stroke-linecap="round" fill="none"></path>
                                <rect id="Rectangle-20" stroke="none" fill="#D8D8D8" fill-rule="evenodd" x="6" y="0.5" width="0.5" height="1.5" rx="0.25"></rect>
                                <circle id="Oval-4" stroke="none" fill="#5C38E3" fill-rule="evenodd" cx="6.25" cy="0.5" r="0.5"></circle>
                                <rect id="Rectangle-21" stroke="none" fill="#A9A6B3" fill-rule="evenodd" x="4.25" y="2.375" width="1.25" height="0.625" rx="0.3125"></rect>
                                <rect id="Rectangle-21-Copy" stroke="none" fill="#A9A6B3" fill-rule="evenodd" x="7" y="2.375" width="1.25" height="0.625" rx="0.3125"></rect>
                                <rect id="Rectangle-21-Copy-2" stroke="none" fill="#A9A6B3" fill-rule="evenodd" x="4.25" y="4.625" width="4" height="1" rx="0.5"></rect>
                                <path id="Line" stroke="#272040" stroke-width="0.5" stroke-linecap="round" fill="none"></path>
                                <path id="Line-Copy" stroke="#272040" stroke-width="0.5" stroke-linecap="round" fill="none"></path>
                            </g>
                        </g>
                    </g>
                    <g id="Group" transform="translate(23.500000, 0.000000)">
                        <rect id="Rectangle-22" fill="#7D798C" x="0" y="0" width="170" height="42.5" rx="2"></rect>
                        <rect id="Rectangle-22-Copy" fill="#E7E7E8" x="10" y="7.5" width="150" height="10" rx="2"></rect>
                        <rect id="Rectangle-22-Copy-2" fill="#E7E7E8" x="10" y="25" width="75" height="10" rx="2"></rect>
                    </g>
                </g>
                <g id="chat-bot-copy-2" transform="translate(12.500000, 156.000000)">
                    <g id="robot" transform="translate(0.000000, 27.500000)">
                        <mask id="mask-20" fill="white">
                            <use xlink:href="#path-19"></use>
                        </mask>
                        <use id="Mask" fill="#7D798C" xlink:href="#path-19"></use>
                        <g mask="url(#mask-20)">
                            <g transform="translate(1.750000, 3.125000)">
                                <rect id="Rectangle-19-Copy-2" stroke="none" fill="#E7E7E8" fill-rule="evenodd" x="4.875" y="6.25" width="2.75" height="2.625" rx="0.5"></rect>
                                <rect id="Rectangle-19" stroke="none" fill="#C9C7CE" fill-rule="evenodd" x="0" y="7.5" width="12.5" height="5.375" rx="0.5"></rect>
                                <rect id="Rectangle-19-Copy" stroke="none" fill="#D3D2D7" fill-rule="evenodd" x="3.375" y="1.5" width="5.75" height="5.375" rx="0.5"></rect>
                                <path id="Line" stroke="#272040" stroke-width="0.5" stroke-linecap="round" fill="none"></path>
                                <rect id="Rectangle-20" stroke="none" fill="#D8D8D8" fill-rule="evenodd" x="6" y="0.5" width="0.5" height="1.5" rx="0.25"></rect>
                                <circle id="Oval-4" stroke="none" fill="#5C38E3" fill-rule="evenodd" cx="6.25" cy="0.5" r="0.5"></circle>
                                <rect id="Rectangle-21" stroke="none" fill="#A9A6B3" fill-rule="evenodd" x="4.25" y="2.375" width="1.25" height="0.625" rx="0.3125"></rect>
                                <rect id="Rectangle-21-Copy" stroke="none" fill="#A9A6B3" fill-rule="evenodd" x="7" y="2.375" width="1.25" height="0.625" rx="0.3125"></rect>
                                <rect id="Rectangle-21-Copy-2" stroke="none" fill="#A9A6B3" fill-rule="evenodd" x="4.25" y="4.625" width="4" height="1" rx="0.5"></rect>
                                <path id="Line" stroke="#272040" stroke-width="0.5" stroke-linecap="round" fill="none"></path>
                                <path id="Line-Copy" stroke="#272040" stroke-width="0.5" stroke-linecap="round" fill="none"></path>
                            </g>
                        </g>
                    </g>
                    <g id="Group" transform="translate(23.500000, 0.000000)">
                        <rect id="Rectangle-22" fill="#7D798C" x="0" y="0" width="170" height="42.5" rx="2"></rect>
                        <rect id="Rectangle-22-Copy" fill="#E7E7E8" x="10" y="7.5" width="150" height="10" rx="2"></rect>
                        <rect id="Rectangle-22-Copy-2" fill="#E7E7E8" x="10" y="25" width="118" height="10" rx="2"></rect>
                    </g>
                </g>
                <g id="chat-person-1" transform="translate(50.000000, 78.500000)">
                    <g id="person" transform="translate(177.500000, 44.000000)">
                        <mask id="mask-22" fill="white">
                            <use xlink:href="#path-21"></use>
                        </mask>
                        <use id="Mask" fill="#E7E7E8" xlink:href="#path-21"></use>
                        <g mask="url(#mask-22)">
                            <g transform="translate(1.750000, 4.375000)">
                                <rect id="Path" stroke="none" fill="#D3D2D7" fill-rule="evenodd" x="4.875" y="5" width="2.75" height="2.625" rx="0.5"></rect>
                                <rect id="Rectangle-19" stroke="none" fill="#676279" fill-rule="evenodd" x="0" y="6.25" width="12.5" height="9.625" rx="3.75"></rect>
                                <circle id="Oval-3" stroke="none" fill="#C9C7CE" fill-rule="evenodd" cx="6.25" cy="2.875" r="2.875"></circle>
                                <path d="M4.625,1.75 C4.625,1.75 4.74367904,1.625 4.86925363,1.625 C4.99482822,1.625 5.125,1.75 5.125,1.75" id="Line" stroke="#272040" stroke-width="0.5" stroke-linecap="round" fill="none"></path>
                                <path d="M7.375,1.75 C7.375,1.75 7.49367904,1.625 7.61925363,1.625 C7.74482822,1.625 7.875,1.75 7.875,1.75" id="Line-Copy" stroke="#272040" stroke-width="0.5" stroke-linecap="round" fill="none"></path>
                                <path d="M6.25,4.5 C7.14746272,4.5 7.875,3.77246272 7.875,2.875 L4.625,2.875 C4.625,3.77246272 5.35253728,4.5 6.25,4.5 Z" id="Oval-5" stroke="none" fill="#272040" fill-rule="evenodd"></path>
                            </g>
                        </g>
                    </g>
                    <g id="chat-bot-copy">
                        <g id="Group">
                            <rect id="Rectangle-22" fill="#E7E7E8" x="0" y="0" width="170" height="60" rx="2"></rect>
                            <rect id="Rectangle-22-Copy" fill="#A9A6B3" x="85" y="7.5" width="75" height="10" rx="2"></rect>
                            <rect id="Rectangle-22-Copy-2" fill="#A9A6B3" x="10" y="25" width="150" height="10" rx="2"></rect>
                            <rect id="Rectangle-22-Copy-3" fill="#A9A6B3" x="43" y="42.5" width="117" height="10" rx="2"></rect>
                        </g>
                    </g>
                </g>
                <g id="chat-person" transform="translate(154.000000, 217.000000)">
                    <g id="person" transform="translate(73.500000, 8.000000)">
                        <mask id="mask-24" fill="white">
                            <use xlink:href="#path-23"></use>
                        </mask>
                        <use id="Mask" fill="#E7E7E8" xlink:href="#path-23"></use>
                        <g mask="url(#mask-24)">
                            <g transform="translate(1.750000, 4.375000)">
                                <rect id="Path" stroke="none" fill="#D3D2D7" fill-rule="evenodd" x="4.875" y="5" width="2.75" height="2.625" rx="0.5"></rect>
                                <rect id="Rectangle-19" stroke="none" fill="#676279" fill-rule="evenodd" x="0" y="6.25" width="12.5" height="9.625" rx="3.75"></rect>
                                <circle id="Oval-3" stroke="none" fill="#C9C7CE" fill-rule="evenodd" cx="6.25" cy="2.875" r="2.875"></circle>
                                <path d="M4.625,1.75 C4.625,1.75 4.74367904,1.625 4.86925363,1.625 C4.99482822,1.625 5.125,1.75 5.125,1.75" id="Line" stroke="#272040" stroke-width="0.5" stroke-linecap="round" fill="none"></path>
                                <path d="M7.375,1.75 C7.375,1.75 7.49367904,1.625 7.61925363,1.625 C7.74482822,1.625 7.875,1.75 7.875,1.75" id="Line-Copy" stroke="#272040" stroke-width="0.5" stroke-linecap="round" fill="none"></path>
                                <path d="M6.25,4.5 C7.14746272,4.5 7.875,3.77246272 7.875,2.875 L4.625,2.875 C4.625,3.77246272 5.35253728,4.5 6.25,4.5 Z" id="Oval-5" stroke="none" fill="#272040" fill-rule="evenodd"></path>
                            </g>
                        </g>
                    </g>
                    <g id="chat-bot-copy" fill="#E7E7E8">
                        <g id="Group">
                            <rect id="Rectangle-22" x="0" y="0" width="65" height="25" rx="2"></rect>
                        </g>
                    </g>
                    <g id="Group-3" transform="translate(10.000000, 7.500000)" stroke="#979797" stroke-width="0.5" fill="#A9A6B3">
                        <circle id="Oval-6" cx="5" cy="5" r="5"></circle>
                        <circle id="Oval-6-Copy" cx="22.5" cy="5" r="5"></circle>
                        <circle id="Oval-6-Copy-2" cx="40" cy="5" r="5"></circle>
                    </g>
                </g>
            </g>
        </g>
    </g>
</svg>