<?xml version="1.0" encoding="UTF-8" standalone="no"?>
<svg width="256px" height="256px" viewBox="0 0 256 256" version="1.1" xmlns="http://www.w3.org/2000/svg" xmlns:xlink="http://www.w3.org/1999/xlink">
    <!-- Generator: Sketch 41.1 (35376) - http://www.bohemiancoding.com/sketch -->
    <title>illustration-app</title>
    <desc>Created with Sketch.</desc>
    <defs>
        <circle id="path-1" cx="128" cy="128" r="88"></circle>
        <mask id="mask-2" maskContentUnits="userSpaceOnUse" maskUnits="objectBoundingBox" x="-24" y="-24" width="224" height="224">
            <rect x="16" y="16" width="224" height="224" fill="white"></rect>
            <use xlink:href="#path-1" fill="black"></use>
        </mask>
        <circle id="path-3" cx="5" cy="177.25" r="5"></circle>
        <mask id="mask-4" maskContentUnits="userSpaceOnUse" maskUnits="objectBoundingBox" x="0" y="0" width="10" height="10" fill="white">
            <use xlink:href="#path-3"></use>
        </mask>
        <circle id="path-5" cx="111" cy="195.75" r="5"></circle>
        <mask id="mask-6" maskContentUnits="userSpaceOnUse" maskUnits="objectBoundingBox" x="0" y="0" width="10" height="10" fill="white">
            <use xlink:href="#path-5"></use>
        </mask>
        <circle id="path-7" cx="62.25" cy="5" r="5"></circle>
        <mask id="mask-8" maskContentUnits="userSpaceOnUse" maskUnits="objectBoundingBox" x="0" y="0" width="10" height="10" fill="white">
            <use xlink:href="#path-7"></use>
        </mask>
        <circle id="path-9" cx="3.75" cy="114.5" r="3.75"></circle>
        <mask id="mask-10" maskContentUnits="userSpaceOnUse" maskUnits="objectBoundingBox" x="0" y="0" width="7.5" height="7.5" fill="white">
            <use xlink:href="#path-9"></use>
        </mask>
        <circle id="path-11" cx="175" cy="150.25" r="3.75"></circle>
        <mask id="mask-12" maskContentUnits="userSpaceOnUse" maskUnits="objectBoundingBox" x="0" y="0" width="7.5" height="7.5" fill="white">
            <use xlink:href="#path-11"></use>
        </mask>
        <circle id="path-13" cx="165.25" cy="38.25" r="3.75"></circle>
        <mask id="mask-14" maskContentUnits="userSpaceOnUse" maskUnits="objectBoundingBox" x="0" y="0" width="7.5" height="7.5" fill="white">
            <use xlink:href="#path-13"></use>
        </mask>
        <rect id="path-15" x="0" y="0" width="72.5" height="128" rx="10"></rect>
        <mask id="mask-16" maskContentUnits="userSpaceOnUse" maskUnits="objectBoundingBox" x="0" y="0" width="72.5" height="128" fill="white">
            <use xlink:href="#path-15"></use>
        </mask>
        <rect id="path-17" x="0" y="0" width="67.5" height="95"></rect>
        <ellipse id="path-19" cx="2.03463203" cy="2.04008909" rx="2.03463203" ry="2.04008909"></ellipse>
        <ellipse id="path-21" cx="2.03463203" cy="2.04008909" rx="2.03463203" ry="2.04008909"></ellipse>
        <ellipse id="path-23" cx="2.03463203" cy="2.04008909" rx="2.03463203" ry="2.04008909"></ellipse>
        <ellipse id="path-25" cx="2.03463203" cy="2.04008909" rx="2.03463203" ry="2.04008909"></ellipse>
        <ellipse id="path-27" cx="2.03463203" cy="2.04008909" rx="2.03463203" ry="2.04008909"></ellipse>
    </defs>
    <g id="Illustrations" stroke="none" stroke-width="1" fill="none" fill-rule="evenodd">
        <g id="illustration-app">
            <g id="Oval-13">
                <use fill="#E7E7E8" fill-rule="evenodd" xlink:href="#path-1"></use>
                <use stroke="#F4F4F5" mask="url(#mask-2)" stroke-width="48" xlink:href="#path-1"></use>
            </g>
            <g id="background-shapes" transform="translate(43.750000, 13.500000)">
                <use id="Oval-14" stroke="#5C38E3" mask="url(#mask-4)" stroke-width="5" fill="#F4F4F5" xlink:href="#path-3"></use>
                <use id="Oval-14-Copy-3" stroke="#D3D2D7" mask="url(#mask-6)" stroke-width="5" fill="#F4F4F5" xlink:href="#path-5"></use>
                <use id="Oval-14-Copy-4" stroke="#D3D2D7" mask="url(#mask-8)" stroke-width="5" fill="#F4F4F5" xlink:href="#path-7"></use>
                <use id="Oval-14-Copy" stroke="#D3D2D7" mask="url(#mask-10)" stroke-width="5" fill="#F4F4F5" xlink:href="#path-9"></use>
                <use id="Oval-14-Copy-5" stroke="#D3D2D7" mask="url(#mask-12)" stroke-width="5" fill="#F4F4F5" xlink:href="#path-11"></use>
                <use id="Oval-14-Copy-2" stroke="#5C38E3" mask="url(#mask-14)" stroke-width="5" fill="#F4F4F5" xlink:href="#path-13"></use>
                <path d="M107.625,34.875 L107.625,32.6230879 C107.625,31.7217407 106.897463,31 106,31 C105.09628,31 104.375,31.7266812 104.375,32.6230879 L104.375,34.875 L102.123088,34.875 C101.221741,34.875 100.5,35.6025373 100.5,36.5 C100.5,37.4037197 101.226681,38.125 102.123088,38.125 L104.375,38.125 L104.375,40.3769121 C104.375,41.2782593 105.102537,42 106,42 C106.90372,42 107.625,41.2733188 107.625,40.3769121 L107.625,38.125 L109.876912,38.125 C110.778259,38.125 111.5,37.3974627 111.5,36.5 C111.5,35.5962803 110.773319,34.875 109.876912,34.875 L107.625,34.875 Z" id="Combined-Shape" fill="#D8D8D8" transform="translate(106.000000, 36.500000) rotate(5.000000) translate(-106.000000, -36.500000) "></path>
                <path d="M185.829545,201.420455 L185.829545,199.577981 C185.829545,198.840515 185.234288,198.25 184.5,198.25 C183.760593,198.25 183.170455,198.844557 183.170455,199.577981 L183.170455,201.420455 L181.327981,201.420455 C180.590515,201.420455 180,202.015712 180,202.75 C180,203.489407 180.594557,204.079545 181.327981,204.079545 L183.170455,204.079545 L183.170455,205.922019 C183.170455,206.659485 183.765712,207.25 184.5,207.25 C185.239407,207.25 185.829545,206.655443 185.829545,205.922019 L185.829545,204.079545 L187.672019,204.079545 C188.409485,204.079545 189,203.484288 189,202.75 C189,202.010593 188.405443,201.420455 187.672019,201.420455 L185.829545,201.420455 Z" id="Combined-Shape-Copy" fill="#5C38E3" transform="translate(184.500000, 202.750000) rotate(10.000000) translate(-184.500000, -202.750000) "></path>
                <path d="M40.5795455,221.920455 L40.5795455,220.077981 C40.5795455,219.340515 39.9842877,218.75 39.25,218.75 C38.510593,218.75 37.9204545,219.344557 37.9204545,220.077981 L37.9204545,221.920455 L36.077981,221.920455 C35.3405151,221.920455 34.75,222.515712 34.75,223.25 C34.75,223.989407 35.3445573,224.579545 36.077981,224.579545 L37.9204545,224.579545 L37.9204545,226.422019 C37.9204545,227.159485 38.5157123,227.75 39.25,227.75 C39.989407,227.75 40.5795455,227.155443 40.5795455,226.422019 L40.5795455,224.579545 L42.422019,224.579545 C43.1594849,224.579545 43.75,223.984288 43.75,223.25 C43.75,222.510593 43.1554427,221.920455 42.422019,221.920455 L40.5795455,221.920455 Z" id="Combined-Shape-Copy-3" fill="#D8D8D8" transform="translate(39.250000, 223.250000) rotate(-15.000000) translate(-39.250000, -223.250000) "></path>
                <path d="M185.829545,98.1704545 L185.829545,96.327981 C185.829545,95.5905151 185.234288,95 184.5,95 C183.760593,95 183.170455,95.5945573 183.170455,96.327981 L183.170455,98.1704545 L181.327981,98.1704545 C180.590515,98.1704545 180,98.7657123 180,99.5 C180,100.239407 180.594557,100.829545 181.327981,100.829545 L183.170455,100.829545 L183.170455,102.672019 C183.170455,103.409485 183.765712,104 184.5,104 C185.239407,104 185.829545,103.405443 185.829545,102.672019 L185.829545,100.829545 L187.672019,100.829545 C188.409485,100.829545 189,100.234288 189,99.5 C189,98.760593 188.405443,98.1704545 187.672019,98.1704545 L185.829545,98.1704545 Z" id="Combined-Shape-Copy-2" fill="#5C38E3" transform="translate(184.500000, 99.500000) rotate(10.000000) translate(-184.500000, -99.500000) "></path>
                <path d="M31.5795455,52.9204545 L31.5795455,51.077981 C31.5795455,50.3405151 30.9842877,49.75 30.25,49.75 C29.510593,49.75 28.9204545,50.3445573 28.9204545,51.077981 L28.9204545,52.9204545 L27.077981,52.9204545 C26.3405151,52.9204545 25.75,53.5157123 25.75,54.25 C25.75,54.989407 26.3445573,55.5795455 27.077981,55.5795455 L28.9204545,55.5795455 L28.9204545,57.422019 C28.9204545,58.1594849 29.5157123,58.75 30.25,58.75 C30.989407,58.75 31.5795455,58.1554427 31.5795455,57.422019 L31.5795455,55.5795455 L33.422019,55.5795455 C34.1594849,55.5795455 34.75,54.9842877 34.75,54.25 C34.75,53.510593 34.1554427,52.9204545 33.422019,52.9204545 L31.5795455,52.9204545 Z" id="Combined-Shape-Copy-4" fill="#5C38E3" transform="translate(30.250000, 54.250000) rotate(-20.000000) translate(-30.250000, -54.250000) "></path>
            </g>
            <g transform="translate(64.000000, 64.000000)">
                <rect id="Rectangle-26" x="0" y="0" width="128" height="128"></rect>
                <g id="phone" transform="translate(27.750000, 0.000000)">
                    <use id="Combined-Shape" stroke="#938F9F" mask="url(#mask-16)" stroke-width="5" fill="#272040" xlink:href="#path-15"></use>
                    <g id="illustration-development" transform="translate(2.500000, 16.500000)">
                        <mask id="mask-18" fill="white">
                            <use xlink:href="#path-17"></use>
                        </mask>
                        <use id="Mask" fill="#FFFFFF" xlink:href="#path-17"></use>
                        <g mask="url(#mask-18)">
                            <g transform="translate(4.500000, 4.750000)">
                                <g id="chat-bot" transform="translate(0.000000, 21.500000)">
                                    <g id="robot" transform="translate(0.000000, 7.012806)">
                                        <mask id="mask-20" fill="white">
                                            <use xlink:href="#path-19"></use>
                                        </mask>
                                        <use id="Mask" fill="#7D798C" xlink:href="#path-19"></use>
                                        <g mask="url(#mask-20)">
                                            <g transform="translate(0.445076, 0.796910)">
                                                <rect id="Rectangle-19-Copy-2" stroke="none" fill="#E7E7E8" fill-rule="evenodd" x="1.2398539" y="1.5938196" width="0.699404762" height="0.669404232" rx="0.127500004"></rect>
                                                <rect id="Rectangle-19" stroke="none" fill="#C9C7CE" fill-rule="evenodd" x="0" y="1.91258352" width="3.17911255" height="1.37068486" rx="0.127500004"></rect>
                                                <rect id="Rectangle-19-Copy" stroke="none" fill="#D3D2D7" fill-rule="evenodd" x="0.85836039" y="0.382516704" width="1.46239177" height="1.37068486" rx="0.127500004"></rect>
                                                <path id="Line" stroke="#272040" stroke-width="0.5" stroke-linecap="round" fill="none"></path>
                                                <rect id="Rectangle-20" stroke="none" fill="#D8D8D8" fill-rule="evenodd" x="1.52597403" y="0.127505568" width="0.127164502" height="0.382516704" rx="0.0635822511"></rect>
                                                <ellipse id="Oval-4" stroke="none" fill="#5C38E3" fill-rule="evenodd" cx="1.58955628" cy="0.127505568" rx="0.127164502" ry="0.127505568"></ellipse>
                                                <rect id="Rectangle-21" stroke="none" fill="#A9A6B3" fill-rule="evenodd" x="1.08089827" y="0.605651448" width="0.317911255" height="0.15938196" rx="0.07969098"></rect>
                                                <rect id="Rectangle-21-Copy" stroke="none" fill="#A9A6B3" fill-rule="evenodd" x="1.78030303" y="0.605651448" width="0.317911255" height="0.15938196" rx="0.07969098"></rect>
                                                <rect id="Rectangle-21-Copy-2" stroke="none" fill="#A9A6B3" fill-rule="evenodd" x="1.08089827" y="1.1794265" width="1.01731602" height="0.255011136" rx="0.127500004"></rect>
                                                <path id="Line" stroke="#272040" stroke-width="0.5" stroke-linecap="round" fill="none"></path>
                                                <path id="Line-Copy" stroke="#272040" stroke-width="0.5" stroke-linecap="round" fill="none"></path>
                                            </g>
                                        </g>
                                    </g>
                                    <g id="Group" transform="translate(5.976732, 0.000000)">
                                        <rect id="Rectangle-22" fill="#938F9F" x="0" y="0" width="43.2359307" height="10.8379733" rx="0.510000014"></rect>
                                        <rect id="Rectangle-22-Copy" fill="#272040" x="2.54329004" y="1.91258352" width="38.1493506" height="2.55011136" rx="0.510000014"></rect>
                                        <rect id="Rectangle-22-Copy-2" fill="#272040" x="2.54329004" y="6.3752784" width="19.0746753" height="2.55011136" rx="0.510000014"></rect>
                                    </g>
                                </g>
                                <g id="chat-bot-copy-2" transform="translate(0.000000, 61.819042)">
                                    <g id="robot" transform="translate(0.000000, 7.012806)">
                                        <mask id="mask-22" fill="white">
                                            <use xlink:href="#path-21"></use>
                                        </mask>
                                        <use id="Mask" fill="#7D798C" xlink:href="#path-21"></use>
                                        <g mask="url(#mask-22)">
                                            <g transform="translate(0.445076, 0.796910)">
                                                <rect id="Rectangle-19-Copy-2" stroke="none" fill="#E7E7E8" fill-rule="evenodd" x="1.2398539" y="1.5938196" width="0.699404762" height="0.669404232" rx="0.127500004"></rect>
                                                <rect id="Rectangle-19" stroke="none" fill="#C9C7CE" fill-rule="evenodd" x="0" y="1.91258352" width="3.17911255" height="1.37068486" rx="0.127500004"></rect>
                                                <rect id="Rectangle-19-Copy" stroke="none" fill="#D3D2D7" fill-rule="evenodd" x="0.85836039" y="0.382516704" width="1.46239177" height="1.37068486" rx="0.127500004"></rect>
                                                <path id="Line" stroke="#272040" stroke-width="0.5" stroke-linecap="round" fill="none"></path>
                                                <rect id="Rectangle-20" stroke="none" fill="#D8D8D8" fill-rule="evenodd" x="1.52597403" y="0.127505568" width="0.127164502" height="0.382516704" rx="0.0635822511"></rect>
                                                <ellipse id="Oval-4" stroke="none" fill="#5C38E3" fill-rule="evenodd" cx="1.58955628" cy="0.127505568" rx="0.127164502" ry="0.127505568"></ellipse>
                                                <rect id="Rectangle-21" stroke="none" fill="#A9A6B3" fill-rule="evenodd" x="1.08089827" y="0.605651448" width="0.317911255" height="0.15938196" rx="0.07969098"></rect>
                                                <rect id="Rectangle-21-Copy" stroke="none" fill="#A9A6B3" fill-rule="evenodd" x="1.78030303" y="0.605651448" width="0.317911255" height="0.15938196" rx="0.07969098"></rect>
                                                <rect id="Rectangle-21-Copy-2" stroke="none" fill="#A9A6B3" fill-rule="evenodd" x="1.08089827" y="1.1794265" width="1.01731602" height="0.255011136" rx="0.127500004"></rect>
                                                <path id="Line" stroke="#272040" stroke-width="0.5" stroke-linecap="round" fill="none"></path>
                                                <path id="Line-Copy" stroke="#272040" stroke-width="0.5" stroke-linecap="round" fill="none"></path>
                                            </g>
                                        </g>
                                    </g>
                                    <g id="Group" transform="translate(5.976732, 0.000000)">
                                        <rect id="Rectangle-22" fill="#938F9F" x="0" y="0" width="43.2359307" height="10.8379733" rx="0.510000014"></rect>
                                        <rect id="Rectangle-22-Copy" fill="#272040" x="2.54329004" y="1.91258352" width="38.1493506" height="2.55011136" rx="0.510000014"></rect>
                                        <rect id="Rectangle-22-Copy-2" fill="#272040" x="2.54329004" y="6.3752784" width="30.0108225" height="2.55011136" rx="0.510000014"></rect>
                                    </g>
                                </g>
                                <g id="chat-person-1" transform="translate(9.537338, 39.555679)">
                                    <g id="person" transform="translate(45.143398, 11.220490)">
                                        <mask id="mask-24" fill="white">
                                            <use xlink:href="#path-23"></use>
                                        </mask>
                                        <use id="Mask" fill="#E7E7E8" xlink:href="#path-23"></use>
                                        <g mask="url(#mask-24)">
                                            <g transform="translate(0.445076, 1.115674)">
                                                <rect id="Path" stroke="none" fill="#D3D2D7" fill-rule="evenodd" x="1.2398539" y="1.27505568" width="0.699404762" height="0.669404232" rx="0.127500004"></rect>
                                                <rect id="Rectangle-19" stroke="none" fill="#676279" fill-rule="evenodd" x="0" y="1.5938196" width="3.17911255" height="2.45448218" rx="0.956250027"></rect>
                                                <ellipse id="Oval-3" stroke="none" fill="#C9C7CE" fill-rule="evenodd" cx="1.58955628" cy="0.733157016" rx="0.731195887" ry="0.733157016"></ellipse>
                                                <path id="Line" stroke="#272040" stroke-width="0.5" stroke-linecap="round" fill="none"></path>
                                                <path id="Line-Copy" stroke="#272040" stroke-width="0.5" stroke-linecap="round" fill="none"></path>
                                                <path id="Oval-5" stroke="none" fill="#272040" fill-rule="evenodd"></path>
                                            </g>
                                        </g>
                                    </g>
                                    <g id="chat-bot-copy">
                                        <g id="Group">
                                            <rect id="Rectangle-22" fill="#272040" x="0" y="0" width="43.2359307" height="15.3006682" rx="0.510000014"></rect>
                                            <rect id="Rectangle-22-Copy" fill="#938F9F" x="2.61796537" y="1.91258352" width="19.0746753" height="2.55011136" rx="0.510000014"></rect>
                                            <rect id="Rectangle-22-Copy-2" fill="#938F9F" x="2.54329004" y="6.3752784" width="38.1493506" height="2.55011136" rx="0.510000014"></rect>
                                            <rect id="Rectangle-22-Copy-3" fill="#938F9F" x="2.68614719" y="10.8379733" width="29.7564935" height="2.55011136" rx="0.510000014"></rect>
                                        </g>
                                    </g>
                                </g>
                                <g id="chat-person-1-copy" transform="translate(9.537338, 0.055679)">
                                    <g id="person" transform="translate(45.143398, 11.220490)">
                                        <mask id="mask-26" fill="white">
                                            <use xlink:href="#path-25"></use>
                                        </mask>
                                        <use id="Mask" fill="#E7E7E8" xlink:href="#path-25"></use>
                                        <g mask="url(#mask-26)">
                                            <g transform="translate(0.445076, 1.115674)">
                                                <rect id="Path" stroke="none" fill="#D3D2D7" fill-rule="evenodd" x="1.2398539" y="1.27505568" width="0.699404762" height="0.669404232" rx="0.127500004"></rect>
                                                <rect id="Rectangle-19" stroke="none" fill="#676279" fill-rule="evenodd" x="0" y="1.5938196" width="3.17911255" height="2.45448218" rx="0.956250027"></rect>
                                                <ellipse id="Oval-3" stroke="none" fill="#C9C7CE" fill-rule="evenodd" cx="1.58955628" cy="0.733157016" rx="0.731195887" ry="0.733157016"></ellipse>
                                                <path id="Line" stroke="#272040" stroke-width="0.5" stroke-linecap="round" fill="none"></path>
                                                <path id="Line-Copy" stroke="#272040" stroke-width="0.5" stroke-linecap="round" fill="none"></path>
                                                <path id="Oval-5" stroke="none" fill="#272040" fill-rule="evenodd"></path>
                                            </g>
                                        </g>
                                    </g>
                                    <g id="chat-bot-copy">
                                        <g id="Group">
                                            <rect id="Rectangle-22" fill="#272040" x="0" y="0" width="43.2359307" height="15.3006682" rx="0.510000014"></rect>
                                            <rect id="Rectangle-22-Copy" fill="#938F9F" x="2.61796537" y="1.91258352" width="19.0746753" height="2.55011136" rx="0.510000014"></rect>
                                            <rect id="Rectangle-22-Copy-2" fill="#938F9F" x="2.54329004" y="6.3752784" width="38.1493506" height="2.55011136" rx="0.510000014"></rect>
                                            <rect id="Rectangle-22-Copy-3" fill="#938F9F" x="2.68614719" y="10.8379733" width="29.7564935" height="2.55011136" rx="0.510000014"></rect>
                                        </g>
                                    </g>
                                </g>
                                <g id="chat-person" transform="translate(35.987554, 79.874722)">
                                    <g id="person" transform="translate(18.693182, 2.040089)">
                                        <mask id="mask-28" fill="white">
                                            <use xlink:href="#path-27"></use>
                                        </mask>
                                        <use id="Mask" fill="#E7E7E8" xlink:href="#path-27"></use>
                                        <g mask="url(#mask-28)">
                                            <g transform="translate(0.445076, 1.115674)">
                                                <rect id="Path" stroke="none" fill="#D3D2D7" fill-rule="evenodd" x="1.2398539" y="1.27505568" width="0.699404762" height="0.669404232" rx="0.127500004"></rect>
                                                <rect id="Rectangle-19" stroke="none" fill="#676279" fill-rule="evenodd" x="0" y="1.5938196" width="3.17911255" height="2.45448218" rx="0.956250027"></rect>
                                                <ellipse id="Oval-3" stroke="none" fill="#C9C7CE" fill-rule="evenodd" cx="1.58955628" cy="0.733157016" rx="0.731195887" ry="0.733157016"></ellipse>
                                                <path id="Line" stroke="#272040" stroke-width="0.5" stroke-linecap="round" fill="none"></path>
                                                <path id="Line-Copy" stroke="#272040" stroke-width="0.5" stroke-linecap="round" fill="none"></path>
                                                <path id="Oval-5" stroke="none" fill="#272040" fill-rule="evenodd"></path>
                                            </g>
                                        </g>
                                    </g>
                                    <g id="chat-bot-copy" fill="#E7E7E8">
                                        <g id="Group">
                                            <rect id="Rectangle-22" x="0" y="0" width="16.5313853" height="6.3752784" rx="0.510000014"></rect>
                                        </g>
                                    </g>
                                    <g id="Group-3" transform="translate(2.543290, 1.912584)" fill="#5C38E3">
                                        <ellipse id="Oval-6" cx="1.27164502" cy="1.27505568" rx="1.27164502" ry="1.27505568"></ellipse>
                                        <ellipse id="Oval-6-Copy" cx="5.7224026" cy="1.27505568" rx="1.27164502" ry="1.27505568"></ellipse>
                                        <ellipse id="Oval-6-Copy-2" cx="10.1731602" cy="1.27505568" rx="1.27164502" ry="1.27505568"></ellipse>
                                    </g>
                                </g>
                            </g>
                        </g>
                    </g>
                    <rect id="Rectangle-30" fill="#938F9F" x="28.75" y="8.25" width="14.75" height="2" rx="1"></rect>
                    <circle id="Oval-17" fill="#5C38E3" cx="9.875" cy="7.625" r="1.375"></circle>
                    <circle id="Oval-17-Copy" fill="#938F9F" cx="52.125" cy="11.125" r="0.875"></circle>
                    <circle id="Oval-17-Copy-2" fill="#938F9F" cx="54.625" cy="11.125" r="0.875"></circle>
                </g>
            </g>
        </g>
    </g>
</svg>