<?xml version="1.0" encoding="UTF-8" standalone="no"?>
<svg width="256px" height="256px" viewBox="0 0 256 256" version="1.1" xmlns="http://www.w3.org/2000/svg" xmlns:xlink="http://www.w3.org/1999/xlink">
    <!-- Generator: Sketch 41.1 (35376) - http://www.bohemiancoding.com/sketch -->
    <title>illustration-customer-support</title>
    <desc>Created with Sketch.</desc>
    <defs>
        <ellipse id="path-1" cx="94.8748353" cy="114.5" rx="88.115942" ry="88"></ellipse>
        <mask id="mask-2" maskContentUnits="userSpaceOnUse" maskUnits="objectBoundingBox" x="-24" y="-24" width="224.231884" height="224">
            <rect x="-17.2411067" y="2.5" width="224.231884" height="224" fill="white"></rect>
            <use xlink:href="#path-1" fill="black"></use>
        </mask>
        <ellipse id="path-3" cx="5.00658762" cy="177.25" rx="5.00658762" ry="5"></ellipse>
        <mask id="mask-4" maskContentUnits="userSpaceOnUse" maskUnits="objectBoundingBox" x="0" y="0" width="10.0131752" height="10" fill="white">
            <use xlink:href="#path-3"></use>
        </mask>
        <ellipse id="path-5" cx="111.146245" cy="195.75" rx="5.00658762" ry="5"></ellipse>
        <mask id="mask-6" maskContentUnits="userSpaceOnUse" maskUnits="objectBoundingBox" x="0" y="0" width="10.0131752" height="10" fill="white">
            <use xlink:href="#path-5"></use>
        </mask>
        <ellipse id="path-7" cx="62.3320158" cy="5" rx="5.00658762" ry="5"></ellipse>
        <mask id="mask-8" maskContentUnits="userSpaceOnUse" maskUnits="objectBoundingBox" x="0" y="0" width="10.0131752" height="10" fill="white">
            <use xlink:href="#path-7"></use>
        </mask>
        <ellipse id="path-9" cx="3.75494071" cy="114.5" rx="3.75494071" ry="3.75"></ellipse>
        <mask id="mask-10" maskContentUnits="userSpaceOnUse" maskUnits="objectBoundingBox" x="0" y="0" width="7.50988142" height="7.5" fill="white">
            <use xlink:href="#path-9"></use>
        </mask>
        <ellipse id="path-11" cx="175.230567" cy="150.25" rx="3.75494071" ry="3.75"></ellipse>
        <mask id="mask-12" maskContentUnits="userSpaceOnUse" maskUnits="objectBoundingBox" x="0" y="0" width="7.50988142" height="7.5" fill="white">
            <use xlink:href="#path-11"></use>
        </mask>
        <ellipse id="path-13" cx="165.467721" cy="38.25" rx="3.75494071" ry="3.75"></ellipse>
        <mask id="mask-14" maskContentUnits="userSpaceOnUse" maskUnits="objectBoundingBox" x="0" y="0" width="7.50988142" height="7.5" fill="white">
            <use xlink:href="#path-13"></use>
        </mask>
        <rect id="path-15" x="0" y="28" width="12.516469" height="12.5" rx="1"></rect>
        <mask id="mask-16" maskContentUnits="userSpaceOnUse" maskUnits="objectBoundingBox" x="0" y="0" width="12.516469" height="12.5" fill="white">
            <use xlink:href="#path-15"></use>
        </mask>
        <rect id="path-17" x="112.147563" y="28" width="12.516469" height="12.5" rx="1"></rect>
        <mask id="mask-18" maskContentUnits="userSpaceOnUse" maskUnits="objectBoundingBox" x="0" y="0" width="12.516469" height="12.5" fill="white">
            <use xlink:href="#path-17"></use>
        </mask>
        <rect id="path-19" x="6.25823452" y="0" width="112.147563" height="70" rx="35"></rect>
        <mask id="mask-20" maskContentUnits="userSpaceOnUse" maskUnits="objectBoundingBox" x="0" y="0" width="112.147563" height="70" fill="white">
            <use xlink:href="#path-19"></use>
        </mask>
        <rect id="path-21" x="0" y="0" width="44.3083004" height="38.5" rx="12.5"></rect>
        <mask id="mask-22" maskContentUnits="userSpaceOnUse" maskUnits="objectBoundingBox" x="0" y="0" width="44.3083004" height="38.5" fill="white">
            <use xlink:href="#path-21"></use>
        </mask>
        <rect id="path-23" x="0" y="0" width="44.3083004" height="38.5" rx="12.5"></rect>
        <mask id="mask-24" maskContentUnits="userSpaceOnUse" maskUnits="objectBoundingBox" x="0" y="0" width="44.3083004" height="38.5" fill="white">
            <use xlink:href="#path-23"></use>
        </mask>
    </defs>
    <g id="Illustrations" stroke="none" stroke-width="1" fill="none" fill-rule="evenodd">
        <g id="illustration-customer-support">
            <g id="illustration-bot" transform="translate(33.000000, 14.000000)">
                <g id="Oval-13">
                    <use fill="#E7E7E8" fill-rule="evenodd" xlink:href="#path-1"></use>
                    <use stroke="#F4F4F5" mask="url(#mask-2)" stroke-width="48" xlink:href="#path-1"></use>
                </g>
                <g id="background-shapes">
                    <use id="Oval-14" stroke="#5C38E3" mask="url(#mask-4)" stroke-width="5" fill="#F4F4F5" xlink:href="#path-3"></use>
                    <use id="Oval-14-Copy-3" stroke="#D3D2D7" mask="url(#mask-6)" stroke-width="5" fill="#F4F4F5" xlink:href="#path-5"></use>
                    <use id="Oval-14-Copy-4" stroke="#D3D2D7" mask="url(#mask-8)" stroke-width="5" fill="#F4F4F5" xlink:href="#path-7"></use>
                    <use id="Oval-14-Copy" stroke="#D3D2D7" mask="url(#mask-10)" stroke-width="5" fill="#F4F4F5" xlink:href="#path-9"></use>
                    <use id="Oval-14-Copy-5" stroke="#D3D2D7" mask="url(#mask-12)" stroke-width="5" fill="#F4F4F5" xlink:href="#path-11"></use>
                    <use id="Oval-14-Copy-2" stroke="#5C38E3" mask="url(#mask-14)" stroke-width="5" fill="#F4F4F5" xlink:href="#path-13"></use>
                    <path d="M107.766798,34.872859 L107.766798,32.6230879 C107.766798,31.7217407 107.038303,31 106.139657,31 C105.234747,31 104.512516,31.7266812 104.512516,32.6230879 L104.512516,34.872859 L102.262745,34.872859 C101.361398,34.872859 100.639657,35.6013549 100.639657,36.5 C100.639657,37.4049103 101.366339,38.127141 102.262745,38.127141 L104.512516,38.127141 L104.512516,40.3769121 C104.512516,41.2782593 105.241012,42 106.139657,42 C107.044568,42 107.766798,41.2733188 107.766798,40.3769121 L107.766798,38.127141 L110.01657,38.127141 C110.917917,38.127141 111.639657,37.3986451 111.639657,36.5 C111.639657,35.5950897 110.912976,34.872859 110.01657,34.872859 L107.766798,34.872859 Z" id="Combined-Shape" fill="#D8D8D8" transform="translate(106.139657, 36.500000) rotate(5.000000) translate(-106.139657, -36.500000) "></path>
                    <path d="M186.07438,201.418703 L186.07438,199.577981 C186.07438,198.840515 185.478338,198.25 184.743083,198.25 C184.002702,198.25 183.411786,198.844557 183.411786,199.577981 L183.411786,201.418703 L181.571064,201.418703 C180.833598,201.418703 180.243083,202.014745 180.243083,202.75 C180.243083,203.490381 180.83764,204.081297 181.571064,204.081297 L183.411786,204.081297 L183.411786,205.922019 C183.411786,206.659485 184.007828,207.25 184.743083,207.25 C185.483464,207.25 186.07438,206.655443 186.07438,205.922019 L186.07438,204.081297 L187.915102,204.081297 C188.652568,204.081297 189.243083,203.485255 189.243083,202.75 C189.243083,202.009619 188.648526,201.418703 187.915102,201.418703 L186.07438,201.418703 Z" id="Combined-Shape-Copy" fill="#5C38E3" transform="translate(184.743083, 202.750000) rotate(10.000000) translate(-184.743083, -202.750000) "></path>
                    <path d="M40.6330099,221.918703 L40.6330099,220.077981 C40.6330099,219.340515 40.0369679,218.75 39.3017128,218.75 C38.5613316,218.75 37.9704156,219.344557 37.9704156,220.077981 L37.9704156,221.918703 L36.1296938,221.918703 C35.3922279,221.918703 34.8017128,222.514745 34.8017128,223.25 C34.8017128,223.990381 35.3962701,224.581297 36.1296938,224.581297 L37.9704156,224.581297 L37.9704156,226.422019 C37.9704156,227.159485 38.5664577,227.75 39.3017128,227.75 C40.042094,227.75 40.6330099,227.155443 40.6330099,226.422019 L40.6330099,224.581297 L42.4737318,224.581297 C43.2111976,224.581297 43.8017128,223.985255 43.8017128,223.25 C43.8017128,222.509619 43.2071554,221.918703 42.4737318,221.918703 L40.6330099,221.918703 Z" id="Combined-Shape-Copy-3" fill="#D8D8D8" transform="translate(39.301713, 223.250000) rotate(-15.000000) translate(-39.301713, -223.250000) "></path>
                    <path d="M186.07438,98.1687028 L186.07438,96.327981 C186.07438,95.5905151 185.478338,95 184.743083,95 C184.002702,95 183.411786,95.5945573 183.411786,96.327981 L183.411786,98.1687028 L181.571064,98.1687028 C180.833598,98.1687028 180.243083,98.7647449 180.243083,99.5 C180.243083,100.240381 180.83764,100.831297 181.571064,100.831297 L183.411786,100.831297 L183.411786,102.672019 C183.411786,103.409485 184.007828,104 184.743083,104 C185.483464,104 186.07438,103.405443 186.07438,102.672019 L186.07438,100.831297 L187.915102,100.831297 C188.652568,100.831297 189.243083,100.235255 189.243083,99.5 C189.243083,98.7596188 188.648526,98.1687028 187.915102,98.1687028 L186.07438,98.1687028 Z" id="Combined-Shape-Copy-2" fill="#5C38E3" transform="translate(184.743083, 99.500000) rotate(10.000000) translate(-184.743083, -99.500000) "></path>
                    <path d="M31.6211522,52.9187028 L31.6211522,51.077981 C31.6211522,50.3405151 31.0251102,49.75 30.2898551,49.75 C29.5494739,49.75 28.9585579,50.3445573 28.9585579,51.077981 L28.9585579,52.9187028 L27.1178361,52.9187028 C26.3803702,52.9187028 25.7898551,53.5147449 25.7898551,54.25 C25.7898551,54.9903812 26.3844124,55.5812972 27.1178361,55.5812972 L28.9585579,55.5812972 L28.9585579,57.422019 C28.9585579,58.1594849 29.5546,58.75 30.2898551,58.75 C31.0302363,58.75 31.6211522,58.1554427 31.6211522,57.422019 L31.6211522,55.5812972 L33.4618741,55.5812972 C34.1993399,55.5812972 34.7898551,54.9852551 34.7898551,54.25 C34.7898551,53.5096188 34.1952977,52.9187028 33.4618741,52.9187028 L31.6211522,52.9187028 Z" id="Combined-Shape-Copy-4" fill="#5C38E3" transform="translate(30.289855, 54.250000) rotate(-20.000000) translate(-30.289855, -54.250000) "></path>
                </g>
                <g transform="translate(30.790514, 50.500000)">
                    <rect id="Rectangle-46" x="0" y="0" width="128.168643" height="128"></rect>
                    <g id="face" transform="translate(2.002635, 10.500000)">
                        <use id="Rectangle-44" stroke="#938F9F" mask="url(#mask-16)" stroke-width="5" fill="#676279" xlink:href="#path-15"></use>
                        <use id="Rectangle-44-Copy" stroke="#938F9F" mask="url(#mask-18)" stroke-width="5" fill="#676279" xlink:href="#path-17"></use>
                        <use id="Rectangle-40" stroke="#938F9F" mask="url(#mask-20)" stroke-width="5" fill="#272040" xlink:href="#path-19"></use>
                        <path d="M51.2418421,56 L83.3796458,56 C94.983619,56 104.387352,46.5979797 104.387352,35 C104.387352,23.3994702 94.9818815,14 83.3796458,14 L41.2843858,14 C29.6804126,14 20.2766798,23.4020203 20.2766798,35 C20.2766798,46.5236548 29.5579059,55.8753256 41.0540184,55.9987638 L41.0540184,60.9901717 C41.0540184,63.0703125 42.3256106,63.6578697 43.894199,62.3106586 L51.2418421,56 Z" id="Combined-Shape" fill="#FFFFFF"></path>
                        <ellipse id="Oval-10" fill="#5C38E3" cx="41.5546772" cy="34.25" rx="6.25823452" ry="6.25"></ellipse>
                        <ellipse id="Oval-10-Copy" fill="#5C38E3" cx="83.1093544" cy="34.25" rx="6.25823452" ry="6.25"></ellipse>
                        <path d="M62.3320158,48 C67.1708743,48 70.6586858,40.1371494 70.6586858,40.1371494 C70.8988514,39.6471903 70.6427783,39.25 70.1012215,39.25 L54.5628101,39.25 C54.0147655,39.25 53.7595945,39.6487063 54.0137665,40.1534471 C54.0137665,40.1534471 57.4931573,48 62.3320158,48 Z" id="Oval-11" fill="#938F9F"></path>
                    </g>
                    <g id="body" transform="translate(42.305665, 86.750000)">
                        <use id="Rectangle-40-Copy-2" stroke="#938F9F" mask="url(#mask-22)" stroke-width="5" fill="#272040" xlink:href="#path-21"></use>
                        <use id="Rectangle-40-Copy-3" stroke="#938F9F" mask="url(#mask-24)" stroke-width="5" fill="#272040" xlink:href="#path-23"></use>
                        <ellipse id="Oval-12" fill="#FFFFFF" cx="11.8906456" cy="8.875" rx="1.87747036" ry="1.875"></ellipse>
                        <ellipse id="Oval-12-Copy" fill="#5C38E3" cx="17.5230567" cy="9" rx="1.2516469" ry="1.25"></ellipse>
                    </g>
                </g>
            </g>
        </g>
    </g>
</svg>