<?xml version="1.0" encoding="UTF-8" standalone="no"?>
<svg width="256px" height="256px" viewBox="0 0 256 256" version="1.1" xmlns="http://www.w3.org/2000/svg" xmlns:xlink="http://www.w3.org/1999/xlink">
    <!-- Generator: Sketch 41.1 (35376) - http://www.bohemiancoding.com/sketch -->
    <title>illustration-store</title>
    <desc>Created with Sketch.</desc>
    <defs>
        <circle id="path-1" cx="128" cy="128" r="88"></circle>
        <mask id="mask-2" maskContentUnits="userSpaceOnUse" maskUnits="objectBoundingBox" x="-24" y="-24" width="224" height="224">
            <rect x="16" y="16" width="224" height="224" fill="white"></rect>
            <use xlink:href="#path-1" fill="black"></use>
        </mask>
        <circle id="path-3" cx="5" cy="177.25" r="5"></circle>
        <mask id="mask-4" maskContentUnits="userSpaceOnUse" maskUnits="objectBoundingBox" x="0" y="0" width="10" height="10" fill="white">
            <use xlink:href="#path-3"></use>
        </mask>
        <circle id="path-5" cx="111" cy="195.75" r="5"></circle>
        <mask id="mask-6" maskContentUnits="userSpaceOnUse" maskUnits="objectBoundingBox" x="0" y="0" width="10" height="10" fill="white">
            <use xlink:href="#path-5"></use>
        </mask>
        <circle id="path-7" cx="62.25" cy="5" r="5"></circle>
        <mask id="mask-8" maskContentUnits="userSpaceOnUse" maskUnits="objectBoundingBox" x="0" y="0" width="10" height="10" fill="white">
            <use xlink:href="#path-7"></use>
        </mask>
        <circle id="path-9" cx="3.75" cy="114.5" r="3.75"></circle>
        <mask id="mask-10" maskContentUnits="userSpaceOnUse" maskUnits="objectBoundingBox" x="0" y="0" width="7.5" height="7.5" fill="white">
            <use xlink:href="#path-9"></use>
        </mask>
        <circle id="path-11" cx="175" cy="150.25" r="3.75"></circle>
        <mask id="mask-12" maskContentUnits="userSpaceOnUse" maskUnits="objectBoundingBox" x="0" y="0" width="7.5" height="7.5" fill="white">
            <use xlink:href="#path-11"></use>
        </mask>
        <circle id="path-13" cx="165.25" cy="38.25" r="3.75"></circle>
        <mask id="mask-14" maskContentUnits="userSpaceOnUse" maskUnits="objectBoundingBox" x="0" y="0" width="7.5" height="7.5" fill="white">
            <use xlink:href="#path-13"></use>
        </mask>
        <rect id="path-15" x="6.75" y="0" width="88.5" height="128" rx="2.5"></rect>
        <mask id="mask-16" maskContentUnits="userSpaceOnUse" maskUnits="objectBoundingBox" x="0" y="0" width="88.5" height="128" fill="white">
            <use xlink:href="#path-15"></use>
        </mask>
        <rect id="path-17" x="0" y="0" width="102" height="10" rx="2.5"></rect>
        <mask id="mask-18" maskContentUnits="userSpaceOnUse" maskUnits="objectBoundingBox" x="0" y="0" width="102" height="10" fill="white">
            <use xlink:href="#path-17"></use>
        </mask>
        <rect id="path-19" x="0" y="0" width="11.25" height="42"></rect>
        <mask id="mask-20" maskContentUnits="userSpaceOnUse" maskUnits="objectBoundingBox" x="0" y="0" width="11.25" height="42" fill="white">
            <use xlink:href="#path-19"></use>
        </mask>
        <rect id="path-21" x="0" y="0" width="11.25" height="42"></rect>
        <mask id="mask-22" maskContentUnits="userSpaceOnUse" maskUnits="objectBoundingBox" x="0" y="0" width="11.25" height="42" fill="white">
            <use xlink:href="#path-21"></use>
        </mask>
        <rect id="path-23" x="1.25" y="0" width="17.5" height="30"></rect>
        <mask id="mask-24" maskContentUnits="userSpaceOnUse" maskUnits="objectBoundingBox" x="0" y="0" width="17.5" height="30" fill="white">
            <use xlink:href="#path-23"></use>
        </mask>
        <rect id="path-25" x="0" y="25" width="20" height="5" rx="1"></rect>
        <mask id="mask-26" maskContentUnits="userSpaceOnUse" maskUnits="objectBoundingBox" x="0" y="0" width="20" height="5" fill="white">
            <use xlink:href="#path-25"></use>
        </mask>
        <rect id="path-27" x="1.25" y="0" width="17.5" height="30"></rect>
        <mask id="mask-28" maskContentUnits="userSpaceOnUse" maskUnits="objectBoundingBox" x="0" y="0" width="17.5" height="30" fill="white">
            <use xlink:href="#path-27"></use>
        </mask>
        <rect id="path-29" x="0" y="25" width="20" height="5" rx="1"></rect>
        <mask id="mask-30" maskContentUnits="userSpaceOnUse" maskUnits="objectBoundingBox" x="0" y="0" width="20" height="5" fill="white">
            <use xlink:href="#path-29"></use>
        </mask>
        <rect id="path-31" x="1.25" y="0" width="17.5" height="30"></rect>
        <mask id="mask-32" maskContentUnits="userSpaceOnUse" maskUnits="objectBoundingBox" x="0" y="0" width="17.5" height="30" fill="white">
            <use xlink:href="#path-31"></use>
        </mask>
        <rect id="path-33" x="0" y="25" width="20" height="5" rx="1"></rect>
        <mask id="mask-34" maskContentUnits="userSpaceOnUse" maskUnits="objectBoundingBox" x="0" y="0" width="20" height="5" fill="white">
            <use xlink:href="#path-33"></use>
        </mask>
        <rect id="path-35" x="59.5" y="86" width="26.5" height="42"></rect>
        <mask id="mask-36" maskContentUnits="userSpaceOnUse" maskUnits="objectBoundingBox" x="0" y="0" width="26.5" height="42" fill="white">
            <use xlink:href="#path-35"></use>
        </mask>
        <rect id="path-37" x="0" y="9.25" width="14" height="21.25" rx="1"></rect>
        <mask id="mask-38" maskContentUnits="userSpaceOnUse" maskUnits="objectBoundingBox" x="0" y="0" width="14" height="21.25" fill="white">
            <use xlink:href="#path-37"></use>
        </mask>
        <rect id="path-39" x="0" y="0" width="14" height="4.75" rx="1"></rect>
        <mask id="mask-40" maskContentUnits="userSpaceOnUse" maskUnits="objectBoundingBox" x="0" y="0" width="14" height="4.75" fill="white">
            <use xlink:href="#path-39"></use>
        </mask>
        <rect id="path-41" x="24.25" y="103.25" width="2.5" height="12"></rect>
        <mask id="mask-42" maskContentUnits="userSpaceOnUse" maskUnits="objectBoundingBox" x="0" y="0" width="2.5" height="12" fill="white">
            <use xlink:href="#path-41"></use>
        </mask>
        <rect id="path-43" x="50.75" y="103.25" width="2.5" height="12"></rect>
        <mask id="mask-44" maskContentUnits="userSpaceOnUse" maskUnits="objectBoundingBox" x="0" y="0" width="2.5" height="12" fill="white">
            <use xlink:href="#path-43"></use>
        </mask>
        <rect id="path-45" x="37.5" y="109" width="2.5" height="6.25"></rect>
        <mask id="mask-46" maskContentUnits="userSpaceOnUse" maskUnits="objectBoundingBox" x="0" y="0" width="2.5" height="6.25" fill="white">
            <use xlink:href="#path-45"></use>
        </mask>
        <rect id="path-47" x="30.5" y="107" width="16.5" height="4"></rect>
        <mask id="mask-48" maskContentUnits="userSpaceOnUse" maskUnits="objectBoundingBox" x="0" y="0" width="16.5" height="4" fill="white">
            <use xlink:href="#path-47"></use>
        </mask>
        <rect id="path-49" x="0" y="55.75" width="102" height="32.75" rx="2.5"></rect>
        <mask id="mask-50" maskContentUnits="userSpaceOnUse" maskUnits="objectBoundingBox" x="0" y="0" width="102" height="32.75" fill="white">
            <use xlink:href="#path-49"></use>
        </mask>
        <rect id="path-51" x="88.5" y="58.25" width="11" height="27.75"></rect>
        <mask id="mask-52" maskContentUnits="userSpaceOnUse" maskUnits="objectBoundingBox" x="0" y="0" width="11" height="27.75" fill="white">
            <use xlink:href="#path-51"></use>
        </mask>
        <rect id="path-53" x="77.75" y="58.25" width="10.75" height="27.75"></rect>
        <mask id="mask-54" maskContentUnits="userSpaceOnUse" maskUnits="objectBoundingBox" x="0" y="0" width="10.75" height="27.75" fill="white">
            <use xlink:href="#path-53"></use>
        </mask>
        <rect id="path-55" x="67" y="58.25" width="10.75" height="27.75"></rect>
        <mask id="mask-56" maskContentUnits="userSpaceOnUse" maskUnits="objectBoundingBox" x="0" y="0" width="10.75" height="27.75" fill="white">
            <use xlink:href="#path-55"></use>
        </mask>
        <rect id="path-57" x="56.25" y="58.25" width="10.75" height="27.75"></rect>
        <mask id="mask-58" maskContentUnits="userSpaceOnUse" maskUnits="objectBoundingBox" x="0" y="0" width="10.75" height="27.75" fill="white">
            <use xlink:href="#path-57"></use>
        </mask>
        <rect id="path-59" x="45.5" y="58.25" width="10.75" height="27.75"></rect>
        <mask id="mask-60" maskContentUnits="userSpaceOnUse" maskUnits="objectBoundingBox" x="0" y="0" width="10.75" height="27.75" fill="white">
            <use xlink:href="#path-59"></use>
        </mask>
        <rect id="path-61" x="34.75" y="58.25" width="10.75" height="27.75"></rect>
        <mask id="mask-62" maskContentUnits="userSpaceOnUse" maskUnits="objectBoundingBox" x="0" y="0" width="10.75" height="27.75" fill="white">
            <use xlink:href="#path-61"></use>
        </mask>
        <rect id="path-63" x="24" y="58.25" width="10.75" height="27.75"></rect>
        <mask id="mask-64" maskContentUnits="userSpaceOnUse" maskUnits="objectBoundingBox" x="0" y="0" width="10.75" height="27.75" fill="white">
            <use xlink:href="#path-63"></use>
        </mask>
        <rect id="path-65" x="13.25" y="58.25" width="10.75" height="27.75"></rect>
        <mask id="mask-66" maskContentUnits="userSpaceOnUse" maskUnits="objectBoundingBox" x="0" y="0" width="10.75" height="27.75" fill="white">
            <use xlink:href="#path-65"></use>
        </mask>
        <rect id="path-67" x="2.5" y="58.25" width="10.75" height="27.75"></rect>
        <mask id="mask-68" maskContentUnits="userSpaceOnUse" maskUnits="objectBoundingBox" x="0" y="0" width="10.75" height="27.75" fill="white">
            <use xlink:href="#path-67"></use>
        </mask>
    </defs>
    <g id="Illustrations" stroke="none" stroke-width="1" fill="none" fill-rule="evenodd">
        <g id="illustration-store">
            <g id="Oval-13">
                <use fill="#E7E7E8" fill-rule="evenodd" xlink:href="#path-1"></use>
                <use stroke="#F4F4F5" mask="url(#mask-2)" stroke-width="48" xlink:href="#path-1"></use>
            </g>
            <g id="background-shapes" transform="translate(43.750000, 13.500000)">
                <use id="Oval-14" stroke="#5C38E3" mask="url(#mask-4)" stroke-width="5" fill="#F4F4F5" xlink:href="#path-3"></use>
                <use id="Oval-14-Copy-3" stroke="#D3D2D7" mask="url(#mask-6)" stroke-width="5" fill="#F4F4F5" xlink:href="#path-5"></use>
                <use id="Oval-14-Copy-4" stroke="#D3D2D7" mask="url(#mask-8)" stroke-width="5" fill="#F4F4F5" xlink:href="#path-7"></use>
                <use id="Oval-14-Copy" stroke="#D3D2D7" mask="url(#mask-10)" stroke-width="5" fill="#F4F4F5" xlink:href="#path-9"></use>
                <use id="Oval-14-Copy-5" stroke="#D3D2D7" mask="url(#mask-12)" stroke-width="5" fill="#F4F4F5" xlink:href="#path-11"></use>
                <use id="Oval-14-Copy-2" stroke="#5C38E3" mask="url(#mask-14)" stroke-width="5" fill="#F4F4F5" xlink:href="#path-13"></use>
                <path d="M107.625,34.875 L107.625,32.6230879 C107.625,31.7217407 106.897463,31 106,31 C105.09628,31 104.375,31.7266812 104.375,32.6230879 L104.375,34.875 L102.123088,34.875 C101.221741,34.875 100.5,35.6025373 100.5,36.5 C100.5,37.4037197 101.226681,38.125 102.123088,38.125 L104.375,38.125 L104.375,40.3769121 C104.375,41.2782593 105.102537,42 106,42 C106.90372,42 107.625,41.2733188 107.625,40.3769121 L107.625,38.125 L109.876912,38.125 C110.778259,38.125 111.5,37.3974627 111.5,36.5 C111.5,35.5962803 110.773319,34.875 109.876912,34.875 L107.625,34.875 Z" id="Combined-Shape" fill="#D8D8D8" transform="translate(106.000000, 36.500000) rotate(5.000000) translate(-106.000000, -36.500000) "></path>
                <path d="M185.829545,201.420455 L185.829545,199.577981 C185.829545,198.840515 185.234288,198.25 184.5,198.25 C183.760593,198.25 183.170455,198.844557 183.170455,199.577981 L183.170455,201.420455 L181.327981,201.420455 C180.590515,201.420455 180,202.015712 180,202.75 C180,203.489407 180.594557,204.079545 181.327981,204.079545 L183.170455,204.079545 L183.170455,205.922019 C183.170455,206.659485 183.765712,207.25 184.5,207.25 C185.239407,207.25 185.829545,206.655443 185.829545,205.922019 L185.829545,204.079545 L187.672019,204.079545 C188.409485,204.079545 189,203.484288 189,202.75 C189,202.010593 188.405443,201.420455 187.672019,201.420455 L185.829545,201.420455 Z" id="Combined-Shape-Copy" fill="#5C38E3" transform="translate(184.500000, 202.750000) rotate(10.000000) translate(-184.500000, -202.750000) "></path>
                <path d="M40.5795455,221.920455 L40.5795455,220.077981 C40.5795455,219.340515 39.9842877,218.75 39.25,218.75 C38.510593,218.75 37.9204545,219.344557 37.9204545,220.077981 L37.9204545,221.920455 L36.077981,221.920455 C35.3405151,221.920455 34.75,222.515712 34.75,223.25 C34.75,223.989407 35.3445573,224.579545 36.077981,224.579545 L37.9204545,224.579545 L37.9204545,226.422019 C37.9204545,227.159485 38.5157123,227.75 39.25,227.75 C39.989407,227.75 40.5795455,227.155443 40.5795455,226.422019 L40.5795455,224.579545 L42.422019,224.579545 C43.1594849,224.579545 43.75,223.984288 43.75,223.25 C43.75,222.510593 43.1554427,221.920455 42.422019,221.920455 L40.5795455,221.920455 Z" id="Combined-Shape-Copy-3" fill="#D8D8D8" transform="translate(39.250000, 223.250000) rotate(-15.000000) translate(-39.250000, -223.250000) "></path>
                <path d="M185.829545,98.1704545 L185.829545,96.327981 C185.829545,95.5905151 185.234288,95 184.5,95 C183.760593,95 183.170455,95.5945573 183.170455,96.327981 L183.170455,98.1704545 L181.327981,98.1704545 C180.590515,98.1704545 180,98.7657123 180,99.5 C180,100.239407 180.594557,100.829545 181.327981,100.829545 L183.170455,100.829545 L183.170455,102.672019 C183.170455,103.409485 183.765712,104 184.5,104 C185.239407,104 185.829545,103.405443 185.829545,102.672019 L185.829545,100.829545 L187.672019,100.829545 C188.409485,100.829545 189,100.234288 189,99.5 C189,98.760593 188.405443,98.1704545 187.672019,98.1704545 L185.829545,98.1704545 Z" id="Combined-Shape-Copy-2" fill="#5C38E3" transform="translate(184.500000, 99.500000) rotate(10.000000) translate(-184.500000, -99.500000) "></path>
                <path d="M20.3472529,52.938162 L20.3472529,51.0956884 C20.3472529,50.3582226 19.7519951,49.7677074 19.0177074,49.7677074 C18.2783004,49.7677074 17.688162,50.3622648 17.688162,51.0956884 L17.688162,52.938162 L15.8456884,52.938162 C15.1082226,52.938162 14.5177074,53.5334198 14.5177074,54.2677074 C14.5177074,55.0071144 15.1122648,55.5972529 15.8456884,55.5972529 L17.688162,55.5972529 L17.688162,57.4397264 C17.688162,58.1771923 18.2834198,58.7677074 19.0177074,58.7677074 C19.7571144,58.7677074 20.3472529,58.1731501 20.3472529,57.4397264 L20.3472529,55.5972529 L22.1897264,55.5972529 C22.9271923,55.5972529 23.5177074,55.0019951 23.5177074,54.2677074 C23.5177074,53.5283004 22.9231501,52.938162 22.1897264,52.938162 L20.3472529,52.938162 Z" id="Combined-Shape-Copy-4" fill="#5C38E3" transform="translate(19.017707, 54.267707) rotate(-20.000000) translate(-19.017707, -54.267707) "></path>
            </g>
            <g transform="translate(64.000000, 64.000000)">
                <rect id="Rectangle-26" x="0" y="0" width="128" height="128"></rect>
                <g transform="translate(13.000000, 0.000000)">
                    <use id="Rectangle-49" stroke="#938F9F" mask="url(#mask-16)" stroke-width="5" fill="#272040" xlink:href="#path-15"></use>
                    <use id="Rectangle-50" stroke="#938F9F" mask="url(#mask-18)" stroke-width="5" fill="#D3D2D7" xlink:href="#path-17"></use>
                    <g id="Group" transform="translate(6.750000, 86.000000)" stroke="#938F9F" stroke-width="5" fill="#D3D2D7">
                        <use id="Rectangle-51" mask="url(#mask-20)" xlink:href="#path-19"></use>
                    </g>
                    <g id="Group-Copy" transform="translate(84.000000, 86.000000)" stroke="#938F9F" stroke-width="5" fill="#D3D2D7">
                        <use id="Rectangle-51" mask="url(#mask-22)" xlink:href="#path-21"></use>
                    </g>
                    <g id="window" transform="translate(16.000000, 17.500000)">
                        <use id="Rectangle-53" stroke="#938F9F" mask="url(#mask-24)" stroke-width="2.5" fill="#FFFFFF" xlink:href="#path-23"></use>
                        <rect id="Rectangle" fill="#938F9F" x="2.25" y="15.75" width="15.75" height="1"></rect>
                        <rect id="Rectangle-Copy" fill="#938F9F" x="2.25" y="6.25" width="15.75" height="1.75"></rect>
                        <use id="Rectangle-54" stroke="#938F9F" mask="url(#mask-26)" stroke-width="2.5" fill="#D3D2D7" xlink:href="#path-25"></use>
                    </g>
                    <g id="window-copy" transform="translate(41.000000, 17.500000)">
                        <use id="Rectangle-53" stroke="#938F9F" mask="url(#mask-28)" stroke-width="2.5" fill="#FFFFFF" xlink:href="#path-27"></use>
                        <rect id="Rectangle" fill="#938F9F" x="2.25" y="15.75" width="15.75" height="1"></rect>
                        <rect id="Rectangle-Copy" fill="#938F9F" x="2.25" y="6.25" width="15.75" height="1.75"></rect>
                        <use id="Rectangle-54" stroke="#938F9F" mask="url(#mask-30)" stroke-width="2.5" fill="#D3D2D7" xlink:href="#path-29"></use>
                    </g>
                    <g id="window-copy-2" transform="translate(66.000000, 17.500000)">
                        <use id="Rectangle-53" stroke="#938F9F" mask="url(#mask-32)" stroke-width="2.5" fill="#FFFFFF" xlink:href="#path-31"></use>
                        <rect id="Rectangle" fill="#938F9F" x="2.25" y="15.75" width="15.75" height="1"></rect>
                        <rect id="Rectangle-Copy" fill="#938F9F" x="2.25" y="6.25" width="15.75" height="1.75"></rect>
                        <use id="Rectangle-54" stroke="#938F9F" mask="url(#mask-34)" stroke-width="2.5" fill="#D3D2D7" xlink:href="#path-33"></use>
                    </g>
                    <rect id="Rectangle-55" fill="#FFFFFF" x="18" y="86" width="41.5" height="29.25"></rect>
                    <use id="Rectangle-56" stroke="#938F9F" mask="url(#mask-36)" stroke-width="5" fill="#272040" xlink:href="#path-35"></use>
                    <g id="Group-2" transform="translate(65.750000, 91.750000)" stroke="#938F9F" fill="#FFFFFF">
                        <use id="Rectangle-58" mask="url(#mask-38)" xlink:href="#path-37"></use>
                        <use id="Rectangle-58-Copy" mask="url(#mask-40)" xlink:href="#path-39"></use>
                    </g>
                    <use id="Rectangle-57" stroke="#938F9F" mask="url(#mask-42)" stroke-width="2.5" fill="#D8D8D8" xlink:href="#path-41"></use>
                    <use id="Rectangle-57-Copy" stroke="#938F9F" mask="url(#mask-44)" stroke-width="2.5" fill="#D8D8D8" xlink:href="#path-43"></use>
                    <use id="Rectangle-57-Copy-3" stroke="#938F9F" mask="url(#mask-46)" stroke-width="2.5" fill="#272040" xlink:href="#path-45"></use>
                    <use id="Rectangle-57-Copy-2" stroke="#938F9F" mask="url(#mask-48)" stroke-width="2.5" fill="#272040" xlink:href="#path-47"></use>
                    <use id="Rectangle-50-Copy" stroke="#938F9F" mask="url(#mask-50)" stroke-width="5" xlink:href="#path-49"></use>
                    <use id="Rectangle-59-Copy-66" stroke="#938F9F" mask="url(#mask-52)" fill="#FFFFFF" xlink:href="#path-51"></use>
                    <use id="Rectangle-59-Copy-65" stroke="#938F9F" mask="url(#mask-54)" fill="#5C38E3" xlink:href="#path-53"></use>
                    <use id="Rectangle-59-Copy-64" stroke="#938F9F" mask="url(#mask-56)" fill="#FFFFFF" xlink:href="#path-55"></use>
                    <use id="Rectangle-59-Copy-63" stroke="#938F9F" mask="url(#mask-58)" fill="#5C38E3" xlink:href="#path-57"></use>
                    <use id="Rectangle-59-Copy-62" stroke="#938F9F" mask="url(#mask-60)" fill="#FFFFFF" xlink:href="#path-59"></use>
                    <use id="Rectangle-59-Copy-61" stroke="#938F9F" mask="url(#mask-62)" fill="#5C38E3" xlink:href="#path-61"></use>
                    <use id="Rectangle-59-Copy-60" stroke="#938F9F" mask="url(#mask-64)" fill="#FFFFFF" xlink:href="#path-63"></use>
                    <use id="Rectangle-59-Copy" stroke="#938F9F" mask="url(#mask-66)" fill="#5C38E3" xlink:href="#path-65"></use>
                    <use id="Rectangle-59" stroke="#938F9F" mask="url(#mask-68)" fill="#FFFFFF" xlink:href="#path-67"></use>
                    <rect id="Rectangle-60" fill="#938F9F" x="1.75" y="78" width="98.75" height="1.25"></rect>
                    <rect id="Rectangle-61" fill-opacity="0.2" fill="#272040" x="2.5" y="79.25" width="97" height="6.75"></rect>
                </g>
            </g>
        </g>
    </g>
</svg>