<?xml version="1.0" encoding="UTF-8" standalone="no"?>
<svg width="512px" height="512px" viewBox="0 0 512 512" version="1.1" xmlns="http://www.w3.org/2000/svg" xmlns:xlink="http://www.w3.org/1999/xlink">
    <!-- Generator: Sketch 41.1 (35376) - http://www.bohemiancoding.com/sketch -->
    <title>illustration-process-2-dark</title>
    <desc>Created with Sketch.</desc>
    <defs>
        <circle id="path-1" cx="233.5" cy="229" r="176"></circle>
        <mask id="mask-2" maskContentUnits="userSpaceOnUse" maskUnits="objectBoundingBox" x="-48" y="-48" width="448" height="448">
            <rect x="9.5" y="5" width="448" height="448" fill="white"></rect>
            <use xlink:href="#path-1" fill="black"></use>
        </mask>
        <circle id="path-3" cx="75" cy="354.5" r="10"></circle>
        <mask id="mask-4" maskContentUnits="userSpaceOnUse" maskUnits="objectBoundingBox" x="0" y="0" width="20" height="20" fill="white">
            <use xlink:href="#path-3"></use>
        </mask>
        <circle id="path-5" cx="287" cy="406.5" r="10"></circle>
        <mask id="mask-6" maskContentUnits="userSpaceOnUse" maskUnits="objectBoundingBox" x="0" y="0" width="20" height="20" fill="white">
            <use xlink:href="#path-5"></use>
        </mask>
        <circle id="path-7" cx="189.5" cy="10" r="10"></circle>
        <mask id="mask-8" maskContentUnits="userSpaceOnUse" maskUnits="objectBoundingBox" x="0" y="0" width="20" height="20" fill="white">
            <use xlink:href="#path-7"></use>
        </mask>
        <circle id="path-9" cx="7.5" cy="169" r="7.5"></circle>
        <mask id="mask-10" maskContentUnits="userSpaceOnUse" maskUnits="objectBoundingBox" x="0" y="0" width="15" height="15" fill="white">
            <use xlink:href="#path-9"></use>
        </mask>
        <circle id="path-11" cx="415" cy="300.5" r="7.5"></circle>
        <mask id="mask-12" maskContentUnits="userSpaceOnUse" maskUnits="objectBoundingBox" x="0" y="0" width="15" height="15" fill="white">
            <use xlink:href="#path-11"></use>
        </mask>
        <circle id="path-13" cx="395.5" cy="76.5" r="7.5"></circle>
        <mask id="mask-14" maskContentUnits="userSpaceOnUse" maskUnits="objectBoundingBox" x="0" y="0" width="15" height="15" fill="white">
            <use xlink:href="#path-13"></use>
        </mask>
        <rect id="path-15" x="0.0133559616" y="0.344984172" width="37.1287129" height="37.1287129" rx="1.48514851"></rect>
        <mask id="mask-16" maskContentUnits="userSpaceOnUse" maskUnits="objectBoundingBox" x="0" y="0" width="37.1287129" height="37.1287129" fill="white">
            <use xlink:href="#path-15"></use>
        </mask>
        <rect id="path-17" x="0.0133559616" y="0.344984172" width="37.1287129" height="37.1287129" rx="1.48514851"></rect>
        <mask id="mask-18" maskContentUnits="userSpaceOnUse" maskUnits="objectBoundingBox" x="0" y="0" width="37.1287129" height="37.1287129" fill="white">
            <use xlink:href="#path-17"></use>
        </mask>
        <rect id="path-19" x="35.013356" y="172.844984" width="37.1287129" height="37.1287129" rx="1.48514851"></rect>
        <mask id="mask-20" maskContentUnits="userSpaceOnUse" maskUnits="objectBoundingBox" x="0" y="0" width="37.1287129" height="37.1287129" fill="white">
            <use xlink:href="#path-19"></use>
        </mask>
    </defs>
    <g id="Illustrations" stroke="none" stroke-width="1" fill="none" fill-rule="evenodd">
        <g id="illustration-process-2-dark">
            <g id="background-dark" transform="translate(22.500000, 27.000000)">
                <g id="Oval-13">
                    <use fill="#524D66" fill-rule="evenodd" xlink:href="#path-1"></use>
                    <use stroke="#7D798C" mask="url(#mask-2)" stroke-width="96" xlink:href="#path-1"></use>
                </g>
                <g id="background-shapes">
                    <use id="Oval-14" stroke="#5C38E3" mask="url(#mask-4)" stroke-width="10" fill="#7D798C" xlink:href="#path-3"></use>
                    <use id="Oval-14-Copy-3" stroke="#3C3653" mask="url(#mask-6)" stroke-width="10" fill="#7D798C" xlink:href="#path-5"></use>
                    <use id="Oval-14-Copy-4" stroke="#3C3653" mask="url(#mask-8)" stroke-width="10" fill="#7D798C" xlink:href="#path-7"></use>
                    <use id="Oval-14-Copy" stroke="#3C3653" mask="url(#mask-10)" stroke-width="10" fill="#7D798C" xlink:href="#path-9"></use>
                    <use id="Oval-14-Copy-5" stroke="#3C3653" mask="url(#mask-12)" stroke-width="10" fill="#7D798C" xlink:href="#path-11"></use>
                    <use id="Oval-14-Copy-2" stroke="#5C38E3" mask="url(#mask-14)" stroke-width="10" fill="#7D798C" xlink:href="#path-13"></use>
                    <path d="M280.25,69.75 L280.25,65.2461758 C280.25,63.4605192 278.794925,62 277,62 C275.208727,62 273.75,63.4533624 273.75,65.2461758 L273.75,69.75 L269.246176,69.75 C267.460519,69.75 266,71.2050746 266,73 C266,74.7912731 267.453362,76.25 269.246176,76.25 L273.75,76.25 L273.75,80.7538242 C273.75,82.5394808 275.205075,84 277,84 C278.791273,84 280.25,82.5466376 280.25,80.7538242 L280.25,76.25 L284.753824,76.25 C286.539481,76.25 288,74.7949254 288,73 C288,71.2087269 286.546638,69.75 284.753824,69.75 L280.25,69.75 Z" id="Combined-Shape" fill="#524D66" transform="translate(277.000000, 73.000000) rotate(5.000000) translate(-277.000000, -73.000000) "></path>
                    <path d="M436.659091,402.840909 L436.659091,399.155962 C436.659091,397.68103 435.468575,396.5 434,396.5 C432.534413,396.5 431.340909,397.689115 431.340909,399.155962 L431.340909,402.840909 L427.655962,402.840909 C426.18103,402.840909 425,404.031425 425,405.5 C425,406.965587 426.189115,408.159091 427.655962,408.159091 L431.340909,408.159091 L431.340909,411.844038 C431.340909,413.31897 432.531425,414.5 434,414.5 C435.465587,414.5 436.659091,413.310885 436.659091,411.844038 L436.659091,408.159091 L440.344038,408.159091 C441.81897,408.159091 443,406.968575 443,405.5 C443,404.034413 441.810885,402.840909 440.344038,402.840909 L436.659091,402.840909 Z" id="Combined-Shape-Copy" fill="#5C38E3" transform="translate(434.000000, 405.500000) rotate(10.000000) translate(-434.000000, -405.500000) "></path>
                    <path d="M146.159091,443.840909 L146.159091,440.155962 C146.159091,438.68103 144.968575,437.5 143.5,437.5 C142.034413,437.5 140.840909,438.689115 140.840909,440.155962 L140.840909,443.840909 L137.155962,443.840909 C135.68103,443.840909 134.5,445.031425 134.5,446.5 C134.5,447.965587 135.689115,449.159091 137.155962,449.159091 L140.840909,449.159091 L140.840909,452.844038 C140.840909,454.31897 142.031425,455.5 143.5,455.5 C144.965587,455.5 146.159091,454.310885 146.159091,452.844038 L146.159091,449.159091 L149.844038,449.159091 C151.31897,449.159091 152.5,447.968575 152.5,446.5 C152.5,445.034413 151.310885,443.840909 149.844038,443.840909 L146.159091,443.840909 Z" id="Combined-Shape-Copy-3" fill="#524D66" transform="translate(143.500000, 446.500000) rotate(-15.000000) translate(-143.500000, -446.500000) "></path>
                    <path d="M436.659091,196.340909 L436.659091,192.655962 C436.659091,191.18103 435.468575,190 434,190 C432.534413,190 431.340909,191.189115 431.340909,192.655962 L431.340909,196.340909 L427.655962,196.340909 C426.18103,196.340909 425,197.531425 425,199 C425,200.465587 426.189115,201.659091 427.655962,201.659091 L431.340909,201.659091 L431.340909,205.344038 C431.340909,206.81897 432.531425,208 434,208 C435.465587,208 436.659091,206.810885 436.659091,205.344038 L436.659091,201.659091 L440.344038,201.659091 C441.81897,201.659091 443,200.468575 443,199 C443,197.534413 441.810885,196.340909 440.344038,196.340909 L436.659091,196.340909 Z" id="Combined-Shape-Copy-2" fill="#5C38E3" transform="translate(434.000000, 199.000000) rotate(10.000000) translate(-434.000000, -199.000000) "></path>
                    <path d="M103.159091,70.8409091 L103.159091,67.155962 C103.159091,65.6810303 101.968575,64.5 100.5,64.5 C99.0344129,64.5 97.8409091,65.6891147 97.8409091,67.155962 L97.8409091,70.8409091 L94.155962,70.8409091 C92.6810303,70.8409091 91.5,72.0314246 91.5,73.5 C91.5,74.9655871 92.6891147,76.1590909 94.155962,76.1590909 L97.8409091,76.1590909 L97.8409091,79.844038 C97.8409091,81.3189697 99.0314246,82.5 100.5,82.5 C101.965587,82.5 103.159091,81.3108853 103.159091,79.844038 L103.159091,76.1590909 L106.844038,76.1590909 C108.31897,76.1590909 109.5,74.9685754 109.5,73.5 C109.5,72.0344129 108.310885,70.8409091 106.844038,70.8409091 L103.159091,70.8409091 Z" id="Combined-Shape-Copy-4" fill="#5C38E3" transform="translate(100.500000, 73.500000) rotate(-20.000000) translate(-100.500000, -73.500000) "></path>
                </g>
            </g>
            <g id="illustration-planning" transform="translate(128.000000, 128.000000)">
                <rect id="Rectangle-18" x="0" y="0" width="256" height="256"></rect>
                <g transform="translate(18.000000, 5.500000)">
                    <rect id="Rectangle-12" fill="#938F9F" x="0" y="17.5" width="220" height="228" rx="2"></rect>
                    <g id="Group-2" transform="translate(10.000000, 27.500000)"></g>
                    <rect id="Rectangle-12" fill="#FFFFFF" x="10" y="27.5" width="200" height="208" rx="2"></rect>
                    <g id="Group" transform="translate(87.000000, 57.500000)">
                        <rect id="Rectangle-8-Copy" fill="#BFBDC5" x="0" y="0" width="23.5" height="10" rx="2"></rect>
                        <rect id="Rectangle-8" fill="#3C3653" x="0" y="17.5" width="77.5" height="10" rx="2"></rect>
                    </g>
                    <g id="Group-Copy" transform="translate(87.000000, 116.000000)">
                        <rect id="Rectangle-8-Copy" fill="#BFBDC5" x="0" y="0" width="37.5" height="10" rx="2"></rect>
                        <rect id="Rectangle-8" fill="#3C3653" x="0" y="17.5" width="110.5" height="10" rx="2"></rect>
                    </g>
                    <g id="Group-Copy-2" transform="translate(87.000000, 172.500000)">
                        <rect id="Rectangle-8-Copy" fill="#BFBDC5" x="0" y="0" width="37.5" height="10" rx="2"></rect>
                        <rect id="Rectangle-8" fill="#3C3653" x="0" y="17.5" width="64" height="10" rx="2"></rect>
                    </g>
                    <path d="M62.5,17.5 L57.0031567,17.5 C55.8854388,17.5 55,18.3913093 55,19.4907951 L55,35.5092049 C55,36.6017876 55.8968438,37.5 57.0031567,37.5 L162.996843,37.5 C164.114561,37.5 165,36.6086907 165,35.5092049 L165,19.4907951 C165,18.3982124 164.103156,17.5 162.996843,17.5 L158,17.5 L158,10 C158,4.47593818 153.521949,0 147.997993,0 L110,0 C86,6.15529281e-16 72.5036965,1.79804526e-16 72.5036965,1.79804526e-16 C66.9797434,9.45298517e-17 62.5,4.4771525 62.5,10 L62.5,17.5 Z M101.5,19.5048815 C101.5,18.397616 102.391887,17.5 103.507473,17.5 L116.992527,17.5 C118.101224,17.5 119,18.3938998 119,19.5048815 L119,20.4951185 C119,21.602384 118.108113,22.5 116.992527,22.5 L103.507473,22.5 C102.398776,22.5 101.5,21.6061002 101.5,20.4951185 L101.5,19.5048815 Z" id="Combined-Shape" fill="#676279"></path>
                    <g id="Group-3" transform="translate(35.000000, 57.500000)">
                        <path d="M14.0232139,20.8520014 L9.76497312,16.5937606 C9.1844381,16.0132256 8.24956632,16.0185168 7.6696914,16.5983918 L4.51881131,19.7492718 C3.93482774,20.3332554 3.93686297,21.2672363 4.51418019,21.8445536 L9.58676191,26.9171353 C9.64523637,27.0101426 9.71498214,27.0981286 9.79599081,27.1791373 L12.9468709,30.3300174 C13.5308545,30.914001 14.4645747,30.9122264 15.0415703,30.3352308 L32.6425578,12.7342433 C33.2199885,12.1568127 33.2172193,11.2194188 32.6373444,10.6395439 L29.4864643,7.48866382 C28.9024807,6.90468024 27.9687605,6.90645478 27.3917649,7.48345042 L14.0232139,20.8520014 Z" id="Combined-Shape" fill="#5C38E3"></path>
                        <use id="Rectangle-17" stroke="#3C3653" mask="url(#mask-16)" stroke-width="7.42574257" xlink:href="#path-15"></use>
                    </g>
                    <g id="Group-3-Copy" transform="translate(35.000000, 115.000000)">
                        <path d="M14.0232139,20.8520014 L9.76497312,16.5937606 C9.1844381,16.0132256 8.24956632,16.0185168 7.6696914,16.5983918 L4.51881131,19.7492718 C3.93482774,20.3332554 3.93686297,21.2672363 4.51418019,21.8445536 L9.58676191,26.9171353 C9.64523637,27.0101426 9.71498214,27.0981286 9.79599081,27.1791373 L12.9468709,30.3300174 C13.5308545,30.914001 14.4645747,30.9122264 15.0415703,30.3352308 L32.6425578,12.7342433 C33.2199885,12.1568127 33.2172193,11.2194188 32.6373444,10.6395439 L29.4864643,7.48866382 C28.9024807,6.90468024 27.9687605,6.90645478 27.3917649,7.48345042 L14.0232139,20.8520014 Z" id="Combined-Shape" fill="#5C38E3"></path>
                        <use id="Rectangle-17" stroke="#3C3653" mask="url(#mask-18)" stroke-width="7.42574257" xlink:href="#path-17"></use>
                    </g>
                    <use id="Rectangle-17" stroke="#3C3653" mask="url(#mask-20)" stroke-width="7.42574257" xlink:href="#path-19"></use>
                </g>
            </g>
        </g>
    </g>
</svg>