<?xml version="1.0" encoding="UTF-8" standalone="no"?>
<svg width="519px" height="518px" viewBox="0 0 519 518" version="1.1" xmlns="http://www.w3.org/2000/svg" xmlns:xlink="http://www.w3.org/1999/xlink">
    <!-- Generator: Sketch 41.1 (35376) - http://www.bohemiancoding.com/sketch -->
    <title>process-illustration-3</title>
    <desc>Created with Sketch.</desc>
    <defs>
        <rect id="path-1" x="0" y="0" width="384" height="384" rx="3"></rect>
        <mask id="mask-2" maskContentUnits="userSpaceOnUse" maskUnits="objectBoundingBox" x="-6" y="-6" width="396" height="396">
            <rect x="-6" y="-6" width="396" height="396" fill="white"></rect>
            <use xlink:href="#path-1" fill="black"></use>
        </mask>
        <circle id="path-3" cx="12" cy="12" r="12"></circle>
        <circle id="path-5" cx="12" cy="12" r="12"></circle>
        <circle id="path-7" cx="12" cy="12" r="12"></circle>
        <circle id="path-9" cx="12" cy="12" r="12"></circle>
    </defs>
    <g id="Website-2.0" stroke="none" stroke-width="1" fill="none" fill-rule="evenodd">
        <g id="Process-Copy" transform="translate(-797.000000, -1716.000000)">
            <g id="process-illustration-3" transform="translate(754.000000, 1673.000000)">
                <g id="background">
                    <g>
                        <rect id="Rectangle-10" x="0" y="0" width="300" height="300"></rect>
                        <g id="Group" transform="translate(44.000000, 44.000000)">
                            <circle id="Oval" stroke="#5C38E3" stroke-width="2" opacity="0.1" cx="6" cy="6" r="6"></circle>
                            <circle id="Oval-Copy" stroke="#5C38E3" stroke-width="2" opacity="0.1" cx="106" cy="206" r="6"></circle>
                            <circle id="Oval-2" fill-opacity="0.1" fill="#5C38E3" cx="106" cy="106" r="3"></circle>
                            <circle id="Oval-2-Copy" fill-opacity="0.1" fill="#5C38E3" cx="206" cy="7" r="3"></circle>
                            <rect id="Rectangle-5" stroke="#1A1529" stroke-width="2" opacity="0.1" x="0" y="100" width="12" height="12"></rect>
                            <rect id="Rectangle-5-Copy-3" stroke="#1A1529" stroke-width="2" opacity="0.1" x="100" y="0" width="12" height="12"></rect>
                            <rect id="Rectangle-5-Copy" stroke="#1A1529" stroke-width="2" opacity="0.1" transform="translate(207.485281, 206.485281) rotate(45.000000) translate(-207.485281, -206.485281) " x="201.485281" y="200.485281" width="12" height="12"></rect>
                            <rect id="Rectangle-6" fill="#1A1529" opacity="0.1" x="203" y="103" width="6" height="6"></rect>
                            <rect id="Rectangle-6-Copy" fill="#1A1529" opacity="0.1" transform="translate(6.000000, 206.000000) rotate(45.000000) translate(-6.000000, -206.000000) " x="3" y="203" width="6" height="6"></rect>
                        </g>
                    </g>
                    <g id="background-copy-3" transform="translate(300.000000, 0.000000)">
                        <rect id="Rectangle-10" x="0" y="0" width="300" height="300"></rect>
                        <g id="Group" transform="translate(44.000000, 44.000000)">
                            <circle id="Oval" stroke="#5C38E3" stroke-width="2" opacity="0.1" cx="6" cy="6" r="6"></circle>
                            <circle id="Oval-Copy" stroke="#5C38E3" stroke-width="2" opacity="0.1" cx="106" cy="206" r="6"></circle>
                            <circle id="Oval-2" fill-opacity="0.1" fill="#5C38E3" cx="106" cy="106" r="3"></circle>
                            <circle id="Oval-2-Copy" fill-opacity="0.1" fill="#5C38E3" cx="206" cy="7" r="3"></circle>
                            <rect id="Rectangle-5" stroke="#1A1529" stroke-width="2" opacity="0.1" x="0" y="100" width="12" height="12"></rect>
                            <rect id="Rectangle-5-Copy-3" stroke="#1A1529" stroke-width="2" opacity="0.1" x="100" y="0" width="12" height="12"></rect>
                            <rect id="Rectangle-5-Copy" stroke="#1A1529" stroke-width="2" opacity="0.1" transform="translate(207.485281, 206.485281) rotate(45.000000) translate(-207.485281, -206.485281) " x="201.485281" y="200.485281" width="12" height="12"></rect>
                            <rect id="Rectangle-6" fill="#1A1529" opacity="0.1" x="203" y="103" width="6" height="6"></rect>
                            <rect id="Rectangle-6-Copy" fill="#1A1529" opacity="0.1" transform="translate(6.000000, 206.000000) rotate(45.000000) translate(-6.000000, -206.000000) " x="3" y="203" width="6" height="6"></rect>
                        </g>
                    </g>
                    <g id="background-copy" transform="translate(0.000000, 300.000000)">
                        <rect id="Rectangle-10" x="0" y="0" width="300" height="300"></rect>
                        <g id="Group" transform="translate(44.000000, 44.000000)">
                            <circle id="Oval" stroke="#5C38E3" stroke-width="2" opacity="0.1" cx="6" cy="6" r="6"></circle>
                            <circle id="Oval-Copy" stroke="#5C38E3" stroke-width="2" opacity="0.1" cx="106" cy="206" r="6"></circle>
                            <circle id="Oval-2" fill-opacity="0.1" fill="#5C38E3" cx="106" cy="106" r="3"></circle>
                            <circle id="Oval-2-Copy" fill-opacity="0.1" fill="#5C38E3" cx="206" cy="7" r="3"></circle>
                            <rect id="Rectangle-5" stroke="#1A1529" stroke-width="2" opacity="0.1" x="0" y="100" width="12" height="12"></rect>
                            <rect id="Rectangle-5-Copy-3" stroke="#1A1529" stroke-width="2" opacity="0.1" x="100" y="0" width="12" height="12"></rect>
                            <rect id="Rectangle-5-Copy" stroke="#1A1529" stroke-width="2" opacity="0.1" transform="translate(207.485281, 206.485281) rotate(45.000000) translate(-207.485281, -206.485281) " x="201.485281" y="200.485281" width="12" height="12"></rect>
                            <rect id="Rectangle-6" fill="#1A1529" opacity="0.1" x="203" y="103" width="6" height="6"></rect>
                            <rect id="Rectangle-6-Copy" fill="#1A1529" opacity="0.1" transform="translate(6.000000, 206.000000) rotate(45.000000) translate(-6.000000, -206.000000) " x="3" y="203" width="6" height="6"></rect>
                        </g>
                    </g>
                    <g id="background-copy-2" transform="translate(300.000000, 300.000000)">
                        <rect id="Rectangle-10" x="0" y="0" width="300" height="300"></rect>
                        <g id="Group" transform="translate(44.000000, 44.000000)">
                            <circle id="Oval" stroke="#5C38E3" stroke-width="2" opacity="0.1" cx="6" cy="6" r="6"></circle>
                            <circle id="Oval-Copy" stroke="#5C38E3" stroke-width="2" opacity="0.1" cx="106" cy="206" r="6"></circle>
                            <circle id="Oval-2" fill-opacity="0.1" fill="#5C38E3" cx="106" cy="106" r="3"></circle>
                            <circle id="Oval-2-Copy" fill-opacity="0.1" fill="#5C38E3" cx="206" cy="7" r="3"></circle>
                            <rect id="Rectangle-5" stroke="#1A1529" stroke-width="2" opacity="0.1" x="0" y="100" width="12" height="12"></rect>
                            <rect id="Rectangle-5-Copy-3" stroke="#1A1529" stroke-width="2" opacity="0.1" x="100" y="0" width="12" height="12"></rect>
                            <rect id="Rectangle-5-Copy" stroke="#1A1529" stroke-width="2" opacity="0.1" transform="translate(207.485281, 206.485281) rotate(45.000000) translate(-207.485281, -206.485281) " x="201.485281" y="200.485281" width="12" height="12"></rect>
                            <rect id="Rectangle-6" fill="#1A1529" opacity="0.1" x="203" y="103" width="6" height="6"></rect>
                            <rect id="Rectangle-6-Copy" fill="#1A1529" opacity="0.1" transform="translate(6.000000, 206.000000) rotate(45.000000) translate(-6.000000, -206.000000) " x="3" y="203" width="6" height="6"></rect>
                        </g>
                    </g>
                </g>
                <g id="illustration-development" transform="translate(108.000000, 108.000000)">
                    <g id="Rectangle-11">
                        <use fill="#FFFFFF" fill-rule="evenodd" xlink:href="#path-1"></use>
                        <use stroke="#938F9F" mask="url(#mask-2)" stroke-width="12" xlink:href="#path-1"></use>
                    </g>
                    <g id="chat-bot" transform="translate(18.750000, 26.250000)">
                        <g id="robot" transform="translate(0.000000, 41.250000)">
                            <mask id="mask-4" fill="white">
                                <use xlink:href="#path-3"></use>
                            </mask>
                            <use id="Mask" fill="#7D798C" xlink:href="#path-3"></use>
                            <g mask="url(#mask-4)">
                                <g transform="translate(2.625000, 4.687500)">
                                    <rect id="Rectangle-19-Copy-2" stroke="none" fill="#E7E7E8" fill-rule="evenodd" x="7.3125" y="9.375" width="4.125" height="3.9375" rx="0.75"></rect>
                                    <rect id="Rectangle-19" stroke="none" fill="#C9C7CE" fill-rule="evenodd" x="0" y="11.25" width="18.75" height="8.0625" rx="0.75"></rect>
                                    <rect id="Rectangle-19-Copy" stroke="none" fill="#D3D2D7" fill-rule="evenodd" x="5.0625" y="2.25" width="8.625" height="8.0625" rx="0.75"></rect>
                                    <path id="Line" stroke="#272040" stroke-width="0.5" stroke-linecap="round" fill="none"></path>
                                    <rect id="Rectangle-20" stroke="none" fill="#D8D8D8" fill-rule="evenodd" x="9" y="0.75" width="0.75" height="2.25" rx="0.375"></rect>
                                    <circle id="Oval-4" stroke="none" fill="#5C38E3" fill-rule="evenodd" cx="9.375" cy="0.75" r="0.75"></circle>
                                    <rect id="Rectangle-21" stroke="none" fill="#A9A6B3" fill-rule="evenodd" x="6.375" y="3.5625" width="1.875" height="0.9375" rx="0.46875"></rect>
                                    <rect id="Rectangle-21-Copy" stroke="none" fill="#A9A6B3" fill-rule="evenodd" x="10.5" y="3.5625" width="1.875" height="0.9375" rx="0.46875"></rect>
                                    <rect id="Rectangle-21-Copy-2" stroke="none" fill="#A9A6B3" fill-rule="evenodd" x="6.375" y="6.9375" width="6" height="1.5" rx="0.75"></rect>
                                    <path id="Line" stroke="#272040" stroke-width="0.5" stroke-linecap="round" fill="none"></path>
                                    <path id="Line-Copy" stroke="#272040" stroke-width="0.5" stroke-linecap="round" fill="none"></path>
                                </g>
                            </g>
                        </g>
                        <g id="Group" transform="translate(35.250000, 0.000000)">
                            <rect id="Rectangle-22" fill="#3C3653" x="0" y="0" width="255" height="63.75" rx="3"></rect>
                            <rect id="Rectangle-22-Copy" fill="#E7E7E8" x="15" y="11.25" width="225" height="15" rx="3"></rect>
                            <rect id="Rectangle-22-Copy-2" fill="#E7E7E8" x="15" y="37.5" width="112.5" height="15" rx="3"></rect>
                        </g>
                    </g>
                    <g id="chat-bot-copy-2" transform="translate(18.750000, 234.000000)">
                        <g id="robot" transform="translate(0.000000, 41.250000)">
                            <mask id="mask-6" fill="white">
                                <use xlink:href="#path-5"></use>
                            </mask>
                            <use id="Mask" fill="#7D798C" xlink:href="#path-5"></use>
                            <g mask="url(#mask-6)">
                                <g transform="translate(2.625000, 4.687500)">
                                    <rect id="Rectangle-19-Copy-2" stroke="none" fill="#E7E7E8" fill-rule="evenodd" x="7.3125" y="9.375" width="4.125" height="3.9375" rx="0.75"></rect>
                                    <rect id="Rectangle-19" stroke="none" fill="#C9C7CE" fill-rule="evenodd" x="0" y="11.25" width="18.75" height="8.0625" rx="0.75"></rect>
                                    <rect id="Rectangle-19-Copy" stroke="none" fill="#D3D2D7" fill-rule="evenodd" x="5.0625" y="2.25" width="8.625" height="8.0625" rx="0.75"></rect>
                                    <path id="Line" stroke="#272040" stroke-width="0.5" stroke-linecap="round" fill="none"></path>
                                    <rect id="Rectangle-20" stroke="none" fill="#D8D8D8" fill-rule="evenodd" x="9" y="0.75" width="0.75" height="2.25" rx="0.375"></rect>
                                    <circle id="Oval-4" stroke="none" fill="#5C38E3" fill-rule="evenodd" cx="9.375" cy="0.75" r="0.75"></circle>
                                    <rect id="Rectangle-21" stroke="none" fill="#A9A6B3" fill-rule="evenodd" x="6.375" y="3.5625" width="1.875" height="0.9375" rx="0.46875"></rect>
                                    <rect id="Rectangle-21-Copy" stroke="none" fill="#A9A6B3" fill-rule="evenodd" x="10.5" y="3.5625" width="1.875" height="0.9375" rx="0.46875"></rect>
                                    <rect id="Rectangle-21-Copy-2" stroke="none" fill="#A9A6B3" fill-rule="evenodd" x="6.375" y="6.9375" width="6" height="1.5" rx="0.75"></rect>
                                    <path id="Line" stroke="#272040" stroke-width="0.5" stroke-linecap="round" fill="none"></path>
                                    <path id="Line-Copy" stroke="#272040" stroke-width="0.5" stroke-linecap="round" fill="none"></path>
                                </g>
                            </g>
                        </g>
                        <g id="Group" transform="translate(35.250000, 0.000000)">
                            <rect id="Rectangle-22" fill="#3C3653" x="0" y="0" width="255" height="63.75" rx="3"></rect>
                            <rect id="Rectangle-22-Copy" fill="#E7E7E8" x="15" y="11.25" width="225" height="15" rx="3"></rect>
                            <rect id="Rectangle-22-Copy-2" fill="#E7E7E8" x="15" y="37.5" width="179" height="15" rx="3"></rect>
                        </g>
                    </g>
                    <g id="chat-person-1" transform="translate(75.000000, 117.750000)">
                        <g id="person" transform="translate(266.250000, 66.000000)">
                            <mask id="mask-8" fill="white">
                                <use xlink:href="#path-7"></use>
                            </mask>
                            <use id="Mask" fill="#E7E7E8" xlink:href="#path-7"></use>
                            <g mask="url(#mask-8)">
                                <g transform="translate(2.625000, 6.562500)">
                                    <rect id="Path" stroke="none" fill="#D3D2D7" fill-rule="evenodd" x="7.3125" y="7.5" width="4.125" height="3.9375" rx="0.75"></rect>
                                    <rect id="Rectangle-19" stroke="none" fill="#676279" fill-rule="evenodd" x="0" y="9.375" width="18.75" height="14.4375" rx="5.625"></rect>
                                    <circle id="Oval-3" stroke="none" fill="#C9C7CE" fill-rule="evenodd" cx="9.375" cy="4.3125" r="4.3125"></circle>
                                    <path d="M6.9375,2.625 C6.9375,2.625 7.11551856,2.4375 7.30388045,2.4375 C7.49224233,2.4375 7.6875,2.625 7.6875,2.625" id="Line" stroke="#272040" stroke-width="0.75" stroke-linecap="round" fill="none"></path>
                                    <path d="M11.0625,2.625 C11.0625,2.625 11.2405186,2.4375 11.4288804,2.4375 C11.6172423,2.4375 11.8125,2.625 11.8125,2.625" id="Line-Copy" stroke="#272040" stroke-width="0.75" stroke-linecap="round" fill="none"></path>
                                    <path d="M9.375,6.75 C10.7211941,6.75 11.8125,5.65869408 11.8125,4.3125 L6.9375,4.3125 C6.9375,5.65869408 8.02880592,6.75 9.375,6.75 Z" id="Oval-5" stroke="none" fill="#272040" fill-rule="evenodd"></path>
                                </g>
                            </g>
                        </g>
                        <g id="chat-bot-copy">
                            <g id="Group">
                                <rect id="Rectangle-22" fill="#E7E7E8" x="0" y="0" width="255" height="90" rx="3"></rect>
                                <rect id="Rectangle-22-Copy" fill="#A9A6B3" x="127.5" y="11.25" width="112.5" height="15" rx="3"></rect>
                                <rect id="Rectangle-22-Copy-2" fill="#A9A6B3" x="15" y="37.5" width="225" height="15" rx="3"></rect>
                                <rect id="Rectangle-22-Copy-3" fill="#A9A6B3" x="64.5" y="63.75" width="175.5" height="15" rx="3"></rect>
                            </g>
                        </g>
                    </g>
                    <g id="chat-person" transform="translate(231.000000, 325.500000)">
                        <g id="person" transform="translate(110.250000, 12.000000)">
                            <mask id="mask-10" fill="white">
                                <use xlink:href="#path-9"></use>
                            </mask>
                            <use id="Mask" fill="#E7E7E8" xlink:href="#path-9"></use>
                            <g mask="url(#mask-10)">
                                <g transform="translate(2.625000, 6.562500)">
                                    <rect id="Path" stroke="none" fill="#D3D2D7" fill-rule="evenodd" x="7.3125" y="7.5" width="4.125" height="3.9375" rx="0.75"></rect>
                                    <rect id="Rectangle-19" stroke="none" fill="#676279" fill-rule="evenodd" x="0" y="9.375" width="18.75" height="14.4375" rx="5.625"></rect>
                                    <circle id="Oval-3" stroke="none" fill="#C9C7CE" fill-rule="evenodd" cx="9.375" cy="4.3125" r="4.3125"></circle>
                                    <path d="M6.9375,2.625 C6.9375,2.625 7.11551856,2.4375 7.30388045,2.4375 C7.49224233,2.4375 7.6875,2.625 7.6875,2.625" id="Line" stroke="#272040" stroke-width="0.75" stroke-linecap="round" fill="none"></path>
                                    <path d="M11.0625,2.625 C11.0625,2.625 11.2405186,2.4375 11.4288804,2.4375 C11.6172423,2.4375 11.8125,2.625 11.8125,2.625" id="Line-Copy" stroke="#272040" stroke-width="0.75" stroke-linecap="round" fill="none"></path>
                                    <path d="M9.375,6.75 C10.7211941,6.75 11.8125,5.65869408 11.8125,4.3125 L6.9375,4.3125 C6.9375,5.65869408 8.02880592,6.75 9.375,6.75 Z" id="Oval-5" stroke="none" fill="#272040" fill-rule="evenodd"></path>
                                </g>
                            </g>
                        </g>
                        <g id="chat-bot-copy" fill="#E7E7E8">
                            <g id="Group">
                                <rect id="Rectangle-22" x="0" y="0" width="97.5" height="37.5" rx="3"></rect>
                            </g>
                        </g>
                        <g id="Group-3" transform="translate(15.000000, 11.250000)" fill="#5C38E3">
                            <circle id="Oval-6" cx="7.5" cy="7.5" r="7.5"></circle>
                            <circle id="Oval-6-Copy" cx="33.75" cy="7.5" r="7.5"></circle>
                            <circle id="Oval-6-Copy-2" cx="60" cy="7.5" r="7.5"></circle>
                        </g>
                    </g>
                </g>
            </g>
        </g>
    </g>
</svg>