<?xml version="1.0" encoding="UTF-8" standalone="no"?>
<svg width="519px" height="518px" viewBox="0 0 519 518" version="1.1" xmlns="http://www.w3.org/2000/svg" xmlns:xlink="http://www.w3.org/1999/xlink">
    <!-- Generator: Sketch 41.1 (35376) - http://www.bohemiancoding.com/sketch -->
    <title>process-illustration-4</title>
    <desc>Created with Sketch.</desc>
    <defs>
        <circle id="path-1" cx="156.75" cy="11.25" r="11.25"></circle>
        <mask id="mask-2" maskContentUnits="userSpaceOnUse" maskUnits="objectBoundingBox" x="0" y="0" width="22.5" height="22.5" fill="white">
            <use xlink:href="#path-1"></use>
        </mask>
    </defs>
    <g id="Website-2.0" stroke="none" stroke-width="1" fill="none" fill-rule="evenodd">
        <g id="Process-Copy" transform="translate(-163.000000, -2396.000000)">
            <g id="process-illustration-4" transform="translate(120.000000, 2353.000000)">
                <g id="background">
                    <g>
                        <rect id="Rectangle-10" x="0" y="0" width="300" height="300"></rect>
                        <g id="Group" transform="translate(44.000000, 44.000000)">
                            <circle id="Oval" stroke="#5C38E3" stroke-width="2" opacity="0.1" cx="6" cy="6" r="6"></circle>
                            <circle id="Oval-Copy" stroke="#5C38E3" stroke-width="2" opacity="0.1" cx="106" cy="206" r="6"></circle>
                            <circle id="Oval-2" fill-opacity="0.1" fill="#5C38E3" cx="106" cy="106" r="3"></circle>
                            <circle id="Oval-2-Copy" fill-opacity="0.1" fill="#5C38E3" cx="206" cy="7" r="3"></circle>
                            <rect id="Rectangle-5" stroke="#1A1529" stroke-width="2" opacity="0.1" x="0" y="100" width="12" height="12"></rect>
                            <rect id="Rectangle-5-Copy-3" stroke="#1A1529" stroke-width="2" opacity="0.1" x="100" y="0" width="12" height="12"></rect>
                            <rect id="Rectangle-5-Copy" stroke="#1A1529" stroke-width="2" opacity="0.1" transform="translate(207.485281, 206.485281) rotate(45.000000) translate(-207.485281, -206.485281) " x="201.485281" y="200.485281" width="12" height="12"></rect>
                            <rect id="Rectangle-6" fill="#1A1529" opacity="0.1" x="203" y="103" width="6" height="6"></rect>
                            <rect id="Rectangle-6-Copy" fill="#1A1529" opacity="0.1" transform="translate(6.000000, 206.000000) rotate(45.000000) translate(-6.000000, -206.000000) " x="3" y="203" width="6" height="6"></rect>
                        </g>
                    </g>
                    <g id="background-copy-3" transform="translate(300.000000, 0.000000)">
                        <rect id="Rectangle-10" x="0" y="0" width="300" height="300"></rect>
                        <g id="Group" transform="translate(44.000000, 44.000000)">
                            <circle id="Oval" stroke="#5C38E3" stroke-width="2" opacity="0.1" cx="6" cy="6" r="6"></circle>
                            <circle id="Oval-Copy" stroke="#5C38E3" stroke-width="2" opacity="0.1" cx="106" cy="206" r="6"></circle>
                            <circle id="Oval-2" fill-opacity="0.1" fill="#5C38E3" cx="106" cy="106" r="3"></circle>
                            <circle id="Oval-2-Copy" fill-opacity="0.1" fill="#5C38E3" cx="206" cy="7" r="3"></circle>
                            <rect id="Rectangle-5" stroke="#1A1529" stroke-width="2" opacity="0.1" x="0" y="100" width="12" height="12"></rect>
                            <rect id="Rectangle-5-Copy-3" stroke="#1A1529" stroke-width="2" opacity="0.1" x="100" y="0" width="12" height="12"></rect>
                            <rect id="Rectangle-5-Copy" stroke="#1A1529" stroke-width="2" opacity="0.1" transform="translate(207.485281, 206.485281) rotate(45.000000) translate(-207.485281, -206.485281) " x="201.485281" y="200.485281" width="12" height="12"></rect>
                            <rect id="Rectangle-6" fill="#1A1529" opacity="0.1" x="203" y="103" width="6" height="6"></rect>
                            <rect id="Rectangle-6-Copy" fill="#1A1529" opacity="0.1" transform="translate(6.000000, 206.000000) rotate(45.000000) translate(-6.000000, -206.000000) " x="3" y="203" width="6" height="6"></rect>
                        </g>
                    </g>
                    <g id="background-copy" transform="translate(0.000000, 300.000000)">
                        <rect id="Rectangle-10" x="0" y="0" width="300" height="300"></rect>
                        <g id="Group" transform="translate(44.000000, 44.000000)">
                            <circle id="Oval" stroke="#5C38E3" stroke-width="2" opacity="0.1" cx="6" cy="6" r="6"></circle>
                            <circle id="Oval-Copy" stroke="#5C38E3" stroke-width="2" opacity="0.1" cx="106" cy="206" r="6"></circle>
                            <circle id="Oval-2" fill-opacity="0.1" fill="#5C38E3" cx="106" cy="106" r="3"></circle>
                            <circle id="Oval-2-Copy" fill-opacity="0.1" fill="#5C38E3" cx="206" cy="7" r="3"></circle>
                            <rect id="Rectangle-5" stroke="#1A1529" stroke-width="2" opacity="0.1" x="0" y="100" width="12" height="12"></rect>
                            <rect id="Rectangle-5-Copy-3" stroke="#1A1529" stroke-width="2" opacity="0.1" x="100" y="0" width="12" height="12"></rect>
                            <rect id="Rectangle-5-Copy" stroke="#1A1529" stroke-width="2" opacity="0.1" transform="translate(207.485281, 206.485281) rotate(45.000000) translate(-207.485281, -206.485281) " x="201.485281" y="200.485281" width="12" height="12"></rect>
                            <rect id="Rectangle-6" fill="#1A1529" opacity="0.1" x="203" y="103" width="6" height="6"></rect>
                            <rect id="Rectangle-6-Copy" fill="#1A1529" opacity="0.1" transform="translate(6.000000, 206.000000) rotate(45.000000) translate(-6.000000, -206.000000) " x="3" y="203" width="6" height="6"></rect>
                        </g>
                    </g>
                    <g id="background-copy-2" transform="translate(300.000000, 300.000000)">
                        <rect id="Rectangle-10" x="0" y="0" width="300" height="300"></rect>
                        <g id="Group" transform="translate(44.000000, 44.000000)">
                            <circle id="Oval" stroke="#5C38E3" stroke-width="2" opacity="0.1" cx="6" cy="6" r="6"></circle>
                            <circle id="Oval-Copy" stroke="#5C38E3" stroke-width="2" opacity="0.1" cx="106" cy="206" r="6"></circle>
                            <circle id="Oval-2" fill-opacity="0.1" fill="#5C38E3" cx="106" cy="106" r="3"></circle>
                            <circle id="Oval-2-Copy" fill-opacity="0.1" fill="#5C38E3" cx="206" cy="7" r="3"></circle>
                            <rect id="Rectangle-5" stroke="#1A1529" stroke-width="2" opacity="0.1" x="0" y="100" width="12" height="12"></rect>
                            <rect id="Rectangle-5-Copy-3" stroke="#1A1529" stroke-width="2" opacity="0.1" x="100" y="0" width="12" height="12"></rect>
                            <rect id="Rectangle-5-Copy" stroke="#1A1529" stroke-width="2" opacity="0.1" transform="translate(207.485281, 206.485281) rotate(45.000000) translate(-207.485281, -206.485281) " x="201.485281" y="200.485281" width="12" height="12"></rect>
                            <rect id="Rectangle-6" fill="#1A1529" opacity="0.1" x="203" y="103" width="6" height="6"></rect>
                            <rect id="Rectangle-6-Copy" fill="#1A1529" opacity="0.1" transform="translate(6.000000, 206.000000) rotate(45.000000) translate(-6.000000, -206.000000) " x="3" y="203" width="6" height="6"></rect>
                        </g>
                    </g>
                </g>
                <g id="illustration-growth" transform="translate(108.000000, 108.000000)">
                    <rect id="Rectangle-26" x="0" y="0" width="384" height="384"></rect>
                    <g id="Group" transform="translate(0.000000, 23.250000)">
                        <g id="hanger" transform="translate(35.250000, 0.000000)">
                            <path d="M0.375,55.125 L155.660794,11.6752037" id="Line" stroke="#3C3653" stroke-width="3" stroke-linecap="square"></path>
                            <path d="M157.5,54.6997963 L312.785794,11.25" id="Line-Copy" stroke="#3C3653" stroke-width="3" stroke-linecap="square" transform="translate(235.142897, 32.974898) scale(-1, 1) translate(-235.142897, -32.974898) "></path>
                            <use id="Oval-8" stroke="#938F9F" mask="url(#mask-2)" stroke-width="9" fill="#F0EFF1" xlink:href="#path-1"></use>
                        </g>
                        <rect id="Rectangle-23" fill="#938F9F" x="0" y="49.5" width="384" height="288" rx="3"></rect>
                        <g id="bar-graph" transform="translate(12.000000, 68.250000)">
                            <rect id="Rectangle-24" fill="#FFFFFF" x="0" y="0" width="360" height="116.25" rx="3"></rect>
                            <rect id="Rectangle-25" fill="#E7E7E8" x="0" y="91.5" width="360" height="1.5"></rect>
                            <rect id="Rectangle-25-Copy" fill="#E7E7E8" x="0" y="66.75" width="360" height="1.5"></rect>
                            <rect id="Rectangle-25-Copy-2" fill="#E7E7E8" x="0" y="42" width="360" height="1.5"></rect>
                            <rect id="Rectangle-25-Copy-3" fill="#E7E7E8" x="0" y="17.25" width="360" height="1.5"></rect>
                            <rect id="Rectangle" fill="#A9A6B3" x="19.5" y="42" width="66" height="74.25"></rect>
                            <rect id="Rectangle-Copy" fill="#7D798C" x="104.25" y="91.5" width="66" height="24.75"></rect>
                            <rect id="Rectangle-Copy-2" fill="#3C3653" x="189" y="66.75" width="66" height="49.5"></rect>
                            <rect id="Rectangle-Copy-3" fill="#5C38E3" x="273.75" y="17.25" width="66" height="99"></rect>
                        </g>
                        <g id="line-graph" transform="translate(12.000000, 203.250000)">
                            <rect id="Rectangle-24-Copy" fill="#FFFFFF" x="0" y="0" width="360" height="116.25" rx="3"></rect>
                            <path d="M287.625,85.875 L352.875,7.125" id="Line" stroke="#A9A6B3" stroke-width="3.75" stroke-linecap="square"></path>
                            <path d="M215.625,103.875 L287.625,85.875" id="Line" stroke="#A9A6B3" stroke-width="3.75" stroke-linecap="square"></path>
                            <path d="M143.625,52.875 L214.875,103.875" id="Line" stroke="#A9A6B3" stroke-width="3.75" stroke-linecap="square"></path>
                            <rect id="Rectangle-2" fill="#E7E7E8" x="70.5" y="0" width="1.5" height="116.25"></rect>
                            <rect id="Rectangle-2-Copy" fill="#E7E7E8" x="142.5" y="0" width="1.5" height="116.25"></rect>
                            <rect id="Rectangle-2-Copy-2" fill="#E7E7E8" x="214.5" y="0" width="1.5" height="116.25"></rect>
                            <rect id="Rectangle-2-Copy-3" fill="#E7E7E8" x="286.5" y="0" width="1.5" height="116.25"></rect>
                            <path d="M4.875,110.625 L70.875,90.375" id="Line" stroke="#A9A6B3" stroke-width="3.75" stroke-linecap="square"></path>
                            <path d="M71.625,90.375 L143.625,53.625" id="Line" stroke="#A9A6B3" stroke-width="3.75" stroke-linecap="square"></path>
                            <circle id="Oval-7" fill="#3C3653" cx="287.625" cy="85.125" r="5.625"></circle>
                            <circle id="Oval-7" fill="#5C38E3" cx="7.125" cy="109.125" r="5.625"></circle>
                            <circle id="Oval-7" fill="#3C3653" cx="71.625" cy="90.375" r="5.625"></circle>
                            <circle id="Oval-7" fill="#3C3653" cx="143.625" cy="52.875" r="5.625"></circle>
                            <circle id="Oval-7" fill="#3C3653" cx="215.625" cy="103.875" r="5.625"></circle>
                            <circle id="Oval-7" fill="#5C38E3" cx="353.625" cy="6.375" r="5.625"></circle>
                        </g>
                    </g>
                </g>
            </g>
        </g>
    </g>
</svg>