<?xml version="1.0" encoding="UTF-8" standalone="no"?>
<svg width="519px" height="518px" viewBox="0 0 519 518" version="1.1" xmlns="http://www.w3.org/2000/svg" xmlns:xlink="http://www.w3.org/1999/xlink">
    <!-- Generator: Sketch 41.1 (35376) - http://www.bohemiancoding.com/sketch -->
    <title>process-illustration-1</title>
    <desc>Created with Sketch.</desc>
    <defs></defs>
    <g id="Website-2.0" stroke="none" stroke-width="1" fill="none" fill-rule="evenodd">
        <g id="Process-Copy" transform="translate(-821.000000, -355.000000)">
            <g id="process-1" transform="translate(50.000000, 312.000000)">
                <g id="process-illustration-1" transform="translate(728.000000, 0.000000)">
                    <g id="illustration-background">
                        <g id="Group-4">
                            <g id="background">
                                <rect id="Rectangle-10" x="0" y="0" width="300" height="300"></rect>
                                <g id="Group" transform="translate(44.000000, 44.000000)">
                                    <circle id="Oval" stroke="#5C38E3" stroke-width="2" opacity="0.1" cx="6" cy="6" r="6"></circle>
                                    <circle id="Oval-Copy" stroke="#5C38E3" stroke-width="2" opacity="0.1" cx="106" cy="206" r="6"></circle>
                                    <circle id="Oval-2" fill-opacity="0.1" fill="#5C38E3" cx="106" cy="106" r="3"></circle>
                                    <circle id="Oval-2-Copy" fill-opacity="0.1" fill="#5C38E3" cx="206" cy="7" r="3"></circle>
                                    <rect id="Rectangle-5" stroke="#1A1529" stroke-width="2" opacity="0.1" x="0" y="100" width="12" height="12"></rect>
                                    <rect id="Rectangle-5-Copy-3" stroke="#1A1529" stroke-width="2" opacity="0.1" x="100" y="0" width="12" height="12"></rect>
                                    <rect id="Rectangle-5-Copy" stroke="#1A1529" stroke-width="2" opacity="0.1" transform="translate(207.485281, 206.485281) rotate(45.000000) translate(-207.485281, -206.485281) " x="201.485281" y="200.485281" width="12" height="12"></rect>
                                    <rect id="Rectangle-6" fill="#1A1529" opacity="0.1" x="203" y="103" width="6" height="6"></rect>
                                    <rect id="Rectangle-6-Copy" fill="#1A1529" opacity="0.1" transform="translate(6.000000, 206.000000) rotate(45.000000) translate(-6.000000, -206.000000) " x="3" y="203" width="6" height="6"></rect>
                                </g>
                            </g>
                            <g id="background-copy-5" transform="translate(0.000000, 300.000000)">
                                <rect id="Rectangle-10" x="0" y="0" width="300" height="300"></rect>
                                <g id="Group" transform="translate(44.000000, 44.000000)">
                                    <circle id="Oval" stroke="#5C38E3" stroke-width="2" opacity="0.1" cx="6" cy="6" r="6"></circle>
                                    <circle id="Oval-Copy" stroke="#5C38E3" stroke-width="2" opacity="0.1" cx="106" cy="206" r="6"></circle>
                                    <circle id="Oval-2" fill-opacity="0.1" fill="#5C38E3" cx="106" cy="106" r="3"></circle>
                                    <circle id="Oval-2-Copy" fill-opacity="0.1" fill="#5C38E3" cx="206" cy="7" r="3"></circle>
                                    <rect id="Rectangle-5" stroke="#1A1529" stroke-width="2" opacity="0.1" x="0" y="100" width="12" height="12"></rect>
                                    <rect id="Rectangle-5-Copy-3" stroke="#1A1529" stroke-width="2" opacity="0.1" x="100" y="0" width="12" height="12"></rect>
                                    <rect id="Rectangle-5-Copy" stroke="#1A1529" stroke-width="2" opacity="0.1" transform="translate(207.485281, 206.485281) rotate(45.000000) translate(-207.485281, -206.485281) " x="201.485281" y="200.485281" width="12" height="12"></rect>
                                    <rect id="Rectangle-6" fill="#1A1529" opacity="0.1" x="203" y="103" width="6" height="6"></rect>
                                    <rect id="Rectangle-6-Copy" fill="#1A1529" opacity="0.1" transform="translate(6.000000, 206.000000) rotate(45.000000) translate(-6.000000, -206.000000) " x="3" y="203" width="6" height="6"></rect>
                                </g>
                            </g>
                        </g>
                        <g id="Group-4-Copy" transform="translate(300.000000, 0.000000)">
                            <g id="background">
                                <rect id="Rectangle-10" x="0" y="0" width="300" height="300"></rect>
                                <g id="Group" transform="translate(44.000000, 44.000000)">
                                    <circle id="Oval" stroke="#5C38E3" stroke-width="2" opacity="0.1" cx="6" cy="6" r="6"></circle>
                                    <circle id="Oval-Copy" stroke="#5C38E3" stroke-width="2" opacity="0.1" cx="106" cy="206" r="6"></circle>
                                    <circle id="Oval-2" fill-opacity="0.1" fill="#5C38E3" cx="106" cy="106" r="3"></circle>
                                    <circle id="Oval-2-Copy" fill-opacity="0.1" fill="#5C38E3" cx="206" cy="7" r="3"></circle>
                                    <rect id="Rectangle-5" stroke="#1A1529" stroke-width="2" opacity="0.1" x="0" y="100" width="12" height="12"></rect>
                                    <rect id="Rectangle-5-Copy-3" stroke="#1A1529" stroke-width="2" opacity="0.1" x="100" y="0" width="12" height="12"></rect>
                                    <rect id="Rectangle-5-Copy" stroke="#1A1529" stroke-width="2" opacity="0.1" transform="translate(207.485281, 206.485281) rotate(45.000000) translate(-207.485281, -206.485281) " x="201.485281" y="200.485281" width="12" height="12"></rect>
                                    <rect id="Rectangle-6" fill="#1A1529" opacity="0.1" x="203" y="103" width="6" height="6"></rect>
                                    <rect id="Rectangle-6-Copy" fill="#1A1529" opacity="0.1" transform="translate(6.000000, 206.000000) rotate(45.000000) translate(-6.000000, -206.000000) " x="3" y="203" width="6" height="6"></rect>
                                </g>
                            </g>
                            <g id="background-copy-5" transform="translate(0.000000, 300.000000)">
                                <rect id="Rectangle-10" x="0" y="0" width="300" height="300"></rect>
                                <g id="Group" transform="translate(44.000000, 44.000000)">
                                    <circle id="Oval" stroke="#5C38E3" stroke-width="2" opacity="0.1" cx="6" cy="6" r="6"></circle>
                                    <circle id="Oval-Copy" stroke="#5C38E3" stroke-width="2" opacity="0.1" cx="106" cy="206" r="6"></circle>
                                    <circle id="Oval-2" fill-opacity="0.1" fill="#5C38E3" cx="106" cy="106" r="3"></circle>
                                    <circle id="Oval-2-Copy" fill-opacity="0.1" fill="#5C38E3" cx="206" cy="7" r="3"></circle>
                                    <rect id="Rectangle-5" stroke="#1A1529" stroke-width="2" opacity="0.1" x="0" y="100" width="12" height="12"></rect>
                                    <rect id="Rectangle-5-Copy-3" stroke="#1A1529" stroke-width="2" opacity="0.1" x="100" y="0" width="12" height="12"></rect>
                                    <rect id="Rectangle-5-Copy" stroke="#1A1529" stroke-width="2" opacity="0.1" transform="translate(207.485281, 206.485281) rotate(45.000000) translate(-207.485281, -206.485281) " x="201.485281" y="200.485281" width="12" height="12"></rect>
                                    <rect id="Rectangle-6" fill="#1A1529" opacity="0.1" x="203" y="103" width="6" height="6"></rect>
                                    <rect id="Rectangle-6-Copy" fill="#1A1529" opacity="0.1" transform="translate(6.000000, 206.000000) rotate(45.000000) translate(-6.000000, -206.000000) " x="3" y="203" width="6" height="6"></rect>
                                </g>
                            </g>
                        </g>
                    </g>
                    <g transform="translate(108.000000, 108.000000)">
                        <rect id="Rectangle-10" x="0" y="0" width="384" height="384"></rect>
                        <g id="illustration" transform="translate(0.000000, 24.000000)">
                            <rect id="Rectangle-9" fill="#7D798C" transform="translate(162.884762, 294.528029) rotate(35.000000) translate(-162.884762, -294.528029) " x="155.384762" y="248.778029" width="15" height="91.5" rx="7.5"></rect>
                            <rect id="Rectangle-9-Copy" fill="#7D798C" transform="translate(222.134762, 294.528029) scale(-1, 1) rotate(35.000000) translate(-222.134762, -294.528029) " x="214.634762" y="248.778029" width="15" height="91.5" rx="7.5"></rect>
                            <path d="M180.849091,12.75 L3.75417762,12.75 C1.67006072,12.75 0,14.4271803 0,16.4960871 L0,20.2539129 C0,22.3157613 1.68080257,24 3.75417762,24 L380.245822,24 C382.329939,24 384,22.3228197 384,20.2539129 L384,16.4960871 C384,14.4342387 382.319197,12.75 380.245822,12.75 L203.150897,12.75 C203.216261,12.2592939 203.25,11.7585882 203.25,11.25 C203.25,5.03543045 198.213203,0 192,0 C185.78543,0 180.75,5.03679656 180.75,11.25 C180.75,11.7586023 180.783736,12.2593069 180.849091,12.75 Z" id="Combined-Shape" fill="#7D798C"></path>
                            <g id="Group" transform="translate(12.000000, 24.000000)">
                                <rect id="Rectangle-4" fill="#FFFFFF" x="0" y="0" width="360" height="240"></rect>
                                <rect id="Combined-Shape-Copy" fill="#3C3653" x="0" y="0" width="360" height="7.5"></rect>
                                <rect id="Combined-Shape-Copy-2" fill="#3C3653" x="0" y="232.5" width="360" height="7.5"></rect>
                            </g>
                            <g id="pie-chart" transform="translate(30.750000, 63.750000)">
                                <circle id="Oval" fill="#3C3653" cx="75" cy="84.75" r="75"></circle>
                                <path d="M75,7.5 C75,7.5 108.987305,8.80664062 130.584961,34.4941406 C152.182617,60.1816406 150,82.5 150,82.5 L75,82.5 L75,7.5 Z" id="Rectangle-Copy" fill="#FFFFFF"></path>
                                <path d="M82.5,0 C82.5,0 116.487305,1.30664062 138.084961,26.9941406 C159.682617,52.6816406 157.5,75 157.5,75 L82.5,75 L82.5,0 Z" id="Rectangle" fill="#5C38E3"></path>
                            </g>
                            <rect id="Rectangle-8" fill="#3C3653" x="210.75" y="74.25" width="142.5" height="15" rx="3"></rect>
                            <rect id="Rectangle-8-Copy" fill="#3C3653" x="210.75" y="115.5" width="93" height="15" rx="3"></rect>
                            <rect id="Rectangle-8-Copy-2" fill="#3C3653" x="210.75" y="156.75" width="142.5" height="15" rx="3"></rect>
                            <rect id="Rectangle-8-Copy-3" fill="#3C3653" x="210.75" y="198" width="125.25" height="15" rx="3"></rect>
                        </g>
                    </g>
                </g>
            </g>
        </g>
    </g>
</svg>