<?xml version="1.0" encoding="UTF-8" standalone="no"?>
<svg width="519px" height="518px" viewBox="0 0 519 518" version="1.1" xmlns="http://www.w3.org/2000/svg" xmlns:xlink="http://www.w3.org/1999/xlink">
    <!-- Generator: Sketch 41.1 (35376) - http://www.bohemiancoding.com/sketch -->
    <title>process-illustration-2</title>
    <desc>Created with Sketch.</desc>
    <defs>
        <rect id="path-1" x="0.0200339425" y="0.517476258" width="55.6930693" height="55.6930693" rx="2.22772277"></rect>
        <mask id="mask-2" maskContentUnits="userSpaceOnUse" maskUnits="objectBoundingBox" x="0" y="0" width="55.6930693" height="55.6930693" fill="white">
            <use xlink:href="#path-1"></use>
        </mask>
        <rect id="path-3" x="0.0200339425" y="0.517476258" width="55.6930693" height="55.6930693" rx="2.22772277"></rect>
        <mask id="mask-4" maskContentUnits="userSpaceOnUse" maskUnits="objectBoundingBox" x="0" y="0" width="55.6930693" height="55.6930693" fill="white">
            <use xlink:href="#path-3"></use>
        </mask>
        <rect id="path-5" x="52.5200339" y="259.267476" width="55.6930693" height="55.6930693" rx="2.22772277"></rect>
        <mask id="mask-6" maskContentUnits="userSpaceOnUse" maskUnits="objectBoundingBox" x="0" y="0" width="55.6930693" height="55.6930693" fill="white">
            <use xlink:href="#path-5"></use>
        </mask>
    </defs>
    <g id="Website-2.0" stroke="none" stroke-width="1" fill="none" fill-rule="evenodd">
        <g id="Process-Copy" transform="translate(-123.000000, -1036.000000)">
            <g id="process-2" transform="translate(80.000000, 993.000000)">
                <g id="process-illustration-2">
                    <rect id="Rectangle-18" x="108" y="108" width="384" height="384"></rect>
                    <g id="background">
                        <g>
                            <rect id="Rectangle-10" x="0" y="0" width="300" height="300"></rect>
                            <g id="Group" transform="translate(44.000000, 44.000000)">
                                <circle id="Oval" stroke="#5C38E3" stroke-width="2" opacity="0.1" cx="6" cy="6" r="6"></circle>
                                <circle id="Oval-Copy" stroke="#5C38E3" stroke-width="2" opacity="0.1" cx="106" cy="206" r="6"></circle>
                                <circle id="Oval-2" fill-opacity="0.1" fill="#5C38E3" cx="106" cy="106" r="3"></circle>
                                <circle id="Oval-2-Copy" fill-opacity="0.1" fill="#5C38E3" cx="206" cy="7" r="3"></circle>
                                <rect id="Rectangle-5" stroke="#1A1529" stroke-width="2" opacity="0.1" x="0" y="100" width="12" height="12"></rect>
                                <rect id="Rectangle-5-Copy-3" stroke="#1A1529" stroke-width="2" opacity="0.1" x="100" y="0" width="12" height="12"></rect>
                                <rect id="Rectangle-5-Copy" stroke="#1A1529" stroke-width="2" opacity="0.1" transform="translate(207.485281, 206.485281) rotate(45.000000) translate(-207.485281, -206.485281) " x="201.485281" y="200.485281" width="12" height="12"></rect>
                                <rect id="Rectangle-6" fill="#1A1529" opacity="0.1" x="203" y="103" width="6" height="6"></rect>
                                <rect id="Rectangle-6-Copy" fill="#1A1529" opacity="0.1" transform="translate(6.000000, 206.000000) rotate(45.000000) translate(-6.000000, -206.000000) " x="3" y="203" width="6" height="6"></rect>
                            </g>
                        </g>
                        <g id="background-copy-3" transform="translate(300.000000, 0.000000)">
                            <rect id="Rectangle-10" x="0" y="0" width="300" height="300"></rect>
                            <g id="Group" transform="translate(44.000000, 44.000000)">
                                <circle id="Oval" stroke="#5C38E3" stroke-width="2" opacity="0.1" cx="6" cy="6" r="6"></circle>
                                <circle id="Oval-Copy" stroke="#5C38E3" stroke-width="2" opacity="0.1" cx="106" cy="206" r="6"></circle>
                                <circle id="Oval-2" fill-opacity="0.1" fill="#5C38E3" cx="106" cy="106" r="3"></circle>
                                <circle id="Oval-2-Copy" fill-opacity="0.1" fill="#5C38E3" cx="206" cy="7" r="3"></circle>
                                <rect id="Rectangle-5" stroke="#1A1529" stroke-width="2" opacity="0.1" x="0" y="100" width="12" height="12"></rect>
                                <rect id="Rectangle-5-Copy-3" stroke="#1A1529" stroke-width="2" opacity="0.1" x="100" y="0" width="12" height="12"></rect>
                                <rect id="Rectangle-5-Copy" stroke="#1A1529" stroke-width="2" opacity="0.1" transform="translate(207.485281, 206.485281) rotate(45.000000) translate(-207.485281, -206.485281) " x="201.485281" y="200.485281" width="12" height="12"></rect>
                                <rect id="Rectangle-6" fill="#1A1529" opacity="0.1" x="203" y="103" width="6" height="6"></rect>
                                <rect id="Rectangle-6-Copy" fill="#1A1529" opacity="0.1" transform="translate(6.000000, 206.000000) rotate(45.000000) translate(-6.000000, -206.000000) " x="3" y="203" width="6" height="6"></rect>
                            </g>
                        </g>
                        <g id="background-copy" transform="translate(0.000000, 300.000000)">
                            <rect id="Rectangle-10" x="0" y="0" width="300" height="300"></rect>
                            <g id="Group" transform="translate(44.000000, 44.000000)">
                                <circle id="Oval" stroke="#5C38E3" stroke-width="2" opacity="0.1" cx="6" cy="6" r="6"></circle>
                                <circle id="Oval-Copy" stroke="#5C38E3" stroke-width="2" opacity="0.1" cx="106" cy="206" r="6"></circle>
                                <circle id="Oval-2" fill-opacity="0.1" fill="#5C38E3" cx="106" cy="106" r="3"></circle>
                                <circle id="Oval-2-Copy" fill-opacity="0.1" fill="#5C38E3" cx="206" cy="7" r="3"></circle>
                                <rect id="Rectangle-5" stroke="#1A1529" stroke-width="2" opacity="0.1" x="0" y="100" width="12" height="12"></rect>
                                <rect id="Rectangle-5-Copy-3" stroke="#1A1529" stroke-width="2" opacity="0.1" x="100" y="0" width="12" height="12"></rect>
                                <rect id="Rectangle-5-Copy" stroke="#1A1529" stroke-width="2" opacity="0.1" transform="translate(207.485281, 206.485281) rotate(45.000000) translate(-207.485281, -206.485281) " x="201.485281" y="200.485281" width="12" height="12"></rect>
                                <rect id="Rectangle-6" fill="#1A1529" opacity="0.1" x="203" y="103" width="6" height="6"></rect>
                                <rect id="Rectangle-6-Copy" fill="#1A1529" opacity="0.1" transform="translate(6.000000, 206.000000) rotate(45.000000) translate(-6.000000, -206.000000) " x="3" y="203" width="6" height="6"></rect>
                            </g>
                        </g>
                        <g id="background-copy-2" transform="translate(300.000000, 300.000000)">
                            <rect id="Rectangle-10" x="0" y="0" width="300" height="300"></rect>
                            <g id="Group" transform="translate(44.000000, 44.000000)">
                                <circle id="Oval" stroke="#5C38E3" stroke-width="2" opacity="0.1" cx="6" cy="6" r="6"></circle>
                                <circle id="Oval-Copy" stroke="#5C38E3" stroke-width="2" opacity="0.1" cx="106" cy="206" r="6"></circle>
                                <circle id="Oval-2" fill-opacity="0.1" fill="#5C38E3" cx="106" cy="106" r="3"></circle>
                                <circle id="Oval-2-Copy" fill-opacity="0.1" fill="#5C38E3" cx="206" cy="7" r="3"></circle>
                                <rect id="Rectangle-5" stroke="#1A1529" stroke-width="2" opacity="0.1" x="0" y="100" width="12" height="12"></rect>
                                <rect id="Rectangle-5-Copy-3" stroke="#1A1529" stroke-width="2" opacity="0.1" x="100" y="0" width="12" height="12"></rect>
                                <rect id="Rectangle-5-Copy" stroke="#1A1529" stroke-width="2" opacity="0.1" transform="translate(207.485281, 206.485281) rotate(45.000000) translate(-207.485281, -206.485281) " x="201.485281" y="200.485281" width="12" height="12"></rect>
                                <rect id="Rectangle-6" fill="#1A1529" opacity="0.1" x="203" y="103" width="6" height="6"></rect>
                                <rect id="Rectangle-6-Copy" fill="#1A1529" opacity="0.1" transform="translate(6.000000, 206.000000) rotate(45.000000) translate(-6.000000, -206.000000) " x="3" y="203" width="6" height="6"></rect>
                            </g>
                        </g>
                    </g>
                    <g id="illustration-planning" transform="translate(135.000000, 115.500000)">
                        <rect id="Rectangle-12" fill="#938F9F" x="0" y="26.25" width="330" height="342" rx="3"></rect>
                        <g id="Group-2" transform="translate(15.000000, 41.250000)"></g>
                        <rect id="Rectangle-12" fill="#FFFFFF" x="15" y="41.25" width="300" height="312" rx="3"></rect>
                        <g id="Group" transform="translate(130.500000, 86.250000)">
                            <rect id="Rectangle-8-Copy" fill="#BFBDC5" x="0" y="0" width="35.25" height="15" rx="3"></rect>
                            <rect id="Rectangle-8" fill="#3C3653" x="0" y="26.25" width="116.25" height="15" rx="3"></rect>
                        </g>
                        <g id="Group-Copy" transform="translate(130.500000, 174.000000)">
                            <rect id="Rectangle-8-Copy" fill="#BFBDC5" x="0" y="0" width="56.25" height="15" rx="3"></rect>
                            <rect id="Rectangle-8" fill="#3C3653" x="0" y="26.25" width="165.75" height="15" rx="3"></rect>
                        </g>
                        <g id="Group-Copy-2" transform="translate(130.500000, 258.750000)">
                            <rect id="Rectangle-8-Copy" fill="#BFBDC5" x="0" y="0" width="56.25" height="15" rx="3"></rect>
                            <rect id="Rectangle-8" fill="#3C3653" x="0" y="26.25" width="96" height="15" rx="3"></rect>
                        </g>
                        <path d="M93.75,26.25 L85.504735,26.25 C83.8524111,26.25 82.5,27.5931543 82.5,29.2500191 L82.5,53.2499809 C82.5,54.9026814 83.8452657,56.25 85.504735,56.25 L244.495265,56.25 C246.147589,56.25 247.5,54.9068457 247.5,53.2499809 L247.5,29.2500191 C247.5,27.5973186 246.154734,26.25 244.495265,26.25 L237,26.25 L237,15 C237,6.71390727 230.282924,0 221.99699,0 L165,0 C129,9.23293922e-16 108.755545,2.69706789e-16 108.755545,2.69706789e-16 C100.469615,1.41794778e-16 93.75,6.71572875 93.75,15 L93.75,26.25 Z M152.25,29.2573223 C152.25,27.596424 153.58783,26.25 155.248419,26.25 L175.501581,26.25 C177.157562,26.25 178.5,27.5908497 178.5,29.2573223 L178.5,30.7426777 C178.5,32.403576 177.16217,33.75 175.501581,33.75 L155.248419,33.75 C153.592438,33.75 152.25,32.4091503 152.25,30.7426777 L152.25,29.2573223 Z" id="Combined-Shape" fill="#676279"></path>
                        <g id="Group-3" transform="translate(52.500000, 86.250000)">
                            <path d="M21.0348208,31.2780021 L14.6547197,24.8979009 C13.7869208,24.0301021 12.3743495,24.0277753 11.5045371,24.8975876 L6.77821697,29.6239078 C5.9022416,30.4998831 5.90854486,31.9041049 6.77853027,32.7740903 L14.3802673,40.3758273 C14.4679309,40.5153102 14.5725176,40.6472373 14.6939862,40.768706 L19.4203063,45.4950261 C20.2962817,46.3710015 21.7015235,46.3636782 22.5727671,45.4924346 L48.9534251,19.1117766 C49.8299827,18.235219 49.8258289,16.8291282 48.9560166,15.9593159 L44.2296964,11.2329957 C43.3537211,10.3570204 41.9484793,10.3643436 41.0772357,11.2355872 L21.0348208,31.2780021 Z" id="Combined-Shape" fill="#5C38E3"></path>
                            <use id="Rectangle-17" stroke="#3C3653" mask="url(#mask-2)" stroke-width="11.1386139" xlink:href="#path-1"></use>
                        </g>
                        <g id="Group-3-Copy" transform="translate(52.500000, 172.500000)">
                            <path d="M21.0348208,31.2780021 L14.6547197,24.8979009 C13.7869208,24.0301021 12.3743495,24.0277753 11.5045371,24.8975876 L6.77821697,29.6239078 C5.9022416,30.4998831 5.90854486,31.9041049 6.77853027,32.7740903 L14.3802673,40.3758273 C14.4679309,40.5153102 14.5725176,40.6472373 14.6939862,40.768706 L19.4203063,45.4950261 C20.2962817,46.3710015 21.7015235,46.3636782 22.5727671,45.4924346 L48.9534251,19.1117766 C49.8299827,18.235219 49.8258289,16.8291282 48.9560166,15.9593159 L44.2296964,11.2329957 C43.3537211,10.3570204 41.9484793,10.3643436 41.0772357,11.2355872 L21.0348208,31.2780021 Z" id="Combined-Shape" fill="#5C38E3"></path>
                            <use id="Rectangle-17" stroke="#3C3653" mask="url(#mask-4)" stroke-width="11.1386139" xlink:href="#path-3"></use>
                        </g>
                        <use id="Rectangle-17" stroke="#3C3653" mask="url(#mask-6)" stroke-width="11.1386139" xlink:href="#path-5"></use>
                    </g>
                </g>
            </g>
        </g>
    </g>
</svg>